<svg version="1" id="Layer_1" xmlns="http://www.w3.org/2000/svg" viewBox="0 0 500 47"><style/><g fill-rule="evenodd" clip-rule="evenodd"><path d="M15.1 34.1h29.1l7.3 11c1.3 2 4 2.5 6 1.2s2.5-4 1.2-6L33.1 1.9c-.9-1.3-2.3-2-3.9-1.9-1.5.1-2.9 1-3.6 2.4-.7 1.4-.6 3 .3 4.3l12.5 18.7H12.8c-1.5 0-2.8.7-3.6 2L.7 40.3c-.8 1.3-.9 2.9-.3 4.3.8 1.4 2.1 2.3 3.7 2.4 1.5.1 3-.7 3.9-1.9l7.1-11zm104.2 8.6V4.4c0-1.8-1.1-3.4-2.7-4.1-1.7-.7-3.6-.3-4.8 1l-22 22.3-23-22.5C65.7 0 64-.3 62.6.3c-1.4.6-2.3 2-2.3 3.5v38.8c0 2.4 1.9 4.3 4.3 4.3s4.3-1.9 4.3-4.3V15.3L88 34c1 1 2.7 1 3.7 0l18.9-19.2v27.9c0 2.4 1.9 4.3 4.3 4.3 2.5 0 4.4-1.9 4.4-4.3zm61.9-7.5c.2-2.4-1.5-4.5-3.9-4.7-2.4-.2-4.5 1.5-4.7 3.9-.2 2.2-2.1 3.9-4.3 3.9h-33.6c-1.1 0-2.2-.5-3.1-1.3-.8-.8-1.3-1.9-1.3-3.1V13c0-1.1.5-2.3 1.3-3.1.8-.8 1.9-1.3 3.1-1.3h33.6c2.2 0 4.1 1.7 4.3 3.9.2 2.4 2.3 4.1 4.7 3.9 2.4-.2 4.1-2.3 3.9-4.7C180.6 5.1 175 0 168.3 0h-33.6c-3.4 0-6.7 1.4-9.2 3.8-2.4 2.4-3.8 5.7-3.8 9.2v21c0 3.4 1.4 6.8 3.8 9.2 2.4 2.4 5.7 3.8 9.2 3.8h33.6c6.7 0 12.3-5.1 12.9-11.8z" fill="#fff"/><path d="M227.9 47c6.7 0 12.6-4.4 14.5-10.8 1.9-6.4-.6-13.3-6.2-17 2.3-3.9 2.4-8.8.1-12.8-2.2-4-6.4-6.4-11-6.4h-37c-1.5 0-3 .8-3.7 2.2-.8 1.3-.8 3 0 4.3.8 1.3 2.2 2.2 3.7 2.2h37c2.2 0 4 1.8 4 4s-1.8 4-4 4h-37c-1.1 0-2.2.5-3.1 1.3-.8.8-1.3 1.9-1.3 3.1v21.6c0 1.1.5 2.3 1.3 3.1.8.8 1.9 1.3 3.1 1.3h39.6V47zm0-8.7c3.6 0 6.5-2.9 6.5-6.5s-2.9-6.5-6.5-6.5h-35.3v13h35.3zm74.7 4.4v-9.2c0-4.1-1.9-7.9-5.1-10.3 3.2-4.4 3.7-10.3 1.2-15.2-2.5-4.9-7.5-7.9-12.9-7.9h-37.9c-1.5 0-3 .8-3.7 2.2-.8 1.3-.8 3 0 4.3.8 1.3 2.2 2.2 3.7 2.2h37.9c3.2 0 5.9 2.6 5.9 5.9 0 3.3-2.6 5.9-5.9 5.9h-37.9c-1.1 0-2.2.5-3.1 1.3-.8.8-1.3 1.9-1.3 3.1v17.9c0 2.4 1.9 4.3 4.3 4.3s4.3-1.9 4.3-4.3V29.1h37.4c1.1 0 2.2.5 3.1 1.3.8.8 1.3 1.9 1.3 3.1v9.2c0 2.4 1.9 4.3 4.3 4.3 2.5 0 4.4-1.9 4.4-4.3zm11.7 0V4.3c0-1.5-.8-3-2.2-3.8-1.3-.8-3-.8-4.3 0-1.3.8-2.2 2.2-2.2 3.8v38.3c0 2.4 1.9 4.3 4.3 4.3 2.5.1 4.4-1.8 4.4-4.2zm7.9 4.3h40.2c8 0 14.5-6.5 14.5-14.6V14.6c0-3.9-1.5-7.6-4.3-10.3-2.7-2.7-6.4-4.3-10.3-4.3h-40.2c-1.1 0-2.2.5-3.1 1.3-.8.8-1.3 1.9-1.3 3.1v38.3c0 1.1.5 2.3 1.3 3.1.9.7 2 1.2 3.2 1.2zm4.3-8.7V8.7h35.9c1.6 0 3.1.6 4.2 1.7s1.7 2.6 1.7 4.2v17.9c0 3.3-2.6 5.9-5.9 5.9h-35.9v-.1zM495.7 47h-50.4c-1.1 0-2.2-.5-3.1-1.3-.8-.8-1.3-1.9-1.3-3.1V22.2c0-1.1.5-2.3 1.3-3.1.8-.8 1.9-1.3 3.1-1.3h45.3c2.4 0 4.3 1.9 4.3 4.3s-1.9 4.3-4.3 4.3h-41v11.8h46.1c2.4 0 4.3 1.9 4.3 4.3 0 2.6-1.9 4.5-4.3 4.5zm0-38.3h-50.4c-1.5 0-3-.8-3.7-2.2-.8-1.3-.8-3 0-4.3.8-1.3 2.2-2.2 3.7-2.2h50.4c2.4 0 4.3 1.9 4.3 4.3s-1.9 4.4-4.3 4.4zM426.4 47c6.2 0 11.3-5.1 11.3-11.3V24.8c0-1.1-.5-2.3-1.3-3.1-.8-.8-1.9-1.3-3.1-1.3h-33.1c-1.5 0-3 .8-3.7 2.2-.8 1.3-.8 3 0 4.3.8 1.3 2.2 2.2 3.7 2.2H429v6.6c0 1.5-1.2 2.7-2.7 2.7h-34.8c-1.1 0-2.2-.5-3.1-1.3-.8-.8-1.3-1.9-1.3-3.1V13c0-1.1.5-2.3 1.3-3.1.8-.8 1.9-1.3 3.1-1.3h33.1c2.2 0 4.1 1.7 4.3 3.9.2 2.4 2.3 4.1 4.7 3.9 2.4-.2 4.1-2.3 3.9-4.7-.4-6.6-6-11.7-12.8-11.7h-33.1c-3.4 0-6.7 1.4-9.2 3.8-2.4 2.4-3.8 5.7-3.8 9.2v21c0 3.4 1.4 6.8 3.8 9.2s5.7 3.8 9.2 3.8h34.8z" fill="#009ad9"/></g></svg>