<svg xmlns="http://www.w3.org/2000/svg" width="210" height="36"><g fill-rule="evenodd" clip-rule="evenodd"><path fill="#828282" d="M12.923 15.634h11.401l2.866 4.311c.52.782 1.572.992 2.35.469a1.71 1.71 0 0 0 .467-2.363L19.987 2.979a1.691 1.691 0 0 0-2.929.193 1.712 1.712 0 0 0 .111 1.7l4.89 7.356H12.01c-.57 0-1.102.289-1.416.768l-3.315 5.067a1.711 1.711 0 0 0-.099 1.7c.271.544.811.901 1.416.937a1.692 1.692 0 0 0 1.514-.765l2.813-4.301zm40.856 3.365V3.968c0-.708-.426-1.347-1.078-1.616a1.731 1.731 0 0 0-1.896.389l-8.601 8.767-9.022-8.857a1.498 1.498 0 0 0-1.633-.311 1.51 1.51 0 0 0-.919 1.392v15.267c0 .941.758 1.704 1.694 1.704.936 0 1.694-.763 1.694-1.704V8.234l7.49 7.354c.41.402 1.066.396 1.468-.014l7.414-7.558v10.983c0 .941.758 1.704 1.694 1.704a1.7 1.7 0 0 0 1.695-1.704zm24.268-2.956a1.7 1.7 0 0 0-1.538-1.847 1.696 1.696 0 0 0-1.837 1.546 1.698 1.698 0 0 1-1.688 1.553H59.802c-.449 0-.88-.18-1.198-.499s-.496-.753-.496-1.205v-8.26c0-.452.178-.885.496-1.204.318-.32.749-.499 1.198-.499h13.182c.878 0 1.61.674 1.688 1.553a1.696 1.696 0 0 0 1.837 1.546 1.701 1.701 0 0 0 1.538-1.847c-.232-2.637-2.429-4.659-5.062-4.659H59.802a5.07 5.07 0 0 0-3.594 1.497 5.123 5.123 0 0 0-1.488 3.613v8.26c0 1.355.535 2.655 1.488 3.613a5.07 5.07 0 0 0 3.594 1.497h13.182c2.634.001 4.83-2.021 5.063-4.658z"/><path fill="#009AD9" d="M96.356 20.702c2.621 0 4.93-1.73 5.68-4.255s-.239-5.245-2.431-6.689c.913-1.54.933-3.455.052-5.014s-2.527-2.522-4.31-2.522H80.825c-.605 0-1.165.325-1.467.852a1.71 1.71 0 0 0 0 1.704c.303.527.862.852 1.467.852h14.522c.866 0 1.569.706 1.569 1.578 0 .871-.703 1.577-1.569 1.577H80.825c-.449 0-.88.18-1.198.499a1.71 1.71 0 0 0-.496 1.205v8.512c0 .452.179.885.496 1.205.318.319.749.499 1.198.499h15.531v-.003zm0-3.407c1.402 0 2.539-1.143 2.539-2.553s-1.137-2.553-2.539-2.553H82.519v5.105h13.837v.001zm29.274 1.704v-3.626a5.12 5.12 0 0 0-1.999-4.062 5.75 5.75 0 0 0 .468-5.963 5.69 5.69 0 0 0-5.072-3.126h-14.851c-.605 0-1.165.325-1.467.852a1.71 1.71 0 0 0 0 1.704c.303.527.862.852 1.467.852h14.851a2.311 2.311 0 0 1 2.304 2.317 2.31 2.31 0 0 1-2.304 2.317h-14.851c-.45 0-.88.179-1.198.499a1.709 1.709 0 0 0-.496 1.204V19c0 .941.759 1.704 1.694 1.704s1.694-.763 1.694-1.704v-5.329h14.678c.45 0 .88.179 1.198.499.317.32.496.753.496 1.205v3.626c0 .941.758 1.704 1.694 1.704a1.703 1.703 0 0 0 1.694-1.706zm4.574 0V3.925c0-.609-.323-1.171-.847-1.476a1.687 1.687 0 0 0-1.694 0 1.707 1.707 0 0 0-.847 1.476v15.073c0 .941.758 1.704 1.694 1.704.936 0 1.694-.763 1.694-1.703zm3.08 1.703h15.761c3.144 0 5.693-2.563 5.693-5.724V7.945a5.74 5.74 0 0 0-1.667-4.047 5.678 5.678 0 0 0-4.025-1.676h-15.761c-.449 0-.88.18-1.198.499a1.706 1.706 0 0 0-.497 1.205v15.073c0 .452.179.885.497 1.205.317.318.748.498 1.197.498zm1.694-3.407V5.628h14.067c.611 0 1.198.244 1.63.679s.675 1.024.675 1.638v7.033a2.31 2.31 0 0 1-2.305 2.317h-14.067zm66.328 3.407h-19.771c-.449 0-.88-.18-1.198-.499a1.708 1.708 0 0 1-.497-1.205v-8.052c0-.452.179-.885.497-1.205a1.69 1.69 0 0 1 1.198-.499h17.77c.936 0 1.694.763 1.694 1.704 0 .94-.758 1.703-1.694 1.703h-16.076v4.646h18.077c.936 0 1.694.763 1.694 1.703 0 .941-.758 1.704-1.694 1.704zm0-15.074h-19.771a1.692 1.692 0 0 1-1.467-.852 1.71 1.71 0 0 1 0-1.704 1.693 1.693 0 0 1 1.467-.852h19.771c.936 0 1.694.763 1.694 1.704 0 .942-.758 1.704-1.694 1.704zM174.15 20.702c2.446 0 4.429-1.994 4.429-4.453v-4.283c0-.452-.179-.885-.496-1.204a1.688 1.688 0 0 0-1.198-.499h-12.984c-.605 0-1.164.325-1.467.852s-.303 1.176 0 1.703c.303.527.862.852 1.467.852h11.29v2.58c0 .578-.466 1.046-1.041 1.046h-13.638c-.449 0-.88-.18-1.198-.499s-.496-.753-.496-1.205v-8.26c0-.452.178-.885.496-1.204.318-.32.749-.499 1.198-.499h12.984c.878 0 1.61.674 1.688 1.553a1.696 1.696 0 0 0 1.837 1.546 1.7 1.7 0 0 0 1.538-1.847c-.232-2.637-2.43-4.659-5.062-4.659h-12.984a5.07 5.07 0 0 0-3.594 1.497 5.123 5.123 0 0 0-1.488 3.613v8.26c0 1.355.535 2.655 1.488 3.613a5.07 5.07 0 0 0 3.594 1.497h13.637z"/></g><path d="M11.467 31.338H7.884V24.91h3.583v.664H8.631v2.071h2.664v.66H8.631v2.365h2.836v.668zm4.612 0v-3.117c0-.393-.089-.686-.268-.879s-.459-.29-.84-.29c-.504 0-.874.136-1.108.409s-.352.723-.352 1.35v2.528h-.73V26.52h.593l.119.66h.035c.149-.237.359-.421.628-.552s.57-.196.901-.196c.581 0 1.017.14 1.31.42.293.28.44.728.44 1.343v3.144h-.728zm6.173-4.818v.462l-.893.105a1.566 1.566 0 0 1 .317.963c0 .472-.161.849-.483 1.13-.323.281-.765.422-1.328.422-.144 0-.278-.012-.404-.035-.311.164-.466.371-.466.62 0 .132.054.229.163.292.108.063.294.094.558.094h.853c.522 0 .922.11 1.203.33.28.22.42.539.42.958 0 .533-.214.94-.642 1.22s-1.052.42-1.873.42c-.63 0-1.116-.117-1.458-.352s-.512-.566-.512-.994c0-.293.094-.547.281-.761.188-.214.452-.359.792-.435a.765.765 0 0 1-.31-.26.688.688 0 0 1-.125-.409c0-.176.047-.33.141-.462a1.48 1.48 0 0 1 .444-.382 1.306 1.306 0 0 1-.609-.523 1.538 1.538 0 0 1-.235-.844c0-.528.158-.935.475-1.22s.765-.429 1.345-.429c.252 0 .479.029.682.088h1.664zm-3.842 5.627c0 .261.11.458.33.593s.535.203.945.203c.613 0 1.066-.092 1.361-.275s.442-.432.442-.745c0-.261-.081-.442-.242-.543-.161-.102-.465-.152-.91-.152h-.876c-.331 0-.589.079-.774.237s-.276.386-.276.682zm.395-4.084c0 .337.095.592.286.765.19.173.456.26.795.26.712 0 1.068-.346 1.068-1.038 0-.724-.36-1.086-1.082-1.086-.343 0-.606.092-.791.277-.184.184-.276.458-.276.822zm4.375-2.849c0-.167.041-.29.123-.367s.185-.117.308-.117a.43.43 0 0 1 .303.119c.085.079.128.201.128.365s-.042.286-.128.367a.424.424 0 0 1-.303.121c-.123 0-.226-.04-.308-.121s-.123-.203-.123-.367zm.792 6.124h-.73V26.52h.73v4.818zm4.844 0v-3.117c0-.393-.089-.686-.268-.879s-.459-.29-.84-.29c-.504 0-.874.136-1.108.409s-.352.723-.352 1.35v2.528h-.73V26.52h.593l.119.66h.035c.149-.237.359-.421.628-.552s.57-.196.901-.196c.581 0 1.017.14 1.31.42.293.28.44.728.44 1.343v3.144h-.728zm4.266.088c-.712 0-1.274-.217-1.686-.651-.412-.434-.618-1.036-.618-1.807 0-.777.191-1.394.574-1.851.382-.458.896-.686 1.541-.686.604 0 1.082.199 1.433.596.352.397.528.921.528 1.572v.462h-3.32c.015.565.158.995.429 1.288s.653.439 1.146.439c.519 0 1.032-.108 1.539-.325v.651a3.943 3.943 0 0 1-.732.24 4.162 4.162 0 0 1-.834.072zm-.198-4.383c-.387 0-.696.126-.926.378s-.366.601-.407 1.046h2.52c0-.46-.103-.812-.308-1.058-.205-.244-.498-.366-.879-.366zm5.249 4.383c-.712 0-1.274-.217-1.686-.651-.412-.434-.618-1.036-.618-1.807 0-.777.191-1.394.574-1.851.382-.458.896-.686 1.541-.686.604 0 1.082.199 1.433.596.352.397.528.921.528 1.572v.462h-3.32c.015.565.158.995.429 1.288s.653.439 1.146.439c.519 0 1.032-.108 1.539-.325v.651a3.943 3.943 0 0 1-.732.24 4.162 4.162 0 0 1-.834.072zm-.197-4.383c-.387 0-.696.126-.926.378s-.366.601-.407 1.046h2.52c0-.46-.103-.812-.308-1.058-.206-.244-.499-.366-.879-.366zm5.412-.611c.214 0 .406.018.576.053l-.101.677a2.489 2.489 0 0 0-.528-.066c-.39 0-.723.158-1 .475-.277.316-.415.711-.415 1.183v2.585h-.73V26.52h.602l.083.893h.036c.179-.313.394-.556.646-.726s.529-.255.831-.255zm1.416-1.218c0-.167.041-.29.123-.367s.185-.117.308-.117a.43.43 0 0 1 .303.119c.085.079.128.201.128.365s-.042.287-.128.367a.424.424 0 0 1-.303.121c-.123 0-.226-.04-.308-.121s-.123-.203-.123-.367zm.791 6.124h-.73V26.52h.73v4.818zm4.845 0v-3.117c0-.393-.089-.686-.268-.879s-.459-.29-.84-.29c-.504 0-.874.136-1.108.409s-.352.723-.352 1.35v2.528h-.73V26.52h.593l.119.66h.035c.149-.237.359-.421.628-.552s.57-.196.901-.196c.581 0 1.017.14 1.31.42.293.28.44.728.44 1.343v3.144H50.4zm6.173-4.818v.462l-.893.105a1.566 1.566 0 0 1 .317.963c0 .472-.161.849-.483 1.13-.323.281-.765.422-1.328.422-.144 0-.278-.012-.404-.035-.311.164-.466.371-.466.62 0 .132.054.229.163.292.108.063.294.094.558.094h.853c.522 0 .922.11 1.203.33.28.22.42.539.42.958 0 .533-.214.94-.642 1.22s-1.052.42-1.873.42c-.63 0-1.116-.117-1.458-.352s-.512-.566-.512-.994c0-.293.094-.547.281-.761.188-.214.452-.359.792-.435a.765.765 0 0 1-.31-.26.688.688 0 0 1-.125-.409c0-.176.047-.33.141-.462a1.48 1.48 0 0 1 .444-.382 1.306 1.306 0 0 1-.609-.523 1.538 1.538 0 0 1-.235-.844c0-.528.158-.935.475-1.22s.765-.429 1.345-.429c.252 0 .479.029.682.088h1.664zm-3.843 5.627c0 .261.11.458.33.593s.535.203.945.203c.613 0 1.066-.092 1.361-.275s.442-.432.442-.745c0-.261-.081-.442-.242-.543-.161-.102-.465-.152-.91-.152h-.875c-.331 0-.589.079-.774.237s-.277.386-.277.682zm.396-4.084c0 .337.095.592.286.765.19.173.456.26.795.26.712 0 1.068-.346 1.068-1.038 0-.724-.36-1.086-1.082-1.086-.343 0-.606.092-.791.277-.184.184-.276.458-.276.822zm10.513 1.565c0 .566-.206 1.007-.616 1.324-.411.316-.967.475-1.671.475-.762 0-1.348-.098-1.759-.294v-.721a4.699 4.699 0 0 0 1.785.361c.499 0 .874-.094 1.125-.283.252-.189.378-.452.378-.79 0-.223-.045-.405-.134-.547-.089-.142-.239-.273-.448-.394-.21-.12-.528-.256-.957-.409-.598-.214-1.025-.467-1.282-.761-.256-.293-.384-.675-.384-1.147 0-.495.186-.89.558-1.183s.865-.44 1.478-.44a4.36 4.36 0 0 1 1.763.352l-.233.65a3.976 3.976 0 0 0-1.547-.334c-.396 0-.705.085-.928.255-.223.17-.334.406-.334.708 0 .223.041.405.123.547s.221.272.416.391c.195.119.493.25.895.394.674.241 1.138.499 1.392.774.253.275.38.632.38 1.072zm5.363-.703c0 .785-.198 1.399-.594 1.84-.396.441-.942.662-1.64.662-.431 0-.813-.101-1.147-.303-.334-.202-.592-.493-.774-.871s-.272-.821-.272-1.328c0-.786.196-1.397.589-1.836.393-.438.938-.657 1.636-.657.674 0 1.209.224 1.607.673.397.448.595 1.055.595 1.82zm-3.671 0c0 .615.123 1.084.37 1.407.246.322.608.483 1.086.483.478 0 .84-.16 1.088-.481.248-.321.372-.791.372-1.409 0-.613-.124-1.078-.372-1.396-.248-.318-.613-.477-1.097-.477-.478 0-.838.157-1.082.47-.243.314-.365.781-.365 1.403zm7.123-1.838h-1.227v4.251h-.73v-4.251h-.862v-.33l.862-.264v-.268c0-1.184.517-1.776 1.552-1.776.255 0 .554.051.897.154l-.189.585a2.402 2.402 0 0 0-.721-.136c-.276 0-.479.091-.611.274-.132.184-.198.477-.198.882v.312h1.227v.567zm2.436 3.737a2.393 2.393 0 0 0 .66-.088v.559a1.381 1.381 0 0 1-.35.095 2.731 2.731 0 0 1-.416.037c-.932 0-1.398-.491-1.398-1.473v-2.867h-.69v-.352l.69-.303.308-1.029h.422v1.117h1.398v.567h-1.398v2.836c0 .29.069.513.207.668s.326.233.567.233zm5.557.514l-.884-2.827c-.056-.173-.16-.565-.312-1.178h-.035c-.118.513-.22.909-.308 1.187l-.91 2.818h-.844l-1.314-4.819h.765l.71 2.766c.163.634.256 1.06.279 1.279h.035c.032-.167.084-.383.156-.648s.134-.476.187-.631l.884-2.766h.792l.862 2.766c.164.504.275.928.334 1.271h.035c.012-.105.043-.268.095-.488.051-.22.357-1.403.917-3.548h.756l-1.332 4.819h-.868zm6.032 0l-.145-.686h-.035c-.241.302-.48.506-.719.613-.239.107-.537.161-.895.161-.478 0-.852-.123-1.124-.369-.271-.247-.407-.597-.407-1.051 0-.973.778-1.483 2.335-1.53l.818-.026v-.299c0-.378-.082-.657-.244-.838-.163-.18-.423-.27-.78-.27-.402 0-.856.123-1.363.369l-.224-.559a3.42 3.42 0 0 1 .78-.303c.283-.073.566-.11.851-.11.574 0 1 .127 1.277.382.277.255.416.664.416 1.227v3.289h-.541zm-1.648-.514c.455 0 .811-.125 1.071-.374.259-.249.389-.598.389-1.046v-.435l-.73.031c-.581.021-.999.11-1.255.27-.256.16-.385.408-.385.746 0 .264.08.464.24.602s.382.206.67.206zm5.891-4.392c.214 0 .406.018.576.053l-.101.677a2.489 2.489 0 0 0-.528-.066c-.39 0-.723.158-1 .475-.277.316-.415.711-.415 1.183v2.585h-.73V26.52h.602l.083.893h.036c.179-.313.394-.556.646-.726s.529-.255.831-.255zm3.513 4.994c-.712 0-1.274-.217-1.686-.651-.412-.434-.618-1.036-.618-1.807 0-.777.191-1.394.574-1.851.382-.458.896-.686 1.541-.686.604 0 1.082.199 1.433.596.352.397.528.921.528 1.572v.462h-3.32c.015.565.158.995.429 1.288s.653.439 1.146.439c.519 0 1.032-.108 1.539-.325v.651a3.943 3.943 0 0 1-.732.24 4.155 4.155 0 0 1-.834.072zm-.197-4.383c-.387 0-.696.126-.926.378s-.366.601-.407 1.046h2.52c0-.46-.103-.812-.308-1.058-.206-.244-.499-.366-.879-.366zm10.793 1.02c0 1.061-.288 1.872-.864 2.434-.576.561-1.405.842-2.486.842H99.7V24.91h1.97c1 0 1.776.277 2.33.831.554.554.831 1.328.831 2.322zm-.791.026c0-.838-.21-1.47-.631-1.895-.42-.425-1.045-.638-1.875-.638h-1.086v5.135h.91c.891 0 1.561-.219 2.009-.657.448-.437.673-1.086.673-1.945zm4.15 3.337c-.712 0-1.274-.217-1.686-.651-.412-.434-.618-1.036-.618-1.807 0-.777.191-1.394.574-1.851.382-.458.896-.686 1.541-.686.604 0 1.082.199 1.433.596.352.397.528.921.528 1.572v.462h-3.32c.015.565.158.995.429 1.288s.653.439 1.146.439c.519 0 1.032-.108 1.539-.325v.651a3.943 3.943 0 0 1-.732.24 4.155 4.155 0 0 1-.834.072zm-.197-4.383c-.387 0-.696.126-.926.378s-.366.601-.407 1.046h2.52c0-.46-.103-.812-.308-1.058-.205-.244-.498-.366-.879-.366zm4.269 4.295l-1.829-4.819h.783l1.038 2.858c.234.668.372 1.102.413 1.301h.035c.032-.155.134-.477.306-.965.171-.488.556-1.553 1.154-3.194h.783l-1.829 4.819h-.854zm5.491.088c-.712 0-1.274-.217-1.686-.651-.412-.434-.618-1.036-.618-1.807 0-.777.191-1.394.574-1.851.382-.458.896-.686 1.541-.686.604 0 1.082.199 1.433.596.352.397.528.921.528 1.572v.462h-3.32c.015.565.158.995.429 1.288s.653.439 1.146.439c.519 0 1.032-.108 1.539-.325v.651a3.943 3.943 0 0 1-.732.24 4.155 4.155 0 0 1-.834.072zm-.197-4.383c-.387 0-.696.126-.926.378s-.366.601-.407 1.046h2.52c0-.46-.103-.812-.308-1.058-.206-.244-.498-.366-.879-.366zm3.944 4.295h-.73v-6.841h.73v6.841zm5.706-2.413c0 .785-.198 1.399-.594 1.84-.396.441-.942.662-1.64.662-.431 0-.813-.101-1.147-.303-.334-.202-.592-.493-.774-.871s-.272-.821-.272-1.328c0-.786.196-1.397.589-1.836.393-.438.938-.657 1.636-.657.674 0 1.209.224 1.607.673.396.448.595 1.055.595 1.82zm-3.671 0c0 .615.123 1.084.37 1.407.246.322.608.483 1.086.483.478 0 .84-.16 1.088-.481.248-.321.372-.791.372-1.409 0-.613-.124-1.078-.372-1.396-.248-.318-.613-.477-1.097-.477-.478 0-.838.157-1.082.47-.244.314-.365.781-.365 1.403zm7.193 2.501c-.313 0-.6-.058-.859-.174a1.61 1.61 0 0 1-.653-.534h-.053c.036.282.053.548.053.8v1.983h-.73V26.52h.593l.101.66h.036c.188-.264.406-.455.655-.572s.535-.176.857-.176c.639 0 1.132.218 1.479.655.347.437.521 1.049.521 1.838 0 .791-.177 1.406-.53 1.844s-.843.657-1.47.657zm-.105-4.374c-.493 0-.849.136-1.068.409s-.333.707-.338 1.301v.163c0 .677.113 1.161.338 1.453.226.292.587.437 1.086.437.416 0 .742-.168.978-.505.236-.337.354-.802.354-1.394 0-.601-.118-1.062-.354-1.383-.237-.321-.569-.481-.996-.481zm9.523 4.286v-3.135c0-.384-.082-.672-.246-.864-.164-.192-.419-.288-.765-.288-.455 0-.79.13-1.007.391s-.325.663-.325 1.205v2.691h-.73v-3.135c0-.384-.082-.672-.246-.864-.165-.192-.421-.288-.77-.288-.458 0-.792.137-1.005.411-.212.274-.318.723-.318 1.347v2.528h-.73V26.52h.593l.119.66h.035a1.44 1.44 0 0 1 .583-.55c.25-.132.531-.198.842-.198.753 0 1.246.272 1.478.818h.035c.144-.252.352-.452.624-.598s.583-.22.932-.22c.545 0 .954.14 1.225.42s.407.728.407 1.343v3.144h-.731zm4.27.088c-.712 0-1.274-.217-1.686-.651-.412-.434-.618-1.036-.618-1.807 0-.777.191-1.394.574-1.851.382-.458.896-.686 1.541-.686.604 0 1.082.199 1.433.596.352.397.528.921.528 1.572v.462h-3.32c.015.565.158.995.429 1.288s.653.439 1.146.439c.519 0 1.032-.108 1.539-.325v.651a3.943 3.943 0 0 1-.732.24 4.162 4.162 0 0 1-.834.072zm-.198-4.383c-.387 0-.696.126-.926.378s-.366.601-.407 1.046h2.52c0-.46-.103-.812-.308-1.058-.205-.244-.498-.366-.879-.366zm6.511 4.295v-3.117c0-.393-.089-.686-.268-.879s-.459-.29-.84-.29c-.504 0-.874.136-1.108.409s-.352.723-.352 1.35v2.528h-.73V26.52h.593l.119.66h.035c.149-.237.359-.421.628-.552s.57-.196.901-.196c.581 0 1.017.14 1.31.42.293.28.44.728.44 1.343v3.144h-.728zm3.786-.514a2.393 2.393 0 0 0 .66-.088v.559a1.381 1.381 0 0 1-.35.095 2.731 2.731 0 0 1-.416.037c-.932 0-1.398-.491-1.398-1.473v-2.867h-.69v-.352l.69-.303.308-1.029h.422v1.117h1.398v.567h-1.398v2.836c0 .29.069.513.207.668s.326.233.567.233zm6.916.514l-2.181-5.698h-.035c.041.452.062.988.062 1.609v4.089h-.69V24.91h1.125l2.036 5.303h.035l2.053-5.303h1.117v6.428h-.747v-4.142c0-.475.021-.991.062-1.548h-.035l-2.199 5.689h-.603zm8.138 0l-.145-.686h-.035c-.241.302-.48.506-.719.613-.239.107-.537.161-.895.161-.478 0-.852-.123-1.124-.369-.271-.247-.407-.597-.407-1.051 0-.973.778-1.483 2.335-1.53l.818-.026v-.299c0-.378-.082-.657-.244-.838-.163-.18-.423-.27-.78-.27-.402 0-.856.123-1.363.369l-.224-.559a3.42 3.42 0 0 1 .78-.303c.283-.073.566-.11.851-.11.574 0 1 .127 1.277.382.277.255.416.664.416 1.227v3.289h-.541zm-1.649-.514c.455 0 .811-.125 1.071-.374.259-.249.389-.598.389-1.046v-.435l-.73.031c-.581.021-.999.11-1.255.27-.256.16-.385.408-.385.746 0 .264.08.464.24.602s.383.206.67.206zm6.973-.132h-.04c-.337.49-.841.734-1.512.734-.63 0-1.121-.215-1.471-.646-.351-.431-.525-1.043-.525-1.837s.176-1.412.527-1.851c.352-.44.841-.66 1.469-.66.653 0 1.155.237 1.503.712h.057l-.031-.348-.018-.338v-1.961h.73v6.841h-.594l-.095-.646zm-1.459.123c.498 0 .859-.135 1.083-.406.224-.271.336-.709.336-1.312v-.154c0-.683-.114-1.17-.341-1.462-.227-.292-.59-.438-1.088-.438-.428 0-.756.166-.983.499-.227.333-.341.802-.341 1.409 0 .615.113 1.08.339 1.394.227.313.558.47.995.47zm5.733.611c-.712 0-1.274-.217-1.686-.651-.412-.434-.618-1.036-.618-1.807 0-.777.191-1.394.574-1.851.382-.458.896-.686 1.541-.686.604 0 1.082.199 1.433.596.352.397.528.921.528 1.572v.462h-3.32c.015.565.158.995.429 1.288s.653.439 1.146.439c.519 0 1.032-.108 1.539-.325v.651a3.943 3.943 0 0 1-.732.24 4.162 4.162 0 0 1-.834.072zm-.198-4.383c-.387 0-.696.126-.926.378s-.366.601-.407 1.046h2.52c0-.46-.103-.812-.308-1.058-.205-.244-.498-.366-.879-.366zm9.246 4.295h-3.583V24.91h3.583v.664h-2.836v2.071h2.664v.66h-2.664v2.365h2.836v.668zm4.278 0l-.145-.686h-.035c-.241.302-.48.506-.719.613-.239.107-.537.161-.895.161-.478 0-.852-.123-1.124-.369-.271-.247-.407-.597-.407-1.051 0-.973.778-1.483 2.335-1.53l.818-.026v-.299c0-.378-.082-.657-.244-.838-.163-.18-.423-.27-.78-.27-.402 0-.856.123-1.363.369l-.224-.559a3.42 3.42 0 0 1 .78-.303c.283-.073.566-.11.851-.11.574 0 1 .127 1.277.382.277.255.416.664.416 1.227v3.289h-.541zm-1.649-.514c.455 0 .811-.125 1.071-.374.259-.249.389-.598.389-1.046v-.435l-.73.031c-.581.021-.999.11-1.255.27-.256.16-.385.408-.385.746 0 .264.08.464.24.602s.383.206.67.206zm6.802-.8c0 .448-.167.794-.501 1.038-.334.243-.803.365-1.407.365-.639 0-1.137-.101-1.495-.303v-.677c.232.117.48.209.746.277.265.068.521.101.767.101.381 0 .674-.061.879-.182s.308-.307.308-.556a.6.6 0 0 0-.244-.481c-.163-.133-.48-.291-.952-.473-.448-.167-.767-.313-.956-.438-.189-.125-.33-.266-.422-.424s-.139-.347-.139-.567c0-.393.16-.703.479-.93s.758-.341 1.314-.341c.519 0 1.026.105 1.521.316l-.259.594c-.484-.199-.922-.299-1.315-.299-.346 0-.606.054-.783.163a.502.502 0 0 0-.264.448c0 .129.033.239.099.33s.172.177.319.259c.146.082.428.201.844.356.572.208.958.418 1.159.629s.302.475.302.795zm.422-3.504h.783l1.055 2.748c.231.627.375 1.08.431 1.358h.035c.038-.149.118-.405.24-.767s.52-1.475 1.194-3.339h.783l-2.071 5.487c-.206.542-.445.927-.719 1.154-.274.227-.61.341-1.009.341a2.93 2.93 0 0 1-.66-.075v-.584c.161.035.341.053.541.053.501 0 .858-.282 1.073-.844l.268-.686-1.944-4.846z" fill="#646464"/></svg>