<svg style="background-color:#ffffff00" xmlns="http://www.w3.org/2000/svg" width="692" height="144"><path d="M486.949 116.795c2.549 6.055 6.208 11.087 10.895 15.055 4.686 4.01 10.278 7.037 16.773 9.082 6.496 2.045 13.65 3.068 21.461 3.068 5.838 0 11.306-.41 16.321-1.227 5.016-.818 9.99-2.21 14.883-4.173l-2.508-15.546c-4.851 2.21-9.291 3.642-13.36 4.296-4.112.655-8.347.941-12.787.941-5.509 0-10.566-.614-15.13-1.923-4.604-1.268-8.51-3.231-11.758-5.89-3.247-2.619-5.755-5.973-7.564-10.023-1.809-4.05-2.673-8.919-2.673-14.605 0-5.891.946-10.963 2.837-15.136 1.892-4.173 4.44-7.61 7.647-10.228 3.207-2.618 6.948-4.582 11.306-5.809 4.358-1.227 8.962-1.84 13.855-1.84a65.6 65.6 0 0 1 11.306.981c3.7.655 7.811 2.046 12.333 4.255l3.865-16.16c-5.262-1.8-10.155-3.067-14.76-3.763-4.604-.655-9.25-1.023-13.936-1.023-7.318 0-14.143.982-20.557 2.905-6.413 1.923-12.004 4.868-16.815 8.877-4.85 4.01-8.633 9.041-11.388 15.136-2.754 6.137-4.11 13.378-4.11 21.723 0 7.977 1.274 14.973 3.864 21.027zm-82.413-89.222c2.548-2.578 3.823-6.096 3.823-10.555 0-4.418-1.274-7.936-3.823-10.513-2.55-2.578-5.633-3.887-9.333-3.887-3.576 0-6.66 1.31-9.25 3.887-2.631 2.577-3.906 6.095-3.906 10.513 0 4.46 1.275 7.977 3.906 10.555 2.59 2.577 5.674 3.845 9.25 3.845 3.7 0 6.784-1.268 9.333-3.845zm-14.595 78.463c0 6.26.493 11.741 1.48 16.487.987 4.745 2.672 8.713 5.139 11.904 2.467 3.191 5.714 5.605 9.826 7.2 4.07 1.596 9.209 2.373 15.417 2.373 2.63 0 5.22-.205 7.688-.655a63.7 63.7 0 0 0 6.742-1.513 47.008 47.008 0 0 0 5.345-1.882c1.562-.655 2.754-1.186 3.617-1.636l-2.466-15.26c-1.891 1.31-4.522 2.496-7.852 3.6-3.372 1.105-7.03 1.637-10.978 1.637-5.18 0-9.086-1.555-11.675-4.746-2.59-3.19-3.865-9.409-3.865-18.736V47.127h-47.361v15.71h28.943v43.2zm-72.095-58.909h-73.673v15.71h49.746C290.63 66.6 247.05 126.04 244.173 131.4V144h73.673v-15.709h-48.594c3.535-6.055 46.21-64.105 48.594-66.927V47.127zm348.582 72.41c-4.769 5.85-11.223 8.754-19.364 8.754-8.017 0-14.39-2.904-19.076-8.755-4.686-5.85-7.03-13.827-7.03-23.89 0-10.146 2.344-18.164 7.03-24.014 4.687-5.85 11.06-8.796 19.076-8.796 8.14 0 14.595 2.946 19.364 8.796 4.77 5.85 7.154 13.868 7.154 24.013 0 10.064-2.385 18.041-7.154 23.891zM688.67 75.64c-2.22-5.973-5.304-11.087-9.25-15.26-3.988-4.172-8.757-7.404-14.266-9.736-5.55-2.331-11.594-3.518-18.09-3.518-6.413 0-12.333 1.187-17.801 3.518-5.468 2.332-10.196 5.564-14.143 9.737-3.988 4.172-7.071 9.286-9.29 15.259-2.221 5.972-3.29 12.64-3.29 19.923 0 7.323 1.069 13.95 3.29 19.84 2.219 5.932 5.302 11.005 9.29 15.26 3.947 4.254 8.675 7.527 14.143 9.859 5.467 2.332 11.388 3.477 17.801 3.477 6.496 0 12.54-1.145 18.09-3.477 5.51-2.332 10.278-5.605 14.266-9.86 3.946-4.254 7.03-9.327 9.25-15.259 2.22-5.89 3.33-12.517 3.33-19.84 0-7.282-1.11-13.95-3.33-19.923zM160.362 27.573c2.55-2.578 3.823-6.096 3.823-10.555 0-4.418-1.274-7.936-3.823-10.513-2.549-2.578-5.632-3.887-9.332-3.887-3.577 0-6.66 1.31-9.25 3.887-2.632 2.577-3.906 6.095-3.906 10.513 0 4.46 1.274 7.977 3.906 10.555 2.59 2.577 5.673 3.845 9.25 3.845 3.7 0 6.783-1.268 9.332-3.845zm-14.595 78.463c0 6.26.494 11.741 1.48 16.487.987 4.745 2.673 8.713 5.14 11.904 2.466 3.191 5.714 5.605 9.825 7.2 4.07 1.596 9.21 2.373 15.417 2.373 2.632 0 5.222-.205 7.688-.655a63.735 63.735 0 0 0 6.743-1.513 47.001 47.001 0 0 0 5.344-1.882c1.562-.655 2.755-1.186 3.618-1.636l-2.467-15.26c-1.89 1.31-4.522 2.496-7.852 3.6-3.371 1.105-7.03 1.637-10.977 1.637-5.18 0-9.086-1.555-11.676-4.746-2.59-3.19-3.865-9.409-3.865-18.736V47.127h-47.36v15.71h28.942v43.2zM18.418 70.364c1.892-1.8 4.646-3.478 8.305-5.114 3.618-1.596 7.4-2.414 11.347-2.414 4.44 0 8.222.86 11.388 2.496a22.396 22.396 0 0 1 7.811 6.832c2.015 2.904 3.495 6.381 4.44 10.431.946 4.05 1.44 8.387 1.44 12.969 0 10.922-2.632 19.104-7.894 24.545-5.263 5.482-12.58 8.182-21.872 8.182-2.302 0-4.728-.123-7.277-.45a63.577 63.577 0 0 1-7.688-1.473V70.364zm0-70.364L0 2.946V139.09c3.618 1.105 8.47 2.209 14.471 3.272C20.474 143.468 27.298 144 35.028 144c6.989 0 13.32-1.105 19.075-3.395 5.715-2.25 10.607-5.482 14.678-9.655 4.029-4.173 7.194-9.286 9.414-15.26 2.22-5.972 3.371-12.681 3.371-20.126 0-7.16-.945-13.705-2.795-19.637-1.891-5.89-4.564-11.004-8.058-15.259-3.536-4.254-7.811-7.568-12.91-9.94-5.097-2.373-10.853-3.6-17.307-3.6-4.852 0-9.21.695-13.115 2.004-3.947 1.309-6.907 2.618-8.963 3.845V0z" fill="#b02819"/></svg>