<svg xmlns="http://www.w3.org/2000/svg" xmlns:xlink="http://www.w3.org/1999/xlink" width="470" height="129"><path fill="#1B3E6C" d="M17 33.268l34.623 34.62 34.62-34.62z"/><path fill="#F7941E" d="M17 102.506l34.623-34.618-34.621-34.62z"/><path fill="#40C4E0" d="M86.242 102.506V67.888l-34.621 34.618z"/><path fill="#725BA7" d="M68.932 85.198l-17.311 17.309H16.999l17.312-17.31z"/><path fill="#DC4E3A" d="M51.622 67.888l-17.31 17.31h34.621z"/><path fill="#00B388" d="M68.932 50.579l17.31 17.309V33.269z"/><path fill="#F5DF2E" d="M68.928 50.577l17.31 17.31-17.31 17.31-17.31-17.31z"/><defs><path id="a" d="M-54-37.598h583.938V175H-54z"/></defs><clipPath id="b"><use xlink:href="#a" overflow="visible"/></clipPath><path clip-path="url(#b)" d="M136.083 33.269h-22.042v69.241h21.361c14.263 0 34.927-8.816 34.927-34.464s-22.315-34.777-34.246-34.777m-1.148 55.848h-5.079V46.655h5.808c5.031 0 18.122 3.441 18.122 21.39 0 17.95-14.402 21.072-18.851 21.072m77.356-31.771v6.325l-1.89-2.124c-1.917-2.164-6.171-5.789-13.121-5.789-6.096 0-12.065 2.376-15.966 6.356-2.561 2.612-6.857 8.452-6.857 18.205 0 6.709 1.963 11.84 6.364 16.64 4.421 4.761 9.784 7.177 15.938 7.177 3.388 0 9.656-.822 13.571-6.329l1.961-2.757v7.498h13.018V57.346h-13.018zM199.667 91.85c-6.461 0-11.697-5.351-11.697-11.951s5.236-11.952 11.697-11.952c6.46 0 11.697 5.351 11.697 11.952s-5.237 11.951-11.697 11.951m104.229-34.504v6.325l-1.889-2.124c-1.918-2.164-6.172-5.789-13.122-5.789-6.097 0-12.064 2.376-15.966 6.356-2.561 2.612-6.857 8.452-6.857 18.205 0 6.709 1.963 11.84 6.363 16.64 4.421 4.761 9.785 7.177 15.939 7.177 3.388 0 9.654-.822 13.57-6.329l1.961-2.757v7.498h13.018V57.346h-13.017zM291.274 91.85c-6.461 0-11.698-5.351-11.698-11.951s5.237-11.952 11.698-11.952c6.46 0 11.695 5.351 11.695 11.952s-5.235 11.951-11.695 11.951m-51.998-58.562v24.064h-5.302v11.697h5.302v33.499h14.462V69.049h9.458V57.352h-9.458V33.288zm195.786-.021v69.287h14.463v-33.5h9.458V57.357h-9.458v-24.09zm-66.876 45.776h-19.794l9.764-29.473 10.03 29.473zm8.21 23.457h16.473l-25.537-69.228h-18.005L323.283 102.5h16.278l4.773-12.121h27.71l4.352 12.121zm21.732.055h14.463V83.383c0-1.93 0-7.801 4.085-11.604 2.052-1.908 4.774-2.835 8.325-2.835 2.446 0 5.126.059 6.09.083V57.395c-.669-.041-2.876-.157-2.876-.157-2.798 0-5.439 0-7.471 1.12-2.597 1.327-4.707 3.445-6.111 6.127l-2.042 3.901V57.352h-14.463v45.203z"/></svg>