<svg xmlns="http://www.w3.org/2000/svg" xmlns:xlink="http://www.w3.org/1999/xlink" width="310.012" height="93.49"><defs><path id="a" d="M3-28h300v150.001H3z"/></defs><clipPath id="b"><use xlink:href="#a" overflow="visible"/></clipPath><path clip-path="url(#b)" d="M106.132 62.964h24.549c5.228 0 9.482-3.998 9.482-8.911v-1.672c0-4.823-4.017-8.735-9.145-8.903l-.171-.015H114.26c-1.439 0-2.61-1.1-2.61-2.45v-1.611c0-1.352 1.17-2.453 2.61-2.453h24.051v-6.457H114.26c-5.228 0-9.481 3.995-9.481 8.91v1.611c0 4.914 4.253 8.913 9.481 8.913h16.421c1.439.003 2.608 1.104 2.608 2.455v1.672c0 1.349-1.17 2.449-2.608 2.449h-24.549v6.462zm42.173-32.471h6.873V62.96h-6.873zm96.138 32.455h6.875l.001-23.537c0-4.914-4.254-8.912-9.483-8.912h-34.249v32.449h6.832V36.96h11.443l.008 25.988h6.86V36.96h9.105c1.44 0 2.611 1.102 2.611 2.453l-.003 23.535zm47.385-23.546c0-4.913-4.256-8.911-9.486-8.911h-21.827v6.461h21.827c1.443 0 2.613 1.102 2.613 2.452l-.001 4.062h-17.325c-5.228 0-9.48 4-9.48 8.915v1.651c0 4.918 4.252 8.916 9.48 8.916h24.172l.027-23.546zm-6.889 17.085h-17.31c-1.439 0-2.612-1.1-2.612-2.455v-1.651c0-1.353 1.173-2.454 2.612-2.454h17.319l-.009 6.56zm-120.496-2.431c0 4.914 4.25 8.914 9.48 8.914h24.201V43.487h-18.083v6.461h11.172v6.561h-17.29c-1.439 0-2.613-1.102-2.613-2.453l-.006-14.643c0-1.352 1.173-2.453 2.613-2.453h24.14v-6.461h-24.14c-5.23 0-9.481 3.998-9.481 8.914l.007 14.643z"/><defs><path id="c" d="M40.633 35.028c-15.345 1.555-26.461 6.129-26.461 11.531 0 5.4 11.116 9.975 26.461 11.529 1.555 15.344 6.129 26.461 11.53 26.461 6.682 0 12.099-17.01 12.099-37.991S58.845 8.567 52.164 8.567c-5.402 0-9.976 11.118-11.531 26.461"/></defs><clipPath id="d"><use xlink:href="#c" overflow="visible"/></clipPath><linearGradient id="e" gradientUnits="userSpaceOnUse" x1=".804" y1="1667.501" x2=".848" y2="1667.501" gradientTransform="scale(-1092.8391 1092.8391) rotate(-63.552 -1345.542 834.47)"><stop offset="0" stop-color="#e11f27"/><stop offset=".006" stop-color="#e11f27"/><stop offset=".681" stop-color="#ee2a24"/><stop offset="1" stop-color="#ee2a24"/></linearGradient><path clip-path="url(#d)" fill="url(#e)" d="M24.109 104.524l-40.236-80.883 70.453-35.048 40.236 80.884z"/><defs><path id="f" d="M40.635 58.09c3.636.367 7.51.566 11.529.566 20.982 0 37.991-5.417 37.991-12.097 0-5.402-11.116-9.977-26.461-11.531L40.635 58.09z"/></defs><clipPath id="g"><use xlink:href="#f" overflow="visible"/></clipPath><linearGradient id="h" gradientUnits="userSpaceOnUse" x1="-.638" y1="1664.794" x2="-.593" y2="1664.794" gradientTransform="scale(582.1154 -582.1154) rotate(-60 -1442.077 831.724)"><stop offset="0" stop-color="#77787b"/><stop offset=".208" stop-color="#656668"/><stop offset=".53" stop-color="#4a4a4c"/><stop offset=".806" stop-color="#313132"/><stop offset="1" stop-color="#222223"/></linearGradient><path clip-path="url(#g)" fill="url(#h)" d="M77.775 13.585l22.611 39.164L53.015 80.1 30.404 40.936z"/><defs><path id="i" d="M3-28h300v150.001H3z"/></defs><clipPath id="j"><use xlink:href="#i" overflow="visible"/></clipPath><path clip-path="url(#j)" fill="#690000" d="M63.694 35.028L40.635 58.09c3.636.367 7.51.566 11.53.566s7.894-.199 11.53-.566c.368-3.638.568-7.511.568-11.531s-.201-7.894-.569-11.531"/><path clip-path="url(#j)" fill="#A50D12" d="M40.638 58.09l23.059-23.062c-3.636-.368-7.51-.567-11.529-.567-4.02 0-7.895.199-11.531.567-.368 3.637-.567 7.51-.567 11.53s.199 7.894.568 11.532z"/><path clip-path="url(#j)" d="M106.966 84.932v-1.325h.129c.615.178 2.085.501 3.023.501h.501c1.52 0 2.538-.565 2.538-2.085 0-1.326-.679-1.73-1.778-2.021l-1.633-.437c-1.164-.323-2.651-1.083-2.651-3.233 0-1.955 1.504-3.281 3.913-3.281h.372c.889 0 2.279.259 2.781.501v1.277h-.129c-.582-.194-1.827-.452-2.651-.452h-.372c-1.52 0-2.409.565-2.409 1.955 0 1.262.808 1.602 1.778 1.892l1.568.452c1.245.356 2.716 1.004 2.716 3.348 0 2.085-1.503 3.41-4.042 3.41h-.501c-1.003-.001-2.652-.324-3.153-.502m9.96-4.171c0-2.65 1.261-4.43 3.848-4.43 2.716 0 3.847 1.779 3.847 4.43 0 2.895-1.261 4.672-3.847 4.672-2.716 0-3.848-1.778-3.848-4.672m6.304 0c0-1.955-.566-3.168-2.457-3.168-1.892 0-2.457 1.213-2.457 3.168 0 1.957.565 3.412 2.457 3.412s2.457-1.455 2.457-3.412m4.658-3.039h-1.391v-1.261h1.391v-.372c0-1.908 1.147-2.91 2.91-2.91h1.002v1.262h-1.002c-1.132 0-1.52.501-1.52 1.648v.372h2.279v1.261h-2.279v7.582h-1.39v-7.582zm9.5 7.582c-1.891 0-3.039-.889-3.039-3.039v-4.543h-1.39v-1.261h1.39V74.44h1.39v2.021h2.522v1.261h-2.522v4.301c0 1.633.501 2.02 1.892 2.02h.889v1.262h-1.132zm3.008-6.564v-2.279h1.39v2.279c0 2.522.808 4.607 1.568 5.545.76-.938 1.584-3.022 1.584-5.545v-2.279h1.39v2.279c0 2.522.825 4.607 1.584 5.545.744-.938 1.568-3.022 1.568-5.545v-2.279h1.39v2.279c0 3.023-1.261 5.675-2.15 6.563h-1.503c-.453-.501-1.39-2.086-1.584-3.039-.194.953-1.131 2.538-1.584 3.039h-1.503c-.889-.888-2.15-3.539-2.15-6.563m12.805 3.654v-1.391c0-2.78 2.263-4.542 4.672-4.542h2.393v8.843h-1.391v-1.648l-.631.63c-.646.63-1.39 1.147-2.521 1.147-1.39 0-2.522-.889-2.522-3.039m5.674-.129v-4.543h-1.002c-1.908 0-3.282 1.262-3.282 3.281v1.391c0 1.391.631 1.779 1.374 1.779.89 0 1.908-.89 2.409-1.391l.501-.517zm4.916-5.804h1.391v1.956l.129-.194c.663-1.019 1.438-1.762 2.586-1.762h.566v1.52h-.63c-.63 0-1.245.242-1.649.631l-1.002 1.002v5.69h-1.391v-8.843zm6.355 5.432V80.13c0-2.408 1.633-3.799 3.783-3.799 1.762 0 3.023.76 3.023 2.539 0 1.567-1.002 2.521-2.764 2.521h-2.651v.501c0 1.649 1.002 2.28 2.392 2.28 1.002 0 2.021-.389 2.393-.566h.129v1.261c-.372.179-1.52.565-2.522.565-2.151.001-3.783-1.017-3.783-3.539m1.39-1.65h2.263c1.39 0 1.778-.501 1.778-1.373 0-.954-.646-1.277-1.649-1.277-1.52 0-2.392.76-2.392 2.537v.113z"/></svg>