<svg xmlns="http://www.w3.org/2000/svg" xmlns:xlink="http://www.w3.org/1999/xlink" width="583" height="175"><defs><path id="a" d="M-130-210.28h841.89V385H-130z"/></defs><clipPath id="b"><use xlink:href="#a" overflow="visible"/></clipPath><path clip-path="url(#b)" fill="#263A4B" d="M123.674 49.391c-5.804-10.487-14.182-13.326-21.282-13.326-8.81-.219-17.846 4.149-18.486 15.729-.426 11.364 13.111 16.387 21.929 19.015 23.429 6.105 48.149 17.684 46.857 52.203-1.292 30.15-27.726 44.136-52.025 44.136-17.187 0-39.116-7.222-51.802-36.706l23.647-13.767c7.299 15.95 19.997 22.283 28.799 22.283 11.831.224 20.212-7.644 20.642-17.693.87-14.638-12.909-20.541-23.64-23.377C82.832 93.96 53.17 83.254 53.592 52.016c.662-31.021 25.579-44.574 49.019-44.574 18.046 0 34.175 8.522 44.284 28.404l-23.221 13.545zm152.553 3.711h29.458v110.765h-29.458zm96.771 110.764c-26.446 4.59-49.439-6.111-48.369-35.604V53.114l28.6-28.604v28.591h19.77v23.814h-19.77v50.688c0 7.204 7.302 12.668 19.77 10.929v25.334zm56.023.22c-24.724 4.161-44.495-5.022-44.495-35.614V10.943h29.455v117.528c0 5.679 2.791 12.238 15.04 11.146v24.469zm76.616-.199l.019-9.735c-6.812 8.653-17.45 12.115-25.976 12.115-28.311 0-43.425-17.296-43.425-38.083 0-24.886 23.625-37.437 46.839-37.005 7.238.217 14.256 1.731 20.647 4.327-.627-15.356-10.216-20.992-21.281-21.208-10.649-.22-23.215 3.461-29.598 8.877l-11.151-19.183c14.218-10.559 28.395-13.283 43.301-13.283 24.702 0 47.689 13.424 47.689 45.45v67.728h-27.064zm-1.683-29.642v-17.312c-5.307-2.386-12.13-3.896-18.942-3.896-11.07 0-21.502 4.106-21.711 14.285-.445 20.122 29.806 18.393 40.653 6.923M232.55 53.114h30.554l-37.422 110.75h-36.99l-37.204-110.75h30.554l25.322 80.837z"/><path clip-path="url(#b)" fill="#F47920" d="M290.958 7.425c-16.629 0-31.68 6.806-42.576 17.754l20.253 20.252c5.704-5.756 13.599-9.337 22.323-9.337 8.723 0 16.617 3.58 22.321 9.334l20.252-20.252C322.636 14.23 307.585 7.425 290.958 7.425"/></svg>