<?xml version="1.0" encoding="utf-8"?>
<!-- Generator: Adobe Illustrator 19.2.1, SVG Export Plug-In . SVG Version: 6.00 Build 0)  -->
<svg version="1.0" id="Layer_1" xmlns="http://www.w3.org/2000/svg" xmlns:xlink="http://www.w3.org/1999/xlink" x="0px" y="0px"
	 viewBox="0 0 500 47" style="enable-background:new 0 0 500 47;" xml:space="preserve">
<style type="text/css">
	.st0{fill-rule:evenodd;clip-rule:evenodd;fill:#D0D2D3;}
	.st1{fill-rule:evenodd;clip-rule:evenodd;fill:#009AD9;}
	.st2{fill-rule:evenodd;clip-rule:evenodd;fill:#FFFFFF;}
</style>
<g>
	<path class="st2" d="M15.1,34.1h29.1l7.3,11c1.3,2,4,2.5,6,1.2c2-1.3,2.5-4,1.2-6L33.1,1.9c-0.9-1.3-2.3-2-3.9-1.9
		c-1.5,0.1-2.9,1-3.6,2.4c-0.7,1.4-0.6,3,0.3,4.3l12.5,18.7H12.8c-1.5,0-2.8,0.7-3.6,2L0.7,40.3c-0.8,1.3-0.9,2.9-0.3,4.3
		C1.2,46,2.5,46.9,4.1,47c1.5,0.1,3-0.7,3.9-1.9L15.1,34.1L15.1,34.1z M119.3,42.7V4.4c0-1.8-1.1-3.4-2.7-4.1
		c-1.7-0.7-3.6-0.3-4.8,1L89.8,23.6l-23-22.5C65.7,0,64-0.3,62.6,0.3c-1.4,0.6-2.3,2-2.3,3.5v38.8c0,2.4,1.9,4.3,4.3,4.3
		c2.4,0,4.3-1.9,4.3-4.3V15.3L88,34c1,1,2.7,1,3.7,0l18.9-19.2v27.9c0,2.4,1.9,4.3,4.3,4.3C117.4,47,119.3,45.1,119.3,42.7
		L119.3,42.7z M181.2,35.2c0.2-2.4-1.5-4.5-3.9-4.7c-2.4-0.2-4.5,1.5-4.7,3.9c-0.2,2.2-2.1,3.9-4.3,3.9h-33.6
		c-1.1,0-2.2-0.5-3.1-1.3c-0.8-0.8-1.3-1.9-1.3-3.1V13c0-1.1,0.5-2.3,1.3-3.1c0.8-0.8,1.9-1.3,3.1-1.3h33.6c2.2,0,4.1,1.7,4.3,3.9
		c0.2,2.4,2.3,4.1,4.7,3.9c2.4-0.2,4.1-2.3,3.9-4.7C180.6,5.1,175,0,168.3,0h-33.6c-3.4,0-6.7,1.4-9.2,3.8c-2.4,2.4-3.8,5.7-3.8,9.2
		v21c0,3.4,1.4,6.8,3.8,9.2c2.4,2.4,5.7,3.8,9.2,3.8h33.6C175,47,180.6,41.9,181.2,35.2L181.2,35.2z"/>
	<path class="st1" d="M227.9,47c6.7,0,12.6-4.4,14.5-10.8c1.9-6.4-0.6-13.3-6.2-17c2.3-3.9,2.4-8.8,0.1-12.8c-2.2-4-6.4-6.4-11-6.4
		h-37c-1.5,0-3,0.8-3.7,2.2c-0.8,1.3-0.8,3,0,4.3c0.8,1.3,2.2,2.2,3.7,2.2h37c2.2,0,4,1.8,4,4s-1.8,4-4,4h-37
		c-1.1,0-2.2,0.5-3.1,1.3c-0.8,0.8-1.3,1.9-1.3,3.1v21.6c0,1.1,0.5,2.3,1.3,3.1c0.8,0.8,1.9,1.3,3.1,1.3H227.9L227.9,47z
		 M227.9,38.3c3.6,0,6.5-2.9,6.5-6.5c0-3.6-2.9-6.5-6.5-6.5h-35.3v13H227.9L227.9,38.3z M302.6,42.7v-9.2c0-4.1-1.9-7.9-5.1-10.3
		c3.2-4.4,3.7-10.3,1.2-15.2c-2.5-4.9-7.5-7.9-12.9-7.9h-37.9c-1.5,0-3,0.8-3.7,2.2c-0.8,1.3-0.8,3,0,4.3c0.8,1.3,2.2,2.2,3.7,2.2
		h37.9c3.2,0,5.9,2.6,5.9,5.9c0,3.3-2.6,5.9-5.9,5.9h-37.9c-1.1,0-2.2,0.5-3.1,1.3c-0.8,0.8-1.3,1.9-1.3,3.1v17.9
		c0,2.4,1.9,4.3,4.3,4.3c2.4,0,4.3-1.9,4.3-4.3V29.1h37.4c1.1,0,2.2,0.5,3.1,1.3c0.8,0.8,1.3,1.9,1.3,3.1v9.2c0,2.4,1.9,4.3,4.3,4.3
		C300.7,47,302.6,45.1,302.6,42.7L302.6,42.7z M314.3,42.7V4.3c0-1.5-0.8-3-2.2-3.8c-1.3-0.8-3-0.8-4.3,0c-1.3,0.8-2.2,2.2-2.2,3.8
		v38.3c0,2.4,1.9,4.3,4.3,4.3C312.4,47,314.3,45.1,314.3,42.7L314.3,42.7z M322.2,47h40.2c8,0,14.5-6.5,14.5-14.6V14.6
		c0-3.9-1.5-7.6-4.3-10.3c-2.7-2.7-6.4-4.3-10.3-4.3h-40.2c-1.1,0-2.2,0.5-3.1,1.3c-0.8,0.8-1.3,1.9-1.3,3.1v38.3
		c0,1.1,0.5,2.3,1.3,3.1C319.9,46.5,321,47,322.2,47L322.2,47z M326.5,38.3V8.7h35.9c1.6,0,3.1,0.6,4.2,1.7c1.1,1.1,1.7,2.6,1.7,4.2
		v17.9c0,3.3-2.6,5.9-5.9,5.9H326.5L326.5,38.3z M495.7,47h-50.4c-1.1,0-2.2-0.5-3.1-1.3c-0.8-0.8-1.3-1.9-1.3-3.1V22.2
		c0-1.1,0.5-2.3,1.3-3.1c0.8-0.8,1.9-1.3,3.1-1.3h45.3c2.4,0,4.3,1.9,4.3,4.3c0,2.4-1.9,4.3-4.3,4.3h-41v11.8h46.1
		c2.4,0,4.3,1.9,4.3,4.3C500,45.1,498.1,47,495.7,47L495.7,47z M495.7,8.7h-50.4c-1.5,0-3-0.8-3.7-2.2c-0.8-1.3-0.8-3,0-4.3
		c0.8-1.3,2.2-2.2,3.7-2.2h50.4c2.4,0,4.3,1.9,4.3,4.3C500,6.7,498.1,8.7,495.7,8.7L495.7,8.7z M426.4,47c6.2,0,11.3-5.1,11.3-11.3
		V24.8c0-1.1-0.5-2.3-1.3-3.1c-0.8-0.8-1.9-1.3-3.1-1.3h-33.1c-1.5,0-3,0.8-3.7,2.2c-0.8,1.3-0.8,3,0,4.3c0.8,1.3,2.2,2.2,3.7,2.2
		h28.8v6.6c0,1.5-1.2,2.7-2.7,2.7h-34.8c-1.1,0-2.2-0.5-3.1-1.3c-0.8-0.8-1.3-1.9-1.3-3.1V13c0-1.1,0.5-2.3,1.3-3.1
		c0.8-0.8,1.9-1.3,3.1-1.3h33.1c2.2,0,4.1,1.7,4.3,3.9c0.2,2.4,2.3,4.1,4.7,3.9c2.4-0.2,4.1-2.3,3.9-4.7C437.1,5.1,431.5,0,424.7,0
		h-33.1c-3.4,0-6.7,1.4-9.2,3.8c-2.4,2.4-3.8,5.7-3.8,9.2v21c0,3.4,1.4,6.8,3.8,9.2s5.7,3.8,9.2,3.8H426.4L426.4,47z"/>
</g>
</svg>
