<?xml version="1.0" encoding="utf-8"?>
<!-- Generator: Adobe Illustrator 16.0.0, SVG Export Plug-In . SVG Version: 6.00 Build 0)  -->
<!DOCTYPE svg PUBLIC "-//W3C//DTD SVG 1.1//EN" "http://www.w3.org/Graphics/SVG/1.1/DTD/svg11.dtd">
<svg version="1.1" id="Layer_1" xmlns="http://www.w3.org/2000/svg" xmlns:xlink="http://www.w3.org/1999/xlink" x="0px" y="0px"
	 width="210px" height="36px" viewBox="0 0 210 36" enable-background="new 0 0 210 36" xml:space="preserve">
<g>
	<g>
		<g>
			<g>
				<path fill-rule="evenodd" clip-rule="evenodd" fill="#828282" d="M12.923,15.634h11.401l2.866,4.311
					c0.52,0.782,1.572,0.992,2.35,0.469c0.778-0.522,0.987-1.581,0.467-2.363L19.987,2.979c-0.336-0.506-0.916-0.793-1.52-0.753
					c-0.604,0.04-1.141,0.4-1.409,0.946s-0.225,1.194,0.111,1.7l4.89,7.356H12.01c-0.57,0-1.102,0.289-1.416,0.768l-3.315,5.067
					c-0.333,0.508-0.37,1.157-0.099,1.7c0.271,0.544,0.811,0.901,1.416,0.937c0.604,0.035,1.181-0.256,1.514-0.765L12.923,15.634
					L12.923,15.634z M53.779,18.999V3.968c0-0.708-0.426-1.347-1.078-1.616c-0.652-0.269-1.401-0.115-1.896,0.389l-8.601,8.767
					l-9.022-8.857c-0.433-0.424-1.076-0.547-1.633-0.311c-0.557,0.236-0.919,0.784-0.919,1.392v15.267
					c0,0.941,0.758,1.704,1.694,1.704c0.936,0,1.694-0.763,1.694-1.704V8.234l7.49,7.354c0.41,0.402,1.066,0.396,1.468-0.014
					l7.414-7.558v10.983c0,0.941,0.758,1.704,1.694,1.704C53.021,20.702,53.779,19.939,53.779,18.999L53.779,18.999z M78.047,16.043
					c0.083-0.937-0.606-1.764-1.538-1.847c-0.932-0.083-1.755,0.609-1.837,1.546c-0.077,0.879-0.81,1.553-1.688,1.553H59.802
					c-0.449,0-0.88-0.18-1.198-0.499s-0.496-0.753-0.496-1.205v-8.26c0-0.452,0.178-0.885,0.496-1.204
					c0.318-0.32,0.749-0.499,1.198-0.499h13.182c0.878,0,1.61,0.674,1.688,1.553c0.083,0.938,0.905,1.629,1.837,1.546
					c0.932-0.083,1.62-0.91,1.538-1.847c-0.232-2.637-2.429-4.659-5.062-4.659H59.802c-1.348,0-2.641,0.539-3.594,1.497
					c-0.953,0.958-1.488,2.258-1.488,3.613v8.26c0,1.355,0.535,2.655,1.488,3.613c0.953,0.958,2.246,1.497,3.594,1.497h13.182
					C75.618,20.702,77.814,18.68,78.047,16.043L78.047,16.043z"/>
				<path fill-rule="evenodd" clip-rule="evenodd" fill="#009AD9" d="M96.356,20.702c2.621,0,4.93-1.73,5.68-4.255
					s-0.239-5.245-2.431-6.689c0.913-1.54,0.933-3.455,0.052-5.014s-2.527-2.522-4.31-2.522H80.825
					c-0.605,0-1.165,0.325-1.467,0.852c-0.303,0.527-0.303,1.176,0,1.704c0.303,0.527,0.862,0.852,1.467,0.852h14.522
					c0.866,0,1.569,0.706,1.569,1.578c0,0.871-0.703,1.577-1.569,1.577H80.825c-0.449,0-0.88,0.18-1.198,0.499
					c-0.317,0.319-0.496,0.752-0.496,1.205v8.512c0,0.452,0.179,0.885,0.496,1.205c0.318,0.319,0.749,0.499,1.198,0.499H96.356
					L96.356,20.702z M96.356,17.295c1.402,0,2.539-1.143,2.539-2.553s-1.137-2.553-2.539-2.553H82.519v5.105H96.356L96.356,17.295z
					 M125.63,18.999v-3.626c0-1.593-0.739-3.095-1.999-4.062c1.259-1.741,1.439-4.045,0.468-5.963
					c-0.972-1.918-2.932-3.126-5.072-3.126h-14.851c-0.605,0-1.165,0.325-1.467,0.852c-0.303,0.527-0.303,1.176,0,1.704
					c0.303,0.527,0.862,0.852,1.467,0.852h14.851c1.272,0,2.304,1.038,2.304,2.317c0,1.28-1.032,2.317-2.304,2.317h-14.851
					c-0.45,0-0.88,0.179-1.198,0.499c-0.317,0.319-0.496,0.752-0.496,1.204v7.033c0,0.941,0.759,1.704,1.694,1.704
					s1.694-0.763,1.694-1.704v-5.329h14.678c0.45,0,0.88,0.179,1.198,0.499c0.317,0.32,0.496,0.753,0.496,1.205v3.626
					c0,0.941,0.758,1.704,1.694,1.704C124.872,20.702,125.63,19.939,125.63,18.999L125.63,18.999z M130.204,18.999V3.925
					c0-0.609-0.323-1.171-0.847-1.476c-0.524-0.304-1.17-0.304-1.694,0c-0.524,0.305-0.847,0.867-0.847,1.476v15.073
					c0,0.941,0.758,1.704,1.694,1.704C129.446,20.702,130.204,19.939,130.204,18.999L130.204,18.999z M133.284,20.702h15.761
					c3.144,0,5.693-2.563,5.693-5.724V7.945c0-1.518-0.6-2.974-1.667-4.047c-1.067-1.073-2.516-1.676-4.025-1.676h-15.761
					c-0.449,0-0.88,0.18-1.198,0.499c-0.318,0.319-0.497,0.752-0.497,1.205v15.073c0,0.452,0.179,0.885,0.497,1.205
					C132.404,20.522,132.835,20.702,133.284,20.702L133.284,20.702z M134.978,17.295V5.628h14.067c0.611,0,1.198,0.244,1.63,0.679
					s0.675,1.024,0.675,1.638v7.033c0,1.28-1.032,2.317-2.305,2.317H134.978L134.978,17.295z M201.306,20.702h-19.771
					c-0.449,0-0.88-0.18-1.198-0.499c-0.318-0.319-0.497-0.753-0.497-1.205v-8.052c0-0.452,0.179-0.885,0.497-1.205
					c0.317-0.319,0.749-0.499,1.198-0.499h17.77c0.936,0,1.694,0.763,1.694,1.704c0,0.94-0.758,1.703-1.694,1.703h-16.076v4.646
					h18.077c0.936,0,1.694,0.763,1.694,1.703C203,19.939,202.242,20.702,201.306,20.702L201.306,20.702z M201.306,5.628h-19.771
					c-0.605,0-1.165-0.325-1.467-0.852c-0.303-0.527-0.303-1.176,0-1.704c0.303-0.527,0.862-0.852,1.467-0.852h19.771
					c0.936,0,1.694,0.763,1.694,1.704C203,4.866,202.242,5.628,201.306,5.628L201.306,5.628z M174.15,20.702
					c2.446,0,4.429-1.994,4.429-4.453v-4.283c0-0.452-0.179-0.885-0.496-1.204c-0.318-0.32-0.749-0.499-1.198-0.499h-12.984
					c-0.605,0-1.164,0.325-1.467,0.852s-0.303,1.176,0,1.703c0.303,0.527,0.862,0.852,1.467,0.852h11.29v2.58
					c0,0.578-0.466,1.046-1.041,1.046h-13.638c-0.449,0-0.88-0.18-1.198-0.499s-0.496-0.753-0.496-1.205v-8.26
					c0-0.452,0.178-0.885,0.496-1.204c0.318-0.32,0.749-0.499,1.198-0.499h12.984c0.878,0,1.61,0.674,1.688,1.553
					c0.083,0.938,0.905,1.629,1.837,1.546c0.932-0.083,1.621-0.91,1.538-1.847c-0.232-2.637-2.43-4.659-5.062-4.659h-12.984
					c-1.348,0-2.641,0.539-3.594,1.497c-0.953,0.958-1.488,2.258-1.488,3.613v8.26c0,1.355,0.535,2.655,1.488,3.613
					c0.953,0.958,2.246,1.497,3.594,1.497H174.15L174.15,20.702z"/>
			</g>
		</g>
	</g>
	<g>
		<g>
			<path fill="#646464" d="M11.467,31.338H7.884V24.91h3.583v0.664H8.631v2.071h2.664v0.66H8.631v2.365h2.836V31.338z"/>
			<path fill="#646464" d="M16.079,31.338v-3.117c0-0.393-0.089-0.686-0.268-0.879s-0.459-0.29-0.84-0.29
				c-0.504,0-0.874,0.136-1.108,0.409s-0.352,0.723-0.352,1.35v2.528h-0.73V26.52h0.593l0.119,0.66h0.035
				c0.149-0.237,0.359-0.421,0.628-0.552s0.57-0.196,0.901-0.196c0.581,0,1.017,0.14,1.31,0.42c0.293,0.28,0.44,0.728,0.44,1.343
				v3.144H16.079z"/>
			<path fill="#646464" d="M22.252,26.52v0.462l-0.893,0.105c0.082,0.103,0.155,0.237,0.22,0.402s0.097,0.352,0.097,0.561
				c0,0.472-0.161,0.849-0.483,1.13c-0.323,0.281-0.765,0.422-1.328,0.422c-0.144,0-0.278-0.012-0.404-0.035
				c-0.311,0.164-0.466,0.371-0.466,0.62c0,0.132,0.054,0.229,0.163,0.292c0.108,0.063,0.294,0.094,0.558,0.094h0.853
				c0.522,0,0.922,0.11,1.203,0.33c0.28,0.22,0.42,0.539,0.42,0.958c0,0.533-0.214,0.94-0.642,1.22s-1.052,0.42-1.873,0.42
				c-0.63,0-1.116-0.117-1.458-0.352s-0.512-0.566-0.512-0.994c0-0.293,0.094-0.547,0.281-0.761
				c0.188-0.214,0.452-0.359,0.792-0.435c-0.123-0.056-0.226-0.142-0.31-0.26c-0.083-0.117-0.125-0.253-0.125-0.409
				c0-0.176,0.047-0.33,0.141-0.462c0.094-0.132,0.242-0.259,0.444-0.382c-0.249-0.103-0.452-0.277-0.609-0.523
				c-0.157-0.247-0.235-0.528-0.235-0.844c0-0.528,0.158-0.935,0.475-1.22s0.765-0.429,1.345-0.429c0.252,0,0.479,0.029,0.682,0.088
				H22.252z M18.41,32.147c0,0.261,0.11,0.458,0.33,0.593s0.535,0.203,0.945,0.203c0.613,0,1.066-0.092,1.361-0.275
				s0.442-0.432,0.442-0.745c0-0.261-0.081-0.442-0.242-0.543c-0.161-0.102-0.465-0.152-0.91-0.152H19.46
				c-0.331,0-0.589,0.079-0.774,0.237S18.41,31.851,18.41,32.147z M18.805,28.063c0,0.337,0.095,0.592,0.286,0.765
				c0.19,0.173,0.456,0.26,0.795,0.26c0.712,0,1.068-0.346,1.068-1.038c0-0.724-0.36-1.086-1.082-1.086
				c-0.343,0-0.606,0.092-0.791,0.277C18.897,27.425,18.805,27.699,18.805,28.063z"/>
			<path fill="#646464" d="M23.18,25.214c0-0.167,0.041-0.29,0.123-0.367s0.185-0.117,0.308-0.117c0.117,0,0.218,0.04,0.303,0.119
				c0.085,0.079,0.128,0.201,0.128,0.365S24,25.5,23.914,25.581c-0.085,0.081-0.186,0.121-0.303,0.121
				c-0.123,0-0.226-0.04-0.308-0.121S23.18,25.378,23.18,25.214z M23.972,31.338h-0.73V26.52h0.73V31.338z"/>
			<path fill="#646464" d="M28.816,31.338v-3.117c0-0.393-0.089-0.686-0.268-0.879s-0.459-0.29-0.84-0.29
				c-0.504,0-0.874,0.136-1.108,0.409s-0.352,0.723-0.352,1.35v2.528h-0.73V26.52h0.593l0.119,0.66h0.035
				c0.149-0.237,0.359-0.421,0.628-0.552s0.57-0.196,0.901-0.196c0.581,0,1.017,0.14,1.31,0.42c0.293,0.28,0.44,0.728,0.44,1.343
				v3.144H28.816z"/>
			<path fill="#646464" d="M33.082,31.426c-0.712,0-1.274-0.217-1.686-0.651c-0.412-0.434-0.618-1.036-0.618-1.807
				c0-0.777,0.191-1.394,0.574-1.851c0.382-0.458,0.896-0.686,1.541-0.686c0.604,0,1.082,0.199,1.433,0.596
				c0.352,0.397,0.528,0.921,0.528,1.572v0.462h-3.32c0.015,0.565,0.158,0.995,0.429,1.288s0.653,0.439,1.146,0.439
				c0.519,0,1.032-0.108,1.539-0.325v0.651c-0.258,0.111-0.502,0.191-0.732,0.24C33.685,31.402,33.407,31.426,33.082,31.426z
				 M32.884,27.043c-0.387,0-0.696,0.126-0.926,0.378s-0.366,0.601-0.407,1.046h2.52c0-0.46-0.103-0.812-0.308-1.058
				C33.558,27.165,33.265,27.043,32.884,27.043z"/>
			<path fill="#646464" d="M38.133,31.426c-0.712,0-1.274-0.217-1.686-0.651c-0.412-0.434-0.618-1.036-0.618-1.807
				c0-0.777,0.191-1.394,0.574-1.851c0.382-0.458,0.896-0.686,1.541-0.686c0.604,0,1.082,0.199,1.433,0.596
				c0.352,0.397,0.528,0.921,0.528,1.572v0.462h-3.32c0.015,0.565,0.158,0.995,0.429,1.288s0.653,0.439,1.146,0.439
				c0.519,0,1.032-0.108,1.539-0.325v0.651c-0.258,0.111-0.502,0.191-0.732,0.24C38.736,31.402,38.458,31.426,38.133,31.426z
				 M37.936,27.043c-0.387,0-0.696,0.126-0.926,0.378s-0.366,0.601-0.407,1.046h2.52c0-0.46-0.103-0.812-0.308-1.058
				C38.609,27.165,38.316,27.043,37.936,27.043z"/>
			<path fill="#646464" d="M43.348,26.432c0.214,0,0.406,0.018,0.576,0.053l-0.101,0.677c-0.2-0.044-0.375-0.066-0.528-0.066
				c-0.39,0-0.723,0.158-1,0.475c-0.277,0.316-0.415,0.711-0.415,1.183v2.585h-0.73V26.52h0.602l0.083,0.893h0.036
				c0.179-0.313,0.394-0.556,0.646-0.726S43.046,26.432,43.348,26.432z"/>
			<path fill="#646464" d="M44.764,25.214c0-0.167,0.041-0.29,0.123-0.367s0.185-0.117,0.308-0.117c0.117,0,0.218,0.04,0.303,0.119
				c0.085,0.079,0.128,0.201,0.128,0.365s-0.042,0.287-0.128,0.367c-0.085,0.081-0.186,0.121-0.303,0.121
				c-0.123,0-0.226-0.04-0.308-0.121S44.764,25.378,44.764,25.214z M45.555,31.338h-0.73V26.52h0.73V31.338z"/>
			<path fill="#646464" d="M50.4,31.338v-3.117c0-0.393-0.089-0.686-0.268-0.879s-0.459-0.29-0.84-0.29
				c-0.504,0-0.874,0.136-1.108,0.409s-0.352,0.723-0.352,1.35v2.528h-0.73V26.52h0.593l0.119,0.66h0.035
				c0.149-0.237,0.359-0.421,0.628-0.552s0.57-0.196,0.901-0.196c0.581,0,1.017,0.14,1.31,0.42c0.293,0.28,0.44,0.728,0.44,1.343
				v3.144H50.4z"/>
			<path fill="#646464" d="M56.573,26.52v0.462l-0.893,0.105c0.082,0.103,0.155,0.237,0.22,0.402s0.097,0.352,0.097,0.561
				c0,0.472-0.161,0.849-0.483,1.13c-0.323,0.281-0.765,0.422-1.328,0.422c-0.144,0-0.278-0.012-0.404-0.035
				c-0.311,0.164-0.466,0.371-0.466,0.62c0,0.132,0.054,0.229,0.163,0.292c0.108,0.063,0.294,0.094,0.558,0.094h0.853
				c0.522,0,0.922,0.11,1.203,0.33c0.28,0.22,0.42,0.539,0.42,0.958c0,0.533-0.214,0.94-0.642,1.22s-1.052,0.42-1.873,0.42
				c-0.63,0-1.116-0.117-1.458-0.352s-0.512-0.566-0.512-0.994c0-0.293,0.094-0.547,0.281-0.761
				c0.188-0.214,0.452-0.359,0.792-0.435c-0.123-0.056-0.226-0.142-0.31-0.26c-0.083-0.117-0.125-0.253-0.125-0.409
				c0-0.176,0.047-0.33,0.141-0.462c0.094-0.132,0.242-0.259,0.444-0.382c-0.249-0.103-0.452-0.277-0.609-0.523
				c-0.157-0.247-0.235-0.528-0.235-0.844c0-0.528,0.158-0.935,0.475-1.22s0.765-0.429,1.345-0.429c0.252,0,0.479,0.029,0.682,0.088
				H56.573z M52.73,32.147c0,0.261,0.11,0.458,0.33,0.593s0.535,0.203,0.945,0.203c0.613,0,1.066-0.092,1.361-0.275
				s0.442-0.432,0.442-0.745c0-0.261-0.081-0.442-0.242-0.543c-0.161-0.102-0.465-0.152-0.91-0.152h-0.875
				c-0.331,0-0.589,0.079-0.774,0.237S52.73,31.851,52.73,32.147z M53.126,28.063c0,0.337,0.095,0.592,0.286,0.765
				c0.19,0.173,0.456,0.26,0.795,0.26c0.712,0,1.068-0.346,1.068-1.038c0-0.724-0.36-1.086-1.082-1.086
				c-0.343,0-0.606,0.092-0.791,0.277C53.218,27.425,53.126,27.699,53.126,28.063z"/>
			<path fill="#646464" d="M63.639,29.628c0,0.566-0.206,1.007-0.616,1.324c-0.411,0.316-0.967,0.475-1.671,0.475
				c-0.762,0-1.348-0.098-1.759-0.294v-0.721c0.264,0.111,0.551,0.199,0.862,0.264c0.311,0.064,0.619,0.097,0.923,0.097
				c0.499,0,0.874-0.094,1.125-0.283c0.252-0.189,0.378-0.452,0.378-0.79c0-0.223-0.045-0.405-0.134-0.547
				c-0.089-0.142-0.239-0.273-0.448-0.394c-0.21-0.12-0.528-0.256-0.957-0.409c-0.598-0.214-1.025-0.467-1.282-0.761
				c-0.256-0.293-0.384-0.675-0.384-1.147c0-0.495,0.186-0.89,0.558-1.183s0.865-0.44,1.478-0.44c0.639,0,1.227,0.118,1.763,0.352
				l-0.233,0.65c-0.53-0.223-1.046-0.334-1.547-0.334c-0.396,0-0.705,0.085-0.928,0.255c-0.223,0.17-0.334,0.406-0.334,0.708
				c0,0.223,0.041,0.405,0.123,0.547s0.221,0.272,0.416,0.391c0.195,0.119,0.493,0.25,0.895,0.394
				c0.674,0.241,1.138,0.499,1.392,0.774C63.512,28.831,63.639,29.188,63.639,29.628z"/>
			<path fill="#646464" d="M69.002,28.925c0,0.785-0.198,1.399-0.594,1.84c-0.396,0.441-0.942,0.662-1.64,0.662
				c-0.431,0-0.813-0.101-1.147-0.303c-0.334-0.202-0.592-0.493-0.774-0.871s-0.272-0.821-0.272-1.328
				c0-0.786,0.196-1.397,0.589-1.836c0.393-0.438,0.938-0.657,1.636-0.657c0.674,0,1.209,0.224,1.607,0.673
				C68.804,27.553,69.002,28.16,69.002,28.925z M65.331,28.925c0,0.615,0.123,1.084,0.37,1.407c0.246,0.322,0.608,0.483,1.086,0.483
				c0.478,0,0.84-0.16,1.088-0.481c0.248-0.321,0.372-0.791,0.372-1.409c0-0.613-0.124-1.078-0.372-1.396
				c-0.248-0.318-0.613-0.477-1.097-0.477c-0.478,0-0.838,0.157-1.082,0.47C65.453,27.836,65.331,28.303,65.331,28.925z"/>
			<path fill="#646464" d="M72.454,27.087h-1.227v4.251h-0.73v-4.251h-0.862v-0.33l0.862-0.264v-0.268
				c0-1.184,0.517-1.776,1.552-1.776c0.255,0,0.554,0.051,0.897,0.154l-0.189,0.585c-0.281-0.091-0.521-0.136-0.721-0.136
				c-0.276,0-0.479,0.091-0.611,0.274c-0.132,0.184-0.198,0.477-0.198,0.882v0.312h1.227V27.087z"/>
			<path fill="#646464" d="M74.89,30.824c0.129,0,0.254-0.009,0.374-0.028s0.215-0.039,0.286-0.06v0.559
				c-0.079,0.038-0.196,0.069-0.35,0.095c-0.154,0.024-0.292,0.037-0.416,0.037c-0.932,0-1.398-0.491-1.398-1.473v-2.867h-0.69
				v-0.352l0.69-0.303l0.308-1.029h0.422v1.117h1.398v0.567h-1.398v2.836c0,0.29,0.069,0.513,0.207,0.668
				S74.649,30.824,74.89,30.824z"/>
			<path fill="#646464" d="M80.447,31.338l-0.884-2.827c-0.056-0.173-0.16-0.565-0.312-1.178h-0.035
				c-0.118,0.513-0.22,0.909-0.308,1.187l-0.91,2.818h-0.844l-1.314-4.819h0.765c0.311,1.21,0.547,2.132,0.71,2.766
				s0.256,1.06,0.279,1.279h0.035c0.032-0.167,0.084-0.383,0.156-0.648c0.072-0.265,0.134-0.476,0.187-0.631l0.884-2.766h0.792
				l0.862,2.766c0.164,0.504,0.275,0.928,0.334,1.271h0.035c0.012-0.105,0.043-0.268,0.095-0.488
				c0.051-0.22,0.357-1.403,0.917-3.548h0.756l-1.332,4.819H80.447z"/>
			<path fill="#646464" d="M86.479,31.338l-0.145-0.686h-0.035c-0.241,0.302-0.48,0.506-0.719,0.613
				c-0.239,0.107-0.537,0.161-0.895,0.161c-0.478,0-0.852-0.123-1.124-0.369c-0.271-0.247-0.407-0.597-0.407-1.051
				c0-0.973,0.778-1.483,2.335-1.53l0.818-0.026v-0.299c0-0.378-0.082-0.657-0.244-0.838c-0.163-0.18-0.423-0.27-0.78-0.27
				c-0.402,0-0.856,0.123-1.363,0.369l-0.224-0.559c0.237-0.129,0.498-0.23,0.78-0.303c0.283-0.073,0.566-0.11,0.851-0.11
				c0.574,0,1,0.127,1.277,0.382c0.277,0.255,0.416,0.664,0.416,1.227v3.289H86.479z M84.831,30.824
				c0.455,0,0.811-0.125,1.071-0.374c0.259-0.249,0.389-0.598,0.389-1.046v-0.435L85.561,29c-0.581,0.021-0.999,0.11-1.255,0.27
				c-0.256,0.16-0.385,0.408-0.385,0.746c0,0.264,0.08,0.464,0.24,0.602S84.543,30.824,84.831,30.824z"/>
			<path fill="#646464" d="M90.722,26.432c0.214,0,0.406,0.018,0.576,0.053l-0.101,0.677c-0.2-0.044-0.375-0.066-0.528-0.066
				c-0.39,0-0.723,0.158-1,0.475c-0.277,0.316-0.415,0.711-0.415,1.183v2.585h-0.73V26.52h0.602l0.083,0.893h0.036
				c0.179-0.313,0.394-0.556,0.646-0.726S90.42,26.432,90.722,26.432z"/>
			<path fill="#646464" d="M94.235,31.426c-0.712,0-1.274-0.217-1.686-0.651c-0.412-0.434-0.618-1.036-0.618-1.807
				c0-0.777,0.191-1.394,0.574-1.851c0.382-0.458,0.896-0.686,1.541-0.686c0.604,0,1.082,0.199,1.433,0.596
				c0.352,0.397,0.528,0.921,0.528,1.572v0.462h-3.32c0.015,0.565,0.158,0.995,0.429,1.288s0.653,0.439,1.146,0.439
				c0.519,0,1.032-0.108,1.539-0.325v0.651c-0.258,0.111-0.502,0.191-0.732,0.24C94.838,31.402,94.561,31.426,94.235,31.426z
				 M94.038,27.043c-0.387,0-0.696,0.126-0.926,0.378s-0.366,0.601-0.407,1.046h2.52c0-0.46-0.103-0.812-0.308-1.058
				C94.711,27.165,94.418,27.043,94.038,27.043z"/>
			<path fill="#646464" d="M104.831,28.063c0,1.061-0.288,1.872-0.864,2.434c-0.576,0.561-1.405,0.842-2.486,0.842H99.7V24.91h1.97
				c1,0,1.776,0.277,2.33,0.831C104.554,26.295,104.831,27.069,104.831,28.063z M104.04,28.089c0-0.838-0.21-1.47-0.631-1.895
				c-0.42-0.425-1.045-0.638-1.875-0.638h-1.086v5.135h0.91c0.891,0,1.561-0.219,2.009-0.657
				C103.815,29.597,104.04,28.948,104.04,28.089z"/>
			<path fill="#646464" d="M108.19,31.426c-0.712,0-1.274-0.217-1.686-0.651c-0.412-0.434-0.618-1.036-0.618-1.807
				c0-0.777,0.191-1.394,0.574-1.851c0.382-0.458,0.896-0.686,1.541-0.686c0.604,0,1.082,0.199,1.433,0.596
				c0.352,0.397,0.528,0.921,0.528,1.572v0.462h-3.32c0.015,0.565,0.158,0.995,0.429,1.288s0.653,0.439,1.146,0.439
				c0.519,0,1.032-0.108,1.539-0.325v0.651c-0.258,0.111-0.502,0.191-0.732,0.24C108.793,31.402,108.516,31.426,108.19,31.426z
				 M107.993,27.043c-0.387,0-0.696,0.126-0.926,0.378s-0.366,0.601-0.407,1.046h2.52c0-0.46-0.103-0.812-0.308-1.058
				C108.667,27.165,108.374,27.043,107.993,27.043z"/>
			<path fill="#646464" d="M112.262,31.338l-1.829-4.819h0.783l1.038,2.858c0.234,0.668,0.372,1.102,0.413,1.301h0.035
				c0.032-0.155,0.134-0.477,0.306-0.965c0.171-0.488,0.556-1.553,1.154-3.194h0.783l-1.829,4.819H112.262z"/>
			<path fill="#646464" d="M117.753,31.426c-0.712,0-1.274-0.217-1.686-0.651c-0.412-0.434-0.618-1.036-0.618-1.807
				c0-0.777,0.191-1.394,0.574-1.851c0.382-0.458,0.896-0.686,1.541-0.686c0.604,0,1.082,0.199,1.433,0.596
				c0.352,0.397,0.528,0.921,0.528,1.572v0.462h-3.32c0.015,0.565,0.158,0.995,0.429,1.288s0.653,0.439,1.146,0.439
				c0.519,0,1.032-0.108,1.539-0.325v0.651c-0.258,0.111-0.502,0.191-0.732,0.24C118.356,31.402,118.079,31.426,117.753,31.426z
				 M117.556,27.043c-0.387,0-0.696,0.126-0.926,0.378s-0.366,0.601-0.407,1.046h2.52c0-0.46-0.103-0.812-0.308-1.058
				C118.229,27.165,117.937,27.043,117.556,27.043z"/>
			<path fill="#646464" d="M121.5,31.338h-0.73v-6.841h0.73V31.338z"/>
			<path fill="#646464" d="M127.206,28.925c0,0.785-0.198,1.399-0.594,1.84c-0.396,0.441-0.942,0.662-1.64,0.662
				c-0.431,0-0.813-0.101-1.147-0.303c-0.334-0.202-0.592-0.493-0.774-0.871s-0.272-0.821-0.272-1.328
				c0-0.786,0.196-1.397,0.589-1.836c0.393-0.438,0.938-0.657,1.636-0.657c0.674,0,1.209,0.224,1.607,0.673
				C127.007,27.553,127.206,28.16,127.206,28.925z M123.535,28.925c0,0.615,0.123,1.084,0.37,1.407
				c0.246,0.322,0.608,0.483,1.086,0.483c0.478,0,0.84-0.16,1.088-0.481c0.248-0.321,0.372-0.791,0.372-1.409
				c0-0.613-0.124-1.078-0.372-1.396c-0.248-0.318-0.613-0.477-1.097-0.477c-0.478,0-0.838,0.157-1.082,0.47
				C123.656,27.836,123.535,28.303,123.535,28.925z"/>
			<path fill="#646464" d="M130.728,31.426c-0.313,0-0.6-0.058-0.859-0.174c-0.26-0.116-0.477-0.293-0.653-0.534h-0.053
				c0.036,0.282,0.053,0.548,0.053,0.8v1.983h-0.73V26.52h0.593l0.101,0.66h0.036c0.188-0.264,0.406-0.455,0.655-0.572
				s0.535-0.176,0.857-0.176c0.639,0,1.132,0.218,1.479,0.655c0.347,0.437,0.521,1.049,0.521,1.838c0,0.791-0.177,1.406-0.53,1.844
				S131.355,31.426,130.728,31.426z M130.623,27.052c-0.493,0-0.849,0.136-1.068,0.409s-0.333,0.707-0.338,1.301v0.163
				c0,0.677,0.113,1.161,0.338,1.453c0.226,0.292,0.587,0.437,1.086,0.437c0.416,0,0.742-0.168,0.978-0.505
				c0.236-0.337,0.354-0.802,0.354-1.394c0-0.601-0.118-1.062-0.354-1.383C131.382,27.212,131.05,27.052,130.623,27.052z"/>
			<path fill="#646464" d="M140.146,31.338v-3.135c0-0.384-0.082-0.672-0.246-0.864c-0.164-0.192-0.419-0.288-0.765-0.288
				c-0.455,0-0.79,0.13-1.007,0.391s-0.325,0.663-0.325,1.205v2.691h-0.73v-3.135c0-0.384-0.082-0.672-0.246-0.864
				c-0.165-0.192-0.421-0.288-0.77-0.288c-0.458,0-0.792,0.137-1.005,0.411c-0.212,0.274-0.318,0.723-0.318,1.347v2.528h-0.73V26.52
				h0.593l0.119,0.66h0.035c0.138-0.234,0.332-0.418,0.583-0.55c0.25-0.132,0.531-0.198,0.842-0.198
				c0.753,0,1.246,0.272,1.478,0.818h0.035c0.144-0.252,0.352-0.452,0.624-0.598s0.583-0.22,0.932-0.22
				c0.545,0,0.954,0.14,1.225,0.42s0.407,0.728,0.407,1.343v3.144H140.146z"/>
			<path fill="#646464" d="M144.416,31.426c-0.712,0-1.274-0.217-1.686-0.651c-0.412-0.434-0.618-1.036-0.618-1.807
				c0-0.777,0.191-1.394,0.574-1.851c0.382-0.458,0.896-0.686,1.541-0.686c0.604,0,1.082,0.199,1.433,0.596
				c0.352,0.397,0.528,0.921,0.528,1.572v0.462h-3.32c0.015,0.565,0.158,0.995,0.429,1.288s0.653,0.439,1.146,0.439
				c0.519,0,1.032-0.108,1.539-0.325v0.651c-0.258,0.111-0.502,0.191-0.732,0.24C145.019,31.402,144.741,31.426,144.416,31.426z
				 M144.218,27.043c-0.387,0-0.696,0.126-0.926,0.378s-0.366,0.601-0.407,1.046h2.52c0-0.46-0.103-0.812-0.308-1.058
				C144.892,27.165,144.599,27.043,144.218,27.043z"/>
			<path fill="#646464" d="M150.729,31.338v-3.117c0-0.393-0.089-0.686-0.268-0.879s-0.459-0.29-0.84-0.29
				c-0.504,0-0.874,0.136-1.108,0.409s-0.352,0.723-0.352,1.35v2.528h-0.73V26.52h0.593l0.119,0.66h0.035
				c0.149-0.237,0.359-0.421,0.628-0.552s0.57-0.196,0.901-0.196c0.581,0,1.017,0.14,1.31,0.42c0.293,0.28,0.44,0.728,0.44,1.343
				v3.144H150.729z"/>
			<path fill="#646464" d="M154.515,30.824c0.129,0,0.254-0.009,0.374-0.028s0.215-0.039,0.286-0.06v0.559
				c-0.079,0.038-0.196,0.069-0.35,0.095c-0.154,0.024-0.292,0.037-0.416,0.037c-0.932,0-1.398-0.491-1.398-1.473v-2.867h-0.69
				v-0.352l0.69-0.303l0.308-1.029h0.422v1.117h1.398v0.567h-1.398v2.836c0,0.29,0.069,0.513,0.207,0.668
				S154.274,30.824,154.515,30.824z"/>
			<path fill="#646464" d="M161.431,31.338l-2.181-5.698h-0.035c0.041,0.452,0.062,0.988,0.062,1.609v4.089h-0.69V24.91h1.125
				l2.036,5.303h0.035l2.053-5.303h1.117v6.428h-0.747v-4.142c0-0.475,0.021-0.991,0.062-1.548h-0.035l-2.199,5.689H161.431z"/>
			<path fill="#646464" d="M169.569,31.338l-0.145-0.686h-0.035c-0.241,0.302-0.48,0.506-0.719,0.613
				c-0.239,0.107-0.537,0.161-0.895,0.161c-0.478,0-0.852-0.123-1.124-0.369c-0.271-0.247-0.407-0.597-0.407-1.051
				c0-0.973,0.778-1.483,2.335-1.53l0.818-0.026v-0.299c0-0.378-0.082-0.657-0.244-0.838c-0.163-0.18-0.423-0.27-0.78-0.27
				c-0.402,0-0.856,0.123-1.363,0.369l-0.224-0.559c0.237-0.129,0.498-0.23,0.78-0.303c0.283-0.073,0.566-0.11,0.851-0.11
				c0.574,0,1,0.127,1.277,0.382c0.277,0.255,0.416,0.664,0.416,1.227v3.289H169.569z M167.92,30.824
				c0.455,0,0.811-0.125,1.071-0.374c0.259-0.249,0.389-0.598,0.389-1.046v-0.435L168.65,29c-0.581,0.021-0.999,0.11-1.255,0.27
				c-0.256,0.16-0.385,0.408-0.385,0.746c0,0.264,0.08,0.464,0.24,0.602S167.633,30.824,167.92,30.824z"/>
			<path fill="#646464" d="M174.893,30.692h-0.04c-0.337,0.49-0.841,0.734-1.512,0.734c-0.63,0-1.121-0.215-1.471-0.646
				c-0.351-0.431-0.525-1.043-0.525-1.837c0-0.794,0.176-1.412,0.527-1.851c0.352-0.44,0.841-0.66,1.469-0.66
				c0.653,0,1.155,0.237,1.503,0.712h0.057l-0.031-0.348l-0.018-0.338v-1.961h0.73v6.841h-0.594L174.893,30.692z M173.434,30.815
				c0.498,0,0.859-0.135,1.083-0.406c0.224-0.271,0.336-0.709,0.336-1.312v-0.154c0-0.683-0.114-1.17-0.341-1.462
				c-0.227-0.292-0.59-0.438-1.088-0.438c-0.428,0-0.756,0.166-0.983,0.499c-0.227,0.333-0.341,0.802-0.341,1.409
				c0,0.615,0.113,1.08,0.339,1.394C172.666,30.658,172.997,30.815,173.434,30.815z"/>
			<path fill="#646464" d="M179.167,31.426c-0.712,0-1.274-0.217-1.686-0.651c-0.412-0.434-0.618-1.036-0.618-1.807
				c0-0.777,0.191-1.394,0.574-1.851c0.382-0.458,0.896-0.686,1.541-0.686c0.604,0,1.082,0.199,1.433,0.596
				c0.352,0.397,0.528,0.921,0.528,1.572v0.462h-3.32c0.015,0.565,0.158,0.995,0.429,1.288s0.653,0.439,1.146,0.439
				c0.519,0,1.032-0.108,1.539-0.325v0.651c-0.258,0.111-0.502,0.191-0.732,0.24C179.77,31.402,179.492,31.426,179.167,31.426z
				 M178.969,27.043c-0.387,0-0.696,0.126-0.926,0.378s-0.366,0.601-0.407,1.046h2.52c0-0.46-0.103-0.812-0.308-1.058
				C179.643,27.165,179.35,27.043,178.969,27.043z"/>
			<path fill="#646464" d="M188.215,31.338h-3.583V24.91h3.583v0.664h-2.836v2.071h2.664v0.66h-2.664v2.365h2.836V31.338z"/>
			<path fill="#646464" d="M192.493,31.338l-0.145-0.686h-0.035c-0.241,0.302-0.48,0.506-0.719,0.613
				c-0.239,0.107-0.537,0.161-0.895,0.161c-0.478,0-0.852-0.123-1.124-0.369c-0.271-0.247-0.407-0.597-0.407-1.051
				c0-0.973,0.778-1.483,2.335-1.53l0.818-0.026v-0.299c0-0.378-0.082-0.657-0.244-0.838c-0.163-0.18-0.423-0.27-0.78-0.27
				c-0.402,0-0.856,0.123-1.363,0.369l-0.224-0.559c0.237-0.129,0.498-0.23,0.78-0.303c0.283-0.073,0.566-0.11,0.851-0.11
				c0.574,0,1,0.127,1.277,0.382c0.277,0.255,0.416,0.664,0.416,1.227v3.289H192.493z M190.844,30.824
				c0.455,0,0.811-0.125,1.071-0.374c0.259-0.249,0.389-0.598,0.389-1.046v-0.435L191.574,29c-0.581,0.021-0.999,0.11-1.255,0.27
				c-0.256,0.16-0.385,0.408-0.385,0.746c0,0.264,0.08,0.464,0.24,0.602S190.557,30.824,190.844,30.824z"/>
			<path fill="#646464" d="M197.646,30.024c0,0.448-0.167,0.794-0.501,1.038c-0.334,0.243-0.803,0.365-1.407,0.365
				c-0.639,0-1.137-0.101-1.495-0.303v-0.677c0.232,0.117,0.48,0.209,0.746,0.277c0.265,0.068,0.521,0.101,0.767,0.101
				c0.381,0,0.674-0.061,0.879-0.182s0.308-0.307,0.308-0.556c0-0.188-0.081-0.348-0.244-0.481c-0.163-0.133-0.48-0.291-0.952-0.473
				c-0.448-0.167-0.767-0.313-0.956-0.438c-0.189-0.125-0.33-0.266-0.422-0.424s-0.139-0.347-0.139-0.567
				c0-0.393,0.16-0.703,0.479-0.93s0.758-0.341,1.314-0.341c0.519,0,1.026,0.105,1.521,0.316l-0.259,0.594
				c-0.484-0.199-0.922-0.299-1.315-0.299c-0.346,0-0.606,0.054-0.783,0.163c-0.176,0.108-0.264,0.258-0.264,0.448
				c0,0.129,0.033,0.239,0.099,0.33s0.172,0.177,0.319,0.259c0.146,0.082,0.428,0.201,0.844,0.356
				c0.572,0.208,0.958,0.418,1.159,0.629S197.646,29.704,197.646,30.024z"/>
			<path fill="#646464" d="M198.068,26.52h0.783l1.055,2.748c0.231,0.627,0.375,1.08,0.431,1.358h0.035
				c0.038-0.149,0.118-0.405,0.24-0.767s0.52-1.475,1.194-3.339h0.783l-2.071,5.487c-0.206,0.542-0.445,0.927-0.719,1.154
				c-0.274,0.227-0.61,0.341-1.009,0.341c-0.223,0-0.443-0.025-0.66-0.075v-0.584c0.161,0.035,0.341,0.053,0.541,0.053
				c0.501,0,0.858-0.282,1.073-0.844l0.268-0.686L198.068,26.52z"/>
		</g>
	</g>
</g>
</svg>
