<?xml version="1.0" standalone="no"?>
<!-- Generator: Adobe Fireworks 10, Export SVG Extension by Aaron Beall (http://fireworks.abeall.com) . Version: 0.6.1  -->
<!DOCTYPE svg PUBLIC "-//W3C//DTD SVG 1.1//EN" "http://www.w3.org/Graphics/SVG/1.1/DTD/svg11.dtd">
<svg id="Logo.fw-Page%201" viewBox="0 0 692 144" style="background-color:#ffffff00" version="1.1"
	xmlns="http://www.w3.org/2000/svg" xmlns:xlink="http://www.w3.org/1999/xlink" xml:space="preserve"
	x="0px" y="0px" width="692px" height="144px"
>
	<path d="M 486.9487 116.7954 C 489.498 122.8501 493.1567 127.8818 497.8438 131.8501 C 502.5303 135.8591 508.1216 138.8865 514.6172 140.9319 C 521.1133 142.9773 528.2666 144 536.0781 144 C 541.916 144 547.3838 143.5908 552.3994 142.7727 C 557.415 141.9546 562.3896 140.5637 567.2822 138.6001 L 564.7744 123.0544 C 559.9229 125.2637 555.4829 126.6956 551.4131 127.3501 C 547.3018 128.0046 543.0674 128.291 538.627 128.291 C 533.1182 128.291 528.061 127.6772 523.4976 126.3682 C 518.8931 125.1001 514.9873 123.1365 511.7393 120.4773 C 508.4917 117.8591 505.9839 114.5046 504.1748 110.4546 C 502.3662 106.4045 501.5024 101.5364 501.5024 95.8501 C 501.5024 89.959 502.4482 84.8865 504.3394 80.7136 C 506.2305 76.541 508.7793 73.1045 511.9863 70.4863 C 515.1929 67.8682 518.9341 65.9045 523.292 64.6772 C 527.6499 63.45 532.2544 62.8364 537.147 62.8364 C 540.9292 62.8364 544.7114 63.1636 548.4526 63.8181 C 552.1528 64.4727 556.2642 65.8635 560.7861 68.0728 L 564.6509 51.9136 C 559.3887 50.1135 554.4961 48.8455 549.8916 48.1499 C 545.2871 47.4954 540.6416 47.1272 535.9546 47.1272 C 528.6367 47.1272 521.812 48.1091 515.3984 50.0317 C 508.9849 51.9546 503.3936 54.8999 498.5835 58.9092 C 493.7324 62.9182 489.9502 67.95 487.1953 74.0454 C 484.4414 80.1819 483.0845 87.4229 483.0845 95.7681 C 483.0845 103.7454 484.3589 110.741 486.9487 116.7954 ZM 404.5356 27.5728 C 407.0845 24.9954 408.3589 21.4773 408.3589 17.0181 C 408.3589 12.6001 407.0845 9.0818 404.5356 6.5046 C 401.9866 3.9272 398.9033 2.6182 395.2031 2.6182 C 391.6265 2.6182 388.543 3.9272 385.9526 6.5046 C 383.3218 9.0818 382.0474 12.6001 382.0474 17.0181 C 382.0474 21.4773 383.3218 24.9954 385.9526 27.5728 C 388.543 30.1499 391.6265 31.4182 395.2031 31.4182 C 398.9033 31.4182 401.9866 30.1499 404.5356 27.5728 ZM 389.9407 106.0364 C 389.9407 112.2954 390.4341 117.7773 391.4209 122.5227 C 392.4075 127.2681 394.0933 131.2363 396.5598 134.4272 C 399.0266 137.6182 402.2744 140.0317 406.3857 141.6272 C 410.4556 143.2227 415.5947 144 421.8027 144 C 424.4338 144 427.0239 143.7954 429.4907 143.3455 C 431.9575 142.9363 434.1775 142.4045 436.2329 141.8318 C 438.2476 141.259 440.0151 140.6045 441.5776 139.95 C 443.1396 139.2954 444.332 138.7637 445.1953 138.3137 L 442.7285 123.0544 C 440.8379 124.3635 438.2065 125.55 434.8765 126.6545 C 431.5051 127.759 427.8462 128.291 423.8994 128.291 C 418.7192 128.291 414.8135 126.7363 412.2236 123.5454 C 409.6333 120.3545 408.3589 114.1365 408.3589 104.8091 L 408.3589 47.1272 L 360.9976 47.1272 L 360.9976 62.8364 L 389.9407 62.8364 L 389.9407 106.0364 ZM 317.8462 47.1272 L 244.1733 47.1272 L 244.1733 62.8364 L 293.9189 62.8364 C 290.6301 66.6001 247.0513 126.041 244.1733 131.3999 L 244.1733 144 L 317.8462 144 L 317.8462 128.291 L 269.2517 128.291 C 272.7874 122.2363 315.4619 64.1863 317.8462 61.3635 L 317.8462 47.1272 ZM 666.4282 119.5364 C 661.6592 125.3865 655.2046 128.291 647.0645 128.291 C 639.0474 128.291 632.6748 125.3865 627.9883 119.5364 C 623.3018 113.6863 620.958 105.709 620.958 95.6455 C 620.958 85.5 623.3018 77.4819 627.9883 71.6318 C 632.6748 65.7817 639.0474 62.8364 647.0645 62.8364 C 655.2046 62.8364 661.6592 65.7817 666.4282 71.6318 C 671.1973 77.4819 673.582 85.5 673.582 95.6455 C 673.582 105.709 671.1973 113.6863 666.4282 119.5364 ZM 688.6699 75.6409 C 686.4502 69.6682 683.3662 64.5544 679.4199 60.3818 C 675.4316 56.209 670.6631 52.9773 665.1538 50.6455 C 659.6035 48.3137 653.5601 47.1272 647.0645 47.1272 C 640.6514 47.1272 634.7305 48.3137 629.2627 50.6455 C 623.7949 52.9773 619.0674 56.209 615.1201 60.3818 C 611.1323 64.5544 608.0488 69.6682 605.8291 75.6409 C 603.6089 81.6135 602.54 88.2817 602.54 95.5637 C 602.54 102.8865 603.6089 109.5137 605.8291 115.4045 C 608.0488 121.3364 611.1323 126.4092 615.1201 130.6636 C 619.0674 134.9182 623.7949 138.1909 629.2627 140.5227 C 634.7305 142.8545 640.6514 144 647.0645 144 C 653.5601 144 659.6035 142.8545 665.1538 140.5227 C 670.6631 138.1909 675.4316 134.9182 679.4199 130.6636 C 683.3662 126.4092 686.4502 121.3364 688.6699 115.4045 C 690.8901 109.5137 692 102.8865 692 95.5637 C 692 88.2817 690.8901 81.6135 688.6699 75.6409 ZM 160.3623 27.5728 C 162.9111 24.9954 164.1855 21.4773 164.1855 17.0181 C 164.1855 12.6001 162.9111 9.0818 160.3623 6.5046 C 157.8132 3.9272 154.7297 2.6182 151.0298 2.6182 C 147.4529 2.6182 144.3696 3.9272 141.7795 6.5046 C 139.1484 9.0818 137.8738 12.6001 137.8738 17.0181 C 137.8738 21.4773 139.1484 24.9954 141.7795 27.5728 C 144.3696 30.1499 147.4529 31.4182 151.0298 31.4182 C 154.7297 31.4182 157.8132 30.1499 160.3623 27.5728 ZM 145.7673 106.0364 C 145.7673 112.2954 146.2607 117.7773 147.2476 122.5227 C 148.2339 127.2681 149.9197 131.2363 152.3865 134.4272 C 154.853 137.6182 158.1011 140.0317 162.2122 141.6272 C 166.2822 143.2227 171.4214 144 177.6294 144 C 180.2605 144 182.8506 143.7954 185.3174 143.3455 C 187.7839 142.9363 190.0039 142.4045 192.0596 141.8318 C 194.0742 141.259 195.842 140.6045 197.4043 139.95 C 198.9663 139.2954 200.1587 138.7637 201.022 138.3137 L 198.5554 123.0544 C 196.6641 124.3635 194.033 125.55 190.7029 126.6545 C 187.3318 127.759 183.6729 128.291 179.7261 128.291 C 174.5459 128.291 170.6401 126.7363 168.0503 123.5454 C 165.46 120.3545 164.1855 114.1365 164.1855 104.8091 L 164.1855 47.1272 L 116.8245 47.1272 L 116.8245 62.8364 L 145.7673 62.8364 L 145.7673 106.0364 ZM 18.4182 70.3635 C 20.3096 68.5637 23.064 66.8865 26.7229 65.25 C 30.3408 63.6545 34.123 62.8364 38.0698 62.8364 C 42.5098 62.8364 46.2922 63.6956 49.458 65.3318 C 52.6235 67.009 55.2136 69.3 57.2693 72.1636 C 59.2837 75.0681 60.7637 78.5454 61.7095 82.5955 C 62.6548 86.6455 63.1484 90.9819 63.1484 95.5637 C 63.1484 106.4863 60.5171 114.6682 55.2546 120.1091 C 49.9922 125.5908 42.6743 128.291 33.3831 128.291 C 31.0806 128.291 28.6553 128.1682 26.1062 127.8408 C 23.5571 127.5137 20.9673 127.0227 18.4182 126.3682 L 18.4182 70.3635 ZM 18.4182 0 L 0 2.9456 L 0 139.0908 C 3.6179 140.1956 8.4692 141.3 14.4714 142.3635 C 20.4739 143.4683 27.2983 144 35.0276 144 C 42.0166 144 48.3479 142.8955 54.1035 140.6045 C 59.8184 138.3545 64.7104 135.1228 68.7808 130.95 C 72.8096 126.7773 75.9753 121.6636 78.1953 115.6909 C 80.4155 109.7183 81.5664 103.009 81.5664 95.5637 C 81.5664 88.4045 80.6211 81.8591 78.771 75.9272 C 76.8796 70.0364 74.2075 64.9229 70.7129 60.6682 C 67.1772 56.4136 62.9016 53.1001 57.8037 50.7273 C 52.7056 48.3545 46.9502 47.1272 40.4956 47.1272 C 35.6443 47.1272 31.2864 47.8228 27.3809 49.1318 C 23.4338 50.4409 20.4739 51.75 18.4182 52.9773 L 18.4182 0 Z" fill="#b02819"/>
</svg>