<svg width="276" height="225" fill="none" xmlns="http://www.w3.org/2000/svg"><path d="M9.013 59.72a24.47 24.47 0 0 0 9.53 5.75 37.43 37.43 0 0 0 20.7.59 22.38 22.38 0 0 0 7.43-3.28V44.54h-10v11a30.28 30.28 0 0 1-5.84.55 16.84 16.84 0 0 1-7.48-1.6 15.64 15.64 0 0 1-5.56-4.49 20.56 20.56 0 0 1-3.46-7 31.886 31.886 0 0 1-1.19-9 33.518 33.518 0 0 1 1.28-9.8 19.658 19.658 0 0 1 3.59-6.84 14.28 14.28 0 0 1 5.34-4 16.5 16.5 0 0 1 6.57-1.36c1.956 0 3.909.153 5.84.46v10.4h10v-19a32 32 0 0 0-6.25-2.1 40 40 0 0 0-9.22-.9 35 35 0 0 0-10.58 1.69 26.58 26.58 0 0 0-9.76 5.56 28.81 28.81 0 0 0-7.16 10.21C.94 22.553.013 27.797.013 34.05a42.59 42.59 0 0 0 2.46 15.37 28.27 28.27 0 0 0 6.54 10.3zm55.33 5.61a42.829 42.829 0 0 0 5.47 1.37c2.123.372 4.275.553 6.43.54a36.322 36.322 0 0 0 9.67-1.24 22.432 22.432 0 0 0 7.75-3.73 17.47 17.47 0 0 0 5.11-6.21 19.292 19.292 0 0 0 1.82-8.61c.113-2.99-.701-5.94-2.33-8.45a20.44 20.44 0 0 0-5.74-5.61 39.438 39.438 0 0 0-7.51-3.81c-2.7-1-5.2-2.06-7.47-3.1a25.818 25.818 0 0 1-5.72-3.48 6.1 6.1 0 0 1-2.32-4.93 5.39 5.39 0 0 1 2.51-4.63 12 12 0 0 1 6.89-1.73c1.54.003 3.076.11 4.6.32a32.35 32.35 0 0 1 4.33.87c.178.058.364.089.55.09v10.12h10V4.6a29.47 29.47 0 0 0-8.57-2.74 59.45 59.45 0 0 0-10.94-1 27.68 27.68 0 0 0-8.94 1.37 20.69 20.69 0 0 0-6.88 3.83 17.17 17.17 0 0 0-4.47 5.88 17.489 17.489 0 0 0-1.57 7.52 15.13 15.13 0 0 0 2.33 8.76 20.539 20.539 0 0 0 5.74 5.6 35.46 35.46 0 0 0 7.48 3.7c2.7.987 5.184 1.957 7.45 2.91a23.572 23.572 0 0 1 5.74 3.38 6.19 6.19 0 0 1 2.33 5 6.48 6.48 0 0 1-2.83 5.52c-1.88 1.37-4.53 2-7.93 2a22.942 22.942 0 0 1-5.31-.53 27.569 27.569 0 0 1-4.6-1.5l-.55-.19v-9h-10v17c.79.42 1.82.94 3.1 1.55a37.848 37.848 0 0 0 4.38 1.67zm54.72 0a42.443 42.443 0 0 0 5.47 1.37c2.123.373 4.275.554 6.43.54a36.295 36.295 0 0 0 9.66-1.24 22.342 22.342 0 0 0 7.75-3.73 17.469 17.469 0 0 0 5.11-6.21 19.287 19.287 0 0 0 1.82-8.61 14.582 14.582 0 0 0-2.29-8.45 20.608 20.608 0 0 0-5.75-5.61 39.64 39.64 0 0 0-7.47-3.79c-2.706-1.027-5.2-2.06-7.48-3.1a25.834 25.834 0 0 1-5.78-3.5 6.108 6.108 0 0 1-2.32-4.93 5.377 5.377 0 0 1 2.51-4.65 12.001 12.001 0 0 1 6.88-1.73c1.539.003 3.076.11 4.6.32 1.465.191 2.915.482 4.34.87.174.059.357.09.54.09v10.14h10V4.6a29.356 29.356 0 0 0-8.57-2.74 59.368 59.368 0 0 0-10.94-1 27.681 27.681 0 0 0-8.94 1.37 20.693 20.693 0 0 0-6.88 3.83 17.172 17.172 0 0 0-4.47 5.88 17.636 17.636 0 0 0-1.6 7.52 15.142 15.142 0 0 0 2.33 8.76 20.686 20.686 0 0 0 5.74 5.6 36.023 36.023 0 0 0 7.48 3.7c2.707.967 5.2 1.937 7.48 2.91a23.633 23.633 0 0 1 5.75 3.38 6.213 6.213 0 0 1 2.32 5 6.455 6.455 0 0 1-2.77 5.53c-1.88 1.37-4.53 2-7.93 2a22.858 22.858 0 0 1-5.33-.59 27.411 27.411 0 0 1-4.61-1.5l-.55-.19v-9h-10v17c.79.42 1.83.94 3.1 1.55a37.438 37.438 0 0 0 4.37 1.72z" fill="#fff"/><path d="M25.303 96.9h-.36l-10.88-17.59H1.453v63.47h11.79v-34.82l-.54-8.88h.45l10.61 16.59h2.17l10.16-16.59h.54l-.45 9.88v33.82h12.42V79.31h-12.51L25.303 96.9zm35.02-6.53h16.05v41.35h-16.05v11.06h44.61v-11.06h-16.14V90.37h16.14V79.31h-44.61v11.06zm89.41 52.41h10.87V79.31h-11.78v31.19l.81 7.62h-.45l-21.94-38.81h-10.88v63.47h11.78v-30.01l-.54-7.53h.45l21.68 37.54zm40.87 1.27a36.282 36.282 0 0 0 9.61-1.22 22.489 22.489 0 0 0 7.71-3.72 17.4 17.4 0 0 0 5.09-6.11 19.252 19.252 0 0 0 1.81-8.57 14.543 14.543 0 0 0-2.31-8.44 20.484 20.484 0 0 0-5.72-5.57 38.868 38.868 0 0 0-7.43-3.77 139.962 139.962 0 0 1-7.44-3.08 25.725 25.725 0 0 1-5.71-3.45 5.996 5.996 0 0 1-2.31-4.89 5.378 5.378 0 0 1 2.49-4.63 12 12 0 0 1 6.85-1.72c1.533.003 3.063.11 4.58.32a34.52 34.52 0 0 1 4.31.86c.174.059.357.09.54.09v10.07h10V81.76a29.127 29.127 0 0 0-8.56-2.76c-3.588-.665-7.23-1-10.88-1a27.648 27.648 0 0 0-8.89 1.36 20.637 20.637 0 0 0-6.84 3.81 17.127 17.127 0 0 0-4.49 5.89 17.602 17.602 0 0 0-1.58 7.48 15.01 15.01 0 0 0 2.31 8.7 20.362 20.362 0 0 0 5.71 5.58 35.305 35.305 0 0 0 7.44 3.67c2.667.967 5.144 1.933 7.43 2.9a23.558 23.558 0 0 1 5.72 3.36 6.145 6.145 0 0 1 2.31 5 6.42 6.42 0 0 1-2.81 5.48c-1.88 1.333-4.51 2-7.89 2a22.705 22.705 0 0 1-5.31-.59 27.31 27.31 0 0 1-4.58-1.49l-.54-.19v-9h-10v16.86c.78.43 1.81.94 3.08 1.55a38.63 38.63 0 0 0 4.4 1.72 42.084 42.084 0 0 0 5.44 1.36c2.131.397 4.293.598 6.46.6zm47.71-27.74h6.44l15.6 26.47h15.32l-20.13-32.82 17.86-30.65h-14.14l-14.51 25.93h-6.44V79.31h-12.42v63.47h12.42v-26.47z" fill="#FC4A4A"/><path d="M181.103 168.4h25.63V198c0 4.127-1.066 7.35-3.2 9.67a9.72 9.72 0 0 1-4.05 2.59c-1.395.492-2.86.756-4.34.78a23.37 23.37 0 0 1-5.79-.64 24.217 24.217 0 0 1-6-2.64l-4.47 10a28.82 28.82 0 0 0 8.21 3.42c2.781.642 5.627.96 8.48.95.91 0 2.07 0 3.47-.18a25.394 25.394 0 0 0 4.46-.82 24.966 24.966 0 0 0 4.88-1.91 18.596 18.596 0 0 0 4.7-3.47 19.21 19.21 0 0 0 4.79-8.11 34.967 34.967 0 0 0 1.32-9.76v-40.6h-38.09v11.12zm86.5 20.11a38.835 38.835 0 0 0-7.48-3.78c-2.7-1-5.2-2.07-7.47-3.1a25.87 25.87 0 0 1-5.75-3.47 6.087 6.087 0 0 1-2.33-4.92 5.373 5.373 0 0 1 2.51-4.65 11.937 11.937 0 0 1 6.89-1.74c1.539.003 3.076.11 4.6.32 1.46.201 2.906.492 4.33.87.178.058.363.089.55.09v10.12h10v-18.51a29.509 29.509 0 0 0-8.54-2.74 59.392 59.392 0 0 0-10.9-1 27.662 27.662 0 0 0-8.94 1.37 20.601 20.601 0 0 0-6.88 3.83 17.177 17.177 0 0 0-4.47 5.88 17.51 17.51 0 0 0-1.6 7.53 15.125 15.125 0 0 0 2.33 8.75 20.577 20.577 0 0 0 5.74 5.61 35.444 35.444 0 0 0 7.48 3.69c2.7 1 5.2 2 7.48 2.92a23.568 23.568 0 0 1 5.74 3.37 6.194 6.194 0 0 1 2.33 5 6.49 6.49 0 0 1-2.83 5.52c-1.88 1.36-4.53 2-7.93 2a22.86 22.86 0 0 1-5.34-.6 26.76 26.76 0 0 1-4.6-1.5l-.55-.18v-9h-10v17c.79.43 1.82.95 3.1 1.55a36.145 36.145 0 0 0 4.42 1.73 41.199 41.199 0 0 0 5.47 1.37c2.123.376 4.275.56 6.43.55a36.32 36.32 0 0 0 9.67-1.23 22.435 22.435 0 0 0 7.75-3.74 17.434 17.434 0 0 0 5.11-6.2 19.331 19.331 0 0 0 1.82-8.62c.119-3-.695-5.962-2.33-8.48a20.428 20.428 0 0 0-5.81-5.61zM161.791 6.992l6.986-6.987 6.987 6.987-6.987 6.986-6.986-6.986zm99.053 13.931l6.986-6.986 6.987 6.986-6.987 6.986-6.986-6.986zm.011 27.89l6.986-6.986 6.987 6.986-6.987 6.987-6.986-6.987zM161.791 35.16l6.986-6.986 6.986 6.986-6.986 6.986-6.986-6.986zm57.227-.577l6.987-6.986 6.986 6.986-6.986 6.986-6.987-6.986zm-28.18 28.173l6.986-6.987 6.986 6.987-6.986 6.986-6.986-6.986z" fill="#fff"/><path d="M253.883 69.74l6.98-6.98-13.94-13.95 13.94-13.94v-.01l-13.94-13.93 13.94-13.94-6.98-6.98-13.94 13.93L226.003 0l-6.99 6.98 27.89 27.89-27.89 27.88 6.99 6.98 13.94-13.93 13.94 13.94zm-35.14-20.93l-20.92-20.92v.01l-.01-.01-20.92 20.92 6.99 6.99 13.94-13.94 13.94 13.94 6.98-6.99z" fill="#fff"/><path d="M183.883 27.91l13.94-13.94 13.94 13.94 6.98-6.98L197.823.01h-.01l-20.92 20.92 6.99 6.98zm-22.097 34.847l6.986-6.986 6.986 6.986-6.986 6.986-6.986-6.986zm20.048 126.362l6.986-6.986 6.987 6.986-6.987 6.986-6.986-6.986zM7.019 168.616L0 175.635l7.019 7.019 7.019-7.019-7.019-7.019zM50.826 154.6l-7.019 7.019 7.02 7.019 7.018-7.019-7.019-7.019zm-.886 55.946l-7.02 7.019 7.02 7.019 7.019-7.019-7.02-7.019zm-13.993-14.188l-7.02 7.019 7.02 7.019 7.018-7.019-7.019-7.019zm56.331-27.751l-7.019 7.019 7.019 7.019 7.019-7.019-7.019-7.019zm14.056-14.041l-7.019 7.019 7.019 7.019 7.019-7.019-7.019-7.019zm-28.079.005l-7.019 7.019 7.019 7.019 7.019-7.019-7.019-7.019zm27.753 55.694l-7.02 7.019 7.02 7.019 7.019-7.019-7.019-7.019zm-41.777-40.929l-20.14 20.119 20.14 20.139 20.119-20.139-20.119-20.119zm-6.775 20.119l6.775-6.755 6.755 6.755-6.755 6.775-6.775-6.775z" fill="#fff"/><path d="M42.175 175.189L21.879 154l-6.744 7.056 13.551 14.133-26.769 27.833 20.108 20.95 6.744-7.034-13.3-13.873 26.706-27.876zm77.99-5.853l-7.099 6.901.021.022-6.945 6.71-35.212 34.123 7.121 6.88 35.19-34.102 14.242-13.802-7.318-6.732zM162.039 154l-7.019 7.019 7.019 7.019 7.019-7.019-7.019-7.019zm-28.119.005l-7.019 7.019 7.019 7.019 7.019-7.019-7.019-7.019zm14.478 15.331l-21.281 20.521 14.254 13.722-7.381 7.116-13.747-13.255-7.138 6.904 20.951 19.628 21.37-20.393 14.232-13.722-21.26-20.521zm0 27.403l-7.16-6.882 7.16-6.904 7.138 6.904-7.138 6.882zm13.661 13.529l-7.019 7.019 7.019 7.019 7.018-7.019-7.018-7.019z" fill="#fff"/></svg>