<?xml version="1.0" encoding="utf-8"?>
<!-- Generator: Adobe Illustrator 16.0.0, SVG Export Plug-In . SVG Version: 6.00 Build 0)  -->
<!DOCTYPE svg PUBLIC "-//W3C//DTD SVG 1.1//EN" "http://www.w3.org/Graphics/SVG/1.1/DTD/svg11.dtd">
<svg version="1.1" id="Layer_1" xmlns="http://www.w3.org/2000/svg" xmlns:xlink="http://www.w3.org/1999/xlink" x="0px" y="0px"
	 width="470px" height="129px" viewBox="0 0 470 129" enable-background="new 0 0 470 129" xml:space="preserve">
<polygon fill="#1B3E6C" points="17,33.268 51.623,67.888 86.243,33.268 "/>
<polygon fill="#F7941E" points="17,102.506 51.623,67.888 17.002,33.268 "/>
<polygon fill="#40C4E0" points="86.242,102.506 86.242,67.888 51.621,102.506 "/>
<polygon fill="#725BA7" points="68.932,85.198 51.621,102.507 16.999,102.507 34.311,85.197 "/>
<polygon fill="#DC4E3A" points="51.622,67.888 34.312,85.198 68.933,85.198 "/>
<polygon fill="#00B388" points="68.932,50.579 86.242,67.888 86.242,33.269 "/>
<rect x="56.692" y="55.648" transform="matrix(0.7071 0.7071 -0.7071 0.7071 68.19 -28.8583)" fill="#F5DF2E" width="24.48" height="24.481"/>
<g>
	<defs>
		<rect id="SVGID_1_" x="-54" y="-37.598" width="583.938" height="212.598"/>
	</defs>
	<clipPath id="SVGID_2_">
		<use xlink:href="#SVGID_1_"  overflow="visible"/>
	</clipPath>
	<path clip-path="url(#SVGID_2_)" d="M136.083,33.269h-22.042v69.241h21.361c14.263,0,34.927-8.816,34.927-34.464
		S148.014,33.269,136.083,33.269 M134.935,89.117h-5.079V46.655h5.808c5.031,0,18.122,3.441,18.122,21.39
		C153.786,85.995,139.384,89.117,134.935,89.117"/>
	<path clip-path="url(#SVGID_2_)" d="M212.291,57.346v6.325l-1.89-2.124c-1.917-2.164-6.171-5.789-13.121-5.789
		c-6.096,0-12.065,2.376-15.966,6.356c-2.561,2.612-6.857,8.452-6.857,18.205c0,6.709,1.963,11.84,6.364,16.64
		c4.421,4.761,9.784,7.177,15.938,7.177c3.388,0,9.656-0.822,13.571-6.329l1.961-2.757v7.498h13.018V57.346H212.291z M199.667,91.85
		c-6.461,0-11.697-5.351-11.697-11.951s5.236-11.952,11.697-11.952c6.46,0,11.697,5.351,11.697,11.952S206.127,91.85,199.667,91.85"
		/>
	<path clip-path="url(#SVGID_2_)" d="M303.896,57.346v6.325l-1.889-2.124c-1.918-2.164-6.172-5.789-13.122-5.789
		c-6.097,0-12.064,2.376-15.966,6.356c-2.561,2.612-6.857,8.452-6.857,18.205c0,6.709,1.963,11.84,6.363,16.64
		c4.421,4.761,9.785,7.177,15.939,7.177c3.388,0,9.654-0.822,13.57-6.329l1.961-2.757v7.498h13.018V57.346H303.896z M291.274,91.85
		c-6.461,0-11.698-5.351-11.698-11.951s5.237-11.952,11.698-11.952c6.46,0,11.695,5.351,11.695,11.952S297.734,91.85,291.274,91.85"
		/>
	<polygon clip-path="url(#SVGID_2_)" points="239.276,33.288 239.276,57.352 233.974,57.352 233.974,69.049 239.276,69.049 
		239.276,102.548 253.738,102.548 253.738,69.049 263.196,69.049 263.196,57.352 253.738,57.352 253.738,33.288 	"/>
	<polygon clip-path="url(#SVGID_2_)" points="435.062,33.267 435.062,102.554 449.525,102.554 449.525,69.054 458.983,69.054 
		458.983,57.357 449.525,57.357 449.525,33.267 	"/>
	<path clip-path="url(#SVGID_2_)" d="M368.186,79.043h-19.794l9.764-29.473L368.186,79.043z M376.396,102.5h16.473l-25.537-69.228
		h-18.005L323.283,102.5h16.278l4.773-12.121h27.71L376.396,102.5z"/>
	<path clip-path="url(#SVGID_2_)" d="M398.128,102.555h14.463V83.383c0-1.93,0-7.801,4.085-11.604
		c2.052-1.908,4.774-2.835,8.325-2.835c2.446,0,5.126,0.059,6.09,0.083V57.395c-0.669-0.041-2.876-0.157-2.876-0.157
		c-2.798,0-5.439,0-7.471,1.12c-2.597,1.327-4.707,3.445-6.111,6.127l-2.042,3.901V57.352h-14.463V102.555z"/>
</g>
</svg>
