<svg xmlns="http://www.w3.org/2000/svg" viewBox="0 0 1620.9 346"><defs><style>.cls-3{fill:#5a7480}</style></defs><g id="Слой_2" data-name="Слой 2"><g id="Слой_1-2" data-name="Слой 1"><path d="M425.3 5.8h-51.5c-16.3 0-24.5 9.2-24.5 27.6v190.3c0 18.2 6.5 27.2 19.4 27.2 13.3 0 20-9 20-26.9v-59.8h40.4a76.24 76.24 0 0 0 30.8-6 66.2 66.2 0 0 0 32.6-29.2c7.3-12.8 10.9-27.6 10.9-44.2q0-37.2-21.5-58.1c-14.4-13.9-33.2-20.9-56.6-20.9zm24.8 109.3c-7.7 7.3-17.7 11-30.2 11h-31.1v-82h31.7q41.1 0 41.1 40.2c0 13.1-3.9 23.4-11.5 30.8zm-150-81.8a35 35 0 0 0-11-21.2 31.28 31.28 0 0 0-21.9-8.3c-15.7 0-25.7 8.1-30 24.2l-40.5 156.8-1.2-.1-40.7-156.6q-6.45-24.3-30-24.3a30.81 30.81 0 0 0-21.6 8.2 34.76 34.76 0 0 0-11 21L69 194.1l-3.9 27.2c-.6 4.6-1 7.2-1 7.6 0 14.6 6.2 21.9 18.5 21.9 7.8 0 13.3-2.3 16.5-7 2.6-3.5 4.4-9.6 5.5-18.3l21.5-162.8h.6l43.9 159.8q6.75 25.2 25.5 25.2t25.5-25.2l43.3-159.8h.6l22.1 162.8c1.1 8.6 2.9 14.6 5.5 17.9 3.2 4.9 8.7 7.3 16.2 7.3 5.8 0 10.4-1.7 13.6-5 4.3-4.4 5.9-10.1 4.9-16.9zM1594.9 5.8H1489c-17.4 0-26.2 6.5-26.2 19.6 0 12.8 8.6 19.3 25.8 19.3h32.6v179c0 18.2 6.7 27.2 20.2 27.2 13.9 0 20.8-9.1 20.8-27.2V44.6h33.1c17.1 0 25.6-6.4 25.6-19.3.2-13-8.5-19.5-26-19.5zM20.6 47A20.6 20.6 0 1 0 0 26.4 20.57 20.57 0 0 0 20.6 47zm1401.5 162.8a20.6 20.6 0 1 0 20.6 20.6 20.57 20.57 0 0 0-20.6-20.6zM20.6 75.9C6.9 75.9 0 85.1 0 103.4l.2 119.9c0 18.4 6.8 27.5 20.5 27.5s20.5-9.3 20.5-27.9V103.4c0-18.3-6.9-27.5-20.6-27.5zM1123.5 3.1q-14.85 0-21.3 18.9l-53.6 158.1c-.4.9-.8 1.6-1 2L991.7 21.4c-4.5-13.1-11.5-19.6-20.9-19.6a18.43 18.43 0 0 0-14.2 6c-3.7 4-5.5 9.1-5.5 15.2a34.66 34.66 0 0 0 2.9 13.2l72.3 198.1c4.1 11.3 11.1 16.9 21 16.9s17.1-6.2 21.6-18.6l71.4-196a40 40 0 0 0 2.3-13.6c0-13.2-6.4-19.9-19.1-19.9zM609.1 143.9q61-4.65 61.1-66.1c0-23.7-7.5-41.8-22.6-54.5Q626.9 5.75 593 5.7h-44.3c-16.3 0-24.5 9.2-24.5 27.6v190.8c0 18.2 6.5 27.3 19.4 27.3 13.3 0 20-9 20-27.1v-79.5l1.6 1.7 71.8 92c6.8 8.6 13.6 13 20.2 13a18.27 18.27 0 0 0 13.1-5.1c3.5-3.4 5.3-7.9 5.3-13.5 0-7.1-3.3-14.5-9.9-22.3zm-45.6-28.5V44h29q36.75 0 36.7 35.7 0 37.65-39.9 37.7c-12 0-20.6-.7-25.8-2zM1285.7 6c-1-.1-2-.1-3.1-.1l-88.4-.1a32.58 32.58 0 0 0-7.2.7c-11.8 1.8-17.7 8.3-17.7 19.6 0 13.4 8.6 20.1 25.7 20.1l71-.1 15.4-.3c17.1 0 25.6-6.6 25.6-19.9.2-12.4-7-19-21.3-19.9zm136-2.2c-13.7 0-20.5 9.2-20.5 27.5l.3 120.3c0 18.4 6.9 27.5 20.6 27.5s20.6-9.3 20.6-27.9l-.5-120c0-18.2-6.8-27.4-20.5-27.4zM816.4 0Q763 0 725.1 37.4t-37.8 89.7q0 52.5 37.9 89.7t91.2 37.3q53.4 0 91.4-37.4t37.9-89.7q0-52.5-38-89.7T816.4 0zm63 189.6c-17 17-37.9 25.4-62.8 25.4s-45.7-8.5-62.5-25.4-25.3-37.9-25.3-62.7 8.5-45.8 25.4-63 37.7-25.7 62.4-25.7 45.7 8.6 62.8 25.7 25.5 38.1 25.5 63-8.5 45.7-25.5 62.7z" fill="#75a0a6" id="_3" data-name="3"/><path d="M907.6 37.4Q869.65.05 816.3.1T725 37.5q-22.65 22.35-31.8 50.1c-.1.4-.3 1.1-.3 1.1l48.8-9.1a6.31 6.31 0 0 1 .7-1A89.87 89.87 0 0 1 754.2 64c17-17.1 37.7-25.7 62.4-25.7 17 0 32.2 4 45.6 12.1a5 5 0 0 0 .7.5l46.3-11.8-.8-.8a2.36 2.36 0 0 0-.8-.9zm-607.7-2.8a35 35 0 0 0-11-21.3A31.28 31.28 0 0 0 267 5q-23.55 0-30 24.3s-12.8 49.6-23.9 93.1a3.93 3.93 0 0 0-.2.6s8.2 1.1 16.5 1.6c9.3.6 18.9.7 18.9.7a1 1 0 0 0 .1-.3c8.8-32.7 16.4-60.8 16.4-60.8h.6s3.9 28.6 8.4 61.8a3.54 3.54 0 0 0 .1.6l39-1.3a5.64 5.64 0 0 1-.1-.7c-6.7-46.2-12.9-90-12.9-90zm-145.3-6.3c-4.3-16.1-14.3-24.2-30.1-24.2a31.22 31.22 0 0 0-21.7 8.2 34.5 34.5 0 0 0-11 20.9l-8.5 58.4a3.54 3.54 0 0 1-.1.6l.5.3 36.7 11.7v-.3c3.1-23.4 5.4-40.9 5.4-40.9h.6s5.5 19.7 12.5 45.2c.1.3.2.8.2.8s8.4 2.2 16.2 3.8c11 2.3 22.4 4.1 22.4 4.1a4.12 4.12 0 0 1-.2-.9c-10.9-41.9-22.9-87.7-22.9-87.7zM425.3 5.8h-51.5c-16.3 0-24.5 9.2-24.5 27.6v89.3l39.4-1.9V44.1h31.8q41.1 0 41.1 40.2c0 13.2-3.8 23.4-11.3 30.7l-.2.2-1.2 1.1 50.6-3.7a4.08 4.08 0 0 1 .2-.7 97.86 97.86 0 0 0 3.7-27q0-37.2-21.5-58.1c-14.4-14-33.2-21-56.6-21zm222.2 17.6Q626.8 5.85 592.9 5.8h-44.3c-16.3 0-24.5 9.2-24.5 27.6V110l39.4-3.6V43.9h29q36.75 0 36.7 35.7a48.71 48.71 0 0 1-2.7 17.1c-.1.3-.2.5-.3.8l-.3.6 43.2-5.8a7.75 7.75 0 0 0 .1-.9 99.56 99.56 0 0 0 .9-13.7c.1-23.5-7.5-41.7-22.6-54.3zM970.8 1.8a18.43 18.43 0 0 0-14.2 6c-3.7 4-5.5 9.1-5.5 15.2a32.32 32.32 0 0 0 .6 6.1 2 2 0 0 0 .1.5s9.9-2.3 19.6-4.4c10.1-2.2 20-4.3 20-4.3a2 2 0 0 1-.2-.7c-4.5-12.3-11.3-18.4-20.4-18.4zm624.1 4h-81.3s26 5.6 51.6 12.3c26.9 7.1 53.5 15.2 53.5 15.2s.7.2.7.1a20.19 20.19 0 0 0 1.5-8.1c.2-13-8.5-19.5-26-19.5zM20.6 5.9a20.6 20.6 0 1 0 20.6 20.6A20.57 20.57 0 0 0 20.6 5.9z" fill="#90ccca" id="_2" data-name="2"/><path class="cls-3" d="M1282.5 208.8l-71.8-.1-.1-69.8 51.7-.1h1.6c1.8 0 3.4-.1 5-.2 12.7-.3 19.5-5.7 20.5-16.3v-.5a13.4 13.4 0 0 0 .1-2v-.2q0-17.55-18.3-18.9a22.6 22.6 0 0 0-2.6-.1l-75.2-.1a29.87 29.87 0 0 0-6.9.7c-11.3 1.7-17 8-17 18.7a18.14 18.14 0 0 0 .3 4.1v99.1c0 9.3 1.9 15.8 5.8 19.6s10.3 5.6 19.4 5.6l86.8.1c17.4 0 26.2-6.4 26.2-19.3-.2-13.5-8.6-20.3-25.5-20.3zm-390.7-34.6a90 90 0 0 1-12.4 15.4c-17 17-37.9 25.4-62.8 25.4a94.8 94.8 0 0 1-26.5-3.6c-.4-.1-1.2-.4-1.2-.4l-48.2 19.1a4 4 0 0 1 .4.3q32.7 23.7 75.2 23.7 53.4 0 91.4-37.4c17.9-17.7 29.5-37.8 34.7-60.5a2 2 0 0 1 .1-.5l-50.3 17.7c.1 0-.2.5-.4.8zm178-56.5c-11.3 33.3-21.2 62.5-21.2 62.5-.4.9-.8 1.6-1 2 0 0-8.3-23.9-18.5-53.3a3.93 3.93 0 0 1-.2-.6l-37 11.6s.2.5.3.8c17.4 47.7 34.2 93.7 34.2 93.7 4.1 11.3 11.1 16.9 21 16.9s17.1-6.2 21.6-18.6c0 0 25.5-70.1 46-126.5a3.93 3.93 0 0 0 .2-.6l-45.2 11.2c.1-.1-.1.6-.2.9zm352.3 92.1a20.6 20.6 0 1 0 20.6 20.6 20.57 20.57 0 0 0-20.6-20.6zm118.7-124.3c-9.1-2.2-19.5-4.2-19.5-4.2v142.4c0 18.2 6.7 27.2 20.2 27.2 13.9 0 20.8-9.1 20.8-27.2V92.5l.1-1.4s-10.4-2.9-21.6-5.6zm-98.4-17.4s-8.1-.5-17.2-.9c-11.2-.5-23.9-1-23.9-1v.6c.1 35.5.2 84.8.2 84.8 0 18.4 6.9 27.5 20.6 27.5s20.6-9.3 20.6-27.9c0 0-.2-47.4-.3-82.6z" id="_1" data-name="1"/><path class="cls-3" d="M1236.2 321.4a14.57 14.57 0 0 0-4.1-2.5 32.41 32.41 0 0 0-4-1.4c-1.7-.5-3.3-.9-4.9-1.3a19.06 19.06 0 0 1-4.4-1.6 8.81 8.81 0 0 1-3.1-2.6 7.19 7.19 0 0 1-1.2-4.4 10.47 10.47 0 0 1 .5-3 6.54 6.54 0 0 1 1.7-2.6 9.07 9.07 0 0 1 3-1.9 12.72 12.72 0 0 1 4.6-.7 20.93 20.93 0 0 1 2.4.1 16.66 16.66 0 0 1 2.9.6 15.54 15.54 0 0 1 3.3 1.5 16.19 16.19 0 0 1 3.4 2.6l3.4-4.5a21 21 0 0 0-7.9-4.8 26.12 26.12 0 0 0-7.6-1.2 18.29 18.29 0 0 0-7 1.2 14.19 14.19 0 0 0-4.9 3.1 12.12 12.12 0 0 0-2.9 4.3 13.59 13.59 0 0 0-.9 4.8 12.11 12.11 0 0 0 1.3 6 13.83 13.83 0 0 0 7.2 6.4 28.68 28.68 0 0 0 3.8 1.3c1.7.5 3.4 1 5 1.5a21.39 21.39 0 0 1 4.3 1.8 8.12 8.12 0 0 1 3 2.8 7.58 7.58 0 0 1 1.1 4.4 7.72 7.72 0 0 1-3.3 6.6 12.74 12.74 0 0 1-7.7 2.3 14.21 14.21 0 0 1-4.2-.6 15.17 15.17 0 0 1-3.4-1.5 10.88 10.88 0 0 1-2.6-2.1c-.8-.8-1.4-1.5-1.9-2.1l-4 4.3a22.77 22.77 0 0 0 4.4 4 20.16 20.16 0 0 0 4.3 2.3 16.56 16.56 0 0 0 3.9 1.1 18.88 18.88 0 0 0 3.2.2 23.65 23.65 0 0 0 7.2-1 15.79 15.79 0 0 0 5.6-3 11.87 11.87 0 0 0 3.6-4.7 13.63 13.63 0 0 0 1.3-6.1 12.63 12.63 0 0 0-1.2-5.9 18.93 18.93 0 0 0-3.2-3.7zm53.8-19.9a28.22 28.22 0 0 0-8.3-5.6 24.3 24.3 0 0 0-10.1-2 26.37 26.37 0 0 0-10.1 2 27.61 27.61 0 0 0-8.3 5.6 23.88 23.88 0 0 0-5.6 8.3 25.09 25.09 0 0 0-2 10.2 26 26 0 0 0 15.9 24 25 25 0 0 0 10.1 2 26 26 0 0 0 10.1-2 26.42 26.42 0 0 0 8.3-5.6 29.59 29.59 0 0 0 5.6-8.3 24.62 24.62 0 0 0 2-10.1 26.87 26.87 0 0 0-2-10.2 24.84 24.84 0 0 0-5.6-8.3zm-.1 26.4a19.17 19.17 0 0 1-4.2 6.5 20.17 20.17 0 0 1-6.3 4.5 18.33 18.33 0 0 1-7.7 1.6 17.56 17.56 0 0 1-7.6-1.6 21.62 21.62 0 0 1-6.3-4.4 22.3 22.3 0 0 1-4.3-6.5 20.55 20.55 0 0 1 0-15.9 22.3 22.3 0 0 1 4.3-6.5 21.62 21.62 0 0 1 6.3-4.4 17.88 17.88 0 0 1 7.6-1.6 18.33 18.33 0 0 1 7.7 1.6 21.62 21.62 0 0 1 6.3 4.4 20.2 20.2 0 0 1 4.2 6.5 21.33 21.33 0 0 1 1.5 7.9 21 21 0 0 1-1.5 7.9zm16.8 17h6.1v-70.6h-6.1zm51.9-27.4a68 68 0 0 1-.4 7.6 25.9 25.9 0 0 1-2 7.5 14.45 14.45 0 0 1-4.7 5.7c-2.1 1.5-4.9 2.2-8.5 2.2a11.87 11.87 0 0 1-6.7-1.6 10.76 10.76 0 0 1-3.5-3.9 12.79 12.79 0 0 1-1.3-4.5 25.65 25.65 0 0 1-.2-3.6v-31.8h-6.1v33.4a21.56 21.56 0 0 0 1 7.2 15.24 15.24 0 0 0 2.7 4.9 11.66 11.66 0 0 0 3.7 3 16.06 16.06 0 0 0 3.9 1.6 11.69 11.69 0 0 0 3.5.6 21.33 21.33 0 0 0 2.2.1c.9 0 2.1-.1 3.4-.2a14.35 14.35 0 0 0 4.3-1.1 20.85 20.85 0 0 0 4.5-2.6 15.31 15.31 0 0 0 3.9-4.7h.2v7.4h6.1v-49.8h-6.1v22.6zm33.5 23a11.65 11.65 0 0 1-5.1-.9 5.77 5.77 0 0 1-2.6-2.2 6.3 6.3 0 0 1-1-2.9c-.1-1.1-.2-2-.2-2.9v-30.9h13.5v-5.6h-13.5v-12.2h-6.1v12.2h-5.3l-.1 5.6h5.4V332a17.27 17.27 0 0 0 1.1 6.5 12.51 12.51 0 0 0 2.9 4.4 11.38 11.38 0 0 0 4.3 2.4 18.35 18.35 0 0 0 5.3.7 17.36 17.36 0 0 0 6.1-1v-5.8a11.09 11.09 0 0 1-2.6 1 4.66 4.66 0 0 1-2.1.3zm13.3 4.4h6.1v-49.8h-6.1zm5.8-70.3h-7v7h7zm54.2 26.9a28.22 28.22 0 0 0-8.3-5.6 24.3 24.3 0 0 0-10.1-2 26.37 26.37 0 0 0-10.1 2 27.61 27.61 0 0 0-8.3 5.6 23.88 23.88 0 0 0-5.6 8.3 25.09 25.09 0 0 0-2 10.2 25.68 25.68 0 0 0 7.6 18.4 25.33 25.33 0 0 0 8.3 5.6 25 25 0 0 0 10.1 2 26 26 0 0 0 10.1-2 26.42 26.42 0 0 0 8.3-5.6 29.59 29.59 0 0 0 5.6-8.3 24.62 24.62 0 0 0 2-10.1 26.87 26.87 0 0 0-2-10.2 24.84 24.84 0 0 0-5.6-8.3zm-.1 26.4a19.17 19.17 0 0 1-4.2 6.5 20.17 20.17 0 0 1-6.3 4.5 18.33 18.33 0 0 1-7.7 1.6 17.56 17.56 0 0 1-7.6-1.6 21.62 21.62 0 0 1-6.3-4.4 22.3 22.3 0 0 1-4.3-6.5 20.55 20.55 0 0 1 0-15.9 22.3 22.3 0 0 1 4.3-6.5 21.62 21.62 0 0 1 6.3-4.4 17.88 17.88 0 0 1 7.6-1.6 18.33 18.33 0 0 1 7.7 1.6 21.62 21.62 0 0 1 6.3 4.4 20.2 20.2 0 0 1 4.2 6.5 21.33 21.33 0 0 1 1.5 7.9 21 21 0 0 1-1.5 7.9zm53.5-23.7a16.74 16.74 0 0 0-3.8-5.7 15 15 0 0 0-5.5-3.4 19.9 19.9 0 0 0-13.6.2 23.51 23.51 0 0 0-5 2.9 17.1 17.1 0 0 0-3 3.1c-.7 1-1.1 1.7-1.3 2h-.2v-8.1h-6.1V345h6.1v-28.1a21.54 21.54 0 0 1 1.1-6.8 17.44 17.44 0 0 1 3.1-5.5 14.77 14.77 0 0 1 4.9-3.7 14.51 14.51 0 0 1 6.3-1.3 12.29 12.29 0 0 1 8.6 3.1c2.4 2 3.6 5.2 3.6 9.5V345h6.1v-32.8a16.88 16.88 0 0 0-1.3-8z" id="solution"/><path class="cls-3" d="M1564.1 299.9a21 21 0 0 0-7.9-4.8 26.12 26.12 0 0 0-7.6-1.2 18.29 18.29 0 0 0-7 1.2 14.19 14.19 0 0 0-4.9 3.1 12.12 12.12 0 0 0-2.9 4.3 13.59 13.59 0 0 0-.9 4.8 12.11 12.11 0 0 0 1.3 6 13.83 13.83 0 0 0 7.2 6.4 28.68 28.68 0 0 0 3.8 1.3c1.7.5 3.4 1 5 1.5a21.39 21.39 0 0 1 4.3 1.8 8.12 8.12 0 0 1 3 2.8 7.58 7.58 0 0 1 1.1 4.4 7.72 7.72 0 0 1-3.3 6.6 12.74 12.74 0 0 1-7.7 2.3 14.21 14.21 0 0 1-4.2-.6 15.17 15.17 0 0 1-3.4-1.5 10.88 10.88 0 0 1-2.6-2.1c-.8-.8-1.4-1.5-1.9-2.1l-4 4.3a22.77 22.77 0 0 0 4.4 4 20.16 20.16 0 0 0 4.3 2.3 16.56 16.56 0 0 0 3.9 1.1 18.88 18.88 0 0 0 3.2.2 23.65 23.65 0 0 0 7.2-1 15.79 15.79 0 0 0 5.6-3 11.87 11.87 0 0 0 3.6-4.7 13.63 13.63 0 0 0 1.3-6.1 12.63 12.63 0 0 0-1.2-5.9 13.82 13.82 0 0 0-3.1-4 14.57 14.57 0 0 0-4.1-2.5 32.41 32.41 0 0 0-4-1.4c-1.7-.5-3.3-.9-4.9-1.3a19.06 19.06 0 0 1-4.4-1.6 8.81 8.81 0 0 1-3.1-2.6 7.19 7.19 0 0 1-1.2-4.4 10.47 10.47 0 0 1 .5-3 6.54 6.54 0 0 1 1.7-2.6 9.07 9.07 0 0 1 3-1.9 12.72 12.72 0 0 1 4.6-.7 20.93 20.93 0 0 1 2.4.1 16.66 16.66 0 0 1 2.9.6 15.54 15.54 0 0 1 3.3 1.5 16.19 16.19 0 0 1 3.4 2.6z"/></g></g></svg>