<?xml version="1.0" encoding="UTF-8"?>
<svg width="112px" height="57px" viewBox="0 0 112 57" version="1.1" xmlns="http://www.w3.org/2000/svg" xmlns:xlink="http://www.w3.org/1999/xlink">
    <!-- Generator: Sketch 49 (51002) - http://www.bohemiancoding.com/sketch -->
    <title>Logo/v</title>
    <desc>Created with Sketch.</desc>
    <defs>
        <linearGradient x1="100%" y1="100%" x2="0%" y2="0%" id="linearGradient-1">
            <stop stop-color="#003AAD" offset="0%"></stop>
            <stop stop-color="#6442FE" offset="100%"></stop>
        </linearGradient>
    </defs>
    <g id="UI-Kit" stroke="none" stroke-width="1" fill="none" fill-rule="evenodd">
        <g id="Illustrations" transform="translate(-457.000000, -239.000000)">
            <g id="Logo/v" transform="translate(457.000000, 239.000000)">
                <path d="M60.8909774,24.0075188 L60.8909774,17.7126149 C58.6907547,15.4281537 54.1641604,16.1532999 51.2669173,13.7418546 L51.2669173,19.1556398 C48.5516626,18.2959224 46.5053087,17.2640976 45.1278195,16.0601504 C43.2029979,14.3909691 42.2406015,12.2631708 42.2406015,9.67669173 C42.2406015,7.97743511 42.7330778,6.37218801 43.7180451,4.86090226 C44.7030124,3.3496165 46.1842006,2.16165846 48.1616541,1.29699248 C50.1391076,0.432326504 52.8496068,0 56.2932331,0 C60.5188181,0 63.7405904,0.785706429 65.9586466,2.35714286 C68.1767028,3.92857929 69.4962385,6.42855429 69.9172932,9.85714286 L60.8909774,10.5338346 C60.6353371,9.04510534 59.4924853,7.84962744 58.6729323,7.17293233 C57.8533794,6.49623722 56.7218117,6.15789474 55.2781955,6.15789474 C51.8776107,6.15789474 51.2669173,7.88721444 51.2669173,8.60902256 C51.2669173,9.13534098 51.9398471,9.75187759 52.4360902,10.1729323 C52.9172956,10.6090247 54.0601414,11.0150357 55.8646617,11.3909774 C60.3308494,12.3533883 63.5300655,13.3270627 65.462406,14.3120301 C67.3947465,15.2969974 68.8007475,16.5187897 69.6804511,17.9774436 C70.5601548,19.4360975 71,21.0676602 71,22.8721805 C71,24.9924918 70.4135397,26.9473595 69.2406015,28.7368421 C68.0676633,30.5263247 66.428582,31.883454 64.3233083,32.8082707 C62.2180346,33.7330873 59.5639258,34.1954887 56.3609023,34.1954887 C50.736814,34.1954887 46.8421161,33.1127928 44.6766917,30.9473684 C42.5112674,28.7819441 41.2857157,26.0300919 41,22.6917293 L51.3634085,22.0827068 C51.5739359,23.661662 52.4636591,27.6992481 56.518797,27.6992481 C57.9774509,27.6992481 59.1014998,27.3571463 59.8909774,26.6729323 C60.6804551,25.9887184 60.8909774,24.9097789 60.8909774,24.0075188 Z" id="Combined-Shape" fill="url(#linearGradient-1)"></path>
                <path d="M5.807,54.92 L5.807,56 L0.857,56 L0.857,54.92 L2.387,54.56 L2.387,44.84 L0.857,44.48 L0.857,43.49 L5.807,43.4 L5.807,44.48 L4.277,44.84 L4.277,54.56 L5.807,54.92 Z M10.217,46.46 L10.379,47.738 C10.4990006,47.6419995 10.6669989,47.5100008 10.883,47.342 C11.0990011,47.1739992 11.3539985,47.0120008 11.648,46.856 C11.9420015,46.6999992 12.2659982,46.5650006 12.62,46.451 C12.9740018,46.3369994 13.3429981,46.28 13.727,46.28 C14.6990049,46.28 15.4219976,46.5649971 15.896,47.135 C16.3700024,47.7050028 16.607,48.4999949 16.607,49.52 L16.607,54.56 L17.957,55.01 L17.957,56 L13.637,56 L13.637,55.01 L14.807,54.56 L14.807,49.7 C14.807,49.0519968 14.6810013,48.5750015 14.429,48.269 C14.1769987,47.9629985 13.7930026,47.81 13.277,47.81 C13.0249987,47.81 12.7760012,47.8429997 12.53,47.909 C12.2839988,47.9750003 12.056001,48.0619995 11.846,48.17 C11.6359989,48.2780005 11.4500008,48.3949994 11.288,48.521 C11.1259992,48.6470006 10.9910005,48.7699994 10.883,48.89 L10.577,49.25 L10.577,54.56 L11.747,55.01 L11.747,56 L7.247,56 L7.247,55.01 L8.777,54.56 L8.777,47.9 L7.247,47.54 L7.247,46.55 L10.217,46.46 Z M22.637,46.46 L22.637,47.54 L21.377,47.72 L23.519,54.38 L25.679,47.81 L24.437,47.54 L24.437,46.55 L28.469,46.46 L28.469,47.54 L27.479,47.72 L24.419,56 L22.439,56 L19.487,47.81 L18.587,47.54 L18.587,46.55 L22.637,46.46 Z M37.379,51.464 L31.169,51.5 C31.169,52.4840049 31.4059976,53.2699971 31.88,53.858 C32.3540024,54.4460029 32.986996,54.74 33.779,54.74 C34.0430013,54.74 34.3069987,54.7160002 34.571,54.668 C34.8350013,54.6199998 35.0839988,54.5600004 35.318,54.488 C35.5520012,54.4159996 35.764999,54.3350004 35.957,54.245 C36.149001,54.1549995 36.3109993,54.0680004 36.443,53.984 L36.803,53.75 L37.433,54.686 C37.024998,55.0100016 36.6500017,55.2649991 36.308,55.451 C35.9659983,55.6370009 35.5640023,55.8049993 35.102,55.955 C34.6399977,56.1050008 34.1390027,56.18 33.599,56.18 C32.1829929,56.18 31.1090037,55.7510043 30.377,54.893 C29.6449963,54.0349957 29.279,52.8620074 29.279,51.374 C29.279,50.6299963 29.3869989,49.9460031 29.603,49.322 C29.8190011,48.6979969 30.121998,48.1610022 30.512,47.711 C30.9020019,47.2609978 31.3669973,46.9100013 31.907,46.658 C32.4470027,46.4059987 33.0409968,46.28 33.689,46.28 C36.2090126,46.28 37.469,47.6899859 37.469,50.51 L37.379,51.464 Z M31.241,50.15 L35.561,50.15 C35.561,49.4179963 35.4050016,48.8240023 35.093,48.368 C34.7809984,47.9119977 34.2770035,47.684 33.581,47.684 C32.8969966,47.684 32.351002,47.9149977 31.943,48.377 C31.534998,48.8390023 31.3010003,49.4299964 31.241,50.15 Z M41.789,46.46 L41.951,47.738 C42.0710006,47.6419995 42.2389989,47.5100008 42.455,47.342 C42.6710011,47.1739992 42.9259985,47.0120008 43.22,46.856 C43.5140015,46.6999992 43.8379982,46.5650006 44.192,46.451 C44.5460018,46.3369994 44.9149981,46.28 45.299,46.28 C46.2710049,46.28 46.9939976,46.5649971 47.468,47.135 C47.9420024,47.7050028 48.179,48.4999949 48.179,49.52 L48.179,54.56 L49.529,55.01 L49.529,56 L45.209,56 L45.209,55.01 L46.379,54.56 L46.379,49.7 C46.379,49.0519968 46.2530013,48.5750015 46.001,48.269 C45.7489987,47.9629985 45.3650026,47.81 44.849,47.81 C44.5969987,47.81 44.3480012,47.8429997 44.102,47.909 C43.8559988,47.9750003 43.628001,48.0619995 43.418,48.17 C43.2079989,48.2780005 43.0220008,48.3949994 42.86,48.521 C42.6979992,48.6470006 42.5630005,48.7699994 42.455,48.89 L42.149,49.25 L42.149,54.56 L43.319,55.01 L43.319,56 L38.819,56 L38.819,55.01 L40.349,54.56 L40.349,47.9 L38.819,47.54 L38.819,46.55 L41.789,46.46 Z M54.029,43.922 L54.029,46.55 L56.639,46.55 L56.639,47.9 L54.029,47.9 L54.029,53.678 C54.029,54.4100037 54.328997,54.776 54.929,54.776 C55.3130019,54.776 55.7809972,54.6260015 56.333,54.326 L56.819,55.28 C56.0029959,55.880003 55.1630043,56.18 54.299,56.18 C53.6869969,56.18 53.1890019,55.979002 52.805,55.577 C52.4209981,55.174998 52.229,54.5060047 52.229,53.57 L52.229,47.9 L50.429,47.9 L50.429,46.73 L52.229,46.55 L52.229,44.282 L54.029,43.922 Z M57.899,51.374 C57.899,50.6059962 58.0099989,49.9070032 58.232,49.277 C58.4540011,48.6469969 58.768998,48.1100022 59.177,47.666 C59.585002,47.2219978 60.0679972,46.8800012 60.626,46.64 C61.1840028,46.3999988 61.7989966,46.28 62.471,46.28 C63.8150067,46.28 64.8589963,46.7059957 65.603,47.558 C66.3470037,48.4100043 66.719,49.5919924 66.719,51.104 C66.719,51.8480037 66.6110011,52.5289969 66.395,53.147 C66.1789989,53.7650031 65.8760019,54.2989977 65.486,54.749 C65.095998,55.1990022 64.6220028,55.5499987 64.064,55.802 C63.5059972,56.0540013 62.8850034,56.18 62.201,56.18 C60.8329932,56.18 59.7740037,55.7720041 59.024,54.956 C58.2739963,54.1399959 57.899,52.9460079 57.899,51.374 Z M62.399,47.72 C60.6589913,47.72 59.789,48.8899883 59.789,51.23 C59.789,53.5700117 60.6289916,54.74 62.309,54.74 C63.1850044,54.74 63.823998,54.440003 64.226,53.84 C64.628002,53.239997 64.829,52.340006 64.829,51.14 C64.829,48.8599886 64.0190081,47.72 62.399,47.72 Z M71.129,46.46 L71.291,47.774 C72.1790044,46.777995 73.0849954,46.28 74.009,46.28 C74.5010025,46.28 74.9749977,46.3519993 75.431,46.496 L75.629,46.55 L75.539,49.16 L74.369,49.16 L74.099,47.81 C73.0669948,47.81 72.1970035,48.2779953 71.489,49.214 L71.489,54.56 L73.289,55.01 L73.289,56 L68.159,56 L68.159,55.01 L69.689,54.56 L69.689,47.9 L68.159,47.54 L68.159,46.55 L71.129,46.46 Z M78.509,52.31 L78.869,54.2 C79.0850011,54.3200006 79.3789981,54.4249995 79.751,54.515 C80.1230019,54.6050004 80.4889982,54.65 80.849,54.65 C81.2090018,54.65 81.5569983,54.6050004 81.893,54.515 C82.2290017,54.4249995 82.5229987,54.2960008 82.775,54.128 C83.0270013,53.9599992 83.2279992,53.7590012 83.378,53.525 C83.5280007,53.2909988 83.603,53.0240015 83.603,52.724 C83.603,52.3759983 83.507001,52.0850012 83.315,51.851 C83.122999,51.6169988 82.8740015,51.4130009 82.568,51.239 C82.2619985,51.0649991 81.9170019,50.9120007 81.533,50.78 C81.1489981,50.6479993 80.759002,50.5100007 80.363,50.366 C79.9429979,50.1859991 79.5380019,50.0030009 79.148,49.817 C78.757998,49.6309991 78.4100015,49.4030013 78.104,49.133 C77.7979985,48.8629986 77.5550009,48.5360019 77.375,48.152 C77.1949991,47.7679981 77.105,47.2940028 77.105,46.73 C77.105,46.129997 77.2219988,45.6080022 77.456,45.164 C77.6900012,44.7199978 78.001998,44.3540014 78.392,44.066 C78.7820019,43.7779986 79.2379974,43.5650007 79.76,43.427 C80.2820026,43.2889993 80.8309971,43.22 81.407,43.22 C81.6710013,43.22 81.9529985,43.2379998 82.253,43.274 C82.5530015,43.3100002 82.8469986,43.3549997 83.135,43.409 C83.4230014,43.4630003 83.6929987,43.5229997 83.945,43.589 C84.1970013,43.6550003 84.4129991,43.7119998 84.593,43.76 L85.169,43.94 L85.079,47 L83.909,47 L83.297,45.074 C82.9609983,44.9659995 82.6280016,44.8880002 82.298,44.84 C81.9679983,44.7919998 81.6290017,44.768 81.281,44.768 C80.9329983,44.768 80.6180014,44.8129996 80.336,44.903 C80.0539986,44.9930004 79.814001,45.1159992 79.616,45.272 C79.417999,45.4280008 79.2650005,45.601999 79.157,45.794 C79.0489995,45.986001 78.995,46.183999 78.995,46.388 C79.0070001,46.8920025 79.1749984,47.2879986 79.499,47.576 C79.8230016,47.8640014 80.2249976,48.109999 80.705,48.314 C81.1850024,48.518001 81.7039972,48.7099991 82.262,48.89 C82.8200028,49.0700009 83.3359976,49.2949986 83.81,49.565 C84.2840024,49.8350013 84.6799984,50.1859978 84.998,50.618 C85.3160016,51.0500022 85.475,51.6139965 85.475,52.31 C85.475,52.9340031 85.3550012,53.4859976 85.115,53.966 C84.8749988,54.4460024 84.5450021,54.8509983 84.125,55.181 C83.7049979,55.5110016 83.2070029,55.7629991 82.631,55.937 C82.0549971,56.1110009 81.4370033,56.198 80.777,56.198 C80.5129987,56.198 80.2280015,56.1800002 79.922,56.144 C79.6159985,56.1079998 79.3160015,56.0630003 79.022,56.009 C78.7279985,55.9549997 78.4550013,55.8950003 78.203,55.829 C77.9509987,55.7629997 77.7410008,55.7000003 77.573,55.64 L77.069,55.46 L77.069,52.31 L78.509,52.31 Z M87.293,51.374 C87.293,50.6059962 87.4039989,49.9070032 87.626,49.277 C87.8480011,48.6469969 88.162998,48.1100022 88.571,47.666 C88.979002,47.2219978 89.4619972,46.8800012 90.02,46.64 C90.5780028,46.3999988 91.1929966,46.28 91.865,46.28 C93.2090067,46.28 94.2529963,46.7059957 94.997,47.558 C95.7410037,48.4100043 96.113,49.5919924 96.113,51.104 C96.113,51.8480037 96.0050011,52.5289969 95.789,53.147 C95.5729989,53.7650031 95.270002,54.2989977 94.88,54.749 C94.4899981,55.1990022 94.0160028,55.5499987 93.458,55.802 C92.8999972,56.0540013 92.2790034,56.18 91.595,56.18 C90.2269932,56.18 89.1680038,55.7720041 88.418,54.956 C87.6679963,54.1399959 87.293,52.9460079 87.293,51.374 Z M91.793,47.72 C90.0529913,47.72 89.183,48.8899883 89.183,51.23 C89.183,53.5700117 90.0229916,54.74 91.703,54.74 C92.5790044,54.74 93.217998,54.440003 93.62,53.84 C94.022002,53.239997 94.223,52.340006 94.223,51.14 C94.223,48.8599886 93.4130081,47.72 91.793,47.72 Z M98.093,46.73 L99.713,46.55 L99.713,45.47 C99.713,44.3779945 100.000997,43.5200031 100.577,42.896 C101.153003,42.2719969 101.974995,41.96 103.043,41.96 C103.547003,41.96 104.023998,42.0109995 104.474,42.113 C104.924002,42.2150005 105.244999,42.3199995 105.437,42.428 L105.743,42.59 L105.743,44.84 L104.483,44.84 L104.213,43.4 C103.912998,43.3399997 103.505003,43.31 102.989,43.31 C102.004995,43.31 101.513,43.909994 101.513,45.11 L101.513,46.55 L103.889,46.55 L103.835,47.9 L101.513,47.9 L101.513,54.56 L103.259,55.01 L103.259,56 L98.183,56 L98.183,55.01 L99.713,54.56 L99.713,47.9 L98.093,47.9 L98.093,46.73 Z M108.713,43.922 L108.713,46.55 L111.323,46.55 L111.323,47.9 L108.713,47.9 L108.713,53.678 C108.713,54.4100037 109.012997,54.776 109.613,54.776 C109.997002,54.776 110.464997,54.6260015 111.017,54.326 L111.503,55.28 C110.686996,55.880003 109.847004,56.18 108.983,56.18 C108.370997,56.18 107.873002,55.979002 107.489,55.577 C107.104998,55.174998 106.913,54.5060047 106.913,53.57 L106.913,47.9 L105.113,47.9 L105.113,46.73 L106.913,46.55 L106.913,44.282 L108.713,43.922 Z" id="InventorSoft" fill="#2C2D50"></path>
            </g>
        </g>
    </g>
</svg>