<svg width="112" height="57" xmlns="http://www.w3.org/2000/svg"><defs><linearGradient x1="100%" y1="100%" x2="0%" y2="0%" id="a"><stop stop-color="#003AAD" offset="0%"/><stop stop-color="#6442FE" offset="100%"/></linearGradient></defs><g fill="none" fill-rule="evenodd"><path d="M60.891 24.008v-6.295c-2.2-2.285-6.727-1.56-9.624-3.971v5.414c-2.715-.86-4.762-1.892-6.14-3.096-1.924-1.669-2.886-3.797-2.886-6.383 0-1.7.492-3.305 1.477-4.816.985-1.511 2.466-2.7 4.444-3.564C50.139.432 52.85 0 56.293 0c4.226 0 7.448.786 9.666 2.357 2.218 1.572 3.537 4.072 3.958 7.5l-9.026.677c-.256-1.489-1.399-2.684-2.218-3.361-.82-.677-1.951-1.015-3.395-1.015-3.4 0-4.011 1.73-4.011 2.451 0 .526.673 1.143 1.17 1.564.48.436 1.623.842 3.428 1.218 4.466.962 7.665 1.936 9.597 2.921 1.933.985 3.339 2.207 4.218 3.665.88 1.46 1.32 3.09 1.32 4.895 0 2.12-.586 4.075-1.76 5.865-1.172 1.79-2.811 3.146-4.917 4.071-2.105.925-4.76 1.387-7.962 1.387-5.624 0-9.519-1.082-11.684-3.248-2.166-2.165-3.391-4.917-3.677-8.255l10.363-.61c.21 1.58 1.1 5.617 5.156 5.617 1.458 0 2.582-.342 3.372-1.026.79-.684 1-1.763 1-2.665z" fill="url(#a)"/><path d="M5.807 54.92V56H.857v-1.08l1.53-.36v-9.72l-1.53-.36v-.99l4.95-.09v1.08l-1.53.36v9.72l1.53.36zm4.41-8.46l.162 1.278c.12-.096.288-.228.504-.396.216-.168.471-.33.765-.486.294-.156.618-.291.972-.405a3.589 3.589 0 0 1 1.107-.171c.972 0 1.695.285 2.169.855.474.57.711 1.365.711 2.385v5.04l1.35.45V56h-4.32v-.99l1.17-.45V49.7c0-.648-.126-1.125-.378-1.431-.252-.306-.636-.459-1.152-.459a2.87 2.87 0 0 0-.747.099 3.554 3.554 0 0 0-1.242.612 3.128 3.128 0 0 0-.405.369l-.306.36v5.31l1.17.45V56h-4.5v-.99l1.53-.45V47.9l-1.53-.36v-.99l2.97-.09zm12.42 0v1.08l-1.26.18 2.142 6.66 2.16-6.57-1.242-.27v-.99l4.032-.09v1.08l-.99.18-3.06 8.28h-1.98l-2.952-8.19-.9-.27v-.99l4.05-.09zm14.742 5.004l-6.21.036c0 .984.237 1.77.711 2.358.474.588 1.107.882 1.899.882.264 0 .528-.024.792-.072.264-.048.513-.108.747-.18a4.906 4.906 0 0 0 1.125-.504l.36-.234.63.936a7.984 7.984 0 0 1-1.125.765 7.157 7.157 0 0 1-1.206.504c-.462.15-.963.225-1.503.225-1.416 0-2.49-.429-3.222-1.287-.732-.858-1.098-2.031-1.098-3.519 0-.744.108-1.428.324-2.052a4.852 4.852 0 0 1 .909-1.611c.39-.45.855-.801 1.395-1.053a4.162 4.162 0 0 1 1.782-.378c2.52 0 3.78 1.41 3.78 4.23l-.09.954zm-6.138-1.314h4.32c0-.732-.156-1.326-.468-1.782-.312-.456-.816-.684-1.512-.684-.684 0-1.23.231-1.638.693-.408.462-.642 1.053-.702 1.773zm10.548-3.69l.162 1.278c.12-.096.288-.228.504-.396.216-.168.471-.33.765-.486.294-.156.618-.291.972-.405a3.589 3.589 0 0 1 1.107-.171c.972 0 1.695.285 2.169.855.474.57.711 1.365.711 2.385v5.04l1.35.45V56h-4.32v-.99l1.17-.45V49.7c0-.648-.126-1.125-.378-1.431-.252-.306-.636-.459-1.152-.459a2.87 2.87 0 0 0-.747.099 3.554 3.554 0 0 0-1.242.612 3.128 3.128 0 0 0-.405.369l-.306.36v5.31l1.17.45V56h-4.5v-.99l1.53-.45V47.9l-1.53-.36v-.99l2.97-.09zm12.24-2.538v2.628h2.61v1.35h-2.61v5.778c0 .732.3 1.098.9 1.098.384 0 .852-.15 1.404-.45l.486.954c-.816.6-1.656.9-2.52.9-.612 0-1.11-.201-1.494-.603-.384-.402-.576-1.071-.576-2.007V47.9h-1.8v-1.17l1.8-.18v-2.268l1.8-.36zm3.87 7.452c0-.768.111-1.467.333-2.097.222-.63.537-1.167.945-1.611a4.198 4.198 0 0 1 1.449-1.026 4.621 4.621 0 0 1 1.845-.36c1.344 0 2.388.426 3.132 1.278.744.852 1.116 2.034 1.116 3.546 0 .744-.108 1.425-.324 2.043a4.869 4.869 0 0 1-.909 1.602c-.39.45-.864.801-1.422 1.053a4.475 4.475 0 0 1-1.863.378c-1.368 0-2.427-.408-3.177-1.224-.75-.816-1.125-2.01-1.125-3.582zm4.5-3.654c-1.74 0-2.61 1.17-2.61 3.51s.84 3.51 2.52 3.51c.876 0 1.515-.3 1.917-.9.402-.6.603-1.5.603-2.7 0-2.28-.81-3.42-2.43-3.42zm8.73-1.26l.162 1.314c.888-.996 1.794-1.494 2.718-1.494.492 0 .966.072 1.422.216l.198.054-.09 2.61h-1.17l-.27-1.35c-1.032 0-1.902.468-2.61 1.404v5.346l1.8.45V56h-5.13v-.99l1.53-.45V47.9l-1.53-.36v-.99l2.97-.09zm7.38 5.85l.36 1.89c.216.12.51.225.882.315s.738.135 1.098.135c.36 0 .708-.045 1.044-.135.336-.09.63-.219.882-.387s.453-.369.603-.603c.15-.234.225-.501.225-.801 0-.348-.096-.639-.288-.873a2.638 2.638 0 0 0-.747-.612 6.108 6.108 0 0 0-1.035-.459c-.384-.132-.774-.27-1.17-.414-.42-.18-.825-.363-1.215-.549a4.486 4.486 0 0 1-1.044-.684 2.976 2.976 0 0 1-.729-.981c-.18-.384-.27-.858-.27-1.422 0-.6.117-1.122.351-1.566.234-.444.546-.81.936-1.098.39-.288.846-.501 1.368-.639a6.419 6.419 0 0 1 1.647-.207c.264 0 .546.018.846.054.3.036.594.081.882.135.288.054.558.114.81.18l.648.171.576.18-.09 3.06h-1.17l-.612-1.926a6.16 6.16 0 0 0-.999-.234 7.058 7.058 0 0 0-1.017-.072 3.1 3.1 0 0 0-.945.135c-.282.09-.522.213-.72.369-.198.156-.351.33-.459.522-.108.192-.162.39-.162.594.012.504.18.9.504 1.188.324.288.726.534 1.206.738.48.204.999.396 1.557.576a8.21 8.21 0 0 1 1.548.675c.474.27.87.621 1.188 1.053.318.432.477.996.477 1.692 0 .624-.12 1.176-.36 1.656s-.57.885-.99 1.215c-.42.33-.918.582-1.494.756a6.381 6.381 0 0 1-1.854.261c-.264 0-.549-.018-.855-.054a14.102 14.102 0 0 1-.9-.135 11.294 11.294 0 0 1-.819-.18 7.776 7.776 0 0 1-.63-.189l-.504-.18v-3.15h1.44zm8.784-.936c0-.768.111-1.467.333-2.097.222-.63.537-1.167.945-1.611a4.198 4.198 0 0 1 1.449-1.026 4.621 4.621 0 0 1 1.845-.36c1.344 0 2.388.426 3.132 1.278.744.852 1.116 2.034 1.116 3.546 0 .744-.108 1.425-.324 2.043a4.869 4.869 0 0 1-.909 1.602c-.39.45-.864.801-1.422 1.053a4.475 4.475 0 0 1-1.863.378c-1.368 0-2.427-.408-3.177-1.224-.75-.816-1.125-2.01-1.125-3.582zm4.5-3.654c-1.74 0-2.61 1.17-2.61 3.51s.84 3.51 2.52 3.51c.876 0 1.515-.3 1.917-.9.402-.6.603-1.5.603-2.7 0-2.28-.81-3.42-2.43-3.42zm6.3-.99l1.62-.18v-1.08c0-1.092.288-1.95.864-2.574.576-.624 1.398-.936 2.466-.936.504 0 .981.051 1.431.153.45.102.771.207.963.315l.306.162v2.25h-1.26l-.27-1.44c-.3-.06-.708-.09-1.224-.09-.984 0-1.476.6-1.476 1.8v1.44h2.376l-.054 1.35h-2.322v6.66l1.746.45V56h-5.076v-.99l1.53-.45V47.9h-1.62v-1.17zm10.62-2.808v2.628h2.61v1.35h-2.61v5.778c0 .732.3 1.098.9 1.098.384 0 .852-.15 1.404-.45l.486.954c-.816.6-1.656.9-2.52.9-.612 0-1.11-.201-1.494-.603-.384-.402-.576-1.071-.576-2.007V47.9h-1.8v-1.17l1.8-.18v-2.268l1.8-.36z" fill="#2C2D50"/></g></svg>