<svg xmlns="http://www.w3.org/2000/svg" viewBox="0 0 454 454"><style>.st0{fill:#ffdf5b}.st257{fill:#fff}</style><g id="Isolation_Mode"><g id="XMLID_2_"><g id="XMLID_358_"><path id="XMLID_4_" class="st0" d="M302.5 115.6L43.7 43.4l70.1 250.9C129.4 360.6 189 410 260.1 410c83 0 150.2-67.3 150.2-150.2 0-68.3-45.5-125.8-107.8-144.2z"/></g><g id="XMLID_286_"><path id="XMLID_6_" class="st0" d="M255.9 102.6L43.7 43.4l57.5 205.7C114 303.5 162.8 344 221.1 344c68 0 123.2-55.2 123.2-123.2 0-55.9-37.3-103.1-88.4-118.2z"/><path id="XMLID_285_" d="M255.6 102.5L43.7 43.4l57.4 205.4c12.8 54.3 61.5 94.7 119.7 94.7 67.9 0 123-55.1 123-123 0-55.8-37.2-103-88.2-118z" fill="#fedf5c"/><path id="XMLID_284_" d="M255.2 102.4l-211.5-59 57.3 205c12.7 54.2 61.4 94.6 119.5 94.6 67.8 0 122.8-55 122.8-122.8 0-55.7-37.2-102.8-88.1-117.8z" fill="#fdde5c"/><path id="XMLID_283_" d="M254.9 102.3L43.7 43.4l57.2 204.7c12.7 54.1 61.3 94.4 119.3 94.4 67.7 0 122.6-54.9 122.6-122.6 0-55.6-37.1-102.6-87.9-117.6z" fill="#fcde5d"/><path id="XMLID_282_" d="M254.5 102.3L43.7 43.4l57.1 204.4c12.7 54 61.2 94.3 119.1 94.3 67.6 0 122.4-54.8 122.4-122.4 0-55.6-37-102.5-87.8-117.4z" fill="#fbde5e"/><path id="XMLID_281_" d="M254.2 102.2L43.7 43.4l57 204c12.7 53.9 61.1 94.1 118.9 94.1 67.5 0 122.2-54.7 122.2-122.2 0-55.4-37-102.2-87.6-117.1z" fill="#fade5e"/><path id="XMLID_280_" d="M253.8 102.1L43.7 43.4l56.9 203.7c12.7 53.9 61 94 118.7 94 67.4 0 122-54.6 122-122 0-55.4-36.9-102.2-87.5-117z" fill="#f9dd5f"/><path id="XMLID_279_" d="M253.5 102L43.7 43.4l56.8 203.4c12.6 53.8 60.9 93.8 118.5 93.8 67.3 0 121.8-54.5 121.8-121.8 0-55.3-36.8-102-87.3-116.8z" fill="#f8dd60"/><path id="XMLID_278_" d="M253.1 101.9L43.7 43.4l56.7 203c12.6 53.7 60.8 93.7 118.3 93.7 67.1 0 121.6-54.4 121.6-121.6 0-55.2-36.8-101.8-87.2-116.6z" fill="#f7dd60"/><path id="XMLID_277_" d="M252.8 101.8L43.7 43.4l56.6 202.7c12.6 53.6 60.7 93.5 118.1 93.5 67 0 121.4-54.3 121.4-121.4.1-55.1-36.7-101.6-87-116.4z" fill="#f6dd61"/><path id="XMLID_276_" d="M252.4 101.7L43.7 43.4l56.5 202.3c12.6 53.5 60.6 93.3 117.9 93.3 66.9 0 121.2-54.2 121.2-121.2.1-54.9-36.6-101.4-86.9-116.1z" fill="#f5dc61"/><path id="XMLID_275_" d="M252.1 101.6L43.7 43.4l56.5 202c12.6 53.4 60.5 93.2 117.7 93.2 66.8 0 121-54.2 121-121 0-54.9-36.7-101.3-86.8-116z" fill="#f4dc62"/><path id="XMLID_274_" d="M251.7 101.5l-208-58.1 56.4 201.7c12.5 53.3 60.4 93 117.5 93 66.7 0 120.8-54.1 120.8-120.8 0-54.8-36.6-101.1-86.7-115.8z" fill="#f3dc63"/><path id="XMLID_273_" d="M251.4 101.4l-207.7-58L100 244.7c12.5 53.2 60.3 92.9 117.3 92.9 66.6 0 120.6-54 120.6-120.6 0-54.7-36.5-100.9-86.5-115.6z" fill="#f2db63"/><path id="XMLID_272_" d="M251 101.3L43.7 43.4l56.2 201c12.5 53.1 60.2 92.7 117.1 92.7 66.5 0 120.4-53.9 120.4-120.4 0-54.6-36.5-100.7-86.4-115.4z" fill="#f1db64"/><path id="XMLID_271_" d="M250.7 101.2l-207-57.8L99.8 244c12.5 53.1 60.1 92.6 116.9 92.6 66.4 0 120.2-53.8 120.2-120.2 0-54.5-36.4-100.6-86.2-115.2z" fill="#f0db65"/><path id="XMLID_270_" d="M250.3 101.1L43.7 43.4l56 200.3c12.5 53 60 92.4 116.7 92.4 66.2 0 120-53.7 120-120 0-54.4-36.3-100.4-86.1-115z" fill="#efdb65"/><path id="XMLID_269_" d="M250 101L43.7 43.4l55.9 200c12.4 52.9 59.9 92.3 116.5 92.3 66.1 0 119.7-53.6 119.7-119.7.1-54.5-36.2-100.4-85.8-115z" fill="#eeda66"/><path id="XMLID_268_" d="M249.6 100.9L43.7 43.4 99.5 243c12.4 52.8 59.8 92.1 116.3 92.1 66 0 119.5-53.5 119.5-119.5.1-54.3-36.1-100.1-85.7-114.7z" fill="#edda67"/><path id="XMLID_267_" d="M249.3 100.8L43.7 43.4l55.7 199.3c12.4 52.7 59.7 91.9 116.1 91.9 65.9 0 119.3-53.4 119.3-119.3.1-54.2-36-100-85.5-114.5z" fill="#ecda67"/><path id="XMLID_266_" d="M248.9 100.7L43.7 43.4l55.6 199c12.4 52.6 59.6 91.8 115.9 91.8 65.8 0 119.1-53.3 119.1-119.1.1-54.2-36-99.9-85.4-114.4z" fill="#ebda68"/><path id="XMLID_265_" d="M248.6 100.6L43.7 43.4 99.2 242c12.3 52.5 59.5 91.6 115.8 91.6 65.7 0 118.9-53.3 118.9-118.9 0-54-36-99.6-85.3-114.1z" fill="#ead969"/><path id="XMLID_264_" d="M248.2 100.5L43.7 43.4l55.4 198.3c12.3 52.4 59.4 91.5 115.6 91.5 65.6 0 118.7-53.2 118.7-118.7 0-54-35.9-99.5-85.2-114z" fill="#e9d969"/><path id="XMLID_263_" d="M247.9 100.4l-204.2-57L99 241.3c12.3 52.3 59.3 91.3 115.4 91.3 65.5 0 118.5-53.1 118.5-118.5 0-53.8-35.9-99.2-85-113.7z" fill="#e8d96a"/><path id="XMLID_262_" d="M247.6 100.3L43.7 43.4 98.9 241c12.3 52.2 59.2 91.2 115.2 91.2 65.4 0 118.3-53 118.3-118.3 0-53.8-35.8-99.2-84.8-113.6z" fill="#e7d86a"/><path id="XMLID_261_" d="M247.2 100.2L43.7 43.4l55.1 197.3c12.3 52.2 59.1 91 115 91 65.2 0 118.1-52.9 118.1-118.1 0-53.7-35.7-99-84.7-113.4z" fill="#e6d86b"/><path id="XMLID_260_" d="M246.9 100.1L43.7 43.4l55 196.9c12.2 52.1 59 90.8 114.8 90.8 65.1 0 117.9-52.8 117.9-117.9.1-53.5-35.7-98.7-84.5-113.1z" fill="#e5d86c"/><path id="XMLID_259_" d="M246.5 100L43.7 43.4 98.6 240c12.2 52 58.9 90.7 114.6 90.7 65 0 117.7-52.7 117.7-117.7.1-53.5-35.6-98.6-84.4-113z" fill="#e4d86c"/><path id="XMLID_258_" d="M246.2 99.9L43.7 43.4l54.8 196.3c12.2 51.9 58.8 90.5 114.4 90.5 64.9 0 117.5-52.6 117.5-117.5.1-53.4-35.5-98.5-84.2-112.8z" fill="#e3d76d"/><path id="XMLID_257_" d="M245.8 99.8L43.7 43.4l54.7 195.9c12.2 51.8 58.7 90.4 114.2 90.4 64.8 0 117.3-52.5 117.3-117.3.1-53.3-35.5-98.3-84.1-112.6z" fill="#e2d76e"/><path id="XMLID_256_" d="M245.5 99.7L43.7 43.4 98.4 239c12.2 51.7 58.6 90.2 114 90.2 64.7 0 117.1-52.4 117.1-117.1 0-53.2-35.5-98.1-84-112.4z" fill="#e1d76e"/><path id="XMLID_255_" d="M245.1 99.6L43.7 43.4l54.6 195.2c12.1 51.6 58.5 90.1 113.8 90.1 64.6 0 116.9-52.3 116.9-116.9 0-53.1-35.4-97.9-83.9-112.2z" fill="#e0d66f"/><path id="XMLID_254_" d="M244.8 99.5L43.7 43.4l54.5 194.9c12.1 51.5 58.4 89.9 113.6 89.9 64.5 0 116.7-52.3 116.7-116.7 0-53-35.4-97.7-83.7-112z" fill="#dfd670"/><path id="XMLID_253_" d="M244.4 99.4l-200.7-56L98.1 238c12.1 51.4 58.3 89.8 113.4 89.8 64.3 0 116.5-52.2 116.5-116.5 0-53-35.3-97.7-83.6-111.9z" fill="#ded670"/><path id="XMLID_252_" d="M244.1 99.3L43.7 43.4 98 237.6c12.1 51.4 58.1 89.6 113.2 89.6 64.2 0 116.3-52.1 116.3-116.3 0-52.8-35.2-97.4-83.4-111.6z" fill="#ddd671"/><path id="XMLID_251_" d="M243.7 99.2l-200-55.8 54.2 193.9c12.1 51.3 58 89.4 113 89.4 64.1 0 116.1-52 116.1-116.1 0-52.7-35.1-97.2-83.3-111.4z" fill="#dcd572"/><path id="XMLID_250_" d="M243.4 99.1L43.7 43.4l54.1 193.5c12 51.2 57.9 89.3 112.8 89.3 64 0 115.9-51.9 115.9-115.9 0-52.6-35.1-97-83.1-111.2z" fill="#dbd572"/><path id="XMLID_249_" d="M243 99L43.7 43.4l54 193.2c12 51.1 57.8 89.1 112.6 89.1 63.9 0 115.7-51.8 115.7-115.7 0-52.5-35-96.8-83-111z" fill="#dad573"/><path id="XMLID_248_" d="M242.7 98.9l-199-55.5 53.9 192.9c12 51 57.7 89 112.4 89 63.8 0 115.5-51.7 115.5-115.5 0-52.5-34.9-96.8-82.8-110.9z" fill="#d9d573"/><path id="XMLID_245_" d="M242.3 98.8L43.7 43.4l53.8 192.5c12 50.9 57.6 88.8 112.2 88.8 63.7 0 115.3-51.6 115.3-115.3 0-52.3-34.9-96.5-82.7-110.6z" fill="#d8d474"/><path id="XMLID_242_" d="M242 98.7L43.7 43.4l53.7 192.2c11.9 50.8 57.5 88.7 112 88.7 63.6 0 115.1-51.5 115.1-115.1 0-52.3-34.8-96.4-82.5-110.5z" fill="#d7d475"/><path id="XMLID_240_" d="M241.6 98.6L43.7 43.4l53.6 191.9c11.9 50.7 57.4 88.5 111.8 88.5 63.5 0 114.9-51.4 114.9-114.9 0-52.2-34.7-96.2-82.4-110.3z" fill="#d6d475"/><path id="XMLID_239_" d="M241.3 98.6L43.7 43.4l53.5 191.5c11.9 50.6 57.3 88.4 111.6 88.4 63.3 0 114.7-51.3 114.7-114.7 0-52.1-34.7-96.1-82.2-110z" fill="#d5d376"/><path id="XMLID_238_" d="M240.9 98.5L43.7 43.4l53.4 191.2c11.9 50.6 57.2 88.2 111.4 88.2 63.2 0 114.5-51.3 114.5-114.5.1-52-34.6-95.9-82.1-109.8z" fill="#d4d377"/><path id="XMLID_237_" d="M240.6 98.4l-196.9-55L97 234.2c11.9 50.5 57.1 88 111.2 88 63.1 0 114.3-51.2 114.3-114.3.1-51.8-34.5-95.6-81.9-109.5z" fill="#d3d377"/><path id="XMLID_236_" d="M240.2 98.3L43.7 43.4l53.2 190.5c11.8 50.4 57 87.9 111 87.9 63 0 114.1-51.1 114.1-114.1.1-51.8-34.5-95.5-81.8-109.4z" fill="#d2d378"/><path id="XMLID_235_" d="M239.9 98.2L43.7 43.4l53.1 190.2c11.8 50.3 56.9 87.7 110.8 87.7 62.9 0 113.9-51 113.9-113.9.1-51.7-34.4-95.3-81.6-109.2z" fill="#d1d279"/><path id="XMLID_234_" d="M239.5 98.1L43.7 43.4l53 189.8c11.8 50.2 56.8 87.6 110.6 87.6 62.8 0 113.7-50.9 113.7-113.7.1-51.6-34.3-95.2-81.5-109z" fill="#d0d279"/><path id="XMLID_233_" d="M239.2 98L43.7 43.4l53 189.5c11.8 50.1 56.7 87.4 110.4 87.4 62.7 0 113.5-50.8 113.5-113.5 0-51.5-34.4-95-81.4-108.8z" fill="#cfd27a"/><path id="XMLID_232_" d="M238.8 97.9L43.7 43.4l52.9 189.1c11.8 50 56.6 87.3 110.2 87.3 62.6 0 113.3-50.7 113.3-113.3 0-51.4-34.3-94.8-81.3-108.6z" fill="#ced27b"/><path id="XMLID_231_" d="M238.5 97.8L43.7 43.4l52.8 188.8c11.7 49.9 56.5 87.1 110 87.1 62.4 0 113.1-50.6 113.1-113.1 0-51.3-34.2-94.6-81.1-108.4z" fill="#cdd17b"/><path id="XMLID_230_" d="M238.1 97.7L43.7 43.4l52.7 188.5c11.7 49.8 56.4 86.9 109.8 86.9 62.3 0 112.9-50.5 112.9-112.9 0-51.2-34.2-94.5-81-108.2z" fill="#ccd17c"/><path id="XMLID_229_" d="M237.8 97.6L43.7 43.4l52.6 188.1c11.7 49.7 56.3 86.8 109.6 86.8 62.2 0 112.7-50.4 112.7-112.7 0-51.1-34.1-94.3-80.8-108z" fill="#cbd17c"/><path id="XMLID_228_" d="M237.4 97.5L43.7 43.4l52.5 187.8c11.7 49.7 56.2 86.6 109.4 86.6 62.1 0 112.5-50.3 112.5-112.5 0-51-34-94.1-80.7-107.8z" fill="#cad07d"/><path id="XMLID_227_" d="M237.1 97.4l-193.4-54 52.4 187.5c11.7 49.6 56.1 86.5 109.2 86.5 62 0 112.3-50.3 112.3-112.3 0-51-34-94-80.5-107.7z" fill="#c9d07e"/><path id="XMLID_226_" d="M236.7 97.3l-193-53.9L96 230.5c11.6 49.5 56 86.3 109.1 86.3 61.9 0 112.1-50.2 112.1-112.1-.1-50.8-34-93.7-80.5-107.4z" fill="#c8d07e"/><path id="XMLID_225_" d="M236.4 97.2L43.7 43.4l52.2 186.8c11.6 49.4 55.9 86.2 108.9 86.2 61.8 0 111.9-50.1 111.9-111.9-.1-50.8-33.9-93.7-80.3-107.3z" fill="#c7d07f"/><path id="XMLID_224_" d="M236 97.1L43.7 43.4l52.1 186.4c11.6 49.3 55.8 86 108.7 86 61.7 0 111.6-50 111.6-111.6 0-50.7-33.8-93.5-80.1-107.1z" fill="#c6cf80"/><path id="XMLID_223_" d="M235.7 97l-192-53.6 52 186.1c11.6 49.2 55.7 85.9 108.5 85.9 61.5 0 111.4-49.9 111.4-111.4 0-50.7-33.7-93.4-79.9-107z" fill="#c5cf80"/><path id="XMLID_222_" d="M235.3 96.9L43.7 43.4l51.9 185.8c11.5 49.1 55.6 85.7 108.3 85.7 61.4 0 111.2-49.8 111.2-111.2 0-50.6-33.6-93.2-79.8-106.8z" fill="#c4cf81"/><path id="XMLID_221_" d="M235 96.8L43.7 43.4l51.8 185.4c11.5 49 55.5 85.5 108.1 85.5 61.3 0 111-49.7 111-111 .1-50.4-33.6-93-79.6-106.5z" fill="#c3cf82"/><path id="XMLID_220_" d="M234.6 96.7L43.7 43.4l51.7 185.1c11.5 48.9 55.4 85.4 107.9 85.4 61.2 0 110.8-49.6 110.8-110.8.1-50.4-33.5-92.9-79.5-106.4z" fill="#c2ce82"/><path id="XMLID_219_" d="M234.3 96.6L43.7 43.4l51.6 184.8c11.5 48.9 55.3 85.2 107.7 85.2 61.1 0 110.6-49.5 110.6-110.6.1-50.3-33.4-92.7-79.3-106.2z" fill="#c1ce83"/><path id="XMLID_218_" d="M233.9 96.5L43.7 43.4l51.5 184.4c11.5 48.8 55.2 85.1 107.5 85.1 61 0 110.4-49.4 110.4-110.4.1-50.2-33.4-92.5-79.2-106z" fill="#c0ce84"/><path id="XMLID_217_" d="M233.6 96.4l-189.9-53 51.4 184.1c11.4 48.7 55.1 84.9 107.3 84.9 60.9 0 110.2-49.4 110.2-110.2.1-50.1-33.3-92.3-79-105.8z" fill="#bfcd84"/><path id="XMLID_216_" d="M233.2 96.3L43.7 43.4 95 227.1c11.4 48.6 55 84.8 107.1 84.8 60.8 0 110-49.3 110-110 .1-50-33.2-92.2-78.9-105.6z" fill="#becd85"/><path id="XMLID_215_" d="M232.9 96.2L43.7 43.4 95 226.8c11.4 48.5 54.9 84.6 106.9 84.6 60.7 0 109.8-49.2 109.8-109.8 0-49.9-33.3-92-78.8-105.4z" fill="#bdcd85"/><path id="XMLID_214_" d="M232.6 96.1L43.7 43.4l51.2 183.1c11.4 48.4 54.8 84.5 106.7 84.5 60.5 0 109.6-49.1 109.6-109.6 0-49.9-33.2-91.9-78.6-105.3z" fill="#bccd86"/><path id="XMLID_213_" d="M232.2 96L43.7 43.4l51.1 182.7c11.4 48.3 54.7 84.3 106.5 84.3 60.4 0 109.4-49 109.4-109.4 0-49.7-33.1-91.6-78.5-105z" fill="#bbcc87"/><path id="XMLID_212_" d="M231.9 95.9L43.7 43.4l51 182.4C106 274 149.3 309.9 201 309.9c60.3 0 109.2-48.9 109.2-109.2 0-49.6-33.1-91.5-78.3-104.8z" fill="#bacc87"/><path id="XMLID_211_" d="M231.5 95.8L43.7 43.4l50.9 182c11.3 48.1 54.5 84 106.1 84 60.2 0 109-48.8 109-109 0-49.5-33-91.3-78.2-104.6z" fill="#b9cc88"/><path id="XMLID_210_" d="M231.2 95.7L43.7 43.4l50.8 181.7c11.3 48 54.4 83.8 105.9 83.8 60.1 0 108.8-48.7 108.8-108.8 0-49.4-32.9-91.1-78-104.4z" fill="#b8cc89"/><path id="XMLID_209_" d="M230.8 95.6L43.7 43.4l50.7 181.4c11.3 48 54.3 83.7 105.7 83.7 60 0 108.6-48.6 108.6-108.6 0-49.4-32.9-91-77.9-104.3z" fill="#b7cb89"/><path id="XMLID_208_" d="M230.5 95.5L43.7 43.4l50.6 181c11.3 47.9 54.2 83.5 105.5 83.5 59.9 0 108.4-48.5 108.4-108.4 0-49.2-32.8-90.7-77.7-104z" fill="#b6cb8a"/><path id="XMLID_207_" d="M230.1 95.4l-186.4-52 50.5 180.7c11.2 47.8 54.1 83.4 105.3 83.4 59.8 0 108.2-48.4 108.2-108.2 0-49.2-32.7-90.7-77.6-103.9z" fill="#b5cb8b"/><path id="XMLID_206_" d="M229.8 95.3L43.7 43.4l50.4 180.4c11.2 47.7 54 83.2 105.1 83.2 59.6 0 108-48.4 108-108 0-49.1-32.7-90.5-77.4-103.7z" fill="#b4ca8b"/><path id="XMLID_205_" d="M229.4 95.2L43.7 43.4l50.3 180c11.2 47.6 53.9 83 104.9 83 59.5 0 107.8-48.3 107.8-107.8 0-48.9-32.6-90.2-77.3-103.4z" fill="#b3ca8c"/><path id="XMLID_204_" d="M229.1 95.1L43.7 43.4l50.2 179.7c11.2 47.5 53.8 82.9 104.7 82.9 59.4 0 107.6-48.2 107.6-107.6.1-48.9-32.5-90.1-77.1-103.3z" fill="#b2ca8d"/><path id="XMLID_203_" d="M228.7 95l-185-51.6 50.1 179.3c11.1 47.4 53.7 82.7 104.5 82.7 59.3 0 107.4-48.1 107.4-107.4.1-48.7-32.5-89.9-77-103z" fill="#b1ca8d"/><path id="XMLID_202_" d="M228.4 94.9L43.7 43.4l50 179C104.8 269.7 147.3 305 198 305c59.2 0 107.2-48 107.2-107.2.1-48.7-32.4-89.8-76.8-102.9z" fill="#b0c98e"/><path id="XMLID_201_" d="M228 94.9L43.7 43.4l49.9 178.7c11.1 47.2 53.5 82.4 104.1 82.4 59.1 0 107-47.9 107-107 .1-48.6-32.3-89.6-76.7-102.6z" fill="#afc98e"/><path id="XMLID_200_" d="M227.7 94.8l-184-51.4 49.8 178.3c11.1 47.2 53.5 82.3 104 82.3 59 0 106.8-47.8 106.8-106.8 0-48.5-32.4-89.4-76.6-102.4z" fill="#aec98f"/><path id="XMLID_199_" d="M227.3 94.7L43.7 43.4l49.7 178c11.1 47.1 53.3 82.1 103.7 82.1 58.9 0 106.6-47.7 106.6-106.6.1-48.4-32.2-89.2-76.4-102.2z" fill="#adc890"/><path id="XMLID_198_" d="M227 94.6L43.7 43.4l49.6 177.7c11 47 53.2 82 103.5 82 58.8 0 106.4-47.6 106.4-106.4.1-48.4-32.1-89.2-76.2-102.1z" fill="#acc890"/><path id="XMLID_197_" d="M226.6 94.5L43.7 43.4l49.6 177.3c11 46.9 53.1 81.8 103.3 81.8 58.6 0 106.2-47.5 106.2-106.2 0-48.2-32.2-88.9-76.2-101.8z" fill="#abc891"/><path id="XMLID_196_" d="M226.3 94.4l-182.6-51 49.5 177c11 46.8 53 81.6 103.1 81.6 58.5 0 106-47.4 106-106 0-48.1-32.1-88.7-76-101.6z" fill="#aac892"/><path id="XMLID_195_" d="M225.9 94.3L43.7 43.4 93.1 220c11 46.7 52.9 81.5 102.9 81.5 58.4 0 105.8-47.4 105.8-105.8 0-48-32-88.5-75.9-101.4z" fill="#a9c792"/><path id="XMLID_194_" d="M225.6 94.2L43.7 43.4 93 219.7c11 46.6 52.8 81.3 102.7 81.3 58.3 0 105.6-47.3 105.6-105.6 0-47.9-32-88.4-75.7-101.2z" fill="#a8c793"/><path id="XMLID_193_" d="M225.2 94.1L43.7 43.4l49.2 176c10.9 46.5 52.7 81.2 102.5 81.2 58.2 0 105.4-47.2 105.4-105.4 0-47.9-31.9-88.3-75.6-101.1z" fill="#a7c794"/><path id="XMLID_192_" d="M224.9 94L43.7 43.4 92.8 219c10.9 46.4 52.6 81 102.3 81 58.1 0 105.2-47.1 105.2-105.2 0-47.7-31.8-88-75.4-100.8z" fill="#a6c794"/><path id="XMLID_191_" d="M224.5 93.9L43.7 43.4l49 175.3c10.9 46.3 52.5 80.9 102.2 80.9 58 0 105-47 105-105-.1-47.7-31.9-87.9-75.4-100.7z" fill="#a5c695"/><path id="XMLID_190_" d="M224.2 93.8L43.7 43.4l48.9 174.9c10.9 46.3 52.4 80.7 102 80.7 57.9 0 104.8-46.9 104.8-104.8-.1-47.5-31.8-87.6-75.2-100.4z" fill="#a4c696"/><path id="XMLID_189_" d="M223.8 93.7L43.7 43.4 92.5 218c10.9 46.2 52.3 80.6 101.8 80.6 57.7 0 104.6-46.8 104.6-104.6-.1-47.5-31.7-87.6-75.1-100.3z" fill="#a3c696"/><path id="XMLID_188_" d="M223.5 93.6L43.7 43.4l48.7 174.3c10.9 46 52.2 80.3 101.6 80.3 57.6 0 104.4-46.7 104.4-104.4-.1-47.3-31.7-87.3-74.9-100z" fill="#a2c597"/><path id="XMLID_187_" d="M223.1 93.5L43.7 43.4l48.6 173.9c10.8 46 52.1 80.2 101.4 80.2 57.5 0 104.2-46.6 104.2-104.2 0-47.2-31.6-87.1-74.8-99.8z" fill="#a1c597"/><path id="XMLID_186_" d="M222.8 93.4l-179.1-50L92.2 217c10.8 45.9 52 80.1 101.2 80.1 57.4 0 104-46.5 104-104 0-47.2-31.5-87-74.6-99.7z" fill="#a0c598"/><path id="XMLID_185_" d="M222.4 93.3L43.7 43.4l48.4 173.3c10.8 45.8 51.9 79.9 101 79.9 57.3 0 103.8-46.5 103.8-103.8 0-47.1-31.5-86.9-74.5-99.5z" fill="#9fc599"/><path id="XMLID_184_" d="M222.1 93.2L43.7 43.4 92 216.3c10.7 45.7 51.8 79.8 100.8 79.8 57.2 0 103.5-46.4 103.5-103.5.1-47.1-31.3-86.8-74.2-99.4z" fill="#9ec499"/><path id="XMLID_183_" d="M221.7 93.1l-178-49.7L91.9 216c10.7 45.6 51.7 79.6 100.6 79.6 57.1 0 103.3-46.3 103.3-103.3.1-47-31.2-86.6-74.1-99.2z" fill="#9dc49a"/><path id="XMLID_182_" d="M221.4 93L43.7 43.4l48.1 172.2c10.7 45.5 51.6 79.5 100.4 79.5 57 0 103.1-46.2 103.1-103.1.1-46.9-31.1-86.4-73.9-99z" fill="#9cc49b"/><path id="XMLID_181_" d="M221 92.9L43.7 43.4l48 171.9c10.7 45.5 51.5 79.3 100.2 79.3 56.9 0 102.9-46.1 102.9-102.9.1-46.8-31.1-86.2-73.8-98.8z" fill="#9bc49b"/><path id="XMLID_180_" d="M220.7 92.8l-177-49.4L91.6 215c10.7 45.4 51.4 79.1 100 79.1 56.7 0 102.7-46 102.7-102.7.1-46.7-31-86.1-73.6-98.6z" fill="#9ac39c"/><path id="XMLID_179_" d="M220.3 92.7L43.7 43.4l47.9 171.2c10.6 45.3 51.3 79 99.8 79 56.6 0 102.5-45.9 102.5-102.5 0-46.6-31-85.9-73.6-98.4z" fill="#99c39d"/><path id="XMLID_178_" d="M220 92.6L43.7 43.4l47.8 170.9c10.6 45.2 51.2 78.8 99.6 78.8 56.5 0 102.3-45.8 102.3-102.3 0-46.5-31-85.7-73.4-98.2z" fill="#98c39d"/><path id="XMLID_177_" d="M219.6 92.5L43.7 43.4 91.4 214c10.6 45.1 51.1 78.7 99.4 78.7 56.4 0 102.1-45.7 102.1-102.1 0-46.5-30.9-85.6-73.3-98.1z" fill="#97c29e"/><path id="XMLID_176_" d="M219.3 92.4l-175.6-49 47.6 170.2c10.6 45 51 78.5 99.2 78.5 56.3 0 101.9-45.6 101.9-101.9 0-46.3-30.8-85.4-73.1-97.8z" fill="#96c29f"/><path id="XMLID_175_" d="M218.9 92.3L43.7 43.4l47.5 169.9c10.6 44.9 50.9 78.4 99 78.4 56.2 0 101.7-45.5 101.7-101.7 0-46.3-30.8-85.3-73-97.7z" fill="#95c29f"/><path id="XMLID_174_" d="M218.6 92.2L43.7 43.4l47.4 169.5c10.5 44.8 50.8 78.2 98.8 78.2 56.1 0 101.5-45.5 101.5-101.5 0-46.1-30.7-85-72.8-97.4z" fill="#94c2a0"/><path id="XMLID_173_" d="M218.2 92.1L43.7 43.4 91 212.6c10.5 44.7 50.7 78.1 98.6 78.1 56 0 101.3-45.4 101.3-101.3 0-46.1-30.6-84.9-72.7-97.3z" fill="#93c1a0"/><path id="XMLID_172_" d="M217.9 92L43.7 43.4l47.2 168.9c10.5 44.6 50.6 77.9 98.4 77.9 55.8 0 101.1-45.3 101.1-101.1 0-46-30.6-84.7-72.5-97.1z" fill="#92c1a1"/><path id="XMLID_171_" d="M217.5 91.9L43.7 43.4l47.1 168.5c10.5 44.6 50.5 77.7 98.2 77.7 55.7 0 100.9-45.2 100.9-100.9 0-45.8-30.5-84.5-72.4-96.8z" fill="#91c1a2"/><path id="XMLID_170_" d="M217.2 91.8L43.7 43.4l47 168.2c10.5 44.5 50.4 77.6 98 77.6 55.6 0 100.7-45.1 100.7-100.7.1-45.8-30.4-84.4-72.2-96.7z" fill="#90c1a2"/><path id="XMLID_169_" d="M216.9 91.7L43.7 43.4l46.9 167.8c10.4 44.4 50.3 77.4 97.8 77.4 55.5 0 100.5-45 100.5-100.5.1-45.6-30.4-84.1-72-96.4z" fill="#8fc0a3"/><path id="XMLID_168_" d="M216.5 91.6L43.7 43.4l46.8 167.5c10.4 44.3 50.2 77.3 97.6 77.3 55.4 0 100.3-44.9 100.3-100.3.1-45.6-30.3-84-71.9-96.3z" fill="#8ec0a4"/><path id="XMLID_167_" d="M216.2 91.5L43.7 43.4l46.7 167.2c10.4 44.2 50 77.1 97.4 77.1 55.3 0 100.1-44.8 100.1-100.1.1-45.5-30.2-83.8-71.7-96.1z" fill="#8dc0a4"/><path id="XMLID_166_" d="M215.8 91.4l-172.1-48 46.6 166.8c10.4 44.1 49.9 77 97.2 77 55.2 0 99.9-44.7 99.9-99.9.1-45.4-30.2-83.7-71.6-95.9z" fill="#8cbfa5"/><path id="XMLID_165_" d="M215.5 91.3L43.7 43.4l46.5 166.5c10.3 44 49.8 76.8 97 76.8 55.1 0 99.7-44.6 99.7-99.7.1-45.3-30.1-83.5-71.4-95.7z" fill="#8bbfa6"/><path id="XMLID_164_" d="M215.1 91.2L43.7 43.4l46.4 166.2c10.3 43.9 49.7 76.7 96.8 76.7 55 0 99.5-44.5 99.5-99.5.1-45.3-30-83.4-71.3-95.6z" fill="#8abfa6"/><path id="XMLID_163_" d="M214.8 91.2L43.7 43.4 90 209.2c10.3 43.8 49.6 76.5 96.6 76.5 54.8 0 99.3-44.5 99.3-99.3.1-45.1-30-83.1-71.1-95.2z" fill="#89bfa7"/><path id="XMLID_162_" d="M214.4 91.1L43.7 43.4l46.2 165.5c10.3 43.8 49.5 76.3 96.4 76.3 54.7 0 99.1-44.4 99.1-99.1.1-45-29.9-83-71-95z" fill="#88bea8"/><path id="XMLID_161_" d="M214.1 91L43.7 43.4l46.1 165.1c10.3 43.7 49.4 76.2 96.2 76.2 54.6 0 98.9-44.3 98.9-98.9.1-44.9-29.8-82.8-70.8-94.8z" fill="#87bea8"/><path id="XMLID_160_" d="M213.7 90.9l-170-47.5 46.1 164.8c10.2 43.6 49.3 76 96 76 54.5 0 98.7-44.2 98.7-98.7 0-44.8-29.9-82.6-70.8-94.6z" fill="#86bea9"/><path id="XMLID_159_" d="M213.4 90.8L43.7 43.4l46 164.5c10.2 43.5 49.2 75.9 95.8 75.9 54.4 0 98.5-44.1 98.5-98.5 0-44.8-29.8-82.5-70.6-94.5z" fill="#85bea9"/><path id="XMLID_158_" d="M213 90.7L43.7 43.4l45.9 164.1c10.2 43.4 49.1 75.7 95.6 75.7 54.3 0 98.3-44 98.3-98.3 0-44.6-29.7-82.2-70.5-94.2z" fill="#84bdaa"/><path id="XMLID_157_" d="M212.7 90.6l-169-47.2 45.8 163.8c10.2 43.3 49 75.6 95.5 75.6 54.2 0 98.1-43.9 98.1-98.1-.1-44.6-29.8-82.2-70.4-94.1z" fill="#83bdab"/><path id="XMLID_156_" d="M212.3 90.5L43.7 43.4l45.7 163.4c10.2 43.2 48.9 75.4 95.3 75.4 54.1 0 97.9-43.8 97.9-97.9-.1-44.4-29.7-81.9-70.3-93.8z" fill="#82bdab"/><path id="XMLID_155_" d="M212 90.4l-168.3-47 45.6 163.1c10.1 43.1 48.8 75.2 95.1 75.2 53.9 0 97.7-43.7 97.7-97.7-.1-44.3-29.6-81.7-70.1-93.6z" fill="#81bcac"/><path id="XMLID_154_" d="M211.6 90.3L43.7 43.4l45.5 162.8c10.1 43 48.7 75.1 94.9 75.1 53.8 0 97.5-43.6 97.5-97.5-.1-44.3-29.6-81.6-70-93.5z" fill="#80bcad"/><path id="XMLID_153_" d="M211.3 90.2L43.7 43.4l45.4 162.4c10.1 43 48.6 74.9 94.7 74.9 53.7 0 97.3-43.5 97.3-97.3 0-44.1-29.5-81.4-69.8-93.2z" fill="#7fbcad"/><path id="XMLID_152_" d="M210.9 90.1L43.7 43.4 89 205.5c10.1 42.9 48.5 74.8 94.5 74.8 53.6 0 97.1-43.5 97.1-97.1 0-44.1-29.4-81.3-69.7-93.1z" fill="#7ebcae"/><path id="XMLID_151_" d="M210.6 90L43.7 43.4l45.2 161.8c10.1 42.8 48.4 74.6 94.3 74.6 53.5 0 96.9-43.4 96.9-96.9 0-44-29.4-81.1-69.5-92.9z" fill="#7dbbaf"/><path id="XMLID_150_" d="M210.2 89.9L43.7 43.4l45.1 161.4c10 42.7 48.3 74.5 94.1 74.5 53.4 0 96.7-43.3 96.7-96.7 0-43.9-29.3-80.9-69.4-92.7z" fill="#7cbbaf"/><path id="XMLID_149_" d="M209.9 89.8L43.7 43.4l45 161.1c10 42.6 48.2 74.3 93.9 74.3 53.3 0 96.5-43.2 96.5-96.5 0-43.8-29.2-80.7-69.2-92.5z" fill="#7bbbb0"/><path id="XMLID_148_" d="M209.5 89.7L43.7 43.4l44.9 160.7c10 42.5 48.1 74.2 93.7 74.2 53.2 0 96.3-43.1 96.3-96.3 0-43.7-29.2-80.6-69.1-92.3z" fill="#7abab1"/><path id="XMLID_147_" d="M209.2 89.6L43.7 43.4l44.8 160.4c10 42.4 48 74 93.5 74 53 0 96.1-43 96.1-96.1 0-43.6-29.1-80.4-68.9-92.1z" fill="#79bab1"/><path id="XMLID_146_" d="M208.8 89.5L43.7 43.4l44.7 160.1c9.9 42.3 47.9 73.8 93.3 73.8 52.9 0 95.9-42.9 95.9-95.9 0-43.5-29-80.2-68.8-91.9z" fill="#78bab2"/><path id="XMLID_145_" d="M208.5 89.4l-164.8-46 44.6 159.7c9.9 42.2 47.8 73.7 93.1 73.7 52.8 0 95.7-42.8 95.7-95.7 0-43.4-29-80-68.6-91.7z" fill="#77bab2"/><path id="XMLID_144_" d="M208.1 89.3L43.7 43.4l44.5 159.4c9.9 42.1 47.7 73.5 92.9 73.5 52.7 0 95.4-42.7 95.4-95.4.1-43.4-28.8-80-68.4-91.6z" fill="#76b9b3"/><path id="XMLID_143_" d="M207.8 89.2L43.7 43.4l44.4 159.1c9.9 42.1 47.6 73.4 92.7 73.4 52.6 0 95.2-42.6 95.2-95.2.1-43.4-28.7-79.9-68.2-91.5z" fill="#75b9b4"/><path id="XMLID_142_" d="M207.4 89.1L43.7 43.4l44.4 158.7c9.9 42 47.5 73.2 92.5 73.2 52.5 0 95-42.6 95-95 0-43.2-28.8-79.6-68.2-91.2z" fill="#74b9b4"/><path id="XMLID_141_" d="M207.1 89L43.7 43.4 88 201.8c9.8 41.9 47.4 73.1 92.3 73.1 52.4 0 94.8-42.5 94.8-94.8 0-43.2-28.7-79.5-68-91.1z" fill="#73b9b5"/><path id="XMLID_140_" d="M206.7 88.9l-163-45.5 44.2 158c9.8 41.8 47.3 72.9 92.1 72.9 52.3 0 94.6-42.4 94.6-94.6 0-43-28.6-79.2-67.9-90.8z" fill="#72b8b6"/><path id="XMLID_139_" d="M206.4 88.8L43.7 43.4l44.1 157.7c9.8 41.7 47.2 72.8 91.9 72.8 52.2 0 94.4-42.3 94.4-94.4 0-43-28.6-79.2-67.7-90.7z" fill="#71b8b6"/><path id="XMLID_138_" d="M206 88.7L43.7 43.4l44 157.4c9.8 41.6 47.1 72.6 91.7 72.6 52 0 94.2-42.2 94.2-94.2 0-42.9-28.5-79-67.6-90.5z" fill="#70b8b7"/><path id="XMLID_137_" d="M205.7 88.6l-162-45.2 43.9 157c9.8 41.5 47 72.4 91.5 72.4 51.9 0 94-42.1 94-94 0-42.7-28.4-78.7-67.4-90.2z" fill="#6fb7b8"/><path id="XMLID_136_" d="M205.3 88.5L43.7 43.4l43.8 156.7c9.7 41.4 46.9 72.3 91.3 72.3 51.8 0 93.8-42 93.8-93.8.1-42.7-28.4-78.6-67.3-90.1z" fill="#6eb7b8"/><path id="XMLID_135_" d="M205 88.4l-161.3-45 43.7 156.3c9.7 41.3 46.8 72.1 91.1 72.1 51.7 0 93.6-41.9 93.6-93.6.1-42.5-28.3-78.4-67.1-89.8z" fill="#6db7b9"/><path id="XMLID_134_" d="M204.6 88.3L43.7 43.4l43.6 156c9.7 41.3 46.7 72 90.9 72 51.6 0 93.4-41.8 93.4-93.4.1-42.5-28.2-78.3-67-89.7z" fill="#6cb7ba"/><path id="XMLID_133_" d="M204.3 88.2L43.7 43.4l43.5 155.7c9.7 41.2 46.6 71.8 90.7 71.8 51.5 0 93.2-41.7 93.2-93.2.1-42.4-28.2-78.1-66.8-89.5z" fill="#6bb6ba"/><path id="XMLID_132_" d="M203.9 88.1L43.7 43.4l43.4 155.3c9.7 41.1 46.5 71.7 90.5 71.7 51.4 0 93-41.6 93-93 .1-42.3-28.1-77.9-66.7-89.3z" fill="#6ab6bb"/><path id="XMLID_131_" d="M203.6 88L43.7 43.4l43.3 155c9.6 41 46.4 71.5 90.3 71.5 51.3 0 92.8-41.6 92.8-92.8.1-42.2-28-77.7-66.5-89.1z" fill="#69b6bb"/><path id="XMLID_130_" d="M203.2 87.9L43.7 43.4l43.2 154.7c9.6 40.9 46.3 71.3 90.1 71.3 51.1 0 92.6-41.5 92.6-92.6.1-42.1-28-77.6-66.4-88.9z" fill="#68b6bc"/><path id="XMLID_129_" d="M202.9 87.8L43.7 43.4l43.1 154.3c9.6 40.8 46.2 71.2 89.9 71.2 51 0 92.4-41.4 92.4-92.4.1-42-27.9-77.4-66.2-88.7z" fill="#67b5bd"/><path id="XMLID_128_" d="M202.5 87.7L43.7 43.4l43 154c9.6 40.7 46.1 71 89.7 71 50.9 0 92.2-41.3 92.2-92.2.1-41.9-27.8-77.2-66.1-88.5z" fill="#66b5bd"/><path id="XMLID_127_" d="M202.2 87.6L43.7 43.4 86.6 197c9.5 40.6 46 70.9 89.5 70.9 50.8 0 92-41.2 92-92 .1-41.8-27.8-77-65.9-88.3z" fill="#65b5be"/><path id="XMLID_126_" d="M201.9 87.5L43.7 43.4l42.8 153.3c9.5 40.5 45.9 70.7 89.3 70.7 50.7 0 91.8-41.1 91.8-91.8.1-41.7-27.7-76.9-65.7-88.1z" fill="#64b4bf"/><path id="XMLID_125_" d="M201.5 87.5l-157.8-44 42.7 153c9.5 40.4 45.8 70.6 89.1 70.6 50.6 0 91.6-41 91.6-91.6.1-41.8-27.6-76.9-65.6-88z" fill="#63b4bf"/><path id="XMLID_124_" d="M201.2 87.4l-157.5-44L86.4 196c9.5 40.4 45.7 70.4 88.9 70.4 50.5 0 91.4-40.9 91.4-91.4 0-41.5-27.7-76.5-65.5-87.6z" fill="#62b4c0"/><path id="XMLID_123_" d="M200.8 87.3L43.7 43.4l42.6 152.3c9.5 40.3 45.6 70.3 88.8 70.3 50.4 0 91.2-40.8 91.2-91.2-.1-41.5-27.7-76.4-65.5-87.5z" fill="#61b4c1"/><path id="XMLID_122_" d="M200.5 87.2L43.7 43.4l42.5 152c9.4 40.2 45.5 70.1 88.6 70.1 50.3 0 91-40.7 91-91-.1-41.4-27.6-76.2-65.3-87.3z" fill="#60b3c1"/><path id="XMLID_121_" d="M200.1 87.1L43.7 43.4 86.1 195c9.4 40.1 45.4 69.9 88.4 69.9 50.1 0 90.8-40.6 90.8-90.8-.1-41.2-27.5-76-65.2-87z" fill="#5fb3c2"/><path id="XMLID_120_" d="M199.8 87L43.7 43.4 86 194.7c9.4 40 45.3 69.8 88.2 69.8 50 0 90.6-40.6 90.6-90.6-.1-41.2-27.5-75.9-65-86.9z" fill="#5eb3c3"/><path id="XMLID_119_" d="M199.4 86.9L43.7 43.4l42.2 150.9c9.4 39.9 45.2 69.6 88 69.6 49.9 0 90.4-40.5 90.4-90.4 0-41-27.4-75.6-64.9-86.6z" fill="#5db3c3"/><path id="XMLID_118_" d="M199.1 86.8L43.7 43.4 85.8 194c9.4 39.8 45.1 69.5 87.8 69.5 49.8 0 90.2-40.4 90.2-90.2 0-41-27.3-75.5-64.7-86.5z" fill="#5cb2c4"/><path id="XMLID_117_" d="M198.7 86.7l-155-43.3 42 150.3c9.3 39.7 45 69.3 87.6 69.3 49.7 0 90-40.3 90-90 0-40.9-27.3-75.4-64.6-86.3z" fill="#5bb2c4"/><path id="XMLID_116_" d="M198.4 86.6L43.7 43.4l41.9 149.9c9.3 39.6 44.9 69.2 87.4 69.2 49.6 0 89.8-40.2 89.8-89.8 0-40.8-27.2-75.2-64.4-86.1z" fill="#5ab2c5"/><path id="XMLID_115_" d="M198 86.5L43.7 43.4 85.5 193c9.3 39.6 44.8 69 87.2 69 49.5 0 89.6-40.1 89.6-89.6 0-40.7-27.1-75-64.3-85.9z" fill="#59b1c6"/><path id="XMLID_114_" d="M197.7 86.4l-154-43 41.7 149.2c9.3 39.5 44.7 68.9 87 68.9 49.4 0 89.4-40 89.4-89.4 0-40.6-27.1-74.8-64.1-85.7z" fill="#58b1c6"/><path id="XMLID_113_" d="M197.3 86.3L43.7 43.4l41.6 148.9c9.3 39.4 44.6 68.7 86.8 68.7 49.2 0 89.2-39.9 89.2-89.2 0-40.5-27-74.6-64-85.5z" fill="#57b1c7"/><path id="XMLID_112_" d="M197 86.2L43.7 43.4 85.2 192c9.2 39.3 44.5 68.5 86.6 68.5 49.1 0 89-39.8 89-89 0-40.4-26.9-74.5-63.8-85.3z" fill="#56b1c8"/><path id="XMLID_111_" d="M196.6 86.1L43.7 43.4l41.4 148.2c9.2 39.2 44.4 68.4 86.4 68.4 49 0 88.8-39.7 88.8-88.8 0-40.3-26.9-74.3-63.7-85.1z" fill="#55b0c8"/><path id="XMLID_110_" d="M196.3 86L43.7 43.4 85 191.3c9.2 39.1 44.3 68.2 86.2 68.2 48.9 0 88.6-39.7 88.6-88.6 0-40.2-26.8-74.1-63.5-84.9z" fill="#54b0c9"/><path id="XMLID_109_" d="M195.9 85.9L43.7 43.4 84.9 191c9.2 39 44.2 68.1 86 68.1 48.8 0 88.4-39.6 88.4-88.4 0-40.2-26.7-74-63.4-84.8z" fill="#53b0ca"/><path id="XMLID_108_" d="M195.6 85.8L43.7 43.4l41.1 147.2c9.2 38.9 44.1 67.9 85.8 67.9 48.7 0 88.2-39.5 88.2-88.2 0-40-26.7-73.8-63.2-84.5z" fill="#52b0ca"/><path id="XMLID_107_" d="M195.2 85.7L43.7 43.4l41 146.9c9.1 38.8 44 67.8 85.6 67.8 48.6 0 88-39.4 88-88 0-40-26.6-73.7-63.1-84.4z" fill="#51afcb"/><path id="XMLID_106_" d="M194.9 85.6L43.7 43.4l41 146.5c9.1 38.7 43.9 67.6 85.4 67.6 48.5 0 87.8-39.3 87.8-87.8-.1-39.8-26.6-73.4-63-84.1z" fill="#50afcc"/><path id="XMLID_105_" d="M194.5 85.5L43.7 43.4l40.9 146.2c9.1 38.7 43.8 67.4 85.2 67.4 48.4 0 87.6-39.2 87.6-87.6-.1-39.7-26.6-73.2-62.9-83.9z" fill="#4fafcc"/><path id="XMLID_104_" d="M194.2 85.4l-150.5-42 40.8 145.9c9.1 38.6 43.7 67.3 85 67.3 48.2 0 87.3-39.1 87.3-87.3 0-39.8-26.4-73.2-62.6-83.9z" fill="#4eaecd"/><path id="XMLID_103_" d="M193.8 85.3L43.7 43.4l40.7 145.5c9 38.5 43.6 67.1 84.8 67.1 48.1 0 87.1-39 87.1-87.1 0-39.6-26.3-73-62.5-83.6z" fill="#4daecd"/><path id="XMLID_102_" d="M193.5 85.2L43.7 43.4l40.6 145.2c9 38.4 43.5 67 84.6 67 48 0 86.9-38.9 86.9-86.9.1-39.6-26.3-72.9-62.3-83.5z" fill="#4caece"/><path id="XMLID_101_" d="M193.1 85.1L43.7 43.4l40.5 144.9c9 38.3 43.4 66.8 84.4 66.8 47.9 0 86.7-38.8 86.7-86.7.1-39.5-26.2-72.7-62.2-83.3z" fill="#4baecf"/><path id="XMLID_100_" d="M192.8 85L43.7 43.4l40.4 144.5c9 38.2 43.3 66.7 84.2 66.7 47.8 0 86.5-38.7 86.5-86.5.1-39.4-26.1-72.5-62-83.1z" fill="#4aadcf"/><path id="XMLID_99_" d="M192.4 84.9L43.7 43.4 84 187.6c9 38.1 43.2 66.5 84 66.5 47.7 0 86.3-38.7 86.3-86.3.1-39.3-26.1-72.4-61.9-82.9z" fill="#49add0"/><path id="XMLID_98_" d="M192.1 84.8L43.7 43.4l40.2 143.8c8.9 38 43.1 66.4 83.8 66.4 47.6 0 86.1-38.6 86.1-86.1.1-39.2-26-72.2-61.7-82.7z" fill="#48add1"/><path id="XMLID_97_" d="M191.7 84.7l-148-41.3 40.1 143.5c8.9 37.9 43 66.2 83.6 66.2 47.5 0 85.9-38.5 85.9-85.9.1-39.1-25.9-72-61.6-82.5z" fill="#47acd1"/><path id="XMLID_96_" d="M191.4 84.6L43.7 43.4l40 143.2c8.9 37.9 42.9 66 83.4 66 47.3 0 85.7-38.4 85.7-85.7.1-39-25.9-71.8-61.4-82.3z" fill="#46acd2"/><path id="XMLID_95_" d="M191 84.5L43.7 43.4l39.9 142.8c8.9 37.8 42.8 65.9 83.2 65.9 47.2 0 85.5-38.3 85.5-85.5.1-38.9-25.8-71.6-61.3-82.1z" fill="#45acd3"/><path id="XMLID_94_" d="M190.7 84.4l-147-41 39.8 142.5c8.9 37.7 42.7 65.7 83 65.7 47.1 0 85.3-38.2 85.3-85.3.1-38.8-25.7-71.5-61.1-81.9z" fill="#44acd3"/><path id="XMLID_93_" d="M190.3 84.3L43.7 43.4l39.7 142.1c8.8 37.6 42.6 65.6 82.8 65.6 47 0 85.1-38.1 85.1-85.1.1-38.7-25.7-71.3-61-81.7z" fill="#43abd4"/><path id="XMLID_92_" d="M190 84.2L43.7 43.4l39.6 141.8c8.8 37.5 42.5 65.4 82.6 65.4 46.9 0 84.9-38 84.9-84.9.1-38.6-25.6-71.1-60.8-81.5z" fill="#42abd5"/><path id="XMLID_91_" d="M189.6 84.1L43.7 43.4l39.5 141.5c8.8 37.4 42.4 65.3 82.4 65.3 46.8 0 84.7-37.9 84.7-84.7.1-38.6-25.5-71-60.7-81.4z" fill="#41abd5"/><path id="XMLID_90_" d="M189.3 84L43.7 43.4l39.4 141.1c8.8 37.3 42.3 65.1 82.2 65.1 46.7 0 84.5-37.8 84.5-84.5.1-38.4-25.5-70.7-60.5-81.1z" fill="#40abd6"/><path id="XMLID_89_" d="M188.9 83.9L43.7 43.4 83 184.2c8.8 37.2 42.2 65 82.1 65 46.6 0 84.3-37.7 84.3-84.3 0-38.4-25.5-70.7-60.5-81z" fill="#3faad6"/><path id="XMLID_88_" d="M188.6 83.8L43.7 43.4 83 183.9c8.7 37.1 42.1 64.8 81.9 64.8 46.5 0 84.1-37.7 84.1-84.1-.1-38.3-25.5-70.5-60.4-80.8z" fill="#3eaad7"/><path id="XMLID_87_" d="M188.2 83.8L43.7 43.4l39.2 140.1c8.7 37 42 64.6 81.7 64.6 46.3 0 83.9-37.6 83.9-83.9-.1-38.1-25.5-70.2-60.3-80.4z" fill="#3daad8"/><path id="XMLID_86_" d="M187.9 83.7L43.7 43.4l39.1 139.8c8.7 37 41.8 64.5 81.5 64.5 46.2 0 83.7-37.5 83.7-83.7-.1-38.1-25.4-70.1-60.1-80.3z" fill="#3ca9d8"/><path id="XMLID_85_" d="M187.5 83.6L43.7 43.4l39 139.4c8.7 36.9 41.7 64.3 81.3 64.3 46.1 0 83.5-37.4 83.5-83.5 0-37.9-25.3-69.9-60-80z" fill="#3ba9d9"/><path id="XMLID_84_" d="M187.2 83.5L43.7 43.4l38.9 139.1c8.6 36.8 41.6 64.2 81.1 64.2 46 0 83.3-37.3 83.3-83.3 0-37.9-25.3-69.8-59.8-79.9z" fill="#3aa9da"/><path id="XMLID_83_" d="M186.9 83.4l-143.1-40 38.8 138.8c8.6 36.7 41.5 64 80.9 64 45.9 0 83.1-37.2 83.1-83.1-.1-37.8-25.3-69.6-59.7-79.7z" fill="#39a9da"/><path id="XMLID_82_" d="M186.5 83.3L43.7 43.4l38.7 138.4c8.6 36.6 41.4 63.9 80.7 63.9 45.8 0 82.9-37.1 82.9-82.9 0-37.7-25.1-69.4-59.5-79.5z" fill="#38a8db"/><path id="XMLID_81_" d="M186.2 83.2L43.7 43.4l38.6 138.1c8.6 36.5 41.3 63.7 80.5 63.7 45.7 0 82.7-37 82.7-82.7 0-37.6-25.1-69.2-59.3-79.3z" fill="#37a8dc"/><path id="XMLID_80_" d="M185.8 83.1L43.7 43.4l38.5 137.7c8.6 36.4 41.2 63.5 80.3 63.5 45.6 0 82.5-36.9 82.5-82.5 0-37.4-25-69-59.2-79z" fill="#36a8dc"/><path id="XMLID_79_" d="M185.5 83L43.7 43.4l38.4 137.4c8.5 36.3 41.1 63.4 80.1 63.4 45.4 0 82.3-36.8 82.3-82.3 0-37.4-24.9-68.9-59-78.9z" fill="#35a8dd"/><path id="XMLID_78_" d="M185.1 82.9L43.7 43.4 82 180.5c8.5 36.2 41 63.2 79.9 63.2 45.3 0 82.1-36.7 82.1-82.1 0-37.3-24.9-68.7-58.9-78.7z" fill="#34a7de"/><path id="XMLID_77_" d="M184.8 82.8L43.7 43.4l38.2 136.7c8.5 36.2 40.9 63.1 79.7 63.1 45.2 0 81.9-36.7 81.9-81.9 0-37.2-24.8-68.5-58.7-78.5z" fill="#33a7de"/><path id="XMLID_76_" d="M184.4 82.7L43.7 43.4l38.1 136.4c8.5 36.1 40.8 62.9 79.5 62.9 45.1 0 81.7-36.6 81.7-81.7 0-37.1-24.7-68.4-58.6-78.3z" fill="#32a7df"/><path id="XMLID_75_" d="M184.1 82.6L43.7 43.4l38 136.1c8.5 36 40.7 62.8 79.3 62.8 45 0 81.5-36.5 81.5-81.5 0-37.1-24.7-68.3-58.4-78.2z" fill="#31a6df"/><path id="XMLID_74_" d="M183.7 82.5l-140-39.1 37.9 135.7c8.4 35.9 40.6 62.6 79.1 62.6 44.9 0 81.3-36.4 81.3-81.3 0-36.9-24.6-68-58.3-77.9z" fill="#30a6e0"/><path id="XMLID_73_" d="M183.4 82.4l-139.7-39 37.8 135.4c8.4 35.8 40.5 62.5 78.9 62.5 44.8 0 81.1-36.3 81.1-81.1 0-36.9-24.5-67.9-58.1-77.8z" fill="#2fa6e1"/><path id="XMLID_72_" d="M183 82.3L43.7 43.4l37.7 135c8.4 35.7 40.4 62.3 78.7 62.3 44.7 0 80.9-36.2 80.9-80.9 0-36.7-24.5-67.6-58-77.5z" fill="#2ea6e1"/><path id="XMLID_71_" d="M182.7 82.2l-139-38.8 37.6 134.7c8.4 35.6 40.3 62.1 78.5 62.1 44.6 0 80.7-36.1 80.7-80.7 0-36.6-24.4-67.5-57.8-77.3z" fill="#2da5e2"/><path id="XMLID_70_" d="M182.3 82.1L43.7 43.4l37.6 134.4c8.4 35.5 40.2 62 78.3 62 44.4 0 80.5-36 80.5-80.5-.1-36.6-24.4-67.4-57.8-77.2z" fill="#2ca5e3"/><path id="XMLID_69_" d="M182 82L43.7 43.4l37.5 134c8.3 35.4 40.1 61.8 78.1 61.8 44.3 0 80.3-35.9 80.3-80.3-.1-36.4-24.4-67.1-57.6-76.9z" fill="#2ba5e3"/><path id="XMLID_68_" d="M181.6 81.9L43.7 43.4l37.4 133.7c8.3 35.4 40 61.7 77.9 61.7 44.2 0 80.1-35.8 80.1-80.1 0-36.4-24.3-67-57.5-76.8z" fill="#2aa5e4"/><path id="XMLID_67_" d="M181.3 81.8L43.7 43.4 81 176.8c8.3 35.3 39.9 61.5 77.7 61.5 44.1 0 79.9-35.8 79.9-79.9 0-36.3-24.2-66.9-57.3-76.6z" fill="#29a4e5"/><path id="XMLID_64_" d="M180.9 81.7L43.7 43.4l37.2 133c8.3 35.2 39.8 61.4 77.5 61.4 44 0 79.7-35.7 79.7-79.7 0-36.2-24.2-66.7-57.2-76.4z" fill="#28a4e5"/><path id="XMLID_63_" d="M180.6 81.6L43.7 43.4l37.1 132.7c8.2 35.1 39.7 61.2 77.3 61.2 43.9 0 79.5-35.6 79.5-79.5 0-36.1-24.1-66.5-57-76.2z" fill="#27a4e6"/><path id="XMLID_62_" d="M180.2 81.5L43.7 43.4l37 132.3c8.2 35 39.6 61.1 77.1 61.1 43.8 0 79.2-35.5 79.2-79.2.1-36.1-23.9-66.4-56.8-76.1z" fill="#26a3e7"/><path id="XMLID_61_" d="M179.9 81.4l-136.2-38 36.9 132c8.2 34.9 39.5 60.9 76.9 60.9 43.7 0 79-35.4 79-79 .1-36-23.9-66.2-56.6-75.9z" fill="#25a3e7"/><path id="XMLID_60_" d="M179.5 81.3L43.7 43.4l36.8 131.7c8.2 34.8 39.4 60.7 76.7 60.7 43.5 0 78.8-35.3 78.8-78.8.1-35.9-23.8-66.1-56.5-75.7z" fill="#24a3e8"/><path id="XMLID_59_" d="M179.2 81.2L43.7 43.4l36.7 131.3c8.2 34.7 39.3 60.6 76.5 60.6 43.4 0 78.6-35.2 78.6-78.6.1-35.8-23.7-65.9-56.3-75.5z" fill="#23a3e8"/><path id="XMLID_58_" d="M178.8 81.1L43.7 43.4l36.6 131c8.1 34.6 39.2 60.4 76.3 60.4 43.3 0 78.4-35.1 78.4-78.4.1-35.7-23.7-65.7-56.2-75.3z" fill="#22a2e9"/><path id="XMLID_57_" d="M178.5 81L43.7 43.4 80.2 174c8.1 34.5 39.1 60.3 76.1 60.3 43.2 0 78.2-35 78.2-78.2.1-35.6-23.6-65.5-56-75.1z" fill="#21a2ea"/><path id="XMLID_56_" d="M178.1 80.9L43.7 43.4l36.4 130.3c8.1 34.5 39 60.1 75.9 60.1 43.1 0 78-34.9 78-78 .1-35.5-23.5-65.4-55.9-74.9z" fill="#20a2ea"/><path id="XMLID_55_" d="M177.8 80.8L43.7 43.4l36.3 130c8.1 34.4 38.9 60 75.7 60 43 0 77.8-34.8 77.8-77.8.1-35.5-23.4-65.3-55.7-74.8z" fill="#1fa2eb"/><path id="XMLID_54_" d="M177.4 80.7L43.7 43.4 79.9 173c8.1 34.3 38.8 59.8 75.5 59.8 42.9 0 77.6-34.8 77.6-77.6.1-35.3-23.4-65-55.6-74.5z" fill="#1ea1ec"/><path id="XMLID_53_" d="M177.1 80.6L43.7 43.4l36.1 129.3c8 34.2 38.7 59.6 75.4 59.6 42.8 0 77.4-34.7 77.4-77.4 0-35.2-23.4-64.8-55.5-74.3z" fill="#1da1ec"/><path id="XMLID_52_" d="M176.7 80.5l-133-37.1 36 129c8 34.1 38.6 59.5 75.2 59.5 42.6 0 77.2-34.6 77.2-77.2 0-35.2-23.3-64.7-55.4-74.2z" fill="#1ca1ed"/><path id="XMLID_51_" d="M176.4 80.4l-132.7-37L79.6 172c8 34 38.5 59.3 75 59.3 42.5 0 77-34.5 77-77 0-35-23.3-64.5-55.2-73.9z" fill="#1ba0ee"/><path id="XMLID_50_" d="M176 80.3L43.7 43.4l35.8 128.3c8 33.9 38.4 59.2 74.8 59.2 42.4 0 76.8-34.4 76.8-76.8 0-35-23.2-64.4-55.1-73.8z" fill="#1aa0ee"/><path id="XMLID_49_" d="M175.7 80.2l-132-36.8 35.8 127.9c8 33.8 38.3 59 74.6 59 42.3 0 76.6-34.3 76.6-76.6 0-34.8-23.2-64.1-55-73.5z" fill="#19a0ef"/><path id="XMLID_48_" d="M175.3 80.1L43.7 43.4 79.4 171c7.9 33.7 38.2 58.9 74.4 58.9 42.2 0 76.4-34.2 76.4-76.4 0-34.8-23.2-64-54.9-73.4z" fill="#18a0f0"/><path id="XMLID_47_" d="M175 80.1L43.7 43.4l35.6 127.3c7.9 33.7 38.1 58.7 74.2 58.7 42.1 0 76.2-34.1 76.2-76.2 0-34.7-23.1-63.9-54.7-73.1z" fill="#179ff0"/><path id="XMLID_46_" d="M174.6 80L43.7 43.4l35.5 126.9c7.9 33.6 38 58.6 74 58.6 42 0 76-34 76-76 0-34.6-23-63.7-54.6-72.9z" fill="#169ff1"/><path id="XMLID_45_" d="M174.3 79.9L43.7 43.4 79.1 170c7.9 33.5 37.9 58.4 73.8 58.4 41.9 0 75.8-33.9 75.8-75.8 0-34.5-23-63.5-54.4-72.7z" fill="#159ff1"/><path id="XMLID_44_" d="M173.9 79.8L43.7 43.4 79 169.7c7.8 33.4 37.8 58.2 73.6 58.2 41.8 0 75.6-33.8 75.6-75.6 0-34.4-22.9-63.3-54.3-72.5z" fill="#149ef2"/><path id="XMLID_43_" d="M173.6 79.7L43.7 43.4l35.2 125.9c7.8 33.3 37.7 58.1 73.4 58.1 41.6 0 75.4-33.8 75.4-75.4 0-34.3-22.8-63.1-54.1-72.3z" fill="#139ef3"/><path id="XMLID_42_" d="M173.2 79.6L43.7 43.4 78.8 169c7.8 33.2 37.6 57.9 73.2 57.9 41.5 0 75.2-33.7 75.2-75.2 0-34.2-22.8-63-54-72.1z" fill="#129ef3"/><path id="XMLID_41_" d="M172.9 79.5L43.7 43.4l35 125.2c7.8 33.1 37.5 57.8 73 57.8 41.4 0 75-33.6 75-75 0-34.1-22.7-62.8-53.8-71.9z" fill="#119ef4"/><path id="XMLID_40_" d="M172.5 79.4l-128.8-36 34.9 124.9c7.8 33 37.4 57.6 72.8 57.6 41.3 0 74.8-33.5 74.8-74.8 0-34-22.6-62.6-53.7-71.7z" fill="#109df5"/><path id="XMLID_39_" d="M172.2 79.3L43.7 43.4 78.5 168c7.7 32.9 37.3 57.5 72.6 57.5 41.2 0 74.6-33.4 74.6-74.6 0-34-22.6-62.5-53.5-71.6z" fill="#0f9df5"/><path id="XMLID_38_" d="M171.9 79.2L43.7 43.4l34.7 124.2c7.7 32.8 37.2 57.3 72.4 57.3 41.1 0 74.4-33.3 74.4-74.4 0-33.7-22.5-62.3-53.3-71.3z" fill="#0e9df6"/><path id="XMLID_37_" d="M171.5 79.1L43.7 43.4l34.6 123.9c7.7 32.8 37.1 57.2 72.2 57.2 41 0 74.2-33.2 74.2-74.2 0-33.7-22.4-62.2-53.2-71.2z" fill="#0d9df7"/><path id="XMLID_36_" d="M171.2 79L43.7 43.4l34.5 123.5c7.7 32.7 37 57 72 57 40.9 0 74-33.1 74-74 0-33.5-22.4-61.9-53-70.9z" fill="#0c9cf7"/><path id="XMLID_35_" d="M170.8 78.9L43.7 43.4l34.4 123.2c7.7 32.6 36.9 56.8 71.8 56.8 40.7 0 73.8-33 73.8-73.8 0-33.4-22.3-61.7-52.9-70.7z" fill="#0b9cf8"/><path id="XMLID_34_" d="M170.5 78.8L43.7 43.4 78 166.3c7.6 32.5 36.8 56.7 71.6 56.7 40.6 0 73.6-32.9 73.6-73.6 0-33.4-22.2-61.6-52.7-70.6z" fill="#0a9cf9"/><path id="XMLID_31_" d="M170.1 78.7L43.7 43.4l34.2 122.5c7.6 32.4 36.7 56.5 71.4 56.5 40.5 0 73.4-32.9 73.4-73.4 0-33.2-22.2-61.4-52.6-70.3z" fill="#099bf9"/><path id="XMLID_22_" d="M169.8 78.6L43.7 43.4l34.1 122.2c7.6 32.3 36.6 56.4 71.2 56.4 40.4 0 73.2-32.8 73.2-73.2.1-33.2-22.1-61.3-52.4-70.2z" fill="#089bfa"/><path id="XMLID_13_" d="M169.4 78.5L43.7 43.4l34.1 121.9c7.6 32.2 36.5 56.2 71 56.2 40.3 0 73-32.7 73-73 0-33.1-22.1-61.1-52.4-70z" fill="#079bfa"/><path id="XMLID_12_" d="M169.1 78.4l-125.4-35 34 121.5c7.6 32.1 36.4 56.1 70.8 56.1 40.2 0 72.8-32.6 72.8-72.8 0-33-22.1-60.9-52.2-69.8z" fill="#069bfb"/><path id="XMLID_11_" d="M168.7 78.3l-125-34.9 33.9 121.2c7.5 32 36.3 55.9 70.6 55.9 40.1 0 72.6-32.5 72.6-72.6 0-32.9-22-60.8-52.1-69.6z" fill="#059afc"/><path id="XMLID_10_" d="M168.4 78.2L43.7 43.4l33.8 120.8c7.5 32 36.2 55.7 70.4 55.7 40 0 72.4-32.4 72.4-72.4 0-32.7-21.9-60.5-51.9-69.3z" fill="#049afc"/><path id="XMLID_9_" d="M168 78.1L43.7 43.4l33.7 120.5c7.5 31.9 36.1 55.6 70.2 55.6 39.9 0 72.2-32.3 72.2-72.2 0-32.7-21.9-60.4-51.8-69.2z" fill="#039afd"/><path id="XMLID_8_" d="M167.7 78l-124-34.6 33.6 120.2c7.5 31.8 36 55.4 70 55.4 39.7 0 72-32.2 72-72 0-32.6-21.8-60.2-51.6-69z" fill="#029afe"/><path id="XMLID_7_" d="M167.3 77.9L43.7 43.4l33.5 119.8c7.4 31.7 35.9 55.3 69.8 55.3 39.6 0 71.8-32.1 71.8-71.8 0-32.5-21.7-60-51.5-68.8z" fill="#0199fe"/><path id="XMLID_5_" d="M167 77.8L43.7 43.4l33.4 119.5c7.4 31.6 35.8 55.1 69.6 55.1 39.5 0 71.6-32 71.6-71.6 0-32.4-21.7-59.9-51.3-68.6z" fill="#09f"/></g></g></g><g id="Layer_3"><g id="XMLID_300_"><path id="XMLID_322_" fill="#231f20" d="M59.4 226.5H446V300H59.4z"/><g id="XMLID_307_"><path id="XMLID_321_" class="st257" d="M84.6 258.8h2c1.8 0 3.1-.6 3.9-1.7l11.9-17.2c.7-.9 1.5-1.6 2.2-1.9.8-.3 1.8-.5 3-.5h10.6l-15.6 21.3c-1.1 1.5-2.3 2.5-3.6 3.2.9.3 1.8.8 2.5 1.4.8.6 1.5 1.4 2.1 2.4l15.9 24.4h-10.9c-.7 0-1.3 0-1.8-.1s-.9-.2-1.3-.4c-.3-.2-.7-.4-.9-.7-.3-.3-.5-.6-.8-1l-11.9-18.4c-.4-.7-1-1.1-1.7-1.4-.7-.3-1.6-.4-2.7-.4h-3v22.4H72.3v-52.7h12.2l.1 21.3z"/><path id="XMLID_320_" class="st257" d="M132.2 255.9c1.3-1.1 2.8-2.1 4.4-2.8 1.6-.7 3.5-1.1 5.7-1.1 2 0 3.9.3 5.5 1.1 1.6.7 2.9 1.7 4 3s1.9 2.8 2.5 4.5.8 3.7.8 5.7v23.9h-11.2v-23.9c0-1.8-.4-3.3-1.3-4.3-.8-1-2.1-1.5-3.7-1.5-1.2 0-2.4.3-3.5.8s-2.1 1.2-3.1 2.1v26.8H121V236h11.2v19.9z"/><path id="XMLID_317_" class="st257" d="M159.6 257.9c2.3-2 4.8-3.5 7.5-4.5 2.8-1 5.7-1.5 8.9-1.5 2.3 0 4.3.4 6.1 1.1 1.8.7 3.4 1.8 4.6 3.1 1.3 1.3 2.2 2.9 2.9 4.7.7 1.8 1 3.8 1 5.9v23.4h-5.2c-1.1 0-1.9-.1-2.4-.4-.6-.3-1-.9-1.3-1.8l-.8-2.1c-.9.8-1.8 1.5-2.7 2.1-.9.6-1.8 1.1-2.7 1.5-.9.4-1.9.7-3 .9-1 .2-2.2.3-3.5.3-1.7 0-3.3-.2-4.7-.7-1.4-.4-2.6-1.1-3.6-2-1-.9-1.7-1.9-2.2-3.3-.5-1.3-.8-2.8-.8-4.5 0-1.3.3-2.7 1-4.1.7-1.4 1.8-2.7 3.5-3.8 1.7-1.1 3.9-2.1 6.7-2.9 2.8-.8 6.4-1.2 10.7-1.3v-1.6c0-2.2-.4-3.8-1.3-4.8s-2.2-1.5-3.8-1.5c-1.3 0-2.4.1-3.3.4-.8.3-1.6.6-2.2 1-.7.3-1.3.7-1.9 1-.6.3-1.4.4-2.2.4-.8 0-1.4-.2-2-.6-.5-.4-1-.8-1.3-1.4l-2-3zm20.2 17c-2.2.1-4.1.3-5.5.6-1.5.3-2.6.7-3.4 1.1-.8.4-1.4.9-1.8 1.5-.3.6-.5 1.1-.5 1.8 0 1.3.3 2.2 1 2.7s1.7.8 3.1.8c1.5 0 2.7-.2 3.8-.8 1.1-.5 2.2-1.3 3.3-2.5v-5.2z"/><path id="XMLID_316_" class="st257" d="M206.6 258.4c1.1-2 2.5-3.6 4-4.8 1.5-1.1 3.3-1.7 5.2-1.7 1.7 0 3.1.4 4.1 1.2l-.7 8.3c-.1.5-.3.9-.6 1.1-.3.2-.7.3-1.1.3h-.8c-.3 0-.6-.1-1-.1-.3 0-.7-.1-1-.1-.3 0-.7-.1-1-.1-1.6 0-2.9.4-3.9 1.3s-1.8 2.1-2.5 3.6v22.8h-11.2v-37.5h6.7c.6 0 1 0 1.4.1s.7.2.9.4c.2.2.4.5.6.8.1.3.2.8.3 1.2l.6 3.2z"/><path id="XMLID_315_" class="st257" d="M233.1 236v30.4h1.7c.7 0 1.2-.1 1.6-.3.3-.2.7-.6 1.1-1l7.1-10.6c.4-.6.9-1.1 1.5-1.3.6-.3 1.3-.4 2.1-.4h10.3l-9.7 13.3c-.9 1.2-2 2.2-3.3 3 .6.4 1.1.9 1.5 1.4.4.6.9 1.1 1.3 1.8l10.6 17.9h-10.1c-.8 0-1.6-.1-2.2-.4-.6-.3-1.1-.8-1.5-1.5L238 275c-.3-.6-.7-1-1-1.2-.3-.2-.9-.3-1.6-.3h-2.2v16.6H222V236h11.1z"/><path id="XMLID_312_" class="st257" d="M273 242.4c0 .9-.2 1.7-.6 2.5-.3.8-.9 1.5-1.5 2.1-.6.6-1.3 1.1-2.2 1.4-.8.3-1.7.5-2.7.5-.9 0-1.8-.2-2.6-.5s-1.5-.8-2.1-1.4c-.6-.6-1.1-1.3-1.5-2.1-.3-.8-.5-1.6-.5-2.5 0-.9.2-1.8.5-2.6s.8-1.5 1.5-2.1c.6-.6 1.3-1.1 2.1-1.4.8-.3 1.7-.5 2.6-.5.9 0 1.8.2 2.7.5.8.3 1.6.8 2.2 1.4.6.6 1.1 1.3 1.5 2.1.5.8.6 1.7.6 2.6zm-1.1 10.3v37.5h-11.2v-37.5h11.2z"/><path id="XMLID_311_" class="st257" d="M313.2 252.7l-14.6 37.5h-10.2l-14.6-37.5h9.3c.8 0 1.5.2 2 .6.6.4.9.8 1.1 1.4l5.2 16.8c.4 1.4.9 2.7 1.2 4 .3 1.3.7 2.6.9 3.9.5-2.6 1.3-5.3 2.2-7.9l5.4-16.8c.2-.6.6-1 1.1-1.4.5-.4 1.1-.6 1.9-.6h9.1z"/><path id="XMLID_310_" class="st257" d="M351.9 276.6c.3 0 .6.1.9.2.3.1.6.3.8.6l4.8 5.1c-2.1 2.8-4.8 4.9-8 6.3-3.2 1.4-7 2.1-11.3 2.1-4 0-7.6-.7-10.8-2-3.2-1.3-5.9-3.3-8.1-5.6-2.2-2.4-3.9-5.3-5.1-8.5-1.2-3.3-1.8-6.9-1.8-10.7 0-3.9.6-7.5 1.9-10.8 1.3-3.3 3.1-6.1 5.4-8.5 2.3-2.4 5.1-4.3 8.3-5.6 3.2-1.3 6.8-2 10.7-2 2 0 3.8.2 5.6.5 1.8.3 3.4.8 4.9 1.5 1.5.6 2.9 1.3 4.2 2.2 1.3.9 2.4 1.8 3.4 2.8l-4.1 5.5c-.3.3-.6.7-.9.9-.3.3-.9.4-1.5.4-.4 0-.8-.1-1.2-.3-.4-.2-.8-.4-1.2-.7-.4-.3-.9-.6-1.4-.9-.5-.3-1.1-.6-1.8-.9-.7-.3-1.6-.5-2.5-.7-1-.2-2.1-.3-3.4-.3-2 0-3.9.4-5.6 1.1-1.7.8-3.1 1.8-4.4 3.3-1.2 1.5-2.1 3.2-2.8 5.3-.7 2.1-1 4.5-1 7.2s.4 5.1 1.1 7.2c.7 2.1 1.7 3.9 3 5.3 1.3 1.5 2.7 2.5 4.4 3.3 1.7.8 3.5 1.1 5.4 1.1 1.1 0 2.1-.1 3-.2.9-.1 1.8-.3 2.6-.6.8-.2 1.6-.6 2.2-1 .7-.4 1.4-1 2.1-1.6l.9-.6c.7-.4 1-.4 1.3-.4z"/><path id="XMLID_309_" class="st257" d="M392.6 248.2c-.3.6-.7 1-1.1 1.3-.4.3-.9.4-1.5.4s-1.1-.2-1.8-.5c-.6-.3-1.3-.7-2.2-1.2-.8-.4-1.7-.8-2.8-1.2-1-.3-2.2-.5-3.6-.5-2.3 0-4 .5-5.1 1.5-1.1 1-1.7 2.3-1.7 4 0 1.1.3 1.9 1 2.6.7.7 1.6 1.3 2.7 1.8s2.4 1 3.8 1.4c1.4.4 2.8.9 4.3 1.4 1.5.5 2.9 1.1 4.3 1.8s2.7 1.6 3.8 2.7 2 2.4 2.7 4c.7 1.6 1 3.4 1 5.6 0 2.4-.4 4.7-1.3 6.8-.8 2.1-2.1 4-3.7 5.6-1.6 1.6-3.6 2.8-5.9 3.7-2.4.9-5 1.3-8 1.3-1.6 0-3.3-.2-5-.5-1.7-.3-3.4-.8-4.9-1.4-1.6-.6-3.1-1.3-4.5-2.2-1.4-.8-2.6-1.8-3.7-2.8l3.6-5.7c.3-.4.7-.8 1.1-1 .5-.3 1-.4 1.5-.4.7 0 1.5.2 2.2.7.7.4 1.6 1 2.5 1.5.9.6 2 1.1 3.2 1.5 1.2.4 2.6.7 4.3.7 2.2 0 3.9-.5 5.2-1.5 1.2-1 1.8-2.5 1.8-4.6 0-1.2-.3-2.2-1-3-.7-.8-1.6-1.4-2.7-1.9s-2.4-1-3.7-1.3c-1.4-.4-2.8-.8-4.3-1.3s-2.9-1-4.3-1.7-2.7-1.6-3.7-2.7c-1.1-1.1-2-2.5-2.7-4.2-.7-1.7-1-3.7-1-6.2 0-2 .4-3.9 1.2-5.8.8-1.9 2-3.6 3.5-5 1.6-1.5 3.4-2.7 5.7-3.5 2.2-.9 4.8-1.3 7.7-1.3 1.6 0 3.2.1 4.7.4 1.5.2 3 .6 4.4 1.1 1.4.5 2.7 1.1 3.8 1.8 1.2.7 2.2 1.5 3.2 2.4l-3 5.4z"/><path id="XMLID_308_" class="st257" d="M430.7 248.2c-.3.6-.7 1-1.1 1.3-.4.3-.9.4-1.5.4s-1.1-.2-1.8-.5c-.6-.3-1.3-.7-2.2-1.2-.8-.4-1.7-.8-2.8-1.2-1-.3-2.2-.5-3.6-.5-2.3 0-4 .5-5.1 1.5-1.1 1-1.7 2.3-1.7 4 0 1.1.3 1.9 1 2.6.7.7 1.6 1.3 2.7 1.8s2.4 1 3.8 1.4c1.4.4 2.8.9 4.3 1.4 1.5.5 2.9 1.1 4.3 1.8s2.7 1.6 3.8 2.7c1.1 1.1 2 2.4 2.7 4 .7 1.6 1 3.4 1 5.6 0 2.4-.4 4.7-1.3 6.8-.8 2.1-2.1 4-3.7 5.6-1.6 1.6-3.6 2.8-5.9 3.7-2.4.9-5 1.3-8 1.3-1.6 0-3.3-.2-5-.5-1.7-.3-3.4-.8-4.9-1.4-1.6-.6-3.1-1.3-4.5-2.2-1.4-.8-2.6-1.8-3.7-2.8l3.6-5.7c.3-.4.7-.8 1.1-1 .5-.3 1-.4 1.5-.4.7 0 1.5.2 2.2.7.7.4 1.6 1 2.5 1.5s2 1.1 3.2 1.5c1.2.4 2.6.7 4.3.7 2.2 0 3.9-.5 5.2-1.5 1.2-1 1.8-2.5 1.8-4.6 0-1.2-.3-2.2-1-3-.7-.8-1.6-1.4-2.7-1.9s-2.4-1-3.7-1.3c-1.4-.4-2.8-.8-4.3-1.3s-2.9-1-4.3-1.7-2.7-1.6-3.7-2.7c-1.1-1.1-2-2.5-2.7-4.2-.7-1.7-1-3.7-1-6.2 0-2 .4-3.9 1.2-5.8.8-1.9 2-3.6 3.5-5 1.6-1.5 3.4-2.7 5.7-3.5 2.2-.9 4.8-1.3 7.7-1.3 1.6 0 3.2.1 4.7.4 1.5.2 3 .6 4.4 1.1 1.4.5 2.7 1.1 3.8 1.8 1.2.7 2.2 1.5 3.2 2.4l-3 5.4z"/></g></g></g></svg>