<?xml version="1.0" encoding="utf-8"?>
<!-- Generator: Adobe Illustrator 19.0.0, SVG Export Plug-In . SVG Version: 6.00 Build 0)  -->
<svg version="1.1" xmlns="http://www.w3.org/2000/svg" xmlns:xlink="http://www.w3.org/1999/xlink" x="0px" y="0px"
	 viewBox="0 0 454 454" style="enable-background:new 0 0 454 454;" xml:space="preserve">
<style type="text/css">
	.st0{fill:#FFDF5B;}
	.st1{fill:#FEDF5C;}
	.st2{fill:#FDDE5C;}
	.st3{fill:#FCDE5D;}
	.st4{fill:#FBDE5E;}
	.st5{fill:#FADE5E;}
	.st6{fill:#F9DD5F;}
	.st7{fill:#F8DD60;}
	.st8{fill:#F7DD60;}
	.st9{fill:#F6DD61;}
	.st10{fill:#F5DC61;}
	.st11{fill:#F4DC62;}
	.st12{fill:#F3DC63;}
	.st13{fill:#F2DB63;}
	.st14{fill:#F1DB64;}
	.st15{fill:#F0DB65;}
	.st16{fill:#EFDB65;}
	.st17{fill:#EEDA66;}
	.st18{fill:#EDDA67;}
	.st19{fill:#ECDA67;}
	.st20{fill:#EBDA68;}
	.st21{fill:#EAD969;}
	.st22{fill:#E9D969;}
	.st23{fill:#E8D96A;}
	.st24{fill:#E7D86A;}
	.st25{fill:#E6D86B;}
	.st26{fill:#E5D86C;}
	.st27{fill:#E4D86C;}
	.st28{fill:#E3D76D;}
	.st29{fill:#E2D76E;}
	.st30{fill:#E1D76E;}
	.st31{fill:#E0D66F;}
	.st32{fill:#DFD670;}
	.st33{fill:#DED670;}
	.st34{fill:#DDD671;}
	.st35{fill:#DCD572;}
	.st36{fill:#DBD572;}
	.st37{fill:#DAD573;}
	.st38{fill:#D9D573;}
	.st39{fill:#D8D474;}
	.st40{fill:#D7D475;}
	.st41{fill:#D6D475;}
	.st42{fill:#D5D376;}
	.st43{fill:#D4D377;}
	.st44{fill:#D3D377;}
	.st45{fill:#D2D378;}
	.st46{fill:#D1D279;}
	.st47{fill:#D0D279;}
	.st48{fill:#CFD27A;}
	.st49{fill:#CED27B;}
	.st50{fill:#CDD17B;}
	.st51{fill:#CCD17C;}
	.st52{fill:#CBD17C;}
	.st53{fill:#CAD07D;}
	.st54{fill:#C9D07E;}
	.st55{fill:#C8D07E;}
	.st56{fill:#C7D07F;}
	.st57{fill:#C6CF80;}
	.st58{fill:#C5CF80;}
	.st59{fill:#C4CF81;}
	.st60{fill:#C3CF82;}
	.st61{fill:#C2CE82;}
	.st62{fill:#C1CE83;}
	.st63{fill:#C0CE84;}
	.st64{fill:#BFCD84;}
	.st65{fill:#BECD85;}
	.st66{fill:#BDCD85;}
	.st67{fill:#BCCD86;}
	.st68{fill:#BBCC87;}
	.st69{fill:#BACC87;}
	.st70{fill:#B9CC88;}
	.st71{fill:#B8CC89;}
	.st72{fill:#B7CB89;}
	.st73{fill:#B6CB8A;}
	.st74{fill:#B5CB8B;}
	.st75{fill:#B4CA8B;}
	.st76{fill:#B3CA8C;}
	.st77{fill:#B2CA8D;}
	.st78{fill:#B1CA8D;}
	.st79{fill:#B0C98E;}
	.st80{fill:#AFC98E;}
	.st81{fill:#AEC98F;}
	.st82{fill:#ADC890;}
	.st83{fill:#ACC890;}
	.st84{fill:#ABC891;}
	.st85{fill:#AAC892;}
	.st86{fill:#A9C792;}
	.st87{fill:#A8C793;}
	.st88{fill:#A7C794;}
	.st89{fill:#A6C794;}
	.st90{fill:#A5C695;}
	.st91{fill:#A4C696;}
	.st92{fill:#A3C696;}
	.st93{fill:#A2C597;}
	.st94{fill:#A1C597;}
	.st95{fill:#A0C598;}
	.st96{fill:#9FC599;}
	.st97{fill:#9EC499;}
	.st98{fill:#9DC49A;}
	.st99{fill:#9CC49B;}
	.st100{fill:#9BC49B;}
	.st101{fill:#9AC39C;}
	.st102{fill:#99C39D;}
	.st103{fill:#98C39D;}
	.st104{fill:#97C29E;}
	.st105{fill:#96C29F;}
	.st106{fill:#95C29F;}
	.st107{fill:#94C2A0;}
	.st108{fill:#93C1A0;}
	.st109{fill:#92C1A1;}
	.st110{fill:#91C1A2;}
	.st111{fill:#90C1A2;}
	.st112{fill:#8FC0A3;}
	.st113{fill:#8EC0A4;}
	.st114{fill:#8DC0A4;}
	.st115{fill:#8CBFA5;}
	.st116{fill:#8BBFA6;}
	.st117{fill:#8ABFA6;}
	.st118{fill:#89BFA7;}
	.st119{fill:#88BEA8;}
	.st120{fill:#87BEA8;}
	.st121{fill:#86BEA9;}
	.st122{fill:#85BEA9;}
	.st123{fill:#84BDAA;}
	.st124{fill:#83BDAB;}
	.st125{fill:#82BDAB;}
	.st126{fill:#81BCAC;}
	.st127{fill:#80BCAD;}
	.st128{fill:#7FBCAD;}
	.st129{fill:#7EBCAE;}
	.st130{fill:#7DBBAF;}
	.st131{fill:#7CBBAF;}
	.st132{fill:#7BBBB0;}
	.st133{fill:#7ABAB1;}
	.st134{fill:#79BAB1;}
	.st135{fill:#78BAB2;}
	.st136{fill:#77BAB2;}
	.st137{fill:#76B9B3;}
	.st138{fill:#75B9B4;}
	.st139{fill:#74B9B4;}
	.st140{fill:#73B9B5;}
	.st141{fill:#72B8B6;}
	.st142{fill:#71B8B6;}
	.st143{fill:#70B8B7;}
	.st144{fill:#6FB7B8;}
	.st145{fill:#6EB7B8;}
	.st146{fill:#6DB7B9;}
	.st147{fill:#6CB7BA;}
	.st148{fill:#6BB6BA;}
	.st149{fill:#6AB6BB;}
	.st150{fill:#69B6BB;}
	.st151{fill:#68B6BC;}
	.st152{fill:#67B5BD;}
	.st153{fill:#66B5BD;}
	.st154{fill:#65B5BE;}
	.st155{fill:#64B4BF;}
	.st156{fill:#63B4BF;}
	.st157{fill:#62B4C0;}
	.st158{fill:#61B4C1;}
	.st159{fill:#60B3C1;}
	.st160{fill:#5FB3C2;}
	.st161{fill:#5EB3C3;}
	.st162{fill:#5DB3C3;}
	.st163{fill:#5CB2C4;}
	.st164{fill:#5BB2C4;}
	.st165{fill:#5AB2C5;}
	.st166{fill:#59B1C6;}
	.st167{fill:#58B1C6;}
	.st168{fill:#57B1C7;}
	.st169{fill:#56B1C8;}
	.st170{fill:#55B0C8;}
	.st171{fill:#54B0C9;}
	.st172{fill:#53B0CA;}
	.st173{fill:#52B0CA;}
	.st174{fill:#51AFCB;}
	.st175{fill:#50AFCC;}
	.st176{fill:#4FAFCC;}
	.st177{fill:#4EAECD;}
	.st178{fill:#4DAECD;}
	.st179{fill:#4CAECE;}
	.st180{fill:#4BAECF;}
	.st181{fill:#4AADCF;}
	.st182{fill:#49ADD0;}
	.st183{fill:#48ADD1;}
	.st184{fill:#47ACD1;}
	.st185{fill:#46ACD2;}
	.st186{fill:#45ACD3;}
	.st187{fill:#44ACD3;}
	.st188{fill:#43ABD4;}
	.st189{fill:#42ABD5;}
	.st190{fill:#41ABD5;}
	.st191{fill:#40ABD6;}
	.st192{fill:#3FAAD6;}
	.st193{fill:#3EAAD7;}
	.st194{fill:#3DAAD8;}
	.st195{fill:#3CA9D8;}
	.st196{fill:#3BA9D9;}
	.st197{fill:#3AA9DA;}
	.st198{fill:#39A9DA;}
	.st199{fill:#38A8DB;}
	.st200{fill:#37A8DC;}
	.st201{fill:#36A8DC;}
	.st202{fill:#35A8DD;}
	.st203{fill:#34A7DE;}
	.st204{fill:#33A7DE;}
	.st205{fill:#32A7DF;}
	.st206{fill:#31A6DF;}
	.st207{fill:#30A6E0;}
	.st208{fill:#2FA6E1;}
	.st209{fill:#2EA6E1;}
	.st210{fill:#2DA5E2;}
	.st211{fill:#2CA5E3;}
	.st212{fill:#2BA5E3;}
	.st213{fill:#2AA5E4;}
	.st214{fill:#29A4E5;}
	.st215{fill:#28A4E5;}
	.st216{fill:#27A4E6;}
	.st217{fill:#26A3E7;}
	.st218{fill:#25A3E7;}
	.st219{fill:#24A3E8;}
	.st220{fill:#23A3E8;}
	.st221{fill:#22A2E9;}
	.st222{fill:#21A2EA;}
	.st223{fill:#20A2EA;}
	.st224{fill:#1FA2EB;}
	.st225{fill:#1EA1EC;}
	.st226{fill:#1DA1EC;}
	.st227{fill:#1CA1ED;}
	.st228{fill:#1BA0EE;}
	.st229{fill:#1AA0EE;}
	.st230{fill:#19A0EF;}
	.st231{fill:#18A0F0;}
	.st232{fill:#179FF0;}
	.st233{fill:#169FF1;}
	.st234{fill:#159FF1;}
	.st235{fill:#149EF2;}
	.st236{fill:#139EF3;}
	.st237{fill:#129EF3;}
	.st238{fill:#119EF4;}
	.st239{fill:#109DF5;}
	.st240{fill:#0F9DF5;}
	.st241{fill:#0E9DF6;}
	.st242{fill:#0D9DF7;}
	.st243{fill:#0C9CF7;}
	.st244{fill:#0B9CF8;}
	.st245{fill:#0A9CF9;}
	.st246{fill:#099BF9;}
	.st247{fill:#089BFA;}
	.st248{fill:#079BFA;}
	.st249{fill:#069BFB;}
	.st250{fill:#059AFC;}
	.st251{fill:#049AFC;}
	.st252{fill:#039AFD;}
	.st253{fill:#029AFE;}
	.st254{fill:#0199FE;}
	.st255{fill:#0099FF;}
	.st256{fill:#231F20;}
	.st257{fill:#FFFFFF;}
</style>
<g id="Layer_1">
</g>
<g id="Isolation_Mode">
	<g id="XMLID_2_">
		<g id="XMLID_358_">
			<path id="XMLID_4_" class="st0" d="M302.5,115.6L302.5,115.6L43.7,43.4l70.1,250.9l0,0C129.4,360.6,189,410,260.1,410
				c83,0,150.2-67.3,150.2-150.2C410.3,191.5,364.8,134,302.5,115.6z"/>
		</g>
		<g id="XMLID_286_">
			<path id="XMLID_6_" class="st0" d="M255.9,102.6L255.9,102.6L43.7,43.4l57.5,205.7l0,0C114,303.5,162.8,344,221.1,344
				c68,0,123.2-55.2,123.2-123.2C344.3,164.9,307,117.7,255.9,102.6z"/>
			<path id="XMLID_285_" class="st1" d="M255.6,102.5L255.6,102.5L43.7,43.4l57.4,205.4l0,0c12.8,54.3,61.5,94.7,119.7,94.7
				c67.9,0,123-55.1,123-123C343.8,164.7,306.6,117.5,255.6,102.5z"/>
			<path id="XMLID_284_" class="st2" d="M255.2,102.4L255.2,102.4l-211.5-59l57.3,205l0,0c12.7,54.2,61.4,94.6,119.5,94.6
				c67.8,0,122.8-55,122.8-122.8C343.3,164.5,306.1,117.4,255.2,102.4z"/>
			<path id="XMLID_283_" class="st3" d="M254.9,102.3L254.9,102.3L43.7,43.4l57.2,204.7l0,0c12.7,54.1,61.3,94.4,119.3,94.4
				c67.7,0,122.6-54.9,122.6-122.6C342.8,164.3,305.7,117.3,254.9,102.3z"/>
			<path id="XMLID_282_" class="st4" d="M254.5,102.3L254.5,102.3L43.7,43.4l57.1,204.4l0,0c12.7,54,61.2,94.3,119.1,94.3
				c67.6,0,122.4-54.8,122.4-122.4C342.3,164.1,305.3,117.2,254.5,102.3z"/>
			<path id="XMLID_281_" class="st5" d="M254.2,102.2L254.2,102.2L43.7,43.4l57,204l0,0c12.7,53.9,61.1,94.1,118.9,94.1
				c67.5,0,122.2-54.7,122.2-122.2C341.8,163.9,304.8,117.1,254.2,102.2z"/>
			<path id="XMLID_280_" class="st6" d="M253.8,102.1L253.8,102.1L43.7,43.4l56.9,203.7l0,0c12.7,53.9,61,94,118.7,94
				c67.4,0,122-54.6,122-122C341.3,163.7,304.4,116.9,253.8,102.1z"/>
			<path id="XMLID_279_" class="st7" d="M253.5,102L253.5,102L43.7,43.4l56.8,203.4l0,0c12.6,53.8,60.9,93.8,118.5,93.8
				c67.3,0,121.8-54.5,121.8-121.8C340.8,163.5,304,116.8,253.5,102z"/>
			<path id="XMLID_278_" class="st8" d="M253.1,101.9L253.1,101.9L43.7,43.4l56.7,203l0,0c12.6,53.7,60.8,93.7,118.3,93.7
				c67.1,0,121.6-54.4,121.6-121.6C340.3,163.3,303.5,116.7,253.1,101.9z"/>
			<path id="XMLID_277_" class="st9" d="M252.8,101.8L252.8,101.8L43.7,43.4l56.6,202.7l0,0c12.6,53.6,60.7,93.5,118.1,93.5
				c67,0,121.4-54.3,121.4-121.4C339.9,163.1,303.1,116.6,252.8,101.8z"/>
			<path id="XMLID_276_" class="st10" d="M252.4,101.7L252.4,101.7L43.7,43.4l56.5,202.3l0,0c12.6,53.5,60.6,93.3,117.9,93.3
				c66.9,0,121.2-54.2,121.2-121.2C339.4,162.9,302.7,116.4,252.4,101.7z"/>
			<path id="XMLID_275_" class="st11" d="M252.1,101.6L252.1,101.6L43.7,43.4l56.5,202l0,0c12.6,53.4,60.5,93.2,117.7,93.2
				c66.8,0,121-54.2,121-121C338.9,162.7,302.2,116.3,252.1,101.6z"/>
			<path id="XMLID_274_" class="st12" d="M251.7,101.5L251.7,101.5l-208-58.1l56.4,201.7l0,0c12.5,53.3,60.4,93,117.5,93
				c66.7,0,120.8-54.1,120.8-120.8C338.4,162.5,301.8,116.2,251.7,101.5z"/>
			<path id="XMLID_273_" class="st13" d="M251.4,101.4L251.4,101.4l-207.7-58L100,244.7l0,0c12.5,53.2,60.3,92.9,117.3,92.9
				c66.6,0,120.6-54,120.6-120.6C337.9,162.3,301.4,116.1,251.4,101.4z"/>
			<path id="XMLID_272_" class="st14" d="M251,101.3L251,101.3L43.7,43.4l56.2,201l0,0c12.5,53.1,60.2,92.7,117.1,92.7
				c66.5,0,120.4-53.9,120.4-120.4C337.4,162.1,300.9,116,251,101.3z"/>
			<path id="XMLID_271_" class="st15" d="M250.7,101.2L250.7,101.2l-207-57.8L99.8,244l0,0c12.5,53.1,60.1,92.6,116.9,92.6
				c66.4,0,120.2-53.8,120.2-120.2C336.9,161.9,300.5,115.8,250.7,101.2z"/>
			<path id="XMLID_270_" class="st16" d="M250.3,101.1L250.3,101.1L43.7,43.4l56,200.3l0,0c12.5,53,60,92.4,116.7,92.4
				c66.2,0,120-53.7,120-120C336.4,161.7,300.1,115.7,250.3,101.1z"/>
			<path id="XMLID_269_" class="st17" d="M250,101L250,101L43.7,43.4l55.9,200l0,0c12.4,52.9,59.9,92.3,116.5,92.3
				c66.1,0,119.7-53.6,119.7-119.7C335.9,161.5,299.6,115.6,250,101z"/>
			<path id="XMLID_268_" class="st18" d="M249.6,100.9L249.6,100.9L43.7,43.4L99.5,243l0,0c12.4,52.8,59.8,92.1,116.3,92.1
				c66,0,119.5-53.5,119.5-119.5C335.4,161.3,299.2,115.5,249.6,100.9z"/>
			<path id="XMLID_267_" class="st19" d="M249.3,100.8L249.3,100.8L43.7,43.4l55.7,199.3l0,0c12.4,52.7,59.7,91.9,116.1,91.9
				c65.9,0,119.3-53.4,119.3-119.3C334.9,161.1,298.8,115.3,249.3,100.8z"/>
			<path id="XMLID_266_" class="st20" d="M248.9,100.7L248.9,100.7L43.7,43.4l55.6,199l0,0c12.4,52.6,59.6,91.8,115.9,91.8
				c65.8,0,119.1-53.3,119.1-119.1C334.4,160.9,298.3,115.2,248.9,100.7z"/>
			<path id="XMLID_265_" class="st21" d="M248.6,100.6L248.6,100.6L43.7,43.4L99.2,242l0,0c12.3,52.5,59.5,91.6,115.8,91.6
				c65.7,0,118.9-53.3,118.9-118.9C333.9,160.7,297.9,115.1,248.6,100.6z"/>
			<path id="XMLID_264_" class="st22" d="M248.2,100.5L248.2,100.5L43.7,43.4l55.4,198.3l0,0c12.3,52.4,59.4,91.5,115.6,91.5
				c65.6,0,118.7-53.2,118.7-118.7C333.4,160.5,297.5,115,248.2,100.5z"/>
			<path id="XMLID_263_" class="st23" d="M247.9,100.4L247.9,100.4l-204.2-57L99,241.3l0,0c12.3,52.3,59.3,91.3,115.4,91.3
				c65.5,0,118.5-53.1,118.5-118.5C332.9,160.3,297,114.9,247.9,100.4z"/>
			<path id="XMLID_262_" class="st24" d="M247.6,100.3L247.6,100.3L43.7,43.4L98.9,241l0,0c12.3,52.2,59.2,91.2,115.2,91.2
				c65.4,0,118.3-53,118.3-118.3C332.4,160.1,296.6,114.7,247.6,100.3z"/>
			<path id="XMLID_261_" class="st25" d="M247.2,100.2L247.2,100.2L43.7,43.4l55.1,197.3l0,0c12.3,52.2,59.1,91,115,91
				c65.2,0,118.1-52.9,118.1-118.1C331.9,159.9,296.2,114.6,247.2,100.2z"/>
			<path id="XMLID_260_" class="st26" d="M246.9,100.1L246.9,100.1L43.7,43.4l55,196.9l0,0c12.2,52.1,59,90.8,114.8,90.8
				c65.1,0,117.9-52.8,117.9-117.9C331.5,159.7,295.7,114.5,246.9,100.1z"/>
			<path id="XMLID_259_" class="st27" d="M246.5,100L246.5,100L43.7,43.4L98.6,240l0,0c12.2,52,58.9,90.7,114.6,90.7
				c65,0,117.7-52.7,117.7-117.7C331,159.5,295.3,114.4,246.5,100z"/>
			<path id="XMLID_258_" class="st28" d="M246.2,99.9L246.2,99.9L43.7,43.4l54.8,196.3l0,0c12.2,51.9,58.8,90.5,114.4,90.5
				c64.9,0,117.5-52.6,117.5-117.5C330.5,159.3,294.9,114.2,246.2,99.9z"/>
			<path id="XMLID_257_" class="st29" d="M245.8,99.8L245.8,99.8L43.7,43.4l54.7,195.9l0,0c12.2,51.8,58.7,90.4,114.2,90.4
				c64.8,0,117.3-52.5,117.3-117.3C330,159.1,294.4,114.1,245.8,99.8z"/>
			<path id="XMLID_256_" class="st30" d="M245.5,99.7L245.5,99.7L43.7,43.4L98.4,239l0,0c12.2,51.7,58.6,90.2,114,90.2
				c64.7,0,117.1-52.4,117.1-117.1C329.5,158.9,294,114,245.5,99.7z"/>
			<path id="XMLID_255_" class="st31" d="M245.1,99.6L245.1,99.6L43.7,43.4l54.6,195.2l0,0c12.1,51.6,58.5,90.1,113.8,90.1
				c64.6,0,116.9-52.3,116.9-116.9C329,158.7,293.6,113.9,245.1,99.6z"/>
			<path id="XMLID_254_" class="st32" d="M244.8,99.5L244.8,99.5L43.7,43.4l54.5,194.9l0,0c12.1,51.5,58.4,89.9,113.6,89.9
				c64.5,0,116.7-52.3,116.7-116.7C328.5,158.5,293.1,113.8,244.8,99.5z"/>
			<path id="XMLID_253_" class="st33" d="M244.4,99.4L244.4,99.4l-200.7-56L98.1,238l0,0c12.1,51.4,58.3,89.8,113.4,89.8
				c64.3,0,116.5-52.2,116.5-116.5C328,158.3,292.7,113.6,244.4,99.4z"/>
			<path id="XMLID_252_" class="st34" d="M244.1,99.3L244.1,99.3L43.7,43.4L98,237.6l0,0c12.1,51.4,58.1,89.6,113.2,89.6
				c64.2,0,116.3-52.1,116.3-116.3C327.5,158.1,292.3,113.5,244.1,99.3z"/>
			<path id="XMLID_251_" class="st35" d="M243.7,99.2L243.7,99.2l-200-55.8l54.2,193.9l0,0c12.1,51.3,58,89.4,113,89.4
				c64.1,0,116.1-52,116.1-116.1C327,157.9,291.9,113.4,243.7,99.2z"/>
			<path id="XMLID_250_" class="st36" d="M243.4,99.1L243.4,99.1L43.7,43.4l54.1,193.5l0,0c12,51.2,57.9,89.3,112.8,89.3
				c64,0,115.9-51.9,115.9-115.9C326.5,157.7,291.4,113.3,243.4,99.1z"/>
			<path id="XMLID_249_" class="st37" d="M243,99L243,99L43.7,43.4l54,193.2l0,0c12,51.1,57.8,89.1,112.6,89.1
				c63.9,0,115.7-51.8,115.7-115.7C326,157.5,291,113.2,243,99z"/>
			<path id="XMLID_248_" class="st38" d="M242.7,98.9L242.7,98.9l-199-55.5l53.9,192.9l0,0c12,51,57.7,89,112.4,89
				c63.8,0,115.5-51.7,115.5-115.5C325.5,157.3,290.6,113,242.7,98.9z"/>
			<path id="XMLID_245_" class="st39" d="M242.3,98.8L242.3,98.8L43.7,43.4l53.8,192.5l0,0c12,50.9,57.6,88.8,112.2,88.8
				c63.7,0,115.3-51.6,115.3-115.3C325,157.1,290.1,112.9,242.3,98.8z"/>
			<path id="XMLID_242_" class="st40" d="M242,98.7L242,98.7L43.7,43.4l53.7,192.2l0,0c11.9,50.8,57.5,88.7,112,88.7
				c63.6,0,115.1-51.5,115.1-115.1C324.5,156.9,289.7,112.8,242,98.7z"/>
			<path id="XMLID_240_" class="st41" d="M241.6,98.6L241.6,98.6L43.7,43.4l53.6,191.9l0,0c11.9,50.7,57.4,88.5,111.8,88.5
				c63.5,0,114.9-51.4,114.9-114.9C324,156.7,289.3,112.7,241.6,98.6z"/>
			<path id="XMLID_239_" class="st42" d="M241.3,98.6L241.3,98.6L43.7,43.4l53.5,191.5l0,0c11.9,50.6,57.3,88.4,111.6,88.4
				c63.3,0,114.7-51.3,114.7-114.7C323.5,156.5,288.8,112.5,241.3,98.6z"/>
			<path id="XMLID_238_" class="st43" d="M240.9,98.5L240.9,98.5L43.7,43.4l53.4,191.2l0,0c11.9,50.6,57.2,88.2,111.4,88.2
				c63.2,0,114.5-51.3,114.5-114.5C323.1,156.3,288.4,112.4,240.9,98.5z"/>
			<path id="XMLID_237_" class="st44" d="M240.6,98.4L240.6,98.4l-196.9-55L97,234.2l0,0c11.9,50.5,57.1,88,111.2,88
				c63.1,0,114.3-51.2,114.3-114.3C322.6,156.1,288,112.3,240.6,98.4z"/>
			<path id="XMLID_236_" class="st45" d="M240.2,98.3L240.2,98.3L43.7,43.4l53.2,190.5l0,0c11.8,50.4,57,87.9,111,87.9
				c63,0,114.1-51.1,114.1-114.1C322.1,155.9,287.5,112.2,240.2,98.3z"/>
			<path id="XMLID_235_" class="st46" d="M239.9,98.2L239.9,98.2L43.7,43.4l53.1,190.2l0,0c11.8,50.3,56.9,87.7,110.8,87.7
				c62.9,0,113.9-51,113.9-113.9C321.6,155.7,287.1,112.1,239.9,98.2z"/>
			<path id="XMLID_234_" class="st47" d="M239.5,98.1L239.5,98.1L43.7,43.4l53,189.8l0,0c11.8,50.2,56.8,87.6,110.6,87.6
				c62.8,0,113.7-50.9,113.7-113.7C321.1,155.5,286.7,111.9,239.5,98.1z"/>
			<path id="XMLID_233_" class="st48" d="M239.2,98L239.2,98L43.7,43.4l53,189.5l0,0c11.8,50.1,56.7,87.4,110.4,87.4
				c62.7,0,113.5-50.8,113.5-113.5C320.6,155.3,286.2,111.8,239.2,98z"/>
			<path id="XMLID_232_" class="st49" d="M238.8,97.9L238.8,97.9L43.7,43.4l52.9,189.1l0,0c11.8,50,56.6,87.3,110.2,87.3
				c62.6,0,113.3-50.7,113.3-113.3C320.1,155.1,285.8,111.7,238.8,97.9z"/>
			<path id="XMLID_231_" class="st50" d="M238.5,97.8L238.5,97.8L43.7,43.4l52.8,188.8l0,0c11.7,49.9,56.5,87.1,110,87.1
				c62.4,0,113.1-50.6,113.1-113.1C319.6,154.9,285.4,111.6,238.5,97.8z"/>
			<path id="XMLID_230_" class="st51" d="M238.1,97.7L238.1,97.7L43.7,43.4l52.7,188.5l0,0c11.7,49.8,56.4,86.9,109.8,86.9
				c62.3,0,112.9-50.5,112.9-112.9C319.1,154.7,284.9,111.4,238.1,97.7z"/>
			<path id="XMLID_229_" class="st52" d="M237.8,97.6L237.8,97.6L43.7,43.4l52.6,188.1l0,0c11.7,49.7,56.3,86.8,109.6,86.8
				c62.2,0,112.7-50.4,112.7-112.7C318.6,154.5,284.5,111.3,237.8,97.6z"/>
			<path id="XMLID_228_" class="st53" d="M237.4,97.5L237.4,97.5L43.7,43.4l52.5,187.8l0,0c11.7,49.7,56.2,86.6,109.4,86.6
				c62.1,0,112.5-50.3,112.5-112.5C318.1,154.3,284.1,111.2,237.4,97.5z"/>
			<path id="XMLID_227_" class="st54" d="M237.1,97.4L237.1,97.4l-193.4-54l52.4,187.5l0,0c11.7,49.6,56.1,86.5,109.2,86.5
				c62,0,112.3-50.3,112.3-112.3C317.6,154.1,283.6,111.1,237.1,97.4z"/>
			<path id="XMLID_226_" class="st55" d="M236.7,97.3L236.7,97.3l-193-53.9L96,230.5l0,0c11.6,49.5,56,86.3,109.1,86.3
				c61.9,0,112.1-50.2,112.1-112.1C317.1,153.9,283.2,111,236.7,97.3z"/>
			<path id="XMLID_225_" class="st56" d="M236.4,97.2L236.4,97.2L43.7,43.4l52.2,186.8l0,0c11.6,49.4,55.9,86.2,108.9,86.2
				c61.8,0,111.9-50.1,111.9-111.9C316.6,153.7,282.8,110.8,236.4,97.2z"/>
			<path id="XMLID_224_" class="st57" d="M236,97.1L236,97.1L43.7,43.4l52.1,186.4l0,0c11.6,49.3,55.8,86,108.7,86
				c61.7,0,111.6-50,111.6-111.6C316.1,153.5,282.3,110.7,236,97.1z"/>
			<path id="XMLID_223_" class="st58" d="M235.7,97L235.7,97l-192-53.6l52,186.1l0,0c11.6,49.2,55.7,85.9,108.5,85.9
				c61.5,0,111.4-49.9,111.4-111.4C315.6,153.3,281.9,110.6,235.7,97z"/>
			<path id="XMLID_222_" class="st59" d="M235.3,96.9L235.3,96.9L43.7,43.4l51.9,185.8l0,0c11.5,49.1,55.6,85.7,108.3,85.7
				c61.4,0,111.2-49.8,111.2-111.2C315.1,153.1,281.5,110.5,235.3,96.9z"/>
			<path id="XMLID_221_" class="st60" d="M235,96.8L235,96.8L43.7,43.4l51.8,185.4l0,0c11.5,49,55.5,85.5,108.1,85.5
				c61.3,0,111-49.7,111-111C314.7,152.9,281,110.3,235,96.8z"/>
			<path id="XMLID_220_" class="st61" d="M234.6,96.7L234.6,96.7L43.7,43.4l51.7,185.1l0,0c11.5,48.9,55.4,85.4,107.9,85.4
				c61.2,0,110.8-49.6,110.8-110.8C314.2,152.7,280.6,110.2,234.6,96.7z"/>
			<path id="XMLID_219_" class="st62" d="M234.3,96.6L234.3,96.6L43.7,43.4l51.6,184.8l0,0c11.5,48.9,55.3,85.2,107.7,85.2
				c61.1,0,110.6-49.5,110.6-110.6C313.7,152.5,280.2,110.1,234.3,96.6z"/>
			<path id="XMLID_218_" class="st63" d="M233.9,96.5L233.9,96.5L43.7,43.4l51.5,184.4l0,0c11.5,48.8,55.2,85.1,107.5,85.1
				c61,0,110.4-49.4,110.4-110.4C313.2,152.3,279.7,110,233.9,96.5z"/>
			<path id="XMLID_217_" class="st64" d="M233.6,96.4L233.6,96.4l-189.9-53l51.4,184.1l0,0c11.4,48.7,55.1,84.9,107.3,84.9
				c60.9,0,110.2-49.4,110.2-110.2C312.7,152.1,279.3,109.9,233.6,96.4z"/>
			<path id="XMLID_216_" class="st65" d="M233.2,96.3L233.2,96.3L43.7,43.4L95,227.1l0,0c11.4,48.6,55,84.8,107.1,84.8
				c60.8,0,110-49.3,110-110C312.2,151.9,278.9,109.7,233.2,96.3z"/>
			<path id="XMLID_215_" class="st66" d="M232.9,96.2L232.9,96.2L43.7,43.4L95,226.8l0,0c11.4,48.5,54.9,84.6,106.9,84.6
				c60.7,0,109.8-49.2,109.8-109.8C311.7,151.7,278.4,109.6,232.9,96.2z"/>
			<path id="XMLID_214_" class="st67" d="M232.6,96.1L232.6,96.1L43.7,43.4l51.2,183.1l0,0c11.4,48.4,54.8,84.5,106.7,84.5
				c60.5,0,109.6-49.1,109.6-109.6C311.2,151.5,278,109.5,232.6,96.1z"/>
			<path id="XMLID_213_" class="st68" d="M232.2,96L232.2,96L43.7,43.4l51.1,182.7l0,0c11.4,48.3,54.7,84.3,106.5,84.3
				c60.4,0,109.4-49,109.4-109.4C310.7,151.3,277.6,109.4,232.2,96z"/>
			<path id="XMLID_212_" class="st69" d="M231.9,95.9L231.9,95.9L43.7,43.4l51,182.4l0,0C106,274,149.3,309.9,201,309.9
				c60.3,0,109.2-48.9,109.2-109.2C310.2,151.1,277.1,109.2,231.9,95.9z"/>
			<path id="XMLID_211_" class="st70" d="M231.5,95.8L231.5,95.8L43.7,43.4l50.9,182l0,0c11.3,48.1,54.5,84,106.1,84
				c60.2,0,109-48.8,109-109C309.7,150.9,276.7,109.1,231.5,95.8z"/>
			<path id="XMLID_210_" class="st71" d="M231.2,95.7L231.2,95.7L43.7,43.4l50.8,181.7l0,0c11.3,48,54.4,83.8,105.9,83.8
				c60.1,0,108.8-48.7,108.8-108.8C309.2,150.7,276.3,109,231.2,95.7z"/>
			<path id="XMLID_209_" class="st72" d="M230.8,95.6L230.8,95.6L43.7,43.4l50.7,181.4l0,0c11.3,48,54.3,83.7,105.7,83.7
				c60,0,108.6-48.6,108.6-108.6C308.7,150.5,275.8,108.9,230.8,95.6z"/>
			<path id="XMLID_208_" class="st73" d="M230.5,95.5L230.5,95.5L43.7,43.4l50.6,181l0,0c11.3,47.9,54.2,83.5,105.5,83.5
				c59.9,0,108.4-48.5,108.4-108.4C308.2,150.3,275.4,108.8,230.5,95.5z"/>
			<path id="XMLID_207_" class="st74" d="M230.1,95.4L230.1,95.4l-186.4-52l50.5,180.7l0,0c11.2,47.8,54.1,83.4,105.3,83.4
				c59.8,0,108.2-48.4,108.2-108.2C307.7,150.1,275,108.6,230.1,95.4z"/>
			<path id="XMLID_206_" class="st75" d="M229.8,95.3L229.8,95.3L43.7,43.4l50.4,180.4l0,0c11.2,47.7,54,83.2,105.1,83.2
				c59.6,0,108-48.4,108-108C307.2,149.9,274.5,108.5,229.8,95.3z"/>
			<path id="XMLID_205_" class="st76" d="M229.4,95.2L229.4,95.2L43.7,43.4l50.3,180l0,0c11.2,47.6,53.9,83,104.9,83
				c59.5,0,107.8-48.3,107.8-107.8C306.7,149.7,274.1,108.4,229.4,95.2z"/>
			<path id="XMLID_204_" class="st77" d="M229.1,95.1L229.1,95.1L43.7,43.4l50.2,179.7l0,0c11.2,47.5,53.8,82.9,104.7,82.9
				c59.4,0,107.6-48.2,107.6-107.6C306.3,149.5,273.7,108.3,229.1,95.1z"/>
			<path id="XMLID_203_" class="st78" d="M228.7,95L228.7,95l-185-51.6l50.1,179.3l0,0c11.1,47.4,53.7,82.7,104.5,82.7
				c59.3,0,107.4-48.1,107.4-107.4C305.8,149.3,273.2,108.1,228.7,95z"/>
			<path id="XMLID_202_" class="st79" d="M228.4,94.9L228.4,94.9L43.7,43.4l50,179l0,0c11.1,47.3,53.6,82.6,104.3,82.6
				c59.2,0,107.2-48,107.2-107.2C305.3,149.1,272.8,108,228.4,94.9z"/>
			<path id="XMLID_201_" class="st80" d="M228,94.9L228,94.9L43.7,43.4l49.9,178.7l0,0c11.1,47.2,53.5,82.4,104.1,82.4
				c59.1,0,107-47.9,107-107C304.8,148.9,272.4,107.9,228,94.9z"/>
			<path id="XMLID_200_" class="st81" d="M227.7,94.8L227.7,94.8l-184-51.4l49.8,178.3l0,0C104.6,268.9,147,304,197.5,304
				c59,0,106.8-47.8,106.8-106.8C304.3,148.7,271.9,107.8,227.7,94.8z"/>
			<path id="XMLID_199_" class="st82" d="M227.3,94.7L227.3,94.7L43.7,43.4l49.7,178l0,0c11.1,47.1,53.3,82.1,103.7,82.1
				c58.9,0,106.6-47.7,106.6-106.6C303.8,148.5,271.5,107.7,227.3,94.7z"/>
			<path id="XMLID_198_" class="st83" d="M227,94.6L227,94.6L43.7,43.4l49.6,177.7l0,0c11,47,53.2,82,103.5,82
				c58.8,0,106.4-47.6,106.4-106.4C303.3,148.3,271.1,107.5,227,94.6z"/>
			<path id="XMLID_197_" class="st84" d="M226.6,94.5L226.6,94.5L43.7,43.4l49.6,177.3l0,0c11,46.9,53.1,81.8,103.3,81.8
				c58.6,0,106.2-47.5,106.2-106.2C302.8,148.1,270.6,107.4,226.6,94.5z"/>
			<path id="XMLID_196_" class="st85" d="M226.3,94.4L226.3,94.4l-182.6-51l49.5,177l0,0c11,46.8,53,81.6,103.1,81.6
				c58.5,0,106-47.4,106-106C302.3,147.9,270.2,107.3,226.3,94.4z"/>
			<path id="XMLID_195_" class="st86" d="M225.9,94.3L225.9,94.3L43.7,43.4L93.1,220l0,0c11,46.7,52.9,81.5,102.9,81.5
				c58.4,0,105.8-47.4,105.8-105.8C301.8,147.7,269.8,107.2,225.9,94.3z"/>
			<path id="XMLID_194_" class="st87" d="M225.6,94.2L225.6,94.2L43.7,43.4L93,219.7l0,0c11,46.6,52.8,81.3,102.7,81.3
				c58.3,0,105.6-47.3,105.6-105.6C301.3,147.5,269.3,107,225.6,94.2z"/>
			<path id="XMLID_193_" class="st88" d="M225.2,94.1L225.2,94.1L43.7,43.4l49.2,176l0,0c10.9,46.5,52.7,81.2,102.5,81.2
				c58.2,0,105.4-47.2,105.4-105.4C300.8,147.3,268.9,106.9,225.2,94.1z"/>
			<path id="XMLID_192_" class="st89" d="M224.9,94L224.9,94L43.7,43.4L92.8,219l0,0c10.9,46.4,52.6,81,102.3,81
				c58.1,0,105.2-47.1,105.2-105.2C300.3,147.1,268.5,106.8,224.9,94z"/>
			<path id="XMLID_191_" class="st90" d="M224.5,93.9L224.5,93.9L43.7,43.4l49,175.3l0,0c10.9,46.3,52.5,80.9,102.2,80.9
				c58,0,105-47,105-105C299.8,146.9,268,106.7,224.5,93.9z"/>
			<path id="XMLID_190_" class="st91" d="M224.2,93.8L224.2,93.8L43.7,43.4l48.9,174.9l0,0c10.9,46.3,52.4,80.7,102,80.7
				c57.9,0,104.8-46.9,104.8-104.8C299.3,146.7,267.6,106.6,224.2,93.8z"/>
			<path id="XMLID_189_" class="st92" d="M223.8,93.7L223.8,93.7L43.7,43.4L92.5,218l0,0c10.9,46.2,52.3,80.6,101.8,80.6
				c57.7,0,104.6-46.8,104.6-104.6C298.8,146.5,267.2,106.4,223.8,93.7z"/>
			<path id="XMLID_188_" class="st93" d="M223.5,93.6L223.5,93.6L43.7,43.4l48.7,174.3l0,0C103.3,263.7,144.6,298,194,298
				c57.6,0,104.4-46.7,104.4-104.4C298.3,146.3,266.7,106.3,223.5,93.6z"/>
			<path id="XMLID_187_" class="st94" d="M223.1,93.5L223.1,93.5L43.7,43.4l48.6,173.9l0,0c10.8,46,52.1,80.2,101.4,80.2
				c57.5,0,104.2-46.6,104.2-104.2C297.9,146.1,266.3,106.2,223.1,93.5z"/>
			<path id="XMLID_186_" class="st95" d="M222.8,93.4L222.8,93.4l-179.1-50L92.2,217l0,0c10.8,45.9,52,80.1,101.2,80.1
				c57.4,0,104-46.5,104-104C297.4,145.9,265.9,106.1,222.8,93.4z"/>
			<path id="XMLID_185_" class="st96" d="M222.4,93.3L222.4,93.3L43.7,43.4l48.4,173.3l0,0c10.8,45.8,51.9,79.9,101,79.9
				c57.3,0,103.8-46.5,103.8-103.8C296.9,145.7,265.4,105.9,222.4,93.3z"/>
			<path id="XMLID_184_" class="st97" d="M222.1,93.2L222.1,93.2L43.7,43.4L92,216.3l0,0c10.7,45.7,51.8,79.8,100.8,79.8
				c57.2,0,103.5-46.4,103.5-103.5C296.4,145.5,265,105.8,222.1,93.2z"/>
			<path id="XMLID_183_" class="st98" d="M221.7,93.1L221.7,93.1l-178-49.7L91.9,216l0,0c10.7,45.6,51.7,79.6,100.6,79.6
				c57.1,0,103.3-46.3,103.3-103.3C295.9,145.3,264.6,105.7,221.7,93.1z"/>
			<path id="XMLID_182_" class="st99" d="M221.4,93L221.4,93L43.7,43.4l48.1,172.2l0,0c10.7,45.5,51.6,79.5,100.4,79.5
				c57,0,103.1-46.2,103.1-103.1C295.4,145.1,264.2,105.6,221.4,93z"/>
			<path id="XMLID_181_" class="st100" d="M221,92.9L221,92.9L43.7,43.4l48,171.9l0,0c10.7,45.5,51.5,79.3,100.2,79.3
				c56.9,0,102.9-46.1,102.9-102.9C294.9,144.9,263.7,105.5,221,92.9z"/>
			<path id="XMLID_180_" class="st101" d="M220.7,92.8L220.7,92.8l-177-49.4L91.6,215l0,0c10.7,45.4,51.4,79.1,100,79.1
				c56.7,0,102.7-46,102.7-102.7C294.4,144.7,263.3,105.3,220.7,92.8z"/>
			<path id="XMLID_179_" class="st102" d="M220.3,92.7L220.3,92.7L43.7,43.4l47.9,171.2l0,0c10.6,45.3,51.3,79,99.8,79
				c56.6,0,102.5-45.9,102.5-102.5C293.9,144.5,262.9,105.2,220.3,92.7z"/>
			<path id="XMLID_178_" class="st103" d="M220,92.6L220,92.6L43.7,43.4l47.8,170.9l0,0c10.6,45.2,51.2,78.8,99.6,78.8
				c56.5,0,102.3-45.8,102.3-102.3C293.4,144.3,262.4,105.1,220,92.6z"/>
			<path id="XMLID_177_" class="st104" d="M219.6,92.5L219.6,92.5L43.7,43.4L91.4,214l0,0c10.6,45.1,51.1,78.7,99.4,78.7
				c56.4,0,102.1-45.7,102.1-102.1C292.9,144.1,262,105,219.6,92.5z"/>
			<path id="XMLID_176_" class="st105" d="M219.3,92.4L219.3,92.4l-175.6-49l47.6,170.2l0,0c10.6,45,51,78.5,99.2,78.5
				c56.3,0,101.9-45.6,101.9-101.9C292.4,143.9,261.6,104.8,219.3,92.4z"/>
			<path id="XMLID_175_" class="st106" d="M218.9,92.3L218.9,92.3L43.7,43.4l47.5,169.9l0,0c10.6,44.9,50.9,78.4,99,78.4
				c56.2,0,101.7-45.5,101.7-101.7C291.9,143.7,261.1,104.7,218.9,92.3z"/>
			<path id="XMLID_174_" class="st107" d="M218.6,92.2L218.6,92.2L43.7,43.4l47.4,169.5l0,0c10.5,44.8,50.8,78.2,98.8,78.2
				c56.1,0,101.5-45.5,101.5-101.5C291.4,143.5,260.7,104.6,218.6,92.2z"/>
			<path id="XMLID_173_" class="st108" d="M218.2,92.1L218.2,92.1L43.7,43.4L91,212.6l0,0c10.5,44.7,50.7,78.1,98.6,78.1
				c56,0,101.3-45.4,101.3-101.3C290.9,143.3,260.3,104.5,218.2,92.1z"/>
			<path id="XMLID_172_" class="st109" d="M217.9,92L217.9,92L43.7,43.4l47.2,168.9l0,0c10.5,44.6,50.6,77.9,98.4,77.9
				c55.8,0,101.1-45.3,101.1-101.1C290.4,143.1,259.8,104.4,217.9,92z"/>
			<path id="XMLID_171_" class="st110" d="M217.5,91.9L217.5,91.9L43.7,43.4l47.1,168.5l0,0c10.5,44.6,50.5,77.7,98.2,77.7
				c55.7,0,100.9-45.2,100.9-100.9C289.9,142.9,259.4,104.2,217.5,91.9z"/>
			<path id="XMLID_170_" class="st111" d="M217.2,91.8L217.2,91.8L43.7,43.4l47,168.2l0,0c10.5,44.5,50.4,77.6,98,77.6
				c55.6,0,100.7-45.1,100.7-100.7C289.5,142.7,259,104.1,217.2,91.8z"/>
			<path id="XMLID_169_" class="st112" d="M216.9,91.7L216.9,91.7L43.7,43.4l46.9,167.8l0,0c10.4,44.4,50.3,77.4,97.8,77.4
				c55.5,0,100.5-45,100.5-100.5C289,142.5,258.5,104,216.9,91.7z"/>
			<path id="XMLID_168_" class="st113" d="M216.5,91.6L216.5,91.6L43.7,43.4l46.8,167.5l0,0c10.4,44.3,50.2,77.3,97.6,77.3
				c55.4,0,100.3-44.9,100.3-100.3C288.5,142.3,258.1,103.9,216.5,91.6z"/>
			<path id="XMLID_167_" class="st114" d="M216.2,91.5L216.2,91.5L43.7,43.4l46.7,167.2l0,0c10.4,44.2,50,77.1,97.4,77.1
				c55.3,0,100.1-44.8,100.1-100.1C288,142.1,257.7,103.8,216.2,91.5z"/>
			<path id="XMLID_166_" class="st115" d="M215.8,91.4L215.8,91.4l-172.1-48l46.6,166.8l0,0c10.4,44.1,49.9,77,97.2,77
				c55.2,0,99.9-44.7,99.9-99.9C287.5,141.9,257.2,103.6,215.8,91.4z"/>
			<path id="XMLID_165_" class="st116" d="M215.5,91.3L215.5,91.3L43.7,43.4l46.5,166.5l0,0c10.3,44,49.8,76.8,97,76.8
				c55.1,0,99.7-44.6,99.7-99.7C287,141.7,256.8,103.5,215.5,91.3z"/>
			<path id="XMLID_164_" class="st117" d="M215.1,91.2L215.1,91.2L43.7,43.4l46.4,166.2l0,0c10.3,43.9,49.7,76.7,96.8,76.7
				c55,0,99.5-44.5,99.5-99.5C286.5,141.5,256.4,103.4,215.1,91.2z"/>
			<path id="XMLID_163_" class="st118" d="M214.8,91.2L214.8,91.2L43.7,43.4L90,209.2l0,0c10.3,43.8,49.6,76.5,96.6,76.5
				c54.8,0,99.3-44.5,99.3-99.3C286,141.3,255.9,103.3,214.8,91.2z"/>
			<path id="XMLID_162_" class="st119" d="M214.4,91.1L214.4,91.1L43.7,43.4l46.2,165.5l0,0c10.3,43.8,49.5,76.3,96.4,76.3
				c54.7,0,99.1-44.4,99.1-99.1C285.5,141.1,255.5,103.1,214.4,91.1z"/>
			<path id="XMLID_161_" class="st120" d="M214.1,91L214.1,91L43.7,43.4l46.1,165.1l0,0c10.3,43.7,49.4,76.2,96.2,76.2
				c54.6,0,98.9-44.3,98.9-98.9C285,140.9,255.1,103,214.1,91z"/>
			<path id="XMLID_160_" class="st121" d="M213.7,90.9L213.7,90.9l-170-47.5l46.1,164.8l0,0c10.2,43.6,49.3,76,96,76
				c54.5,0,98.7-44.2,98.7-98.7C284.5,140.7,254.6,102.9,213.7,90.9z"/>
			<path id="XMLID_159_" class="st122" d="M213.4,90.8L213.4,90.8L43.7,43.4l46,164.5l0,0c10.2,43.5,49.2,75.9,95.8,75.9
				c54.4,0,98.5-44.1,98.5-98.5C284,140.5,254.2,102.8,213.4,90.8z"/>
			<path id="XMLID_158_" class="st123" d="M213,90.7L213,90.7L43.7,43.4l45.9,164.1l0,0c10.2,43.4,49.1,75.7,95.6,75.7
				c54.3,0,98.3-44,98.3-98.3C283.5,140.3,253.8,102.7,213,90.7z"/>
			<path id="XMLID_157_" class="st124" d="M212.7,90.6L212.7,90.6l-169-47.2l45.8,163.8l0,0c10.2,43.3,49,75.6,95.5,75.6
				c54.2,0,98.1-43.9,98.1-98.1C283,140.1,253.3,102.5,212.7,90.6z"/>
			<path id="XMLID_156_" class="st125" d="M212.3,90.5L212.3,90.5L43.7,43.4l45.7,163.4l0,0c10.2,43.2,48.9,75.4,95.3,75.4
				c54.1,0,97.9-43.8,97.9-97.9C282.5,139.9,252.9,102.4,212.3,90.5z"/>
			<path id="XMLID_155_" class="st126" d="M212,90.4L212,90.4l-168.3-47l45.6,163.1l0,0c10.1,43.1,48.8,75.2,95.1,75.2
				c53.9,0,97.7-43.7,97.7-97.7C282,139.7,252.5,102.3,212,90.4z"/>
			<path id="XMLID_154_" class="st127" d="M211.6,90.3L211.6,90.3L43.7,43.4l45.5,162.8l0,0c10.1,43,48.7,75.1,94.9,75.1
				c53.8,0,97.5-43.6,97.5-97.5C281.5,139.5,252,102.2,211.6,90.3z"/>
			<path id="XMLID_153_" class="st128" d="M211.3,90.2L211.3,90.2L43.7,43.4l45.4,162.4l0,0c10.1,43,48.6,74.9,94.7,74.9
				c53.7,0,97.3-43.5,97.3-97.3C281.1,139.3,251.6,102,211.3,90.2z"/>
			<path id="XMLID_152_" class="st129" d="M210.9,90.1L210.9,90.1L43.7,43.4L89,205.5l0,0c10.1,42.9,48.5,74.8,94.5,74.8
				c53.6,0,97.1-43.5,97.1-97.1C280.6,139.1,251.2,101.9,210.9,90.1z"/>
			<path id="XMLID_151_" class="st130" d="M210.6,90L210.6,90L43.7,43.4l45.2,161.8l0,0c10.1,42.8,48.4,74.6,94.3,74.6
				c53.5,0,96.9-43.4,96.9-96.9C280.1,138.9,250.7,101.8,210.6,90z"/>
			<path id="XMLID_150_" class="st131" d="M210.2,89.9L210.2,89.9L43.7,43.4l45.1,161.4l0,0c10,42.7,48.3,74.5,94.1,74.5
				c53.4,0,96.7-43.3,96.7-96.7C279.6,138.7,250.3,101.7,210.2,89.9z"/>
			<path id="XMLID_149_" class="st132" d="M209.9,89.8L209.9,89.8L43.7,43.4l45,161.1l0,0c10,42.6,48.2,74.3,93.9,74.3
				c53.3,0,96.5-43.2,96.5-96.5C279.1,138.5,249.9,101.6,209.9,89.8z"/>
			<path id="XMLID_148_" class="st133" d="M209.5,89.7L209.5,89.7L43.7,43.4l44.9,160.7l0,0c10,42.5,48.1,74.2,93.7,74.2
				c53.2,0,96.3-43.1,96.3-96.3C278.6,138.3,249.4,101.4,209.5,89.7z"/>
			<path id="XMLID_147_" class="st134" d="M209.2,89.6L209.2,89.6L43.7,43.4l44.8,160.4l0,0c10,42.4,48,74,93.5,74
				c53,0,96.1-43,96.1-96.1C278.1,138.1,249,101.3,209.2,89.6z"/>
			<path id="XMLID_146_" class="st135" d="M208.8,89.5L208.8,89.5L43.7,43.4l44.7,160.1l0,0c9.9,42.3,47.9,73.8,93.3,73.8
				c52.9,0,95.9-42.9,95.9-95.9C277.6,137.9,248.6,101.2,208.8,89.5z"/>
			<path id="XMLID_145_" class="st136" d="M208.5,89.4L208.5,89.4l-164.8-46l44.6,159.7l0,0c9.9,42.2,47.8,73.7,93.1,73.7
				c52.8,0,95.7-42.8,95.7-95.7C277.1,137.7,248.1,101.1,208.5,89.4z"/>
			<path id="XMLID_144_" class="st137" d="M208.1,89.3L208.1,89.3L43.7,43.4l44.5,159.4l0,0c9.9,42.1,47.7,73.5,92.9,73.5
				c52.7,0,95.4-42.7,95.4-95.4C276.6,137.5,247.7,100.9,208.1,89.3z"/>
			<path id="XMLID_143_" class="st138" d="M207.8,89.2L207.8,89.2L43.7,43.4l44.4,159.1l0,0c9.9,42.1,47.6,73.4,92.7,73.4
				c52.6,0,95.2-42.6,95.2-95.2C276.1,137.3,247.3,100.8,207.8,89.2z"/>
			<path id="XMLID_142_" class="st139" d="M207.4,89.1L207.4,89.1L43.7,43.4l44.4,158.7l0,0c9.9,42,47.5,73.2,92.5,73.2
				c52.5,0,95-42.6,95-95C275.6,137.1,246.8,100.7,207.4,89.1z"/>
			<path id="XMLID_141_" class="st140" d="M207.1,89L207.1,89L43.7,43.4L88,201.8l0,0c9.8,41.9,47.4,73.1,92.3,73.1
				c52.4,0,94.8-42.5,94.8-94.8C275.1,136.9,246.4,100.6,207.1,89z"/>
			<path id="XMLID_140_" class="st141" d="M206.7,88.9L206.7,88.9l-163-45.5l44.2,158l0,0c9.8,41.8,47.3,72.9,92.1,72.9
				c52.3,0,94.6-42.4,94.6-94.6C274.6,136.7,246,100.5,206.7,88.9z"/>
			<path id="XMLID_139_" class="st142" d="M206.4,88.8L206.4,88.8L43.7,43.4l44.1,157.7l0,0c9.8,41.7,47.2,72.8,91.9,72.8
				c52.2,0,94.4-42.3,94.4-94.4C274.1,136.5,245.5,100.3,206.4,88.8z"/>
			<path id="XMLID_138_" class="st143" d="M206,88.7L206,88.7L43.7,43.4l44,157.4l0,0c9.8,41.6,47.1,72.6,91.7,72.6
				c52,0,94.2-42.2,94.2-94.2C273.6,136.3,245.1,100.2,206,88.7z"/>
			<path id="XMLID_137_" class="st144" d="M205.7,88.6L205.7,88.6l-162-45.2l43.9,157l0,0c9.8,41.5,47,72.4,91.5,72.4
				c51.9,0,94-42.1,94-94C273.1,136.1,244.7,100.1,205.7,88.6z"/>
			<path id="XMLID_136_" class="st145" d="M205.3,88.5L205.3,88.5L43.7,43.4l43.8,156.7l0,0c9.7,41.4,46.9,72.3,91.3,72.3
				c51.8,0,93.8-42,93.8-93.8C272.7,135.9,244.2,100,205.3,88.5z"/>
			<path id="XMLID_135_" class="st146" d="M205,88.4L205,88.4l-161.3-45l43.7,156.3l0,0c9.7,41.3,46.8,72.1,91.1,72.1
				c51.7,0,93.6-41.9,93.6-93.6C272.2,135.7,243.8,99.8,205,88.4z"/>
			<path id="XMLID_134_" class="st147" d="M204.6,88.3L204.6,88.3L43.7,43.4l43.6,156l0,0c9.7,41.3,46.7,72,90.9,72
				c51.6,0,93.4-41.8,93.4-93.4C271.7,135.5,243.4,99.7,204.6,88.3z"/>
			<path id="XMLID_133_" class="st148" d="M204.3,88.2L204.3,88.2L43.7,43.4l43.5,155.7l0,0c9.7,41.2,46.6,71.8,90.7,71.8
				c51.5,0,93.2-41.7,93.2-93.2C271.2,135.3,242.9,99.6,204.3,88.2z"/>
			<path id="XMLID_132_" class="st149" d="M203.9,88.1L203.9,88.1L43.7,43.4l43.4,155.3l0,0c9.7,41.1,46.5,71.7,90.5,71.7
				c51.4,0,93-41.6,93-93C270.7,135.1,242.5,99.5,203.9,88.1z"/>
			<path id="XMLID_131_" class="st150" d="M203.6,88L203.6,88L43.7,43.4l43.3,155l0,0c9.6,41,46.4,71.5,90.3,71.5
				c51.3,0,92.8-41.6,92.8-92.8C270.2,134.9,242.1,99.4,203.6,88z"/>
			<path id="XMLID_130_" class="st151" d="M203.2,87.9L203.2,87.9L43.7,43.4l43.2,154.7l0,0c9.6,40.9,46.3,71.3,90.1,71.3
				c51.1,0,92.6-41.5,92.6-92.6C269.7,134.7,241.6,99.2,203.2,87.9z"/>
			<path id="XMLID_129_" class="st152" d="M202.9,87.8L202.9,87.8L43.7,43.4l43.1,154.3l0,0c9.6,40.8,46.2,71.2,89.9,71.2
				c51,0,92.4-41.4,92.4-92.4C269.2,134.5,241.2,99.1,202.9,87.8z"/>
			<path id="XMLID_128_" class="st153" d="M202.5,87.7L202.5,87.7L43.7,43.4l43,154l0,0c9.6,40.7,46.1,71,89.7,71
				c50.9,0,92.2-41.3,92.2-92.2C268.7,134.3,240.8,99,202.5,87.7z"/>
			<path id="XMLID_127_" class="st154" d="M202.2,87.6L202.2,87.6L43.7,43.4L86.6,197l0,0c9.5,40.6,46,70.9,89.5,70.9
				c50.8,0,92-41.2,92-92C268.2,134.1,240.3,98.9,202.2,87.6z"/>
			<path id="XMLID_126_" class="st155" d="M201.9,87.5L201.9,87.5L43.7,43.4l42.8,153.3l0,0c9.5,40.5,45.9,70.7,89.3,70.7
				c50.7,0,91.8-41.1,91.8-91.8C267.7,133.9,239.9,98.7,201.9,87.5z"/>
			<path id="XMLID_125_" class="st156" d="M201.5,87.5L201.5,87.5l-157.8-44l42.7,153l0,0c9.5,40.4,45.8,70.6,89.1,70.6
				c50.6,0,91.6-41,91.6-91.6C267.2,133.7,239.5,98.6,201.5,87.5z"/>
			<path id="XMLID_124_" class="st157" d="M201.2,87.4L201.2,87.4l-157.5-44L86.4,196l0,0c9.5,40.4,45.7,70.4,88.9,70.4
				c50.5,0,91.4-40.9,91.4-91.4C266.7,133.5,239,98.5,201.2,87.4z"/>
			<path id="XMLID_123_" class="st158" d="M200.8,87.3L200.8,87.3L43.7,43.4l42.6,152.3l0,0c9.5,40.3,45.6,70.3,88.8,70.3
				c50.4,0,91.2-40.8,91.2-91.2C266.2,133.3,238.6,98.4,200.8,87.3z"/>
			<path id="XMLID_122_" class="st159" d="M200.5,87.2L200.5,87.2L43.7,43.4l42.5,152l0,0c9.4,40.2,45.5,70.1,88.6,70.1
				c50.3,0,91-40.7,91-91C265.7,133.1,238.2,98.3,200.5,87.2z"/>
			<path id="XMLID_121_" class="st160" d="M200.1,87.1L200.1,87.1L43.7,43.4L86.1,195l0,0c9.4,40.1,45.4,69.9,88.4,69.9
				c50.1,0,90.8-40.6,90.8-90.8C265.2,132.9,237.8,98.1,200.1,87.1z"/>
			<path id="XMLID_120_" class="st161" d="M199.8,87L199.8,87L43.7,43.4L86,194.7l0,0c9.4,40,45.3,69.8,88.2,69.8
				c50,0,90.6-40.6,90.6-90.6C264.7,132.7,237.3,98,199.8,87z"/>
			<path id="XMLID_119_" class="st162" d="M199.4,86.9L199.4,86.9L43.7,43.4l42.2,150.9l0,0c9.4,39.9,45.2,69.6,88,69.6
				c49.9,0,90.4-40.5,90.4-90.4C264.3,132.5,236.9,97.9,199.4,86.9z"/>
			<path id="XMLID_118_" class="st163" d="M199.1,86.8L199.1,86.8L43.7,43.4L85.8,194l0,0c9.4,39.8,45.1,69.5,87.8,69.5
				c49.8,0,90.2-40.4,90.2-90.2C263.8,132.3,236.5,97.8,199.1,86.8z"/>
			<path id="XMLID_117_" class="st164" d="M198.7,86.7L198.7,86.7l-155-43.3l42,150.3l0,0c9.3,39.7,45,69.3,87.6,69.3
				c49.7,0,90-40.3,90-90C263.3,132.1,236,97.6,198.7,86.7z"/>
			<path id="XMLID_116_" class="st165" d="M198.4,86.6L198.4,86.6L43.7,43.4l41.9,149.9l0,0c9.3,39.6,44.9,69.2,87.4,69.2
				c49.6,0,89.8-40.2,89.8-89.8C262.8,131.9,235.6,97.5,198.4,86.6z"/>
			<path id="XMLID_115_" class="st166" d="M198,86.5L198,86.5L43.7,43.4L85.5,193l0,0c9.3,39.6,44.8,69,87.2,69
				c49.5,0,89.6-40.1,89.6-89.6C262.3,131.7,235.2,97.4,198,86.5z"/>
			<path id="XMLID_114_" class="st167" d="M197.7,86.4L197.7,86.4l-154-43l41.7,149.2l0,0c9.3,39.5,44.7,68.9,87,68.9
				c49.4,0,89.4-40,89.4-89.4C261.8,131.5,234.7,97.3,197.7,86.4z"/>
			<path id="XMLID_113_" class="st168" d="M197.3,86.3L197.3,86.3L43.7,43.4l41.6,148.9l0,0c9.3,39.4,44.6,68.7,86.8,68.7
				c49.2,0,89.2-39.9,89.2-89.2C261.3,131.3,234.3,97.2,197.3,86.3z"/>
			<path id="XMLID_112_" class="st169" d="M197,86.2L197,86.2L43.7,43.4L85.2,192l0,0c9.2,39.3,44.5,68.5,86.6,68.5
				c49.1,0,89-39.8,89-89C260.8,131.1,233.9,97,197,86.2z"/>
			<path id="XMLID_111_" class="st170" d="M196.6,86.1L196.6,86.1L43.7,43.4l41.4,148.2l0,0c9.2,39.2,44.4,68.4,86.4,68.4
				c49,0,88.8-39.7,88.8-88.8C260.3,130.9,233.4,96.9,196.6,86.1z"/>
			<path id="XMLID_110_" class="st171" d="M196.3,86L196.3,86L43.7,43.4L85,191.3l0,0c9.2,39.1,44.3,68.2,86.2,68.2
				c48.9,0,88.6-39.7,88.6-88.6C259.8,130.7,233,96.8,196.3,86z"/>
			<path id="XMLID_109_" class="st172" d="M195.9,85.9L195.9,85.9L43.7,43.4L84.9,191l0,0c9.2,39,44.2,68.1,86,68.1
				c48.8,0,88.4-39.6,88.4-88.4C259.3,130.5,232.6,96.7,195.9,85.9z"/>
			<path id="XMLID_108_" class="st173" d="M195.6,85.8L195.6,85.8L43.7,43.4l41.1,147.2l0,0c9.2,38.9,44.1,67.9,85.8,67.9
				c48.7,0,88.2-39.5,88.2-88.2C258.8,130.3,232.1,96.5,195.6,85.8z"/>
			<path id="XMLID_107_" class="st174" d="M195.2,85.7L195.2,85.7L43.7,43.4l41,146.9l0,0c9.1,38.8,44,67.8,85.6,67.8
				c48.6,0,88-39.4,88-88C258.3,130.1,231.7,96.4,195.2,85.7z"/>
			<path id="XMLID_106_" class="st175" d="M194.9,85.6L194.9,85.6L43.7,43.4l41,146.5l0,0c9.1,38.7,43.9,67.6,85.4,67.6
				c48.5,0,87.8-39.3,87.8-87.8C257.8,129.9,231.3,96.3,194.9,85.6z"/>
			<path id="XMLID_105_" class="st176" d="M194.5,85.5L194.5,85.5L43.7,43.4l40.9,146.2l0,0c9.1,38.7,43.8,67.4,85.2,67.4
				c48.4,0,87.6-39.2,87.6-87.6C257.3,129.7,230.8,96.2,194.5,85.5z"/>
			<path id="XMLID_104_" class="st177" d="M194.2,85.4L194.2,85.4l-150.5-42l40.8,145.9l0,0c9.1,38.6,43.7,67.3,85,67.3
				c48.2,0,87.3-39.1,87.3-87.3C256.8,129.5,230.4,96.1,194.2,85.4z"/>
			<path id="XMLID_103_" class="st178" d="M193.8,85.3L193.8,85.3L43.7,43.4l40.7,145.5l0,0c9,38.5,43.6,67.1,84.8,67.1
				c48.1,0,87.1-39,87.1-87.1C256.3,129.3,230,95.9,193.8,85.3z"/>
			<path id="XMLID_102_" class="st179" d="M193.5,85.2L193.5,85.2L43.7,43.4l40.6,145.2l0,0c9,38.4,43.5,67,84.6,67
				c48,0,86.9-38.9,86.9-86.9C255.9,129.1,229.5,95.8,193.5,85.2z"/>
			<path id="XMLID_101_" class="st180" d="M193.1,85.1L193.1,85.1L43.7,43.4l40.5,144.9l0,0c9,38.3,43.4,66.8,84.4,66.8
				c47.9,0,86.7-38.8,86.7-86.7C255.4,128.9,229.1,95.7,193.1,85.1z"/>
			<path id="XMLID_100_" class="st181" d="M192.8,85L192.8,85L43.7,43.4l40.4,144.5l0,0c9,38.2,43.3,66.7,84.2,66.7
				c47.8,0,86.5-38.7,86.5-86.5C254.9,128.7,228.7,95.6,192.8,85z"/>
			<path id="XMLID_99_" class="st182" d="M192.4,84.9L192.4,84.9L43.7,43.4L84,187.6l0,0c9,38.1,43.2,66.5,84,66.5
				c47.7,0,86.3-38.7,86.3-86.3C254.4,128.5,228.2,95.4,192.4,84.9z"/>
			<path id="XMLID_98_" class="st183" d="M192.1,84.8L192.1,84.8L43.7,43.4l40.2,143.8l0,0c8.9,38,43.1,66.4,83.8,66.4
				c47.6,0,86.1-38.6,86.1-86.1C253.9,128.3,227.8,95.3,192.1,84.8z"/>
			<path id="XMLID_97_" class="st184" d="M191.7,84.7L191.7,84.7l-148-41.3l40.1,143.5l0,0c8.9,37.9,43,66.2,83.6,66.2
				c47.5,0,85.9-38.5,85.9-85.9C253.4,128.1,227.4,95.2,191.7,84.7z"/>
			<path id="XMLID_96_" class="st185" d="M191.4,84.6L191.4,84.6L43.7,43.4l40,143.2l0,0c8.9,37.9,42.9,66,83.4,66
				c47.3,0,85.7-38.4,85.7-85.7C252.9,127.9,226.9,95.1,191.4,84.6z"/>
			<path id="XMLID_95_" class="st186" d="M191,84.5L191,84.5L43.7,43.4l39.9,142.8l0,0c8.9,37.8,42.8,65.9,83.2,65.9
				c47.2,0,85.5-38.3,85.5-85.5C252.4,127.7,226.5,95,191,84.5z"/>
			<path id="XMLID_94_" class="st187" d="M190.7,84.4L190.7,84.4l-147-41l39.8,142.5l0,0c8.9,37.7,42.7,65.7,83,65.7
				c47.1,0,85.3-38.2,85.3-85.3C251.9,127.5,226.1,94.8,190.7,84.4z"/>
			<path id="XMLID_93_" class="st188" d="M190.3,84.3L190.3,84.3L43.7,43.4l39.7,142.1l0,0c8.8,37.6,42.6,65.6,82.8,65.6
				c47,0,85.1-38.1,85.1-85.1C251.4,127.3,225.6,94.7,190.3,84.3z"/>
			<path id="XMLID_92_" class="st189" d="M190,84.2L190,84.2L43.7,43.4l39.6,141.8l0,0c8.8,37.5,42.5,65.4,82.6,65.4
				c46.9,0,84.9-38,84.9-84.9C250.9,127.1,225.2,94.6,190,84.2z"/>
			<path id="XMLID_91_" class="st190" d="M189.6,84.1L189.6,84.1L43.7,43.4l39.5,141.5l0,0c8.8,37.4,42.4,65.3,82.4,65.3
				c46.8,0,84.7-37.9,84.7-84.7C250.4,126.9,224.8,94.5,189.6,84.1z"/>
			<path id="XMLID_90_" class="st191" d="M189.3,84L189.3,84L43.7,43.4l39.4,141.1l0,0c8.8,37.3,42.3,65.1,82.2,65.1
				c46.7,0,84.5-37.8,84.5-84.5C249.9,126.7,224.3,94.4,189.3,84z"/>
			<path id="XMLID_89_" class="st192" d="M188.9,83.9L188.9,83.9L43.7,43.4L83,184.2l0,0c8.8,37.2,42.2,65,82.1,65
				c46.6,0,84.3-37.7,84.3-84.3C249.4,126.5,223.9,94.2,188.9,83.9z"/>
			<path id="XMLID_88_" class="st193" d="M188.6,83.8L188.6,83.8L43.7,43.4L83,183.9l0,0c8.7,37.1,42.1,64.8,81.9,64.8
				c46.5,0,84.1-37.7,84.1-84.1C248.9,126.3,223.5,94.1,188.6,83.8z"/>
			<path id="XMLID_87_" class="st194" d="M188.2,83.8L188.2,83.8L43.7,43.4l39.2,140.1l0,0c8.7,37,42,64.6,81.7,64.6
				c46.3,0,83.9-37.6,83.9-83.9C248.4,126.1,223,94,188.2,83.8z"/>
			<path id="XMLID_86_" class="st195" d="M187.9,83.7L187.9,83.7L43.7,43.4l39.1,139.8l0,0c8.7,37,41.8,64.5,81.5,64.5
				c46.2,0,83.7-37.5,83.7-83.7C247.9,125.9,222.6,93.9,187.9,83.7z"/>
			<path id="XMLID_85_" class="st196" d="M187.5,83.6L187.5,83.6L43.7,43.4l39,139.4l0,0c8.7,36.9,41.7,64.3,81.3,64.3
				c46.1,0,83.5-37.4,83.5-83.5C247.5,125.7,222.2,93.7,187.5,83.6z"/>
			<path id="XMLID_84_" class="st197" d="M187.2,83.5L187.2,83.5L43.7,43.4l38.9,139.1l0,0c8.6,36.8,41.6,64.2,81.1,64.2
				c46,0,83.3-37.3,83.3-83.3C247,125.5,221.7,93.6,187.2,83.5z"/>
			<path id="XMLID_83_" class="st198" d="M186.9,83.4L186.9,83.4l-143.1-40l38.8,138.8l0,0c8.6,36.7,41.5,64,80.9,64
				c45.9,0,83.1-37.2,83.1-83.1C246.5,125.3,221.3,93.5,186.9,83.4z"/>
			<path id="XMLID_82_" class="st199" d="M186.5,83.3L186.5,83.3L43.7,43.4l38.7,138.4l0,0c8.6,36.6,41.4,63.9,80.7,63.9
				c45.8,0,82.9-37.1,82.9-82.9C246,125.1,220.9,93.4,186.5,83.3z"/>
			<path id="XMLID_81_" class="st200" d="M186.2,83.2L186.2,83.2L43.7,43.4l38.6,138.1l0,0c8.6,36.5,41.3,63.7,80.5,63.7
				c45.7,0,82.7-37,82.7-82.7C245.5,124.9,220.4,93.3,186.2,83.2z"/>
			<path id="XMLID_80_" class="st201" d="M185.8,83.1L185.8,83.1L43.7,43.4l38.5,137.7l0,0c8.6,36.4,41.2,63.5,80.3,63.5
				c45.6,0,82.5-36.9,82.5-82.5C245,124.7,220,93.1,185.8,83.1z"/>
			<path id="XMLID_79_" class="st202" d="M185.5,83L185.5,83L43.7,43.4l38.4,137.4l0,0c8.5,36.3,41.1,63.4,80.1,63.4
				c45.4,0,82.3-36.8,82.3-82.3C244.5,124.5,219.6,93,185.5,83z"/>
			<path id="XMLID_78_" class="st203" d="M185.1,82.9L185.1,82.9L43.7,43.4L82,180.5l0,0c8.5,36.2,41,63.2,79.9,63.2
				c45.3,0,82.1-36.7,82.1-82.1C244,124.3,219.1,92.9,185.1,82.9z"/>
			<path id="XMLID_77_" class="st204" d="M184.8,82.8L184.8,82.8L43.7,43.4l38.2,136.7l0,0c8.5,36.2,40.9,63.1,79.7,63.1
				c45.2,0,81.9-36.7,81.9-81.9C243.5,124.1,218.7,92.8,184.8,82.8z"/>
			<path id="XMLID_76_" class="st205" d="M184.4,82.7L184.4,82.7L43.7,43.4l38.1,136.4l0,0c8.5,36.1,40.8,62.9,79.5,62.9
				c45.1,0,81.7-36.6,81.7-81.7C243,123.9,218.3,92.6,184.4,82.7z"/>
			<path id="XMLID_75_" class="st206" d="M184.1,82.6L184.1,82.6L43.7,43.4l38,136.1l0,0c8.5,36,40.7,62.8,79.3,62.8
				c45,0,81.5-36.5,81.5-81.5C242.5,123.7,217.8,92.5,184.1,82.6z"/>
			<path id="XMLID_74_" class="st207" d="M183.7,82.5L183.7,82.5l-140-39.1l37.9,135.7l0,0c8.4,35.9,40.6,62.6,79.1,62.6
				c44.9,0,81.3-36.4,81.3-81.3C242,123.5,217.4,92.4,183.7,82.5z"/>
			<path id="XMLID_73_" class="st208" d="M183.4,82.4L183.4,82.4l-139.7-39l37.8,135.4l0,0c8.4,35.8,40.5,62.5,78.9,62.5
				c44.8,0,81.1-36.3,81.1-81.1C241.5,123.3,217,92.3,183.4,82.4z"/>
			<path id="XMLID_72_" class="st209" d="M183,82.3L183,82.3L43.7,43.4l37.7,135l0,0c8.4,35.7,40.4,62.3,78.7,62.3
				c44.7,0,80.9-36.2,80.9-80.9C241,123.1,216.5,92.2,183,82.3z"/>
			<path id="XMLID_71_" class="st210" d="M182.7,82.2L182.7,82.2l-139-38.8l37.6,134.7l0,0c8.4,35.6,40.3,62.1,78.5,62.1
				c44.6,0,80.7-36.1,80.7-80.7C240.5,122.9,216.1,92,182.7,82.2z"/>
			<path id="XMLID_70_" class="st211" d="M182.3,82.1L182.3,82.1L43.7,43.4l37.6,134.4l0,0c8.4,35.5,40.2,62,78.3,62
				c44.4,0,80.5-36,80.5-80.5C240,122.7,215.7,91.9,182.3,82.1z"/>
			<path id="XMLID_69_" class="st212" d="M182,82L182,82L43.7,43.4l37.5,134l0,0c8.3,35.4,40.1,61.8,78.1,61.8
				c44.3,0,80.3-35.9,80.3-80.3C239.5,122.5,215.2,91.8,182,82z"/>
			<path id="XMLID_68_" class="st213" d="M181.6,81.9L181.6,81.9L43.7,43.4l37.4,133.7l0,0c8.3,35.4,40,61.7,77.9,61.7
				c44.2,0,80.1-35.8,80.1-80.1C239.1,122.3,214.8,91.7,181.6,81.9z"/>
			<path id="XMLID_67_" class="st214" d="M181.3,81.8L181.3,81.8L43.7,43.4L81,176.8l0,0c8.3,35.3,39.9,61.5,77.7,61.5
				c44.1,0,79.9-35.8,79.9-79.9C238.6,122.1,214.4,91.5,181.3,81.8z"/>
			<path id="XMLID_64_" class="st215" d="M180.9,81.7L180.9,81.7L43.7,43.4l37.2,133l0,0c8.3,35.2,39.8,61.4,77.5,61.4
				c44,0,79.7-35.7,79.7-79.7C238.1,121.9,213.9,91.4,180.9,81.7z"/>
			<path id="XMLID_63_" class="st216" d="M180.6,81.6L180.6,81.6L43.7,43.4l37.1,132.7l0,0c8.2,35.1,39.7,61.2,77.3,61.2
				c43.9,0,79.5-35.6,79.5-79.5C237.6,121.7,213.5,91.3,180.6,81.6z"/>
			<path id="XMLID_62_" class="st217" d="M180.2,81.5L180.2,81.5L43.7,43.4l37,132.3l0,0c8.2,35,39.6,61.1,77.1,61.1
				c43.8,0,79.2-35.5,79.2-79.2C237.1,121.5,213.1,91.2,180.2,81.5z"/>
			<path id="XMLID_61_" class="st218" d="M179.9,81.4L179.9,81.4l-136.2-38l36.9,132l0,0c8.2,34.9,39.5,60.9,76.9,60.9
				c43.7,0,79-35.4,79-79C236.6,121.3,212.6,91.1,179.9,81.4z"/>
			<path id="XMLID_60_" class="st219" d="M179.5,81.3L179.5,81.3L43.7,43.4l36.8,131.7l0,0c8.2,34.8,39.4,60.7,76.7,60.7
				c43.5,0,78.8-35.3,78.8-78.8C236.1,121.1,212.2,90.9,179.5,81.3z"/>
			<path id="XMLID_59_" class="st220" d="M179.2,81.2L179.2,81.2L43.7,43.4l36.7,131.3l0,0c8.2,34.7,39.3,60.6,76.5,60.6
				c43.4,0,78.6-35.2,78.6-78.6C235.6,120.9,211.8,90.8,179.2,81.2z"/>
			<path id="XMLID_58_" class="st221" d="M178.8,81.1L178.8,81.1L43.7,43.4l36.6,131l0,0c8.1,34.6,39.2,60.4,76.3,60.4
				c43.3,0,78.4-35.1,78.4-78.4C235.1,120.7,211.3,90.7,178.8,81.1z"/>
			<path id="XMLID_57_" class="st222" d="M178.5,81L178.5,81L43.7,43.4l36.5,130.6l0,0c8.1,34.5,39.1,60.3,76.1,60.3
				c43.2,0,78.2-35,78.2-78.2C234.6,120.5,210.9,90.6,178.5,81z"/>
			<path id="XMLID_56_" class="st223" d="M178.1,80.9L178.1,80.9L43.7,43.4l36.4,130.3l0,0c8.1,34.5,39,60.1,75.9,60.1
				c43.1,0,78-34.9,78-78C234.1,120.3,210.5,90.4,178.1,80.9z"/>
			<path id="XMLID_55_" class="st224" d="M177.8,80.8L177.8,80.8L43.7,43.4l36.3,130l0,0c8.1,34.4,38.9,60,75.7,60
				c43,0,77.8-34.8,77.8-77.8C233.6,120.1,210.1,90.3,177.8,80.8z"/>
			<path id="XMLID_54_" class="st225" d="M177.4,80.7L177.4,80.7L43.7,43.4L79.9,173l0,0c8.1,34.3,38.8,59.8,75.5,59.8
				c42.9,0,77.6-34.8,77.6-77.6C233.1,119.9,209.6,90.2,177.4,80.7z"/>
			<path id="XMLID_53_" class="st226" d="M177.1,80.6L177.1,80.6L43.7,43.4l36.1,129.3l0,0c8,34.2,38.7,59.6,75.4,59.6
				c42.8,0,77.4-34.7,77.4-77.4C232.6,119.7,209.2,90.1,177.1,80.6z"/>
			<path id="XMLID_52_" class="st227" d="M176.7,80.5L176.7,80.5l-133-37.1l36,129l0,0c8,34.1,38.6,59.5,75.2,59.5
				c42.6,0,77.2-34.6,77.2-77.2C232.1,119.5,208.8,90,176.7,80.5z"/>
			<path id="XMLID_51_" class="st228" d="M176.4,80.4L176.4,80.4l-132.7-37L79.6,172l0,0c8,34,38.5,59.3,75,59.3
				c42.5,0,77-34.5,77-77C231.6,119.3,208.3,89.8,176.4,80.4z"/>
			<path id="XMLID_50_" class="st229" d="M176,80.3L176,80.3L43.7,43.4l35.8,128.3l0,0c8,33.9,38.4,59.2,74.8,59.2
				c42.4,0,76.8-34.4,76.8-76.8C231.1,119.1,207.9,89.7,176,80.3z"/>
			<path id="XMLID_49_" class="st230" d="M175.7,80.2L175.7,80.2l-132-36.8l35.8,127.9l0,0c8,33.8,38.3,59,74.6,59
				c42.3,0,76.6-34.3,76.6-76.6C230.7,118.9,207.5,89.6,175.7,80.2z"/>
			<path id="XMLID_48_" class="st231" d="M175.3,80.1L175.3,80.1L43.7,43.4L79.4,171l0,0c7.9,33.7,38.2,58.9,74.4,58.9
				c42.2,0,76.4-34.2,76.4-76.4C230.2,118.7,207,89.5,175.3,80.1z"/>
			<path id="XMLID_47_" class="st232" d="M175,80.1L175,80.1L43.7,43.4l35.6,127.3l0,0c7.9,33.7,38.1,58.7,74.2,58.7
				c42.1,0,76.2-34.1,76.2-76.2C229.7,118.5,206.6,89.3,175,80.1z"/>
			<path id="XMLID_46_" class="st233" d="M174.6,80L174.6,80L43.7,43.4l35.5,126.9l0,0c7.9,33.6,38,58.6,74,58.6c42,0,76-34,76-76
				C229.2,118.3,206.2,89.2,174.6,80z"/>
			<path id="XMLID_45_" class="st234" d="M174.3,79.9L174.3,79.9L43.7,43.4L79.1,170l0,0c7.9,33.5,37.9,58.4,73.8,58.4
				c41.9,0,75.8-33.9,75.8-75.8C228.7,118.1,205.7,89.1,174.3,79.9z"/>
			<path id="XMLID_44_" class="st235" d="M173.9,79.8L173.9,79.8L43.7,43.4L79,169.7l0,0c7.8,33.4,37.8,58.2,73.6,58.2
				c41.8,0,75.6-33.8,75.6-75.6C228.2,117.9,205.3,89,173.9,79.8z"/>
			<path id="XMLID_43_" class="st236" d="M173.6,79.7L173.6,79.7L43.7,43.4l35.2,125.9l0,0c7.8,33.3,37.7,58.1,73.4,58.1
				c41.6,0,75.4-33.8,75.4-75.4C227.7,117.7,204.9,88.9,173.6,79.7z"/>
			<path id="XMLID_42_" class="st237" d="M173.2,79.6L173.2,79.6L43.7,43.4L78.8,169l0,0c7.8,33.2,37.6,57.9,73.2,57.9
				c41.5,0,75.2-33.7,75.2-75.2C227.2,117.5,204.4,88.7,173.2,79.6z"/>
			<path id="XMLID_41_" class="st238" d="M172.9,79.5L172.9,79.5L43.7,43.4l35,125.2l0,0c7.8,33.1,37.5,57.8,73,57.8
				c41.4,0,75-33.6,75-75C226.7,117.3,204,88.6,172.9,79.5z"/>
			<path id="XMLID_40_" class="st239" d="M172.5,79.4L172.5,79.4l-128.8-36l34.9,124.9l0,0c7.8,33,37.4,57.6,72.8,57.6
				c41.3,0,74.8-33.5,74.8-74.8C226.2,117.1,203.6,88.5,172.5,79.4z"/>
			<path id="XMLID_39_" class="st240" d="M172.2,79.3L172.2,79.3L43.7,43.4L78.5,168l0,0c7.7,32.9,37.3,57.5,72.6,57.5
				c41.2,0,74.6-33.4,74.6-74.6C225.7,116.9,203.1,88.4,172.2,79.3z"/>
			<path id="XMLID_38_" class="st241" d="M171.9,79.2L171.9,79.2L43.7,43.4l34.7,124.2l0,0c7.7,32.8,37.2,57.3,72.4,57.3
				c41.1,0,74.4-33.3,74.4-74.4C225.2,116.8,202.7,88.2,171.9,79.2z"/>
			<path id="XMLID_37_" class="st242" d="M171.5,79.1L171.5,79.1L43.7,43.4l34.6,123.9l0,0c7.7,32.8,37.1,57.2,72.2,57.2
				c41,0,74.2-33.2,74.2-74.2C224.7,116.6,202.3,88.1,171.5,79.1z"/>
			<path id="XMLID_36_" class="st243" d="M171.2,79L171.2,79L43.7,43.4l34.5,123.5l0,0c7.7,32.7,37,57,72,57c40.9,0,74-33.1,74-74
				C224.2,116.4,201.8,88,171.2,79z"/>
			<path id="XMLID_35_" class="st244" d="M170.8,78.9L170.8,78.9L43.7,43.4l34.4,123.2l0,0c7.7,32.6,36.9,56.8,71.8,56.8
				c40.7,0,73.8-33,73.8-73.8C223.7,116.2,201.4,87.9,170.8,78.9z"/>
			<path id="XMLID_34_" class="st245" d="M170.5,78.8L170.5,78.8L43.7,43.4L78,166.3l0,0c7.6,32.5,36.8,56.7,71.6,56.7
				c40.6,0,73.6-32.9,73.6-73.6C223.2,116,201,87.8,170.5,78.8z"/>
			<path id="XMLID_31_" class="st246" d="M170.1,78.7L170.1,78.7L43.7,43.4l34.2,122.5l0,0c7.6,32.4,36.7,56.5,71.4,56.5
				c40.5,0,73.4-32.9,73.4-73.4C222.7,115.8,200.5,87.6,170.1,78.7z"/>
			<path id="XMLID_22_" class="st247" d="M169.8,78.6L169.8,78.6L43.7,43.4l34.1,122.2l0,0c7.6,32.3,36.6,56.4,71.2,56.4
				c40.4,0,73.2-32.8,73.2-73.2C222.3,115.6,200.1,87.5,169.8,78.6z"/>
			<path id="XMLID_13_" class="st248" d="M169.4,78.5L169.4,78.5L43.7,43.4l34.1,121.9l0,0c7.6,32.2,36.5,56.2,71,56.2
				c40.3,0,73-32.7,73-73C221.8,115.4,199.7,87.4,169.4,78.5z"/>
			<path id="XMLID_12_" class="st249" d="M169.1,78.4L169.1,78.4l-125.4-35l34,121.5l0,0c7.6,32.1,36.4,56.1,70.8,56.1
				c40.2,0,72.8-32.6,72.8-72.8C221.3,115.2,199.2,87.3,169.1,78.4z"/>
			<path id="XMLID_11_" class="st250" d="M168.7,78.3L168.7,78.3l-125-34.9l33.9,121.2l0,0c7.5,32,36.3,55.9,70.6,55.9
				c40.1,0,72.6-32.5,72.6-72.6C220.8,115,198.8,87.1,168.7,78.3z"/>
			<path id="XMLID_10_" class="st251" d="M168.4,78.2L168.4,78.2L43.7,43.4l33.8,120.8l0,0c7.5,32,36.2,55.7,70.4,55.7
				c40,0,72.4-32.4,72.4-72.4C220.3,114.8,198.4,87,168.4,78.2z"/>
			<path id="XMLID_9_" class="st252" d="M168,78.1L168,78.1L43.7,43.4l33.7,120.5l0,0c7.5,31.9,36.1,55.6,70.2,55.6
				c39.9,0,72.2-32.3,72.2-72.2C219.8,114.6,197.9,86.9,168,78.1z"/>
			<path id="XMLID_8_" class="st253" d="M167.7,78L167.7,78l-124-34.6l33.6,120.2l0,0c7.5,31.8,36,55.4,70,55.4
				c39.7,0,72-32.2,72-72C219.3,114.4,197.5,86.8,167.7,78z"/>
			<path id="XMLID_7_" class="st254" d="M167.3,77.9L167.3,77.9L43.7,43.4l33.5,119.8l0,0c7.4,31.7,35.9,55.3,69.8,55.3
				c39.6,0,71.8-32.1,71.8-71.8C218.8,114.2,197.1,86.7,167.3,77.9z"/>
			<path id="XMLID_5_" class="st255" d="M167,77.8L167,77.8L43.7,43.4l33.4,119.5l0,0c7.4,31.6,35.8,55.1,69.6,55.1
				c39.5,0,71.6-32,71.6-71.6C218.3,114,196.6,86.5,167,77.8z"/>
		</g>
	</g>
</g>
<g id="Layer_3">
	<g id="XMLID_300_">
		<rect id="XMLID_322_" x="59.4" y="226.5" class="st256" width="386.6" height="73.5"/>
		<g id="XMLID_307_">
			<path id="XMLID_321_" class="st257" d="M84.6,258.8h2c1.8,0,3.1-0.6,3.9-1.7l11.9-17.2c0.7-0.9,1.5-1.6,2.2-1.9
				c0.8-0.3,1.8-0.5,3-0.5h10.6l-15.6,21.3c-1.1,1.5-2.3,2.5-3.6,3.2c0.9,0.3,1.8,0.8,2.5,1.4c0.8,0.6,1.5,1.4,2.1,2.4l15.9,24.4
				h-10.9c-0.7,0-1.3,0-1.8-0.1c-0.5-0.1-0.9-0.2-1.3-0.4c-0.3-0.2-0.7-0.4-0.9-0.7c-0.3-0.3-0.5-0.6-0.8-1l-11.9-18.4
				c-0.4-0.7-1-1.1-1.7-1.4c-0.7-0.3-1.6-0.4-2.7-0.4h-3v22.4H72.3v-52.7h12.2L84.6,258.8L84.6,258.8z"/>
			<path id="XMLID_320_" class="st257" d="M132.2,255.9c1.3-1.1,2.8-2.1,4.4-2.8c1.6-0.7,3.5-1.1,5.7-1.1c2,0,3.9,0.3,5.5,1.1
				c1.6,0.7,2.9,1.7,4,3c1.1,1.3,1.9,2.8,2.5,4.5s0.8,3.7,0.8,5.7v23.9h-11.2v-23.9c0-1.8-0.4-3.3-1.3-4.3c-0.8-1-2.1-1.5-3.7-1.5
				c-1.2,0-2.4,0.3-3.5,0.8c-1.1,0.5-2.1,1.2-3.1,2.1v26.8H121V236h11.2V255.9z"/>
			<path id="XMLID_317_" class="st257" d="M159.6,257.9c2.3-2,4.8-3.5,7.5-4.5c2.8-1,5.7-1.5,8.9-1.5c2.3,0,4.3,0.4,6.1,1.1
				c1.8,0.7,3.4,1.8,4.6,3.1c1.3,1.3,2.2,2.9,2.9,4.7c0.7,1.8,1,3.8,1,5.9v23.4h-5.2c-1.1,0-1.9-0.1-2.4-0.4c-0.6-0.3-1-0.9-1.3-1.8
				l-0.8-2.1c-0.9,0.8-1.8,1.5-2.7,2.1c-0.9,0.6-1.8,1.1-2.7,1.5c-0.9,0.4-1.9,0.7-3,0.9c-1,0.2-2.2,0.3-3.5,0.3
				c-1.7,0-3.3-0.2-4.7-0.7c-1.4-0.4-2.6-1.1-3.6-2c-1-0.9-1.7-1.9-2.2-3.3c-0.5-1.3-0.8-2.8-0.8-4.5c0-1.3,0.3-2.7,1-4.1
				c0.7-1.4,1.8-2.7,3.5-3.8c1.7-1.1,3.9-2.1,6.7-2.9c2.8-0.8,6.4-1.2,10.7-1.3v-1.6c0-2.2-0.4-3.8-1.3-4.8c-0.9-1-2.2-1.5-3.8-1.5
				c-1.3,0-2.4,0.1-3.3,0.4c-0.8,0.3-1.6,0.6-2.2,1c-0.7,0.3-1.3,0.7-1.9,1c-0.6,0.3-1.4,0.4-2.2,0.4c-0.8,0-1.4-0.2-2-0.6
				c-0.5-0.4-1-0.8-1.3-1.4L159.6,257.9z M179.8,274.9c-2.2,0.1-4.1,0.3-5.5,0.6c-1.5,0.3-2.6,0.7-3.4,1.1c-0.8,0.4-1.4,0.9-1.8,1.5
				c-0.3,0.6-0.5,1.1-0.5,1.8c0,1.3,0.3,2.2,1,2.7c0.7,0.5,1.7,0.8,3.1,0.8c1.5,0,2.7-0.2,3.8-0.8c1.1-0.5,2.2-1.3,3.3-2.5V274.9z"
				/>
			<path id="XMLID_316_" class="st257" d="M206.6,258.4c1.1-2,2.5-3.6,4-4.8c1.5-1.1,3.3-1.7,5.2-1.7c1.7,0,3.1,0.4,4.1,1.2
				l-0.7,8.3c-0.1,0.5-0.3,0.9-0.6,1.1c-0.3,0.2-0.7,0.3-1.1,0.3c-0.2,0-0.4,0-0.8,0c-0.3,0-0.6-0.1-1-0.1c-0.3,0-0.7-0.1-1-0.1
				c-0.3,0-0.7-0.1-1-0.1c-1.6,0-2.9,0.4-3.9,1.3c-1,0.9-1.8,2.1-2.5,3.6v22.8h-11.2v-37.5h6.7c0.6,0,1,0,1.4,0.1s0.7,0.2,0.9,0.4
				c0.2,0.2,0.4,0.5,0.6,0.8c0.1,0.3,0.2,0.8,0.3,1.2L206.6,258.4z"/>
			<path id="XMLID_315_" class="st257" d="M233.1,236v30.4h1.7c0.7,0,1.2-0.1,1.6-0.3c0.3-0.2,0.7-0.6,1.1-1l7.1-10.6
				c0.4-0.6,0.9-1.1,1.5-1.3c0.6-0.3,1.3-0.4,2.1-0.4h10.3l-9.7,13.3c-0.9,1.2-2,2.2-3.3,3c0.6,0.4,1.1,0.9,1.5,1.4
				c0.4,0.6,0.9,1.1,1.3,1.8l10.6,17.9h-10.1c-0.8,0-1.6-0.1-2.2-0.4c-0.6-0.3-1.1-0.8-1.5-1.5l-7.1-13.3c-0.3-0.6-0.7-1-1-1.2
				c-0.3-0.2-0.9-0.3-1.6-0.3h-2.2v16.6h-11.2V236L233.1,236L233.1,236z"/>
			<path id="XMLID_312_" class="st257" d="M273,242.4c0,0.9-0.2,1.7-0.6,2.5c-0.3,0.8-0.9,1.5-1.5,2.1c-0.6,0.6-1.3,1.1-2.2,1.4
				c-0.8,0.3-1.7,0.5-2.7,0.5c-0.9,0-1.8-0.2-2.6-0.5c-0.8-0.3-1.5-0.8-2.1-1.4c-0.6-0.6-1.1-1.3-1.5-2.1c-0.3-0.8-0.5-1.6-0.5-2.5
				c0-0.9,0.2-1.8,0.5-2.6c0.3-0.8,0.8-1.5,1.5-2.1c0.6-0.6,1.3-1.1,2.1-1.4c0.8-0.3,1.7-0.5,2.6-0.5c0.9,0,1.8,0.2,2.7,0.5
				c0.8,0.3,1.6,0.8,2.2,1.4c0.6,0.6,1.1,1.3,1.5,2.1C272.9,240.6,273,241.5,273,242.4z M271.9,252.7v37.5h-11.2v-37.5H271.9z"/>
			<path id="XMLID_311_" class="st257" d="M313.2,252.7l-14.6,37.5h-10.2l-14.6-37.5h9.3c0.8,0,1.5,0.2,2,0.6
				c0.6,0.4,0.9,0.8,1.1,1.4l5.2,16.8c0.4,1.4,0.9,2.7,1.2,4c0.3,1.3,0.7,2.6,0.9,3.9c0.5-2.6,1.3-5.3,2.2-7.9l5.4-16.8
				c0.2-0.6,0.6-1,1.1-1.4c0.5-0.4,1.1-0.6,1.9-0.6H313.2L313.2,252.7z"/>
			<path id="XMLID_310_" class="st257" d="M351.9,276.6c0.3,0,0.6,0.1,0.9,0.2c0.3,0.1,0.6,0.3,0.8,0.6l4.8,5.1
				c-2.1,2.8-4.8,4.9-8,6.3c-3.2,1.4-7,2.1-11.3,2.1c-4,0-7.6-0.7-10.8-2c-3.2-1.3-5.9-3.3-8.1-5.6c-2.2-2.4-3.9-5.3-5.1-8.5
				c-1.2-3.3-1.8-6.9-1.8-10.7c0-3.9,0.6-7.5,1.9-10.8c1.3-3.3,3.1-6.1,5.4-8.5c2.3-2.4,5.1-4.3,8.3-5.6c3.2-1.3,6.8-2,10.7-2
				c2,0,3.8,0.2,5.6,0.5c1.8,0.3,3.4,0.8,4.9,1.5c1.5,0.6,2.9,1.3,4.2,2.2c1.3,0.9,2.4,1.8,3.4,2.8l-4.1,5.5
				c-0.3,0.3-0.6,0.7-0.9,0.9c-0.3,0.3-0.9,0.4-1.5,0.4c-0.4,0-0.8-0.1-1.2-0.3c-0.4-0.2-0.8-0.4-1.2-0.7c-0.4-0.3-0.9-0.6-1.4-0.9
				c-0.5-0.3-1.1-0.6-1.8-0.9c-0.7-0.3-1.6-0.5-2.5-0.7c-1-0.2-2.1-0.3-3.4-0.3c-2,0-3.9,0.4-5.6,1.1c-1.7,0.8-3.1,1.8-4.4,3.3
				c-1.2,1.5-2.1,3.2-2.8,5.3c-0.7,2.1-1,4.5-1,7.2c0,2.7,0.4,5.1,1.1,7.2c0.7,2.1,1.7,3.9,3,5.3c1.3,1.5,2.7,2.5,4.4,3.3
				c1.7,0.8,3.5,1.1,5.4,1.1c1.1,0,2.1-0.1,3-0.2c0.9-0.1,1.8-0.3,2.6-0.6c0.8-0.2,1.6-0.6,2.2-1c0.7-0.4,1.4-1,2.1-1.6
				c0.3-0.2,0.6-0.4,0.9-0.6C351.3,276.6,351.6,276.6,351.9,276.6z"/>
			<path id="XMLID_309_" class="st257" d="M392.6,248.2c-0.3,0.6-0.7,1-1.1,1.3c-0.4,0.3-0.9,0.4-1.5,0.4c-0.6,0-1.1-0.2-1.8-0.5
				c-0.6-0.3-1.3-0.7-2.2-1.2c-0.8-0.4-1.7-0.8-2.8-1.2c-1-0.3-2.2-0.5-3.6-0.5c-2.3,0-4,0.5-5.1,1.5c-1.1,1-1.7,2.3-1.7,4
				c0,1.1,0.3,1.9,1,2.6c0.7,0.7,1.6,1.3,2.7,1.8c1.1,0.5,2.4,1,3.8,1.4c1.4,0.4,2.8,0.9,4.3,1.4c1.5,0.5,2.9,1.1,4.3,1.8
				c1.4,0.7,2.7,1.6,3.8,2.7s2,2.4,2.7,4c0.7,1.6,1,3.4,1,5.6c0,2.4-0.4,4.7-1.3,6.8c-0.8,2.1-2.1,4-3.7,5.6
				c-1.6,1.6-3.6,2.8-5.9,3.7c-2.4,0.9-5,1.3-8,1.3c-1.6,0-3.3-0.2-5-0.5c-1.7-0.3-3.4-0.8-4.9-1.4c-1.6-0.6-3.1-1.3-4.5-2.2
				c-1.4-0.8-2.6-1.8-3.7-2.8l3.6-5.7c0.3-0.4,0.7-0.8,1.1-1c0.5-0.3,1-0.4,1.5-0.4c0.7,0,1.5,0.2,2.2,0.7c0.7,0.4,1.6,1,2.5,1.5
				c0.9,0.6,2,1.1,3.2,1.5c1.2,0.4,2.6,0.7,4.3,0.7c2.2,0,3.9-0.5,5.2-1.5c1.2-1,1.8-2.5,1.8-4.6c0-1.2-0.3-2.2-1-3
				c-0.7-0.8-1.6-1.4-2.7-1.9c-1.1-0.5-2.4-1-3.7-1.3c-1.4-0.4-2.8-0.8-4.3-1.3c-1.5-0.5-2.9-1-4.3-1.7c-1.4-0.7-2.7-1.6-3.7-2.7
				c-1.1-1.1-2-2.5-2.7-4.2c-0.7-1.7-1-3.7-1-6.2c0-2,0.4-3.9,1.2-5.8c0.8-1.9,2-3.6,3.5-5c1.6-1.5,3.4-2.7,5.7-3.5
				c2.2-0.9,4.8-1.3,7.7-1.3c1.6,0,3.2,0.1,4.7,0.4c1.5,0.2,3,0.6,4.4,1.1c1.4,0.5,2.7,1.1,3.8,1.8c1.2,0.7,2.2,1.5,3.2,2.4
				L392.6,248.2z"/>
			<path id="XMLID_308_" class="st257" d="M430.7,248.2c-0.3,0.6-0.7,1-1.1,1.3c-0.4,0.3-0.9,0.4-1.5,0.4c-0.6,0-1.1-0.2-1.8-0.5
				c-0.6-0.3-1.3-0.7-2.2-1.2c-0.8-0.4-1.7-0.8-2.8-1.2c-1-0.3-2.2-0.5-3.6-0.5c-2.3,0-4,0.5-5.1,1.5c-1.1,1-1.7,2.3-1.7,4
				c0,1.1,0.3,1.9,1,2.6c0.7,0.7,1.6,1.3,2.7,1.8c1.1,0.5,2.4,1,3.8,1.4c1.4,0.4,2.8,0.9,4.3,1.4c1.5,0.5,2.9,1.1,4.3,1.8
				c1.4,0.7,2.7,1.6,3.8,2.7c1.1,1.1,2,2.4,2.7,4c0.7,1.6,1,3.4,1,5.6c0,2.4-0.4,4.7-1.3,6.8c-0.8,2.1-2.1,4-3.7,5.6
				c-1.6,1.6-3.6,2.8-5.9,3.7c-2.4,0.9-5,1.3-8,1.3c-1.6,0-3.3-0.2-5-0.5c-1.7-0.3-3.4-0.8-4.9-1.4c-1.6-0.6-3.1-1.3-4.5-2.2
				c-1.4-0.8-2.6-1.8-3.7-2.8l3.6-5.7c0.3-0.4,0.7-0.8,1.1-1c0.5-0.3,1-0.4,1.5-0.4c0.7,0,1.5,0.2,2.2,0.7c0.7,0.4,1.6,1,2.5,1.5
				s2,1.1,3.2,1.5c1.2,0.4,2.6,0.7,4.3,0.7c2.2,0,3.9-0.5,5.2-1.5c1.2-1,1.8-2.5,1.8-4.6c0-1.2-0.3-2.2-1-3
				c-0.7-0.8-1.6-1.4-2.7-1.9c-1.1-0.5-2.4-1-3.7-1.3c-1.4-0.4-2.8-0.8-4.3-1.3c-1.5-0.5-2.9-1-4.3-1.7c-1.4-0.7-2.7-1.6-3.7-2.7
				c-1.1-1.1-2-2.5-2.7-4.2c-0.7-1.7-1-3.7-1-6.2c0-2,0.4-3.9,1.2-5.8c0.8-1.9,2-3.6,3.5-5c1.6-1.5,3.4-2.7,5.7-3.5
				c2.2-0.9,4.8-1.3,7.7-1.3c1.6,0,3.2,0.1,4.7,0.4c1.5,0.2,3,0.6,4.4,1.1c1.4,0.5,2.7,1.1,3.8,1.8c1.2,0.7,2.2,1.5,3.2,2.4
				L430.7,248.2z"/>
		</g>
	</g>
</g>
</svg>
