<svg width="264" height="264" viewBox="0 0 264 264" xmlns="http://www.w3.org/2000/svg" xmlns:xlink="http://www.w3.org/1999/xlink"><title>Artboard</title><defs><path d="M92.362 7.405c-.065-.119-.128-.24-.192-.358L135.498.258l13.089 12.871-56.225-5.724z" id="a"/><linearGradient x1="-.001%" y1="50.006%" y2="50.006%" id="b"><stop stop-color="#6CAE5F" offset="0%"/><stop stop-color="#1F601C" offset="100%"/></linearGradient><path d="M-72.107 79.815l77.88-40.448L-5.33 63.969l-49.736 32.98-17.042-17.134zM-5.329 63.97l-28.514-4.027 28.514 4.027z" id="d"/><linearGradient x1="-.001%" y1="49.999%" x2="99.999%" y2="49.999%" id="e"><stop stop-color="#8BBD23" offset="0%"/><stop stop-color="#2A7523" offset="100%"/></linearGradient><path id="g" d="M-87.338-46.582h245.476v257.01H-87.338"/><path d="M77.97 35.294h39.471l25.255 13.118-29.737 21.29-34.99-34.408z" id="i"/><linearGradient x1="50.212%" y1="-7.66%" x2="49.444%" y2="89.178%" id="j"><stop stop-color="#457B25" offset="0%"/><stop stop-color="#5EB030" offset="100%"/></linearGradient><path id="l" d="M-87.338-46.582h245.476v257.01H-87.338"/><path id="n" d="M112.96 34.418l29.736-21.289-7.198 43.454z"/><linearGradient x1="-.002%" y1="50%" x2="100.003%" y2="50%" id="o"><stop stop-color="#795949" offset="0%"/><stop stop-color="#343F19" offset="100%"/></linearGradient><path d="M35.423 101.622l-.011-.03L120 93.824l.808 3.323-56.373 10.34 56.373-10.34 5.554 22.857c-30.314-6.126-60.627-12.254-90.939-18.382" id="q"/><linearGradient x1="0%" y1="50.003%" y2="50.003%" id="r"><stop stop-color="#8BBD23" offset="0%"/><stop stop-color="#1F601C" offset="100%"/></linearGradient><path id="t" d="M-87.59-46.582h245.476v257.01H-87.59"/><path d="M58.778 145.692l33.567-4.63.126-.017.012.268-33.705 40.535v-36.156z" id="v"/><linearGradient x1=".001%" y1="49.999%" y2="49.999%" id="w"><stop stop-color="#91A642" offset="0%"/><stop stop-color="#005138" offset="100%"/></linearGradient><path id="y" d="M-87.59-46.582h245.476v257.01H-87.59"/><path d="M35.375 144.072l78.751-31.836L120 136.402l-84.588 7.768-.037-.098" id="A"/><linearGradient x1=".001%" y1="49.999%" y2="49.999%" id="B"><stop stop-color="#009540" offset="0%"/><stop stop-color="#005138" offset="100%"/></linearGradient><path id="D" d="M-87.59-46.582h245.476v257.01H-87.59"/><path d="M34.554-4.973L55.83 43.361 34.554-4.973l.104-39.502 13.706-2.107L35.18-3.552l35.172 29.1-35.71 43.805-.284.349.195-74.675z" id="F"/><linearGradient x1="50.541%" y1="29.292%" x2="47.667%" y2="88.963%" id="G"><stop stop-color="#529449" offset="0%"/><stop stop-color="#005138" offset="100%"/></linearGradient><path id="I" d="M-87.59-46.582h245.476v257.01H-87.59"/><path d="M34.227 28.37L-1.021-15.806l35.38-30.776.195.443-.195 74.675a32.715 32.715 0 0 1-.132-.166" id="K"/><linearGradient x1="102.864%" y1="27.004%" x2="54.065%" y2="66.934%" id="L"><stop stop-color="#5B9F31" offset="0%"/><stop stop-color="#22A237" offset="76.246%"/><stop stop-color="#00A339" offset="100%"/></linearGradient><path id="N" d="M-87.59-46.582h245.476v257.01H-87.59"/><path id="P" d="M-52.763 136.755l1.626-18.023L.967 147.169z"/><linearGradient x1="50.634%" y1="1.339%" x2="49.867%" y2="98.591%" id="Q"><stop stop-color="#529449" offset="0%"/><stop stop-color="#005138" offset="100%"/></linearGradient><path id="S" d="M-87.59-46.582h245.476v257.01H-87.59"/><path d="M8.378 124.222l26.396 2.508-34.529 2.416 8.133-4.924zm-61.9-5.882l-.016.168.015-.168-34.067-3.238.367-.056 34.46-5.284 53.73 10.414 7.411 4.045-61.9-5.881z" id="U"/><linearGradient x1="73.319%" y1="189.405%" x2="32.736%" y2="-40.075%" id="V"><stop stop-color="#5CDB31" offset="0%"/><stop stop-color="#22A237" offset="24.65%"/><stop stop-color="#007632" offset="100%"/></linearGradient></defs><g transform="translate(97 49)" fill="none" fill-rule="evenodd"><path fill="#17321B" fill-rule="nonzero" d="M8.378 114.686l-7.41 4.045 33.807-6.553z"/><mask id="c" fill="#fff"><use xlink:href="#a"/></mask><path d="M92.362 7.405c-.065-.119-.128-.24-.192-.358L135.498.258l13.089 12.871-56.225-5.724z" fill="url(#b)" fill-rule="nonzero" mask="url(#c)" transform="matrix(1 0 0 -1 0 13.387)"/><mask id="f" fill="#fff"><use xlink:href="#d"/></mask><path d="M-72.107 79.815l77.88-40.448L-5.33 63.969l-49.736 32.98-17.042-17.134zM-5.329 63.97l-28.514-4.027 28.514 4.027z" fill="url(#e)" fill-rule="nonzero" mask="url(#f)" transform="matrix(1 0 0 -1 0 136.316)"/><mask id="h" fill="#fff"><use xlink:href="#g"/></mask><path fill="#7FA161" fill-rule="nonzero" mask="url(#h)" transform="matrix(1 0 0 -1 0 103.456)" d="M-5.33 31.109l-41.52 41.238-8.214-8.259z"/><path fill="#659866" fill-rule="nonzero" mask="url(#h)" transform="matrix(1 0 0 -1 0 82.277)" d="M-75.561 56.5l3.453-30.723 17.043 17.132z"/><path d="M-5.33 111.832L5.772 87.229l28.653-14.882-39.755 39.485z" fill="#659866" fill-rule="nonzero" mask="url(#h)" transform="matrix(1 0 0 -1 0 184.179)"/><path d="M34.426 6.07l.243-.127.086-.044-56.527 106.104 16.443-66.448L34.426 6.07z" fill="#346733" fill-rule="nonzero" mask="url(#h)" transform="matrix(1 0 0 -1 0 117.901)"/><path d="M77.97 54.921l9.835 55.168-50.908-95.557 41.072 40.39z" fill="#04672F" fill-rule="nonzero" mask="url(#h)" transform="matrix(1 0 0 -1 0 124.622)"/><path d="M142.696.211l6.314 56.162.024.21-.448-.045-13.089-12.871 7.2-43.456z" fill="#349837" fill-rule="nonzero" mask="url(#h)" transform="matrix(1 0 0 -1 0 56.795)"/><path fill="#98CB98" fill-rule="nonzero" mask="url(#h)" transform="matrix(1 0 0 -1 0 76.041)" d="M112.959 40.748l22.538 22.164v.001L92.17 69.7l-4.364-8.19-9.837-55.17z"/><path d="M36.898 71.697L35.834 69.7c.03.015.057.03.087.044 27.173 14.115 54.347 28.228 81.52 42.34H77.969L36.898 71.698z" fill="#56AE31" fill-rule="nonzero" mask="url(#h)" transform="matrix(1 0 0 -1 0 181.787)"/><mask id="k" fill="#fff"><use xlink:href="#i"/></mask><path d="M77.97 35.294h39.471l25.255 13.118-29.737 21.29-34.99-34.408z" fill="url(#j)" fill-rule="nonzero" mask="url(#k)" transform="matrix(1 0 0 -1 0 104.996)"/><mask id="m" fill="#fff"><use xlink:href="#l"/></mask><path fill="#8E7D4C" fill-rule="nonzero" mask="url(#m)" transform="matrix(1 0 0 -1 0 78.246)" d="M-5.33 5.899l-16.442 66.448-25.078-25.21z"/><mask id="p" fill="#fff"><use xlink:href="#n"/></mask><path fill="url(#o)" fill-rule="nonzero" mask="url(#p)" transform="matrix(1 0 0 -1 0 69.713)" d="M112.96 34.418l29.736-21.289-7.198 43.454z"/><mask id="s" fill="#fff"><use xlink:href="#q"/></mask><path d="M35.423 101.622l-.011-.03L120 93.824l.808 3.323-56.373 10.34 56.373-10.34 5.554 22.857c-30.314-6.126-60.627-12.254-90.939-18.382" fill="url(#r)" fill-rule="nonzero" mask="url(#s)" transform="matrix(1 0 0 -1 0 213.828)"/><mask id="u" fill="#fff"><use xlink:href="#t"/></mask><path fill="#349837" fill-rule="nonzero" mask="url(#u)" transform="matrix(1 0 0 -1 0 211.135)" d="M124.243 93.823l2.12 23.488-5.556-22.858z"/><path fill="#17321B" fill-rule="nonzero" mask="url(#u)" transform="matrix(1 0 0 -1 0 228.6)" d="M8.378 113.914L.245 118.84l-23.695 1.657-29.32-12.392z"/><path fill="#70B246" fill-rule="nonzero" mask="url(#u)" transform="matrix(1 0 0 -1 0 31.284)" d="M-21.772 25.385l-56.225 5.725L-46.85.174z"/><path fill="#333" fill-rule="nonzero" mask="url(#u)" transform="matrix(1 0 0 -1 0 217.305)" d="M157.887 93.823l-31.525 29.66-2.12-23.489z"/><path fill="#346733" fill-rule="nonzero" mask="url(#u)" transform="matrix(1 0 0 -1 0 226.476)" d="M-52.77 105.98l29.32 12.391-31.41 2.199 1.237-13.714.086-.95z"/><path fill="#CB9998" fill-rule="nonzero" mask="url(#u)" transform="matrix(1 0 0 -1 0 240.794)" d="M123.967 120.426l33.92-3.115-33.644 6.172z"/><path d="M-75.561 13.72L-55.065.127l8.215 8.259-31.148 30.935-.446.046.023-.21 2.86-25.439z" fill="#669832" fill-rule="nonzero" mask="url(#u)" transform="matrix(1 0 0 -1 0 39.496)"/><path d="M32.793 118.181c-.133-.3-1.14-2.333-.294-3.528 0 0 .915-1.292 3.528-.882 2.777.435 3.879 21.032-1.152 96.656l-.098-.263c.117-64.706-.73-89.139-1.984-91.983" fill="#346733" fill-rule="nonzero" mask="url(#u)" transform="matrix(1 0 0 -1 0 324.118)"/><path fill="#17321B" fill-rule="nonzero" mask="url(#u)" transform="matrix(1 0 0 -1 0 237.049)" d="M120.807 120.368l-.807-3.323 3.967-.364.276 3.057z"/><path fill="#346733" fill-rule="nonzero" mask="url(#u)" transform="matrix(1 0 0 -1 0 276.315)" d="M-73.106 143.226l21.968-14.081-1.625 18.025z"/><path d="M34.205 176.86l-24.74-30.221 1.963-34.107 23.349 63.246-.003 1.422c-.188-.114-.379-.227-.569-.34" fill="#346733" fill-rule="nonzero" mask="url(#u)" transform="matrix(1 0 0 -1 0 289.732)"/><path fill="#669832" fill-rule="nonzero" mask="url(#u)" transform="matrix(1 0 0 -1 0 322.624)" d="M64.703 180.465l-5.925 1.114 33.705-40.534 1.633 33.89-25.23-5.512z"/><path d="M47.336 162.643l-6.816-.458 6.816.458L35.23 177.2l-.126-.344c7.89-21.376 15.783-42.753 23.674-64.13v36.155l-11.442 13.76z" fill="#56AE31" fill-rule="nonzero" mask="url(#u)" transform="matrix(1 0 0 -1 0 289.928)"/><mask id="x" fill="#fff"><use xlink:href="#v"/></mask><path d="M58.778 145.692l33.567-4.63.126-.017.012.268-33.705 40.535v-36.156z" fill="url(#w)" fill-rule="nonzero" mask="url(#x)" transform="matrix(1 0 0 -1 0 322.893)"/><mask id="z" fill="#fff"><use xlink:href="#y"/></mask><path d="M-3.029 149.409l12.494 15.26-14.795 6.534-18.578-11.13 10.36-23.514 10.52 12.85z" fill="#98CB98" fill-rule="nonzero" mask="url(#z)" transform="matrix(1 0 0 -1 0 307.762)"/><path fill="#333" fill-rule="nonzero" mask="url(#z)" transform="matrix(1 0 0 -1 0 320.293)" d="M-3.029 161.939l14.458-18.846L9.465 177.2z"/><path d="M-13.548 168.998l-8.715-10.645.126.017L11.429 163-3.03 181.848l-10.52-12.85z" fill="#349837" fill-rule="nonzero" mask="url(#z)" transform="matrix(1 0 0 -1 0 340.201)"/><path fill="#17321B" fill-rule="nonzero" mask="url(#z)" transform="matrix(1 0 0 -1 0 329.537)" d="M-23.908 181.848l1.632-33.89.013-.269 8.714 10.645z"/><path fill="#A5CD87" fill-rule="nonzero" mask="url(#z)" transform="matrix(1 0 0 -1 0 268.677)" d="M58.778 127.632l5.926-1.114-5.926 15.641-11.441-.767z"/><mask id="C" fill="#fff"><use xlink:href="#A"/></mask><path d="M35.375 144.072l78.751-31.836L120 136.402l-84.588 7.768-.037-.098" fill="url(#B)" fill-rule="nonzero" mask="url(#C)" transform="matrix(1 0 0 -1 0 256.405)"/><mask id="E" fill="#fff"><use xlink:href="#D"/></mask><path d="M157.887 144.056l-33.92 3.114-2.419-26.802 36.453 23.364s.068.045.137.088l-.251.236z" fill="#346733" fill-rule="nonzero" mask="url(#E)" transform="matrix(1 0 0 -1 0 267.538)"/><path d="M120 147.17l-5.872-24.166 7.42-3 2.418 26.802-3.966.364z" fill="#A5CD87" fill-rule="nonzero" mask="url(#E)" transform="matrix(1 0 0 -1 0 267.173)"/><path fill="#339937" fill-rule="nonzero" mask="url(#E)" transform="matrix(1 0 0 -1 0 295.36)" d="M68.886 142.16l25.23 5.512-29.413 5.529z"/><path d="M94.115 126.518l-35.337 21.171 5.925-15.641 29.412-5.53z" fill="#04672F" fill-rule="nonzero" mask="url(#E)" transform="matrix(1 0 0 -1 0 274.207)"/><path d="M35.292 127.194l-.062-.167 12.106-14.56 11.442.767-23.451 14.051-.03-.101a.087.087 0 0 0-.005.01" fill="#17321B" fill-rule="nonzero" mask="url(#E)" transform="matrix(1 0 0 -1 0 239.753)"/><path d="M34.205 143.093L-5.33 119.408l28.365 10.04-28.365-10.04 14.797-6.535 24.74 30.22z" fill="#659866" fill-rule="nonzero" mask="url(#E)" transform="matrix(1 0 0 -1 0 255.966)"/><mask id="H" fill="#fff"><use xlink:href="#F"/></mask><path d="M34.554-4.973L55.83 43.361 34.554-4.973l.104-39.502 13.706-2.107L35.18-3.552l35.172 29.1-35.71 43.805-.284.349.195-74.675z" fill="url(#G)" fill-rule="nonzero" mask="url(#H)" transform="matrix(1 0 0 -1 0 23.12)"/><mask id="J" fill="#fff"><use xlink:href="#I"/></mask><path d="M34.554 37.262l-.195-.443-35.38 30.775L20.373-.045 34.658-2.24l-.104 39.502z" fill="#0CA438" fill-rule="nonzero" mask="url(#J)" transform="matrix(1 0 0 -1 0 65.355)"/><mask id="M" fill="#fff"><use xlink:href="#K"/></mask><path d="M34.227 28.37L-1.021-15.806l35.38-30.776.195.443-.195 74.675a32.715 32.715 0 0 1-.132-.166" fill="url(#L)" fill-rule="nonzero" mask="url(#M)" transform="matrix(1 0 0 -1 0 -18.046)"/><mask id="O" fill="#fff"><use xlink:href="#N"/></mask><path d="M35.69-1.825L70.352 111.88 35.18 82.782l13.184-43.03-13.706 2.106.113-43.316.307-.97.612.603z" fill="#1B612C" fill-rule="nonzero" mask="url(#O)" transform="matrix(1 0 0 -1 0 109.452)"/><path d="M20.375 110.91L34.77 65.4l-.114 43.315-14.282 2.195z" fill="#17321B" fill-rule="nonzero" mask="url(#O)" transform="matrix(1 0 0 -1 0 176.31)"/><path d="M-53.623 109.185l-14.206 14.62-19.646-18.484-.251-.236.136-.086 34.053 3.235-.086.95z" fill="#669832" fill-rule="nonzero" mask="url(#O)" transform="matrix(1 0 0 -1 0 228.804)"/><path d="M-23.45 93.823l12.34 5.216c-14.947 3.023-29.894 6.044-44.84 9.065l1.089-12.083 31.41-2.198z" fill="#099339" fill-rule="nonzero" mask="url(#O)" transform="matrix(1 0 0 -1 0 201.927)"/><path fill="#98CB98" fill-rule="nonzero" mask="url(#O)" transform="matrix(1 0 0 -1 0 199.73)" d="M-55.95 105.906L-67.83 94.731l12.968-.908z"/><path fill="#17321B" fill-rule="nonzero" mask="url(#O)" transform="matrix(1 0 0 -1 0 224.617)" d="M-54.86 118.711l-12.97.908 14.207-14.62z"/><path fill="#069F39" fill-rule="nonzero" mask="url(#O)" transform="matrix(1 0 0 -1 0 256.894)" d="M-87.59 133.089l14.485-9.284 20.342 3.944z"/><mask id="R" fill="#fff"><use xlink:href="#P"/></mask><path fill="url(#Q)" fill-rule="nonzero" mask="url(#R)" transform="matrix(1 0 0 -1 0 265.9)" d="M-52.763 136.755l1.626-18.023L.967 147.169z"/><mask id="T" fill="#fff"><use xlink:href="#S"/></mask><path d="M.968 140.617l-52.105-28.44 85.591 34.601.32.392-33.806-6.553z" fill="#3B6429" fill-rule="nonzero" mask="url(#T)" transform="matrix(1 0 0 -1 0 259.347)"/><path fill="#996" fill-rule="nonzero" mask="url(#T)" transform="matrix(1 0 0 -1 0 212.649)" d="M.245 102.887l-11.355 6.875-12.341-5.217z"/><path d="M33.457 102.98l1.317-.093-.02.02-45.864 9.271 11.354-6.874 33.213-2.324z" fill="#669832" fill-rule="nonzero" mask="url(#T)" transform="matrix(1 0 0 -1 0 215.065)"/><mask id="W" fill="#fff"><use xlink:href="#U"/></mask><path d="M8.378 124.222l26.396 2.508-34.529 2.416 8.133-4.924zm-61.9-5.882l-.016.168.015-.168-34.067-3.238.367-.056 34.46-5.284 53.73 10.414 7.411 4.045-61.9-5.881z" fill="url(#V)" fill-rule="nonzero" mask="url(#W)" transform="matrix(1 0 0 -1 0 238.908)"/></g></svg>