<svg id="Слой_1" xmlns="http://www.w3.org/2000/svg" viewBox="0 0 300 80"><defs><style>.cls-2{fill:#0091ea}.cls-3{fill:#00c853}.cls-4{fill:#929497}</style></defs><title>logo_for_wiki</title><path class="cls-2" d="M78.9 27.62h-12a3.59 3.59 0 0 0-3.59 3.59 3.58 3.58 0 0 0 .21 1.2h-2.8a3.58 3.58 0 0 0 .21-1.2 3.59 3.59 0 0 0-3.59-3.59h-12a3.59 3.59 0 0 0-3.59 3.59v21.51a3.59 3.59 0 0 0 3.59 3.59h2.39a3.59 3.59 0 0 0 3.59-3.59V33.6h.91A3.58 3.58 0 0 0 55 34.79h2.6a3.58 3.58 0 0 0-.21 1.2v16.73A3.59 3.59 0 0 0 61 56.3h2.39a3.59 3.59 0 0 0 3.59-3.59v-17a3.39 3.39 0 0 0-.14-1h2.53A3.58 3.58 0 0 0 72 33.6h.91v19.12a3.59 3.59 0 0 0 3.59 3.59h2.4a3.59 3.59 0 0 0 3.59-3.59V31.21a3.59 3.59 0 0 0-3.59-3.59z"/><path class="cls-3" d="M256.42 27.9a3 3 0 0 0-4 1.45l-2 4.29-4.59 9.84-6.2-13.78a3.58 3.58 0 0 0-4.73-1.7l-2.17 1a3.59 3.59 0 0 0-1.73 4.73l9.22 20.5a3.58 3.58 0 0 0 3.24 2.07h1.12a3 3 0 0 0 2.7-1.73l3-6.47 2.56-5.49c0-.08.07-.16.1-.24l4.9-10.51a3 3 0 0 0-1.42-3.96z"/><path class="cls-2" d="M134 13.21a2.15 2.15 0 0 1-1.27-3.89 40.41 40.41 0 0 1 47.61 0 2.15 2.15 0 1 1-2.54 3.47 36.1 36.1 0 0 0-42.53 0 2.14 2.14 0 0 1-1.27.42z"/><path class="cls-2" d="M174 17.88a1.67 1.67 0 0 1-.94-.29 29.42 29.42 0 0 0-32.9 0 1.67 1.67 0 0 1-1.87-2.77 32.76 32.76 0 0 1 36.65 0 1.67 1.67 0 0 1-.94 3.06z"/><path class="cls-2" d="M144.38 22.6a1.2 1.2 0 0 1-.61-2.22 25.12 25.12 0 0 1 25.61 0 1.2 1.2 0 0 1-1.22 2.05 22.73 22.73 0 0 0-23.17 0 1.19 1.19 0 0 1-.61.17z"/><rect class="cls-2" x="151.82" y="27.62" width="9.56" height="28.68" rx="3.59" ry="3.59"/><path class="cls-3" d="M190 18.06h-2.39a3.59 3.59 0 0 0-3.59 3.59v6h-14.3a3.59 3.59 0 0 0-3.59 3.59v21.48a3.59 3.59 0 0 0 3.59 3.59H190a3.59 3.59 0 0 0 3.59-3.59V21.65a3.59 3.59 0 0 0-3.59-3.59zm-6 31.06a1.2 1.2 0 0 1-1.2 1.2h-6a1.2 1.2 0 0 1-1.2-1.2V34.78a1.2 1.2 0 0 1 1.2-1.2h6a1.2 1.2 0 0 1 1.2 1.2zm35.91-4.77h2.39a3.59 3.59 0 0 0 3.59-3.59v-9.55a3.59 3.59 0 0 0-3.59-3.59H202a3.59 3.59 0 0 0-3.59 3.59v21.51A3.59 3.59 0 0 0 202 56.3h20.3a3.59 3.59 0 0 0 0-7.17h-2.39a3.58 3.58 0 0 0-2.67 1.2H208v-6zm-12-9.57a1.2 1.2 0 0 1 1.2-1.2h6a1.2 1.2 0 0 1 1.2 1.2v2.39a1.2 1.2 0 0 1-1.2 1.2h-6a1.2 1.2 0 0 1-1.2-1.2z"/><path class="cls-2" d="M143.43 27.62h-14.34v-6a3.59 3.59 0 0 0-3.59-3.59h-2.39a3.59 3.59 0 0 0-3.59 3.59v31.1a3.59 3.59 0 0 0 3.59 3.59h20.32a3.59 3.59 0 0 0 3.57-3.59V31.21a3.59 3.59 0 0 0-3.57-3.59zm-6 21.5a1.2 1.2 0 0 1-1.2 1.2h-6a1.2 1.2 0 0 1-1.2-1.2V34.78a1.2 1.2 0 0 1 1.2-1.2h6a1.2 1.2 0 0 1 1.2 1.2zm-26.27-21.5H90.85a3.59 3.59 0 0 0-3.59 3.59v21.51a3.59 3.59 0 0 0 3.59 3.59h20.32a3.59 3.59 0 0 0 3.59-3.59V31.21a3.59 3.59 0 0 0-3.6-3.59zm-6 21.5a1.2 1.2 0 0 1-1.2 1.2H98a1.2 1.2 0 0 1-1.2-1.2V34.78a1.2 1.2 0 0 1 1.2-1.2h6a1.2 1.2 0 0 1 1.2 1.2z"/><path class="cls-4" d="M196.52 67.8v2a1.78 1.78 0 0 1-.94 1.71 5.73 5.73 0 0 1-2.66.5h-1.42v3.56h-1.41v-9.64h4.09a5.79 5.79 0 0 1 .9.14 2.2 2.2 0 0 1 .76.31 1.61 1.61 0 0 1 .48.55 1.7 1.7 0 0 1 .2.87zm-1.38 1.9V68a1 1 0 0 0-.2-.65 1.08 1.08 0 0 0-.58-.36 3.79 3.79 0 0 0-.63-.12h-2.22v4.23h1.62a3 3 0 0 0 1.44-.31 1.13 1.13 0 0 0 .56-1.09zm8.52 5.84h-1.27v-.82q-.16.82-2.13.82a3.37 3.37 0 0 1-2-.44 2.23 2.23 0 0 1-.56-1.8 2.06 2.06 0 0 1 .52-1.63 3.29 3.29 0 0 1 2-.44h2.11V70.1a.83.83 0 0 0-.36-.79 3 3 0 0 0-1.35-.2 18.88 18.88 0 0 0-2.42.17v-1q1.44-.13 2.61-.13a4 4 0 0 1 2.3.43 2.28 2.28 0 0 1 .52 1.79zM202.35 74v-2h-2a1.74 1.74 0 0 0-1.13.23 1.66 1.66 0 0 0-.23 1.06 1.7 1.7 0 0 0 .24 1 1.28 1.28 0 0 0 1 .3h.9a4 4 0 0 0 .58-.08 1 1 0 0 0 .49-.22.52.52 0 0 0 .15-.29zm8.96-1.08v.61a1.64 1.64 0 0 1-.79 1.57 4.81 4.81 0 0 1-2.28.44 18 18 0 0 1-2.42-.17v-1a18.41 18.41 0 0 0 2.45.28 3.88 3.88 0 0 0 1.31-.17.67.67 0 0 0 .44-.69v-.71a.69.69 0 0 0-.31-.64 2 2 0 0 0-1-.19h-.8a2.62 2.62 0 0 1-1.68-.46 1.53 1.53 0 0 1-.57-1.26v-.66q0-1.66 3.15-1.66.35 0 2.14.12v.95a13.93 13.93 0 0 0-2.2-.2 3.33 3.33 0 0 0-1.42.2.72.72 0 0 0-.37.69v.6q0 .71 1.3.71h.82q2.23-.02 2.23 1.64zm6.75 0v.61a1.64 1.64 0 0 1-.79 1.57 4.81 4.81 0 0 1-2.28.44 18 18 0 0 1-2.42-.17v-1a18.41 18.41 0 0 0 2.45.28 3.88 3.88 0 0 0 1.31-.17.67.67 0 0 0 .44-.69v-.71a.69.69 0 0 0-.31-.64 2 2 0 0 0-1-.19h-.8a2.62 2.62 0 0 1-1.68-.46 1.53 1.53 0 0 1-.57-1.26v-.66q0-1.66 3.15-1.66.35 0 2.14.12v.95a13.93 13.93 0 0 0-2.2-.2 3.33 3.33 0 0 0-1.42.2.72.72 0 0 0-.37.69v.6q0 .71 1.3.71h.82q2.23-.02 2.23 1.64zm1.96-6.99h1.31v1.37h-1.31zm0 2.41h1.31v7.21h-1.31zm9.98 2.38v2.45a3.34 3.34 0 0 1-.16 1.11 1.85 1.85 0 0 1-.41.7 1.6 1.6 0 0 1-.71.38 4.29 4.29 0 0 1-.87.16h-1.1a12.24 12.24 0 0 1-1.36-.06 3.23 3.23 0 0 1-1-.28 1.35 1.35 0 0 1-.7-.72 3.39 3.39 0 0 1-.21-1.31v-2.43a3.61 3.61 0 0 1 .17-1.18 2.13 2.13 0 0 1 .41-.74 1.52 1.52 0 0 1 .71-.4 4.13 4.13 0 0 1 .87-.17h2.2a4.13 4.13 0 0 1 .87.17 1.53 1.53 0 0 1 .71.4 2.13 2.13 0 0 1 .41.74 3.62 3.62 0 0 1 .17 1.18zm-1.34 2.64V70.5q0-1-.39-1.21a5 5 0 0 0-3 0q-.39.23-.39 1.21v2.86a2.2 2.2 0 0 0 .1.74.68.68 0 0 0 .38.4 1.82 1.82 0 0 0 .57.15h1.72a1.83 1.83 0 0 0 .57-.15.68.68 0 0 0 .38-.4 2.21 2.21 0 0 0 .05-.74zm9.59 2.19h-1.31v-5.26a1.84 1.84 0 0 0 0-.44 1 1 0 0 0-.18-.36.87.87 0 0 0-.47-.28 3 3 0 0 0-.82-.09 3.24 3.24 0 0 0-1.55.25 1 1 0 0 0-.39.92v5.25h-1.31v-7.2h1.31v.86q.2-1 2.32-1a2.8 2.8 0 0 1 1.92.5 2 2 0 0 1 .52 1.52zm4.2-9.62l-.51 6.94h-.73l-.51-6.94zm-117.52 6.26v.69a2.33 2.33 0 0 1-.86 2.09 4.91 4.91 0 0 1-2.68.58 22.16 22.16 0 0 1-2.89-.23v-1.19a14.64 14.64 0 0 0 3 .36 4.09 4.09 0 0 0 1.54-.23.89.89 0 0 0 .53-.91v-1.22a1 1 0 0 0-.34-.85A2.16 2.16 0 0 0 122 71h-1.11a2.73 2.73 0 0 1-2-.58 2.34 2.34 0 0 1-.56-1.7V68a1.87 1.87 0 0 1 .79-1.66 5.59 5.59 0 0 1 2.92-.54 22.08 22.08 0 0 1 2.43.16V67a17.85 17.85 0 0 0-2.54-.25 4 4 0 0 0-1.8.27 1 1 0 0 0-.44.91V69a.8.8 0 0 0 .35.72 2.43 2.43 0 0 0 1.24.23h1.14a2.82 2.82 0 0 1 2 .53 2.32 2.32 0 0 1 .51 1.71zm2.08-6.26h1.31v1.37h-1.31zm0 2.41h1.31v7.22h-1.31zm14.44 7.21h-1.31v-5.24a1.84 1.84 0 0 0 0-.44 1 1 0 0 0-.18-.36.87.87 0 0 0-.47-.28 3 3 0 0 0-.82-.09 2.82 2.82 0 0 0-1.48.25 1.09 1.09 0 0 0-.33.92v5.24h-1.36v-5.24a1.84 1.84 0 0 0 0-.44 1 1 0 0 0-.18-.36.87.87 0 0 0-.46-.28 2.94 2.94 0 0 0-.82-.09 3.32 3.32 0 0 0-1.55.24 1 1 0 0 0-.39.93v5.24h-1.31v-7.21h1.31v.86q.2-1 2.38-1 1.76 0 2.2 1a1.16 1.16 0 0 1 .82-.73 4.92 4.92 0 0 1 1.6-.23 2.69 2.69 0 0 1 1.87.5 2 2 0 0 1 .52 1.52zm8.85-2.46a2.94 2.94 0 0 1-.19 1.11 1.92 1.92 0 0 1-.47.72 2 2 0 0 1-.75.4 4.22 4.22 0 0 1-.87.18h-1a4.46 4.46 0 0 1-1.14-.15 1 1 0 0 1-.7-.45v3.48h-1.31V68.34h1.3v.76q.16-.9 2.41-.9a3 3 0 0 1 2.06.59 1.84 1.84 0 0 1 .65 1.41zm-1.34.16v-2.6q0-1-.42-1.25a3 3 0 0 0-1.5-.27 2.83 2.83 0 0 0-1.47.26q-.39.26-.39 1.25v2.6q0 .89.4 1.14a3 3 0 0 0 1.47.26 3.09 3.09 0 0 0 1.49-.26q.46-.24.46-1.13zm4.81 2.31h-1.31V65.19h1.31zm2.42-9.63h1.31v1.37h-1.31zm0 2.41h1.31v7.22h-1.31zm8.81 7a11 11 0 0 1-2.26.2h-1a4.17 4.17 0 0 1-.82-.15 1.58 1.58 0 0 1-.7-.36 1.9 1.9 0 0 1-.42-.68 3 3 0 0 1-.18-1.1v-2.6a4.06 4.06 0 0 1 .11-1 1.63 1.63 0 0 1 .34-.69 2.38 2.38 0 0 1 .48-.42 1.73 1.73 0 0 1 .68-.23q.43-.07.76-.09h.88a9.44 9.44 0 0 1 2 .22v1a8.75 8.75 0 0 0-2.17-.29 2.53 2.53 0 0 0-1.42.26 1.4 1.4 0 0 0-.33 1.11v2.89a1.17 1.17 0 0 0 .37 1 3 3 0 0 0 1.52.26 8.65 8.65 0 0 0 2.13-.28zm3.14-8.03h-1.31v-1.37h1.31zm0 8.24h-1.31V68.5h1.31zm6.86-.12a9 9 0 0 1-1.47.12 2.85 2.85 0 0 1-1.85-.46 2.27 2.27 0 0 1-.52-1.74V69.2h-1.57v-.86h1.57v-2.41h1.33v2.41H175v.86h-2.52v4.21a1.33 1.33 0 0 0 .29 1 1.9 1.9 0 0 0 1.18.26 10 10 0 0 0 1-.12zm7-7.09l-3.54 10.09h-1.37l1.11-2.93-2.73-7.16h1.43l2 5.76 1.78-5.76zM67.49 75.55h-1.24v-8.16h-.07l-3 8h-1.32l-3.13-8h-.07v8.16h-1.27v-9.62h2.11l3 7.87 2.87-7.89h2zm8.75-4.84v2.45a3.34 3.34 0 0 1-.16 1.11 1.85 1.85 0 0 1-.41.7 1.6 1.6 0 0 1-.71.38 4.29 4.29 0 0 1-.87.16h-1.1a12.24 12.24 0 0 1-1.36-.06 3.23 3.23 0 0 1-1-.28 1.35 1.35 0 0 1-.7-.72 3.39 3.39 0 0 1-.21-1.31v-2.43a3.62 3.62 0 0 1 .17-1.18 2.13 2.13 0 0 1 .41-.74 1.52 1.52 0 0 1 .71-.4 4.13 4.13 0 0 1 .87-.17h2.2a4.13 4.13 0 0 1 .87.17 1.53 1.53 0 0 1 .71.4 2.13 2.13 0 0 1 .41.74 3.62 3.62 0 0 1 .17 1.18zm-1.34 2.64v-2.86q0-1-.39-1.21a5 5 0 0 0-3 0q-.39.23-.39 1.21v2.86a2.21 2.21 0 0 0 .1.74.68.68 0 0 0 .38.4 1.82 1.82 0 0 0 .57.15h1.72a1.83 1.83 0 0 0 .57-.15.68.68 0 0 0 .38-.4 2.21 2.21 0 0 0 .06-.74zm9.95-3.16v2.9a2.94 2.94 0 0 1-.19 1.11 1.92 1.92 0 0 1-.47.72 2 2 0 0 1-.75.4 4.22 4.22 0 0 1-.87.18h-1a8.57 8.57 0 0 1-1.24-.07 3.35 3.35 0 0 1-1-.31 1.48 1.48 0 0 1-.71-.75 3.22 3.22 0 0 1-.23-1.32v-7.9h1.31v3.83q.06-.34.61-.56a4.42 4.42 0 0 1 1.61-.23q2.93 0 2.93 2zm-1.34 3.09v-2.77q0-.9-.42-1.14a3.3 3.3 0 0 0-1.5-.24 2.72 2.72 0 0 0-1.44.28 1.26 1.26 0 0 0-.41 1.11v2.77q0 .89.4 1.14a3 3 0 0 0 1.47.26 3.08 3.08 0 0 0 1.49-.26q.41-.26.41-1.15zm3.5-7.35h1.31v1.37h-1.31zm0 2.41h1.31v7.21h-1.31zm5.05 7.21h-1.32V65.19h1.31zm2.42-9.62h1.31v1.37h-1.31zm0 2.41h1.31v7.22h-1.31zm8.16 7.08a9 9 0 0 1-1.47.12 2.85 2.85 0 0 1-1.85-.46 2.27 2.27 0 0 1-.52-1.74V69.2h-1.58v-.86h1.57v-2.41h1.33v2.41h2.52v.86h-2.52v4.21a1.33 1.33 0 0 0 .29 1 1.9 1.9 0 0 0 1.18.26 10 10 0 0 0 1-.12zm7.06-7.08l-3.54 10.09h-1.37l1.11-2.93-2.73-7.16h1.43l2 5.76 1.78-5.76zm.05 5.9h1.31v1.31h-1.31zm72.3 0h1.31v1.31h-1.31zm58.87 0h1.31v1.31h-1.31z"/></svg>