<svg id="Слой_1" xmlns="http://www.w3.org/2000/svg" viewBox="0 0 300 80"><defs><style>.cls-2{fill:#0091ea;}.cls-3{fill:#00c853;}.cls-4{fill:#929497;}</style></defs><title>logo_for_wiki</title>
<path class="cls-2" d="M78.9,27.62h-12a3.59,3.59,0,0,0-3.59,3.59h0a3.58,3.58,0,0,0,.21,1.2h-2.8a3.58,3.58,0,0,0,.21-1.2h0a3.59,3.59,0,0,0-3.59-3.59h-12a3.59,3.59,0,0,0-3.59,3.59V52.72a3.59,3.59,0,0,0,3.59,3.59h2.39a3.59,3.59,0,0,0,3.59-3.59V33.6h.91A3.58,3.58,0,0,0,55,34.79h2.6a3.58,3.58,0,0,0-.21,1.2V52.72A3.59,3.59,0,0,0,61,56.3h2.39a3.59,3.59,0,0,0,3.59-3.59v-17a3.39,3.39,0,0,0-.14-1h2.53A3.58,3.58,0,0,0,72,33.6h.91V52.72a3.59,3.59,0,0,0,3.59,3.59H78.9a3.59,3.59,0,0,0,3.59-3.59V31.21A3.59,3.59,0,0,0,78.9,27.62Z"/><path class="cls-3" d="M256.42,27.9a3,3,0,0,0-4,1.45l-2,4.29h0l-4.59,9.84-6.2-13.78A3.58,3.58,0,0,0,234.9,28l-2.17,1A3.59,3.59,0,0,0,231,33.73l9.22,20.5a3.58,3.58,0,0,0,3.24,2.07h1.12a3,3,0,0,0,2.7-1.73l3-6.47h0l2.56-5.49c0-.08.07-.16.1-.24l4.9-10.51A3,3,0,0,0,256.42,27.9Z"/><path class="cls-2" d="M134,13.21a2.15,2.15,0,0,1-1.27-3.89,40.41,40.41,0,0,1,47.61,0,2.15,2.15,0,1,1-2.54,3.47,36.1,36.1,0,0,0-42.53,0A2.14,2.14,0,0,1,134,13.21Z"/><path class="cls-2" d="M174,17.88a1.67,1.67,0,0,1-.94-.29,29.42,29.42,0,0,0-32.9,0,1.67,1.67,0,0,1-1.87-2.77,32.76,32.76,0,0,1,36.65,0,1.67,1.67,0,0,1-.94,3.06Z"/><path class="cls-2" d="M144.38,22.6a1.2,1.2,0,0,1-.61-2.22,25.12,25.12,0,0,1,25.61,0,1.2,1.2,0,0,1-1.22,2.05,22.73,22.73,0,0,0-23.17,0A1.19,1.19,0,0,1,144.38,22.6Z"/><rect class="cls-2" x="151.82" y="27.62" width="9.56" height="28.68" rx="3.59" ry="3.59"/><path class="cls-3" d="M190,18.06h-2.39a3.59,3.59,0,0,0-3.59,3.59v6H169.72a3.59,3.59,0,0,0-3.59,3.59V52.72a3.59,3.59,0,0,0,3.59,3.59H190a3.59,3.59,0,0,0,3.59-3.59V21.65A3.59,3.59,0,0,0,190,18.06Zm-6,31.06a1.2,1.2,0,0,1-1.2,1.2h-6a1.2,1.2,0,0,1-1.2-1.2V34.78a1.2,1.2,0,0,1,1.2-1.2h6a1.2,1.2,0,0,1,1.2,1.2Z"/><path class="cls-3" d="M219.91,44.35h2.39a3.59,3.59,0,0,0,3.59-3.59V31.21a3.59,3.59,0,0,0-3.59-3.59H202a3.59,3.59,0,0,0-3.59,3.59V52.72A3.59,3.59,0,0,0,202,56.3H222.3a3.59,3.59,0,0,0,0-7.17h-2.39a3.58,3.58,0,0,0-2.67,1.2H208v-6Zm-12-9.57a1.2,1.2,0,0,1,1.2-1.2h6a1.2,1.2,0,0,1,1.2,1.2v2.39a1.2,1.2,0,0,1-1.2,1.2h-6a1.2,1.2,0,0,1-1.2-1.2Z"/><path class="cls-2" d="M143.43,27.62H129.09v-6a3.59,3.59,0,0,0-3.59-3.59h-2.39a3.59,3.59,0,0,0-3.59,3.59V52.72a3.59,3.59,0,0,0,3.59,3.59h20.32A3.59,3.59,0,0,0,147,52.72V31.21A3.59,3.59,0,0,0,143.43,27.62Zm-6,21.5a1.2,1.2,0,0,1-1.2,1.2h-6a1.2,1.2,0,0,1-1.2-1.2V34.78a1.2,1.2,0,0,1,1.2-1.2h6a1.2,1.2,0,0,1,1.2,1.2Z"/><path class="cls-2" d="M111.16,27.62H90.85a3.59,3.59,0,0,0-3.59,3.59V52.72a3.59,3.59,0,0,0,3.59,3.59h20.32a3.59,3.59,0,0,0,3.59-3.59V31.21A3.59,3.59,0,0,0,111.16,27.62Zm-6,21.5a1.2,1.2,0,0,1-1.2,1.2H98a1.2,1.2,0,0,1-1.2-1.2V34.78a1.2,1.2,0,0,1,1.2-1.2h6a1.2,1.2,0,0,1,1.2,1.2Z"/><path class="cls-4" d="M196.52,67.8v2a1.78,1.78,0,0,1-.94,1.71,5.73,5.73,0,0,1-2.66.5H191.5v3.56h-1.41V65.93h3.09q.58,0,1,0a5.79,5.79,0,0,1,.9.14,2.2,2.2,0,0,1,.76.31,1.61,1.61,0,0,1,.48.55A1.7,1.7,0,0,1,196.52,67.8Zm-1.38,1.9V68a1,1,0,0,0-.2-.65,1.08,1.08,0,0,0-.58-.36,3.79,3.79,0,0,0-.63-.12l-.63,0h-1.59V71.1h1.62a3,3,0,0,0,1.44-.31A1.13,1.13,0,0,0,195.13,69.7Z"/><path class="cls-4" d="M203.66,75.54h-1.27v-.82q-.16.82-2.13.82a3.37,3.37,0,0,1-2-.44,2.23,2.23,0,0,1-.56-1.8,2.06,2.06,0,0,1,.52-1.63,3.29,3.29,0,0,1,2-.44h2.11V70.1a.83.83,0,0,0-.36-.79,3,3,0,0,0-1.35-.2,18.88,18.88,0,0,0-2.42.17v-1q1.44-.13,2.61-.13a4,4,0,0,1,2.3.43,2.28,2.28,0,0,1,.52,1.79ZM202.35,74V72h-2a1.74,1.74,0,0,0-1.13.23,1.66,1.66,0,0,0-.23,1.06,1.7,1.7,0,0,0,.24,1,1.28,1.28,0,0,0,1,.3h.9a4,4,0,0,0,.58-.08,1,1,0,0,0,.49-.22A.52.52,0,0,0,202.35,74Z"/><path class="cls-4" d="M211.31,72.92v.61a1.64,1.64,0,0,1-.79,1.57,4.81,4.81,0,0,1-2.28.44,18,18,0,0,1-2.42-.17v-1a18.41,18.41,0,0,0,2.45.28,3.88,3.88,0,0,0,1.31-.17.67.67,0,0,0,.44-.69v-.71a.69.69,0,0,0-.31-.64,2,2,0,0,0-1-.19h-.8a2.62,2.62,0,0,1-1.68-.46,1.53,1.53,0,0,1-.57-1.26v-.66q0-1.66,3.15-1.66.35,0,2.14.12v.95a13.93,13.93,0,0,0-2.2-.2,3.33,3.33,0,0,0-1.42.2.72.72,0,0,0-.37.69v.6q0,.71,1.3.71h.82Q211.31,71.26,211.31,72.92Z"/><path class="cls-4" d="M218.06,72.92v.61a1.64,1.64,0,0,1-.79,1.57,4.81,4.81,0,0,1-2.28.44,18,18,0,0,1-2.42-.17v-1a18.41,18.41,0,0,0,2.45.28,3.88,3.88,0,0,0,1.31-.17.67.67,0,0,0,.44-.69v-.71a.69.69,0,0,0-.31-.64,2,2,0,0,0-1-.19h-.8a2.62,2.62,0,0,1-1.68-.46,1.53,1.53,0,0,1-.57-1.26v-.66q0-1.66,3.15-1.66.35,0,2.14.12v.95a13.93,13.93,0,0,0-2.2-.2,3.33,3.33,0,0,0-1.42.2.72.72,0,0,0-.37.69v.6q0,.71,1.3.71h.82Q218.06,71.26,218.06,72.92Z"/><rect class="cls-4" x="220.02" y="65.93" width="1.31" height="1.37"/><rect class="cls-4" x="220.02" y="68.34" width="1.31" height="7.21"/><path class="cls-4" d="M230,70.72v2.45a3.34,3.34,0,0,1-.16,1.11,1.85,1.85,0,0,1-.41.7,1.6,1.6,0,0,1-.71.38,4.29,4.29,0,0,1-.87.16q-.42,0-1.1,0a12.24,12.24,0,0,1-1.36-.06,3.23,3.23,0,0,1-1-.28,1.35,1.35,0,0,1-.7-.72,3.39,3.39,0,0,1-.21-1.31V70.72a3.61,3.61,0,0,1,.17-1.18,2.13,2.13,0,0,1,.41-.74,1.52,1.52,0,0,1,.71-.4,4.13,4.13,0,0,1,.87-.17q.4,0,1.1,0t1.1,0a4.13,4.13,0,0,1,.87.17,1.53,1.53,0,0,1,.71.4,2.13,2.13,0,0,1,.41.74A3.62,3.62,0,0,1,230,70.72Zm-1.34,2.64V70.5q0-1-.39-1.21a5,5,0,0,0-3,0q-.39.23-.39,1.21v2.86a2.2,2.2,0,0,0,.1.74.68.68,0,0,0,.38.4,1.82,1.82,0,0,0,.57.15q.29,0,.86,0t.86,0a1.83,1.83,0,0,0,.57-.15.68.68,0,0,0,.38-.4A2.21,2.21,0,0,0,228.65,73.36Z"/><path class="cls-4" d="M238.25,75.55h-1.31V70.29a1.84,1.84,0,0,0,0-.44,1,1,0,0,0-.18-.36.87.87,0,0,0-.47-.28,3,3,0,0,0-.82-.09,3.24,3.24,0,0,0-1.55.25,1,1,0,0,0-.39.92v5.25h-1.31V68.34h1.31v.86q.2-1,2.32-1a2.8,2.8,0,0,1,1.92.5,2,2,0,0,1,.52,1.52Z"/><path class="cls-4" d="M242.45,65.93l-.51,6.94h-.73l-.51-6.94Z"/><path class="cls-4" d="M124.93,72.19v.69a2.33,2.33,0,0,1-.86,2.09,4.91,4.91,0,0,1-2.68.58,22.16,22.16,0,0,1-2.89-.23V74.13a14.64,14.64,0,0,0,3,.36,4.09,4.09,0,0,0,1.54-.23.89.89,0,0,0,.53-.91V72.13a1,1,0,0,0-.34-.85A2.16,2.16,0,0,0,122,71h-1.11a2.73,2.73,0,0,1-2-.58,2.34,2.34,0,0,1-.56-1.7V68a1.87,1.87,0,0,1,.79-1.66,5.59,5.59,0,0,1,2.92-.54,22.08,22.08,0,0,1,2.43.16V67a17.85,17.85,0,0,0-2.54-.25,4,4,0,0,0-1.8.27,1,1,0,0,0-.44.91V69a.8.8,0,0,0,.35.72,2.43,2.43,0,0,0,1.24.23h1.14a2.82,2.82,0,0,1,2,.53A2.32,2.32,0,0,1,124.93,72.19Z"/><rect class="cls-4" x="127.01" y="65.93" width="1.31" height="1.37"/><rect class="cls-4" x="127.01" y="68.34" width="1.31" height="7.22"/><path class="cls-4" d="M141.45,75.55h-1.31V70.31a1.84,1.84,0,0,0,0-.44,1,1,0,0,0-.18-.36.87.87,0,0,0-.47-.28,3,3,0,0,0-.82-.09,2.82,2.82,0,0,0-1.48.25,1.09,1.09,0,0,0-.33.92v5.24H135.5V70.31a1.84,1.84,0,0,0,0-.44,1,1,0,0,0-.18-.36.87.87,0,0,0-.46-.28,2.94,2.94,0,0,0-.82-.09,3.32,3.32,0,0,0-1.55.24,1,1,0,0,0-.39.93v5.24h-1.31V68.34h1.31v.86q.2-1,2.38-1,1.76,0,2.2,1a1.16,1.16,0,0,1,.82-.73,4.92,4.92,0,0,1,1.6-.23,2.69,2.69,0,0,1,1.87.5,2,2,0,0,1,.52,1.52Z"/><path class="cls-4" d="M150.3,73.09a2.94,2.94,0,0,1-.19,1.11,1.92,1.92,0,0,1-.47.72,2,2,0,0,1-.75.4,4.22,4.22,0,0,1-.87.18q-.41,0-1,0a4.46,4.46,0,0,1-1.14-.15,1,1,0,0,1-.7-.45v3.48h-1.31V68.34h1.3v.76h0q.16-.9,2.41-.9a3,3,0,0,1,2.06.59,1.84,1.84,0,0,1,.65,1.41Zm-1.34.16v-2.6q0-1-.42-1.25a3,3,0,0,0-1.5-.27,2.83,2.83,0,0,0-1.47.26q-.39.26-.39,1.25v2.6q0,.89.4,1.14a3,3,0,0,0,1.47.26,3.09,3.09,0,0,0,1.49-.26Q149,74.14,149,73.25Z"/><path class="cls-4" d="M153.77,75.56h-1.31V65.19h1.31Z"/><rect class="cls-4" x="156.19" y="65.93" width="1.31" height="1.37"/><rect class="cls-4" x="156.19" y="68.34" width="1.31" height="7.22"/><path class="cls-4" d="M165,75.34a11,11,0,0,1-2.26.2l-1,0a4.17,4.17,0,0,1-.82-.15,1.58,1.58,0,0,1-.7-.36,1.9,1.9,0,0,1-.42-.68,3,3,0,0,1-.18-1.1v-2.6a4.06,4.06,0,0,1,.11-1,1.63,1.63,0,0,1,.34-.69,2.38,2.38,0,0,1,.48-.42,1.73,1.73,0,0,1,.68-.23q.43-.07.76-.09l.88,0a9.44,9.44,0,0,1,2,.22v1a8.75,8.75,0,0,0-2.17-.29,2.53,2.53,0,0,0-1.42.26,1.4,1.4,0,0,0-.33,1.11v2.89a1.17,1.17,0,0,0,.37,1,3,3,0,0,0,1.52.26,8.65,8.65,0,0,0,2.13-.28Z"/><path class="cls-4" d="M168.14,67.31h-1.31V65.94h1.31Zm0,8.24h-1.31V68.5h1.31Z"/><path class="cls-4" d="M175,75.43a9,9,0,0,1-1.47.12,2.85,2.85,0,0,1-1.85-.46,2.27,2.27,0,0,1-.52-1.74V69.2h-1.57v-.86h1.57V65.93h1.33v2.41H175v.86h-2.52v4.21a1.33,1.33,0,0,0,.29,1,1.9,1.9,0,0,0,1.18.26,10,10,0,0,0,1-.12Z"/><path class="cls-4" d="M182,68.34l-3.54,10.09h-1.37l1.11-2.93-2.73-7.16h1.43l2,5.76h0l1.78-5.76Z"/><path class="cls-4" d="M67.49,75.55H66.25V67.39h-.07l-3,8H61.86l-3.13-8h-.07v8.16H57.39V65.93H59.5l3,7.87h0l2.87-7.89h2Z"/><path class="cls-4" d="M76.24,70.71v2.45a3.34,3.34,0,0,1-.16,1.11,1.85,1.85,0,0,1-.41.7,1.6,1.6,0,0,1-.71.38,4.29,4.29,0,0,1-.87.16q-.42,0-1.1,0a12.24,12.24,0,0,1-1.36-.06,3.23,3.23,0,0,1-1-.28,1.35,1.35,0,0,1-.7-.72,3.39,3.39,0,0,1-.21-1.31V70.71a3.62,3.62,0,0,1,.17-1.18,2.13,2.13,0,0,1,.41-.74,1.52,1.52,0,0,1,.71-.4,4.13,4.13,0,0,1,.87-.17q.4,0,1.1,0t1.1,0a4.13,4.13,0,0,1,.87.17,1.53,1.53,0,0,1,.71.4,2.13,2.13,0,0,1,.41.74A3.62,3.62,0,0,1,76.24,70.71ZM74.9,73.35V70.49q0-1-.39-1.21a5,5,0,0,0-3,0q-.39.23-.39,1.21v2.86a2.21,2.21,0,0,0,.1.74.68.68,0,0,0,.38.4,1.82,1.82,0,0,0,.57.15q.29,0,.86,0t.86,0a1.83,1.83,0,0,0,.57-.15.68.68,0,0,0,.38-.4A2.21,2.21,0,0,0,74.9,73.35Z"/><path class="cls-4" d="M84.85,70.19v2.9a2.94,2.94,0,0,1-.19,1.11,1.92,1.92,0,0,1-.47.72,2,2,0,0,1-.75.4,4.22,4.22,0,0,1-.87.18q-.41,0-1,0a8.57,8.57,0,0,1-1.24-.07,3.35,3.35,0,0,1-1-.31,1.48,1.48,0,0,1-.71-.75,3.22,3.22,0,0,1-.23-1.32v-7.9h1.31V67.3q0,.28,0,.84t0,.84q.06-.34.61-.56a4.42,4.42,0,0,1,1.61-.23Q84.85,68.19,84.85,70.19Zm-1.34,3.09V70.51q0-.9-.42-1.14a3.3,3.3,0,0,0-1.5-.24,2.72,2.72,0,0,0-1.44.28,1.26,1.26,0,0,0-.41,1.11v2.77q0,.89.4,1.14a3,3,0,0,0,1.47.26,3.08,3.08,0,0,0,1.49-.26Q83.51,74.17,83.51,73.28Z"/><rect class="cls-4" x="87.01" y="65.93" width="1.31" height="1.37"/><rect class="cls-4" x="87.01" y="68.34" width="1.31" height="7.21"/><path class="cls-4" d="M92.06,75.55H90.74V65.19h1.31Z"/><rect class="cls-4" x="94.48" y="65.93" width="1.31" height="1.37"/><rect class="cls-4" x="94.48" y="68.34" width="1.31" height="7.22"/><path class="cls-4" d="M102.64,75.42a9,9,0,0,1-1.47.12,2.85,2.85,0,0,1-1.85-.46,2.27,2.27,0,0,1-.52-1.74V69.2H97.22v-.86h1.57V65.93h1.33v2.41h2.52v.86h-2.52v4.21a1.33,1.33,0,0,0,.29,1,1.9,1.9,0,0,0,1.18.26,10,10,0,0,0,1-.12Z"/><path class="cls-4" d="M109.7,68.34l-3.54,10.09h-1.37l1.11-2.93-2.73-7.16h1.43l2,5.76h0l1.78-5.76Z"/><rect class="cls-4" x="109.75" y="74.24" width="1.31" height="1.31"/><rect class="cls-4" x="182.05" y="74.24" width="1.31" height="1.31"/><rect class="cls-4" x="240.92" y="74.24" width="1.31" height="1.31"/></svg>