<?xml version="1.0" encoding="UTF-8"?>
<svg width="951px" height="352px" viewBox="0 0 951 352" version="1.1" xmlns="http://www.w3.org/2000/svg" xmlns:xlink="http://www.w3.org/1999/xlink">
    <!-- Generator: Sketch 51.3 (57544) - http://www.bohemiancoding.com/sketch -->
    <title>frontend</title>
    <desc>Created with Sketch.</desc>
    <defs></defs>
    <g id="Page-1" stroke="none" stroke-width="1" fill="none" fill-rule="evenodd">
        <g id="frontend" fill="#DB3C00" fill-rule="nonzero">
            <path d="M287.664,17.424 C287.664,13.92 286.272,10.848 284.064,8.64 C281.808,6.336 278.64,4.944 275.28,4.944 C271.92,4.944 268.848,6.336 266.592,8.64 C264.336,10.848 262.944,13.968 262.944,17.424 C262.944,20.88 264.336,24 266.592,26.208 C268.848,28.512 271.92,29.904 275.28,29.904 C278.64,29.904 281.808,28.512 284.064,26.208 C286.272,24 287.664,20.928 287.664,17.424 Z M258,17.424 C258,12.624 259.968,8.304 263.04,5.136 C266.16,1.968 270.528,2.84217094e-14 275.28,2.84217094e-14 C280.08,2.84217094e-14 284.4,1.968 287.568,5.136 C290.64,8.304 292.608,12.624 292.608,17.424 C292.608,22.224 290.64,26.544 287.568,29.712 C284.4,32.928 280.08,34.848 275.28,34.848 C270.528,34.848 266.16,32.928 263.04,29.712 C259.968,26.544 258,22.224 258,17.424 Z M352.352,29.376 L359.552,29.376 C367.328,29.376 371.264,23.424 371.264,17.472 C371.264,11.52 367.328,5.52 359.552,5.52 L352.352,5.52 L352.352,29.376 Z M347.504,0.672 L359.552,0.672 C370.544,0.672 376.064,9.072 376.064,17.472 C376.064,25.872 370.544,34.224 359.552,34.224 L347.504,34.224 L347.504,0.672 Z M435.712,19.872 L450.928,19.872 L450.928,14.976 L435.712,14.976 L435.712,5.52 L451.264,5.52 L451.264,0.672 L430.816,0.672 L430.816,34.224 L451.312,34.224 L451.312,29.376 L435.712,29.376 L435.712,19.872 Z M529.296,9.12 C528.432,2.976 523.056,0.288 517.872,0.288 C513.984,0.288 509.952,1.824 507.696,4.752 C506.256,6.624 505.68,8.88 505.872,11.136 L505.872,11.088 C506.4,18.096 512.544,19.248 517.776,19.776 C521.136,20.112 524.592,20.544 525.168,23.088 C525.264,23.52 525.312,23.904 525.312,24.24 C525.312,27.696 521.376,29.712 517.776,29.712 C514.656,29.712 510.864,28.08 510.528,24.96 L510.528,25.152 L510.48,24.432 L505.584,24.528 L505.632,25.44 C506.256,31.44 512.544,34.512 517.728,34.512 C523.776,34.512 530.208,30.768 530.208,24.288 C530.208,23.616 530.112,22.8 529.968,22.08 C528.672,16.704 522.96,15.504 518.352,14.928 C514.752,14.592 510.96,14.16 510.72,10.704 C510.624,9.552 510.864,8.448 511.536,7.584 C512.88,5.856 515.376,5.088 517.632,5.04 C520.56,4.992 523.824,6.288 524.496,9.312 L529.296,9.12 Z M608.192,9.12 C607.328,2.976 601.952,0.288 596.768,0.288 C592.88,0.288 588.848,1.824 586.592,4.752 C585.152,6.624 584.576,8.88 584.768,11.136 L584.768,11.088 C585.296,18.096 591.44,19.248 596.672,19.776 C600.032,20.112 603.488,20.544 604.064,23.088 C604.16,23.52 604.208,23.904 604.208,24.24 C604.208,27.696 600.272,29.712 596.672,29.712 C593.552,29.712 589.76,28.08 589.424,24.96 L589.424,25.152 L589.376,24.432 L584.48,24.528 L584.528,25.44 C585.152,31.44 591.44,34.512 596.624,34.512 C602.672,34.512 609.104,30.768 609.104,24.288 C609.104,23.616 609.008,22.8 608.864,22.08 C607.568,16.704 601.856,15.504 597.248,14.928 C593.648,14.592 589.856,14.16 589.616,10.704 C589.52,9.552 589.76,8.448 590.432,7.584 C591.776,5.856 594.272,5.088 596.528,5.04 C599.456,4.992 602.72,6.288 603.392,9.312 L608.192,9.12 Z M677.248,7.92 L672.208,21.168 L682.288,21.168 L677.248,7.92 Z M687.28,34.224 L684.064,25.728 L670.432,25.728 L667.168,34.224 L661.936,34.224 L675.424,0.192 L678.976,0.192 L692.464,34.224 L687.28,34.224 Z M132,334.52 C132,339.176 133.92,343.4 136.8,346.472 C139.728,349.544 143.856,351.464 148.416,351.464 C156.24,351.464 162.384,346.28 164.304,338.648 L159.552,338.648 C157.824,343.736 153.504,346.664 148.416,346.664 C145.2,346.664 142.272,345.272 140.16,343.064 C138.048,340.856 136.704,337.88 136.704,334.52 C136.704,331.064 138.048,328.088 140.16,325.88 C142.272,323.672 145.2,322.28 148.416,322.28 C153.36,322.28 157.488,324.824 159.264,329.864 L164.064,329.864 C162.144,322.28 156.096,317.48 148.416,317.48 C143.856,317.48 139.728,319.448 136.8,322.472 C133.92,325.544 132,329.768 132,334.52 Z M248.048,334.424 C248.048,330.92 246.656,327.848 244.448,325.64 C242.192,323.336 239.024,321.944 235.664,321.944 C232.304,321.944 229.232,323.336 226.976,325.64 C224.72,327.848 223.328,330.968 223.328,334.424 C223.328,337.88 224.72,341 226.976,343.208 C229.232,345.512 232.304,346.904 235.664,346.904 C239.024,346.904 242.192,345.512 244.448,343.208 C246.656,341 248.048,337.928 248.048,334.424 Z M218.384,334.424 C218.384,329.624 220.352,325.304 223.424,322.136 C226.544,318.968 230.912,317 235.664,317 C240.464,317 244.784,318.968 247.952,322.136 C251.024,325.304 252.992,329.624 252.992,334.424 C252.992,339.224 251.024,343.544 247.952,346.712 C244.784,349.928 240.464,351.848 235.664,351.848 C230.912,351.848 226.544,349.928 223.424,346.712 C220.352,343.544 218.384,339.224 218.384,334.424 Z M312.832,327.56 L321.616,340.616 L324.352,340.616 L333.136,327.56 L333.136,351.224 L337.936,351.224 L337.936,317.624 L334.096,317.624 L323.008,333.944 L311.92,317.624 L307.984,317.624 L307.984,351.224 L312.832,351.224 L312.832,327.56 Z M398.352,327.56 L407.136,340.616 L409.872,340.616 L418.656,327.56 L418.656,351.224 L423.456,351.224 L423.456,317.624 L419.616,317.624 L408.528,333.944 L397.44,317.624 L393.504,317.624 L393.504,351.224 L398.352,351.224 L398.352,327.56 Z M491.456,351.56 C497.216,351.56 503.84,348.008 503.84,341.192 L503.84,317.672 L498.944,317.672 L498.944,341.144 C498.944,344.84 494.96,346.712 491.456,346.712 C487.904,346.712 483.92,344.888 483.92,341.192 L483.92,317.672 L479.024,317.672 L479.024,341.144 C479.024,348.008 485.552,351.56 491.456,351.56 Z M564.256,351.224 L564.256,327.752 L580.48,351.224 L584.32,351.224 L584.32,317.624 L579.52,317.624 L579.52,341.288 L563.152,317.624 L559.408,317.624 L559.408,351.224 L564.256,351.224 Z M656.784,317.672 L639.456,317.672 L639.456,322.28 L645.696,322.28 L645.696,346.568 L639.456,346.568 L639.456,351.224 L656.784,351.224 L656.784,346.568 L650.544,346.568 L650.544,322.28 L656.784,322.28 L656.784,317.672 Z M725.216,351.224 L725.216,322.232 L735.344,322.232 L735.344,317.624 L710.192,317.624 L710.192,322.232 L720.368,322.232 L720.368,351.224 L725.216,351.224 Z M787.264,317.624 L799.696,337.544 L799.696,351.224 L804.592,351.224 L804.592,337.544 L817.072,317.624 L811.312,317.624 L802.144,332.408 L792.976,317.624 L787.264,317.624 Z M138.544,185.616 L178.864,185.616 L178.864,172.08 L138.544,172.08 L138.544,141.984 L184.048,141.984 L184.048,127.872 L124,127.872 L124,228.672 L138.544,228.672 L138.544,185.616 Z M216.592,184.464 L253.312,228.672 L272.176,228.672 L240.352,190.8 C257.632,187.776 266.416,174.24 266.416,159.984 C266.416,144 255.472,127.872 233.584,127.872 L196.864,127.872 L196.864,228.672 L211.264,228.672 L211.264,142.56 L233.584,142.56 C245.824,142.56 251.872,151.344 251.872,159.984 C251.872,168.768 245.824,177.552 233.584,177.552 L216.592,177.552 L216.592,184.464 Z M369.52,178.272 C369.52,167.76 365.344,158.544 358.72,151.92 C351.952,145.008 342.448,140.832 332.368,140.832 C322.288,140.832 313.072,145.008 306.304,151.92 C299.536,158.544 295.36,167.904 295.36,178.272 C295.36,188.64 299.536,198 306.304,204.624 C313.072,211.536 322.288,215.712 332.368,215.712 C342.448,215.712 351.952,211.536 358.72,204.624 C365.344,198 369.52,188.784 369.52,178.272 Z M280.528,178.272 C280.528,163.872 286.432,150.912 295.648,141.408 C305.008,131.904 318.112,126 332.368,126 C346.768,126 359.728,131.904 369.232,141.408 C378.448,150.912 384.352,163.872 384.352,178.272 C384.352,192.672 378.448,205.632 369.232,215.136 C359.728,224.784 346.768,230.544 332.368,230.544 C318.112,230.544 305.008,224.784 295.648,215.136 C286.432,205.632 280.528,192.672 280.528,178.272 Z M413.584,228.672 L413.584,158.256 L462.256,228.672 L473.776,228.672 L473.776,127.872 L459.376,127.872 L459.376,198.864 L410.272,127.872 L399.04,127.872 L399.04,228.672 L413.584,228.672 Z M531.808,228.672 L531.808,141.696 L562.192,141.696 L562.192,127.872 L486.736,127.872 L486.736,141.696 L517.264,141.696 L517.264,228.672 L531.808,228.672 Z M588.832,185.616 L634.48,185.616 L634.48,170.928 L588.832,170.928 L588.832,142.56 L635.488,142.56 L635.488,128.016 L574.144,128.016 L574.144,228.672 L635.632,228.672 L635.632,214.128 L588.832,214.128 L588.832,185.616 Z M664.144,228.672 L664.144,158.256 L712.816,228.672 L724.336,228.672 L724.336,127.872 L709.936,127.872 L709.936,198.864 L660.832,127.872 L649.6,127.872 L649.6,228.672 L664.144,228.672 Z M755.152,214.128 L776.752,214.128 C800.08,214.128 811.888,196.272 811.888,178.416 C811.888,160.56 800.08,142.56 776.752,142.56 L755.152,142.56 L755.152,214.128 Z M740.608,128.016 L776.752,128.016 C809.728,128.016 826.288,153.216 826.288,178.416 C826.288,203.616 809.728,228.672 776.752,228.672 L740.608,228.672 L740.608,128.016 Z M758,8 L951,8 L951,23 L753,23 L758,8 Z M936,343 L936,13 L951,13 L951,343 L936,343 Z M877,328 L951,328 L951,343 L883,343 L877,328 Z M193,11 L0,11 L0,26 L198,26 L193,11 Z M15,343 L15,13 L0,13 L0,343 L15,343 Z M73,328 L0,328 L0,343 L68,343 L73,328 Z" id="Shape"></path>
        </g>
    </g>
</svg>