<svg xmlns="http://www.w3.org/2000/svg" viewBox="0 0 1916.607 750.879"><defs><style>.cls-1{fill:#414042}</style></defs><g id="Слой_2" data-name="Слой 2"><g id="Слой_1-2" data-name="Слой 1"><path class="cls-1" d="M1099.54 693.175a1.915 1.915 0 0 0 .89-1.683q.026-1.602.026-3.205.002-23.843.001-47.687c0-.801-.014-1.603.003-2.404.055-2.637.059-2.688 2.731-2.69q24.645-.025 49.29-.012c1.87 0 3.738-.049 5.607-.075l50.848-.008c1.201 0 2.405.02 3.602-.056 1.172-.075 1.578-.544 1.674-1.8.05-.665.04-1.334.04-2.001q.003-24.624-.002-49.247a22.862 22.862 0 0 0-.091-2.396 1.368 1.368 0 0 0-1.279-1.302 22.393 22.393 0 0 0-2.394-.103q-24.223-.009-48.446-.014a6.888 6.888 0 0 0-3.858.78c-.015-.419.096-.86.512-.947a9.858 9.858 0 0 1 1.982-.158q25.842-.01 51.685-.005c.267 0 .534-.005.801.004 1.998.07 2.11.16 2.167 1.993.03.934.005 1.87.005 2.804v48.48c0 4.346-.243 4.054 4.2 4.054q24.84.002 49.681.032c1.09.003 2.424-.623 3.266.71l-57.272-.037a8.927 8.927 0 0 0-3.559-.406q-24.866-.001-49.733.002a21.088 21.088 0 0 0-2.402.075 1.291 1.291 0 0 0-1.266 1.288 81.79 81.79 0 0 0-.058 3.206q-.004 23.663-.002 47.326c0 .803-.009 1.605.002 2.407.041 3.145-.146 3.097-3.119 3.096q-24.666-.012-49.331.003c-5.42.007-4.91-.642-4.916 4.948-.015 16.042.005 32.085-.025 48.128-.002 1.292.428 2.668-.437 3.876-1.02-1.56-.813-3.32-.813-5.04q-.01-25.968-.01-51.936zm57.753-172.444c-1.426.548-2.912.268-4.367.27q-23.861.037-47.723.018c-4.553.002-4.385-.32-4.384 4.323q.004 24.263.003 48.525c0 5.17.25 4.553-4.495 4.559q-24.864.028-49.728.005c-3.334-.001-3.526.313-3.523-3.519q.024-24.463.008-48.926c-.001-5.362.34-4.965-4.998-4.967q-24.062-.01-48.124-.004c-4.924-.002-4.308.243-4.314-4.295q-.03-26.468-.016-52.935l.069-.05 54.47-.039c.4 0 .801-.01 1.2.01 1.65.08 1.913.303 1.975 1.808.044 1.067.02 2.136.02 3.205l.006 47.27c.005 5.363-.537 4.754 4.64 4.76q26.24.029 52.479.01l56.802-.028zm-57.746 28.867h-.003c0-8.41.02-16.821-.012-25.232-.01-2.564-.245-2.738-2.731-2.825-.534-.019-1.068-.007-1.602-.007l-46.46.002c-.933 0-1.871-.018-2.8.053-1.191.09-1.6.534-1.693 1.787-.059.797-.044 1.6-.044 2.401q-.004 23.83.001 47.661c0 .933.005 1.87.09 2.798a1.365 1.365 0 0 0 1.261 1.321 21.36 21.36 0 0 0 2.394.11q24.03.01 48.061-.003c3.486-.004 3.521-.048 3.531-3.634.023-8.144.007-16.288.007-24.432zM813.882 694.03a2.214 2.214 0 0 0-1.733-.832c-1.068.006-2.135-.006-3.202-.006H761.31c-.934 0-1.869.02-2.802-.007-2.103-.062-2.22-.18-2.28-2.334-.029-1.067-.005-2.135-.005-3.203q0-23.417-.003-46.835c0-1.2-.023-2.4-.055-3.6a1.288 1.288 0 0 0-1.22-1.332 19.221 19.221 0 0 0-2.396-.083q-25.019-.006-50.037.001a8.384 8.384 0 0 0-3.553.373c-1.334.023-2.668.065-4.002.065q-26.63.006-53.26.002c.174-.358.371-.685.838-.69 1.195-.016 2.39-.049 3.584-.05q26.299-.01 52.597-.013c1.601-.024 3.202-.07 4.803-.07q23.828-.008 47.656-.006c1.726 0 3.489.207 5.062-.785a2.036 2.036 0 0 0 1.711.854c1.068.01 2.135.018 3.203.018q24.619.001 49.238-.005c3.548-.003 3.544-.016 3.541 3.51q-.023 25.02.015 50.039c.003 1.397-.534 2.978.857 4.115zM584.264 521.524a.86.86 0 0 1 .796-.73c1.2-.032 2.402-.037 3.603-.037q23.835-.003 47.67-.002c1.068 0 2.138.023 3.204-.024 1.502-.068 1.771-.36 1.84-1.99.044-1.066.02-2.135.02-3.203l.003-47.27c0-1.067.001-2.135.042-3.202a1.194 1.194 0 0 1 1.2-1.299c1.2-.052 2.401-.068 3.602-.068q24.235-.006 48.47-.026c1.411-.003 2.964.5 4.2-.697a1.17 1.17 0 0 1 1.16.745 1.447 1.447 0 0 0-.894 1.219 72.84 72.84 0 0 0-.08 3.596q-.007 24-.003 48v3.841c-1.592.98-3.097.62-4.53.622-16.134.027-32.267.01-48.401.03-1.58.002-3.212-.313-4.718.482l-57.184.013zM698.73 692.389c-.105.41-.34.742-.774.758-1.2.042-2.401.044-3.602.044q-24.631.003-49.263-.004c-3.626-.003-3.509-.043-3.508 3.512q.007 24.832 0 49.663c0 4.93.399 4.506-4.53 4.508q-24.231.013-48.462.004c-.534 0-1.068.007-1.602-.002-2.986-.05-2.986-.052-3.03-3.225-.007-.4-.001-.801-.001-1.202v-48.862c0-.934-.022-1.87.018-2.803.057-1.314.405-1.7 1.621-1.76 1.066-.05 2.135-.028 3.203-.028q24.231-.002 48.462-.012c1.444-.002 2.955.307 4.282-.597l57.185.006zm574.894.765c.93-.051 1.861-.145 2.792-.146q25.027-.013 50.054-.008c3.7-.001 3.522-.132 3.522 3.459q0 25.427-.004 50.855c-.002 3.51-.031 3.54-3.501 3.542q-25.228.016-50.455.004c-.534 0-1.069.013-1.601-.018-1.465-.086-1.758-.401-1.84-1.98-.028-.533-.01-1.068-.01-1.602q-.001-25.427.006-50.855c0-.797.1-1.593.153-2.39l.884-.861z"/><path class="cls-1" d="M813.882 694.03l.92-.874c.932-.051 1.863-.147 2.794-.148q24.84-.014 49.68 0c.931 0 1.862.097 2.793.149l.864.037q.033 23.906.057 47.812c0 2.783-.115 5.567-.177 8.35a1.268 1.268 0 0 0-.69 1.24c-.92.088-1.839.252-2.759.253q-24.928.023-49.855.002c-.923-.001-1.846-.142-2.769-.217q-.345-.246-.691-.49a5.404 5.404 0 0 1-.33-2.734q-.01-25.7.004-51.4c0-.66.104-1.32.159-1.98zM700.074 463.721a1.17 1.17 0 0 0-1.16-.745c-.058-1.059-.165-2.118-.166-3.177q-.016-24.72.004-49.439c.002-1.171-.278-2.4.422-3.495q26.595-.017 53.191-.046a7.29 7.29 0 0 1 3.853.804c.062.923.178 1.847.179 2.77q.016 25.097.001 50.193c0 .793-.083 1.587-.127 2.38l-.839.773c-.927.044-1.853.126-2.78.127q-24.9.011-49.8-.001c-.926 0-1.852-.094-2.778-.144zm56.165 170.904c-1.574.992-3.337.785-5.063.785q-23.828.006-47.655.006c-1.602 0-3.203.046-4.804.07l.026-50.506c.001-1.737.043-3.474.061-5.21a1.309 1.309 0 0 1 .73-1.291c1.467.007 2.935.021 4.402.021l47.224.004c1.723 0 3.486-.215 5.06.777.061.791.177 1.582.177 2.373q.015 25.297 0 50.594c0 .793-.103 1.585-.158 2.377zm229.393-170.84c-4.777.029-9.554.078-14.331.083q-18.718.018-37.437-.003c-1.456-.002-2.912-.098-4.368-.15-.042-.918.215-1.967-1.034-2.354-.097-1.053-.277-2.106-.278-3.158q-.027-23.775-.001-47.55c.001-1.054.175-2.107.268-3.161 1.152-.962 2.535-.65 3.84-.651q15.977-.026 31.955-.01c5.859 0 11.718.068 17.575-.043a4.552 4.552 0 0 1 3.819 1.638c.068 1.055.194 2.11.195 3.166q.029 25.487.022 50.975a8.652 8.652 0 0 1-.158 1.169zm344.105 57.745c.085.925.244 1.85.244 2.775q.023 25.26.016 50.521c.002 3.728.026 3.601-3.417 3.6q-25.26-.01-50.522-.003c-.4 0-.802.008-1.202-.005-2.057-.068-2.2-.207-2.267-2.34-.03-.934-.008-1.87-.008-2.806q0-23.657.006-47.313c0-1.467.092-2.934.142-4.4l57.008-.029zm-114.528 114.672l57.272.037a26.768 26.768 0 0 1 .277 2.75q.024 25.72.004 51.441c0 .662-.084 1.323-.129 1.985l-57.292-.043c-.085-.92-.243-1.839-.243-2.759q-.022-25.712-.005-51.425c0-.662.076-1.324.116-1.986zM584.264 521.524l57.184-.012c.042 1.06.12 2.12.121 3.18q.012 24.71-.005 49.421c0 1.186-.15 2.372-.232 3.558l-57.06-.022a7.226 7.226 0 0 1-.296-3.144q-.015-24.917 0-49.833a7.54 7.54 0 0 1 .288-3.148zM928.13 635.479q.02-25.98.052-51.96a13.06 13.06 0 0 1 .267-4.361 1.288 1.288 0 0 0 .285-.52l.133-.088c2-.016 4-.045 6-.047q25.004-.027 50.007-.047l-.012-.005-.023 51.648c0 1.068.03 2.137-.026 3.202-.088 1.673-.454 2.017-2.234 2.092-1.199.05-2.402.018-3.603.02l-50.846.066zm-229.4 56.91l-57.186-.006c-.045-1.06-.128-2.12-.129-3.18q-.012-24.71.003-49.419a8.793 8.793 0 0 1 .28-3.545l53.26-.002c1.334 0 2.668-.042 4.003-.065.04 1.195.117 2.39.118 3.586q.012 24.35-.007 48.698c-.001 1.313.262 2.666-.343 3.933zm229.666-56.202c.037.397.105.793.105 1.19q.011 26.514 0 53.027a14.293 14.293 0 0 1-.265 1.956l-57.273.026c-.045-1.06-.128-2.12-.128-3.179q-.013-24.708.002-49.416a9.522 9.522 0 0 1 .259-3.55l57.3-.054zm57.478 56.188c-.074-.921-.213-1.843-.213-2.765q-.02-25.706-.004-51.413c0-.662.07-1.324.106-1.987l57.328.038c.088.918.253 1.837.254 2.756q.022 25.714.003 51.428c0 .662-.08 1.324-.123 1.986zM756.413 519.944c-.06-.792-.17-1.584-.17-2.376q-.016-25.304-.002-50.609c0-.793.1-1.586.152-2.379l57.298.009a17.806 17.806 0 0 1 .212 1.968q-.001 27.096-.027 54.192l-56.781-.044-.06-.014-.622-.747zm114.537.778c-.04-.793-.115-1.586-.115-2.379q-.01-25.1.003-50.2c0-1.188.134-2.375.205-3.563l57.302.002c.057.926.162 1.852.163 2.778q.015 24.923-.002 49.846c0 .924-.121 1.848-.186 2.773l-.461.638-.114.052-56.796.053zm286.343.009l-56.802.027q-.011-26.7-.014-53.4c0-.922.137-1.844.21-2.767l57.333-.03c.053 1.06.151 2.118.152 3.177q.015 24.512 0 49.024c-.001 1.058-.111 2.116-.17 3.173l-.691.792zm115.253-56.144a17.691 17.691 0 0 1 .213 1.968q-.008 27.095-.04 54.19l-56.788-.045-.067-.017-.6-.736c-.059-.792-.169-1.584-.17-2.376q-.014-25.306 0-50.612c0-.793.1-1.586.154-2.38zm-401.689 56.927c.047 1.06.135 2.12.136 3.18q.013 24.713-.002 49.426a9.214 9.214 0 0 1-.268 3.55l-56.71.006a25.922 25.922 0 0 1-.286-2.746q-.025-25.69-.004-51.38c0-.66.096-1.32.147-1.98 1.727-.011 3.454-.033 5.18-.034q25.904-.014 51.807-.022zm228.683 171.661q.003 25.968.01 51.935c0 1.722-.207 3.482.813 5.04v-.001l-.77.485c-.923.075-1.845.216-2.768.217q-24.923.02-49.847 0c-.922 0-1.845-.143-2.767-.22l-.004-57.46c.924-.057 1.849-.162 2.774-.162q24.892-.015 49.785 0c.925 0 1.85.108 2.774.166zm58.642-113.903a6.888 6.888 0 0 1 3.858-.78q24.223.022 48.446.014a22.393 22.393 0 0 1 2.394.103 1.368 1.368 0 0 1 1.279 1.302 22.862 22.862 0 0 1 .091 2.396q.007 24.623.002 49.247c0 .667.01 1.336-.04 2-.096 1.257-.502 1.726-1.674 1.8-1.197.076-2.4.056-3.602.057q-25.424.007-50.848.008c-.029-4.646-.078-9.29-.082-13.936q-.017-18.922.004-37.845c.002-1.455.112-2.91.172-4.366zm-.053-116.295c-.043-.927-.123-1.854-.123-2.781q-.01-24.708.004-49.416c0-1.057.119-2.114.182-3.17 1.436-.939 3.055-.78 4.649-.78q23.388.002 46.776-.002c4.756-.002 4.644-.192 4.64 4.534q-.016 26.187-.004 52.374c-.927.045-1.853.13-2.78.13q-24.9.011-49.802-.001c-.926 0-1.852-.09-2.778-.137l-.764-.75z"/><path class="cls-1" d="M1043.09 636.248q-28.663-.02-57.327-.038a7.987 7.987 0 0 0-3.535-.412q-25.35-.006-50.7.004a6.24 6.24 0 0 0-3.132.385l-57.3.054c.164-.36.34-.695.819-.7 1.195-.008 2.39-.041 3.585-.042q26.315-.013 52.63-.02l50.846-.067c1.201-.001 2.404.032 3.603-.019 1.78-.075 2.146-.419 2.234-2.092.055-1.065.025-2.134.026-3.202l.023-51.648c.415.024.884.16.92.573.101 1.192.12 2.393.12 3.59q.01 24.238.005 48.476c0 4.733-.287 4.404 4.26 4.406q24.239.006 48.477.003c1.2 0 2.402.018 3.602.045.45.01.68.33.845.704zm171.163-172.512q0-26.187.005-52.374c.003-4.726.115-4.536-4.64-4.534q-23.389.011-46.777.002c-1.594 0-3.213-.16-4.649.78-.051-.53-.108-1.141.528-1.298a8.359 8.359 0 0 1 1.984-.153q25.828-.011 51.656-.005c.533 0 1.067.013 1.6.029a1.174 1.174 0 0 1 1.294 1.19c.058 1.198.077 2.4.077 3.6q.007 24.026.005 48.052c0 1.067-.017 2.137.055 3.2a1.44 1.44 0 0 0 1.573 1.433q1.601.037 3.203.036l48.052.006c1.198 0 2.397.044 3.595.094.472.02.614.41.732.793l-57.298-.007-.995-.844zM1044.207 693.17l.004 57.462c-.424.041-.903-.084-.946-.483a33.727 33.727 0 0 1-.173-3.575q-.015-24.187-.008-48.375c-.001-5.555.378-4.998-4.873-5.002q-23.988-.02-47.975-.008c-1.198 0-2.396-.037-3.593-.065-.479-.012-.635-.373-.77-.749l57.352.043.982.752zm-173.35-171.656l-51.806.022c-1.727 0-3.454.023-5.18.035-1.497-.83-3.133-.542-4.718-.544q-24.053-.026-48.106-.024c-1.318-.002-2.673.279-3.953-.298l56.782.044 57.073-.027 56.796-.053c-1.256.658-2.61.33-3.914.332q-24.133.036-48.265.025c-1.58.002-3.202-.273-4.71.488zm345.073-.814l56.788.045q26.315.005 52.63.013c1.194 0 2.39.04 3.584.05.49.005.633.375.804.722l-57.008.029c-1.5-.815-3.136-.53-4.722-.532q-24.062-.026-48.124-.024c-1.317-.002-2.673.285-3.951-.303zm-287.585-56.118l-57.302-.002c.128-.363.212-.776.713-.792 1.193-.036 2.387-.088 3.58-.088q23.722-.009 47.444-.004c.93 0 1.861.014 2.791-.005 2.074-.043 2.074-.05 2.891-2.33 1.25.387.992 1.436 1.034 2.354zm57.295-56.156a4.552 4.552 0 0 0-3.82-1.639c-5.856.112-11.715.044-17.574.044q-15.978 0-31.955.01c-1.305.002-2.688-.311-3.84.65.066-.367.064-1.02.209-1.054a10.236 10.236 0 0 1 2.345-.275q25.939-.02 51.877-.01c.532 0 1.066-.016 1.596.017 1.197.075 1.268.226 1.162 2.257zm172.489 54.551l.764.75-.873.835-57.333.03c.11-.39.268-.782.728-.803a78.909 78.909 0 0 1 3.598-.09q24.447-.007 48.893-.02c1.427-.002 2.965.42 4.223-.702zm57.211 229.395l57.293.043.99.739-.883.86a2.229 2.229 0 0 0-1.745-.814c-1.068.002-2.136-.008-3.203-.008q-24.03 0-48.06-.003c-1.199 0-2.399-.03-3.598-.068-.46-.014-.65-.37-.793-.749zM756.218 407.623a7.29 7.29 0 0 0-3.853-.804q-26.596.044-53.191.046a.798.798 0 0 1 .811-.69c1.068-.03 2.138-.023 3.207-.023q24.456-.001 48.912.005a26.109 26.109 0 0 1 3.59.165c.616.085.577.768.524 1.3zm114.745 284.763l57.273-.026c-.113.4-.32.755-.765.772a96.278 96.278 0 0 1-3.605.058q-26.466.006-52.933.004l-.864-.037.894-.77zM756.22 579.281c-1.574-.992-3.337-.777-5.06-.777q-23.612-.006-47.224-.004c-1.467 0-2.935-.014-4.401-.021a4.031 4.031 0 0 1 2.33-.312q25.744-.011 51.488 0a14.006 14.006 0 0 1 2.37.156c.413.072.498.547.496.958zm-171.948-1.631l57.06.02c-.138.21-.25.574-.419.603a11.777 11.777 0 0 1-1.98.154q-26.143.01-52.288-.017c-.818-.001-1.92.527-2.373-.76zM813.69 464.589l-57.297-.009-.189-.773.114-.09 54.26-.018c.796 0 1.592.04 2.385.094.468.03.612.413.728.796zm.323 113.087l56.71-.006c-.145.206-.269.568-.44.591a17.391 17.391 0 0 1-2.376.166q-25.539.012-51.077-.019c-.955-.002-2.142.502-2.817-.732z"/><path class="cls-1" d="M984.874 578.456l-50.007.047c-2 .002-4 .03-6 .047a3.439 3.439 0 0 1 2.314-.382q25.667-.012 51.334.006a19.445 19.445 0 0 1 2.36.282zm-114.751 172.14a1.268 1.268 0 0 1 .69-1.24c.13.614.287 1.242-.69 1.24zm287.187-229.869l.691-.792c.112.563-.085.855-.69.792zm-229.451-.11l.461-.638c.237.495.013.656-.461.638zm-171.446-.673l.623.748c-.567.049-.765-.208-.623-.748zm172.321 58.694a1.288 1.288 0 0 1-.285.52l-.19-.24zM755.432 463.739l.839-.772.046.751-.113.09-.772-.07zm459.832 56.208l.6.736c-.558.047-.75-.206-.6-.736zM814.049 750.143l.691.49c-.5.217-.735.061-.691-.49zm285.544.491l.77-.485c-.02.538-.297.667-.77.485zm-.046-201.036c0 8.144.016 16.288-.007 24.432-.01 3.586-.045 3.63-3.53 3.634q-24.031.026-48.062.004a21.36 21.36 0 0 1-2.394-.11 1.365 1.365 0 0 1-1.262-1.322c-.084-.928-.089-1.865-.089-2.798q-.007-23.83-.002-47.66c0-.801-.014-1.605.045-2.402.093-1.253.502-1.697 1.692-1.787.93-.07 1.868-.053 2.802-.053q23.23-.004 46.459-.002c.534 0 1.068-.012 1.602.007 2.486.087 2.72.261 2.73 2.825.034 8.41.013 16.822.013 25.232zm232.78-401.004q0 68.801-.008 137.602c-.003 7.068.806 6.307-6.404 6.319q-22.46.036-44.92.004c-1.515 0-3.032.005-4.545-.063a1.661 1.661 0 0 1-1.75-1.778q-.056-2.557-.057-5.116-.005-50.605-.003-101.211c0-1.327.022-2.654-.006-3.98-.082-3.727-.09-3.79-3.868-3.796q-25.303-.038-50.606-.007a20.647 20.647 0 0 0-2.267.109 1.48 1.48 0 0 0-1.414 1.473c-.09 1.7-.125 3.405-.126 5.108q-.01 51.458-.015 102.917c-.004 7.087.816 6.326-6.38 6.338q-22.46.041-44.92.007c-1.515 0-3.033.013-4.547-.049a1.664 1.664 0 0 1-1.802-1.73q-.065-2.272-.069-4.546-.004-138.17.004-276.341c.001-7.074-.719-6.377 6.388-6.379q80.457-.017 160.914-.001c7.108.001 6.393-.659 6.395 6.38q.018 69.37.006 138.74zm-57.687-58.171q0-11.922-.005-23.843c-.001-1.323-.013-2.65-.125-3.967a1.487 1.487 0 0 0-1.459-1.425 45.107 45.107 0 0 0-3.395-.142q-24.127-.014-48.254-.001c-1.132 0-2.267.049-3.397.126a1.525 1.525 0 0 0-1.516 1.375 28.928 28.928 0 0 0-.135 3.398q-.01 24.41-.002 48.821c0 .945-.001 1.894.071 2.835a1.717 1.717 0 0 0 1.787 1.76c1.133.046 2.269.064 3.403.064q23.843.006 47.686 0c1.135 0 2.27-.016 3.404-.056a1.719 1.719 0 0 0 1.844-1.702c.088-1.129.088-2.266.09-3.4q.01-11.922.003-23.843zM.022 148q0-68.822.015-137.645c.005-7.92-.984-6.867 6.974-6.871q79.63-.043 159.26-.002c7.963.004 6.966-.978 6.968 6.894q.03 137.646-.003 275.292c-.002 7.88 1.072 6.834-6.983 6.839q-79.914.043-159.829.004c-7.226-.002-6.387.841-6.39-6.295Q-.001 217.108.022 148zm57.425.015v79.575c0 1.516-.034 3.033.016 4.547.075 2.297.459 2.744 2.55 2.86 1.51.085 3.03.049 4.545.049q22.167.004 44.335 0c7.916-.005 7.097.595 7.099-6.923q.02-80.143.006-160.287c0-1.326.035-2.654-.02-3.978-.09-2.228-.554-2.736-2.582-2.867-.944-.06-1.894-.036-2.841-.036q-23.873-.003-47.745-.011c-5.887-.01-5.36.238-5.36 5.222q-.009 40.925-.003 81.85zm1858.503-30.314c.93 1.433.6 3.005.6 4.507q.025 82.363.016 164.726c0 5.39.138 5.066-4.916 5.066l-165.3-.002c-.955 0-1.913-.001-2.867-.05a1.676 1.676 0 0 1-1.825-1.724 71.908 71.908 0 0 1-.063-2.867q-.006-24.393-.002-48.786c0-.765.035-1.53.024-2.295a1.95 1.95 0 0 1 1.991-2.255c1.718-.092 3.44-.103 5.16-.103q50.222-.008 100.443-.045c2.973-.006 6.065.755 8.931-.753 1.006-2.78.45-5.661.463-8.488.064-14.158.03-28.315.03-42.473 0-1.34.028-2.68-.011-4.018-.086-2.94-.229-3.07-3.42-3.15-1.338-.034-2.678-.008-4.017-.008q-51.656 0-103.313-.005c-6.989-.002-6.273.557-6.275-6.014q-.02-81.502-.006-163.004c0-6.053-.45-5.649 5.508-5.649q82.076-.003 164.152.005c5.323 0 5.316-.555 5.314 5.299q-.01 23.819-.003 47.638c0 .957-.007 1.913-.036 2.87-.042 1.323-.641 2.183-2.051 2.223-1.721.048-3.443.057-5.165.057l-102.164.008c-1.91 0-3.822.06-5.731.138a1.49 1.49 0 0 0-1.494 1.415 23.904 23.904 0 0 0-.14 2.861q-.012 24.967-.006 49.935c0 .382-.007.765.006 1.147.108 3.086.314 3.325 3.183 3.405 1.53.043 3.06.014 4.591.014q51.082 0 102.164.018c2.083.002 4.207-.35 6.23.357zm-902.358 174.821h-81.338c-5.665 0-5.156.3-5.163-5.286q-.033-23.605-.005-47.21a32.588 32.588 0 0 1 .1-3.408 1.61 1.61 0 0 1 1.462-1.508c1.699-.128 3.408-.144 5.112-.144l101.246-.022c9.036-.012 7.874 1.14 7.91-7.779.061-14.788.016-29.577.018-44.366 0-6.815.333-6.232-6.055-6.233q-51.192-.01-102.384-.031c-2.232-.003-4.973.982-6.588-.563-1.822-1.742-.791-4.648-.793-7.032q-.061-79.347-.022-158.695c.003-7.639-.811-6.762 6.548-6.765q80.201-.031 160.402-.006c7.09.002 6.288-.65 6.302 6.454q.044 22.467.004 44.935c0 1.514-.022 3.03-.12 4.54a1.523 1.523 0 0 1-1.48 1.44 65.078 65.078 0 0 1-5.105.189q-50.054.014-100.108.007c-.948 0-1.896.004-2.844 0-6.732-.038-6.166-.197-6.17 6.15q-.01 23.32.003 46.641c0 1.325.03 2.652.12 3.973a1.442 1.442 0 0 0 1.404 1.487q2.551.13 5.109.132l101.815.021c8.659.01 7.354-1.114 7.36 7.631q.062 79.348.01 158.695c-.004 7.65.93 6.732-6.55 6.74q-40.1.046-80.2.013zm-145.063-86.47l-.002 81.312c0 5.521.398 5.156-5.267 5.156q-81.312.004-162.624 0a95.67 95.67 0 0 1-3.41-.05 1.64 1.64 0 0 1-1.812-1.687q-.062-1.42-.062-2.84-.006-24.167-.001-48.333c0-.947-.018-1.898.054-2.841a1.734 1.734 0 0 1 1.857-1.72q2.556-.087 5.114-.085 50.89-.007 101.782-.006c1.705 0 3.414.018 5.115-.084a1.997 1.997 0 0 0 2.028-2.216c.008-.947.035-1.895.035-2.842q.003-24.166-.005-48.332c0-1.134-.05-2.27-.146-3.4a1.469 1.469 0 0 0-1.503-1.395 95.587 95.587 0 0 0-5.108-.122l-102.351-.019c-7.923-.007-6.854.981-6.858-6.974q-.045-79.606-.001-159.212c.004-7.88-1.009-6.875 6.966-6.879q79.89-.04 159.781-.004c7.185.002 6.392-.805 6.408 6.302q.05 22.744.008 45.488c0 1.327.028 2.657-.066 3.978a1.73 1.73 0 0 1-1.865 1.71c-1.705.046-3.41.078-5.115.079q-50.606.006-101.213.003c-1.517 0-3.035-.038-4.549.02-2.73.105-3.152.494-3.157 3.455q-.046 25.872-.01 51.744a10.04 10.04 0 0 0 .145 1.693 1.547 1.547 0 0 0 1.54 1.367c1.701.082 3.406.105 5.11.105l102.92.014c7.132.004 6.242-.771 6.25 6.44q.045 40.087.012 80.175zM463.531 147.97q0-69.08.006-138.16c.002-7.037-.703-6.334 6.435-6.335q80.166-.017 160.333-.006c.948 0 1.896-.015 2.843.004 3.687.078 3.79.114 3.796 3.869q.042 25.016.01 50.033a13.77 13.77 0 0 1-.057 1.703 1.878 1.878 0 0 1-1.79 1.846c-1.7.106-3.406.11-5.11.11q-50.317.009-100.635.005c-1.516 0-3.032-.023-4.548.01-3.72.082-3.793.092-3.8 3.878q-.044 25.3-.012 50.602c0 .568.01 1.137.04 1.704.071 1.29.622 2.137 2.042 2.152 1.516.015 3.032.04 4.547.04q22.743.005 45.485 0c5.62-.002 5.148-.179 5.15 5.305q.01 23.31 0 46.622 0 1.704-.064 3.408a1.656 1.656 0 0 1-1.782 1.736c-1.514.059-3.03.063-4.546.064q-22.174.006-44.348.005c-1.515 0-3.03.023-4.546.053a1.75 1.75 0 0 0-1.877 1.69 26.042 26.042 0 0 0-.098 2.837q-.008 24.732.001 49.464a22.025 22.025 0 0 0 .15 2.833 1.487 1.487 0 0 0 1.5 1.382c1.892.074 3.785.131 5.678.131q50.602.012 101.203.013c8.333.004 7.391-.772 7.409 7.174q.049 22.174.005 44.348c-.001 1.514-.014 3.033-.124 4.542a1.483 1.483 0 0 1-1.491 1.402c-1.321.08-2.649.085-3.974.085q-81.02.005-162.039 0c-6.353 0-5.787.469-5.788-5.822q-.011-69.364-.004-138.728zm1219.235-1.965q0 69.74-.01 139.48c-.003 7.214.815 6.507-6.347 6.509q-81.22.018-162.44.002c-6.863-.001-6.251.632-6.253-6.045q-.016-52.234-.007-104.467c0-5.834-.407-5.788 5.465-5.78q23.534.036 47.067.01c.957 0 1.916-.024 2.87.03 2.08.12 2.522.577 2.566 2.873.055 2.87.021 5.74.022 8.61q.007 21.812.028 43.623c.007 2.658.352 2.917 2.965 3.044.573.028 1.148.018 1.722.018q24.969 0 49.938-.008c.953 0 1.909-.067 2.859-.156a1.46 1.46 0 0 0 1.407-1.5q.128-2.865.126-5.734.008-109.06.028-218.119c0-2.446-.998-5.445.605-7.212 1.859-2.05 5.058-.81 7.648-.827 14.541-.096 29.083-.05 43.624-.04 1.527 0 3.057.032 4.58.138a1.457 1.457 0 0 1 1.429 1.484c.072 1.718.104 3.44.104 5.16q.008 69.453.004 138.907zM347.247 3.518a5.965 5.965 0 0 1 .516 3.291q.008 24.807-.012 49.614a25.536 25.536 0 0 1-.299 2.786l-30.674.032c-7.764.005-15.527-.01-23.29.01-1.482.003-3.075-.306-4.209 1.09l-.028 174.262c1.01 1.117 2.357 1.015 3.672 1.012q26.563-.057 53.126-.12c.385.37 1.007.504 1.005 1.242-.004 1.512.095 3.024.096 4.536q.012 22.71.002 45.421 0 1.986-.055 3.972a1.672 1.672 0 0 1-1.734 1.79c-1.132.068-2.269.064-3.403.064q-52.519.004-105.038-.006c-1.13 0-2.26-.126-3.392-.193l-1.28-.997c-.107-1.882-.309-3.764-.309-5.645q-.023-138.29.005-276.579c0-1.864-.404-3.793.518-5.582z"/><path class="cls-1" d="M289.28 60.34c1.134-1.395 2.726-1.086 4.208-1.09 7.763-.018 15.526-.004 23.29-.01q15.337-.01 30.674-.032c2.226.646 4.51.449 6.777.45q23.011.018 46.023-.003c5.163-.01 4.99.11 4.99 5.001q-.013 82.955-.007 165.91c0 .946.022 1.897-.053 2.839a1.777 1.777 0 0 1-1.774 1.819 84.79 84.79 0 0 1-4.539.096q-25.283-.022-50.567-.049a21.911 21.911 0 0 0-2.25.225l-53.129.119c-1.315.003-2.663.105-3.672-1.012 1.696.112 3.392.319 5.088.321q23.866.037 47.732-.003c5.708-.017 5.424.928 5.424-5.517q.008-81.826 0-163.653 0-1.987-.094-3.973a1.469 1.469 0 0 0-1.322-1.544 12.042 12.042 0 0 0-1.695-.132q-26.707.008-53.414.04a14.276 14.276 0 0 0-1.69.198z"/></g></g></svg>