<svg width="951" height="352" xmlns="http://www.w3.org/2000/svg"><path d="M287.664 17.424c0-3.504-1.392-6.576-3.6-8.784a12.34 12.34 0 0 0-8.784-3.696c-3.36 0-6.432 1.392-8.688 3.696-2.256 2.208-3.648 5.328-3.648 8.784 0 3.456 1.392 6.576 3.648 8.784 2.256 2.304 5.328 3.696 8.688 3.696a12.34 12.34 0 0 0 8.784-3.696c2.208-2.208 3.6-5.28 3.6-8.784zm-29.664 0c0-4.8 1.968-9.12 5.04-12.288A17.194 17.194 0 0 1 275.28 0c4.8 0 9.12 1.968 12.288 5.136 3.072 3.168 5.04 7.488 5.04 12.288s-1.968 9.12-5.04 12.288a17.11 17.11 0 0 1-12.288 5.136c-4.752 0-9.12-1.92-12.24-5.136-3.072-3.168-5.04-7.488-5.04-12.288zm94.352 11.952h7.2c7.776 0 11.712-5.952 11.712-11.904S367.328 5.52 359.552 5.52h-7.2v23.856zM347.504.672h12.048c10.992 0 16.512 8.4 16.512 16.8s-5.52 16.752-16.512 16.752h-12.048V.672zm88.208 19.2h15.216v-4.896h-15.216V5.52h15.552V.672h-20.448v33.552h20.496v-4.848h-15.6v-9.504zM529.296 9.12c-.864-6.144-6.24-8.832-11.424-8.832-3.888 0-7.92 1.536-10.176 4.464-1.44 1.872-2.016 4.128-1.824 6.384v-.048c.528 7.008 6.672 8.16 11.904 8.688 3.36.336 6.816.768 7.392 3.312.096.432.144.816.144 1.152 0 3.456-3.936 5.472-7.536 5.472-3.12 0-6.912-1.632-7.248-4.752v.192l-.048-.72-4.896.096.048.912c.624 6 6.912 9.072 12.096 9.072 6.048 0 12.48-3.744 12.48-10.224 0-.672-.096-1.488-.24-2.208-1.296-5.376-7.008-6.576-11.616-7.152-3.6-.336-7.392-.768-7.632-4.224-.096-1.152.144-2.256.816-3.12 1.344-1.728 3.84-2.496 6.096-2.544 2.928-.048 6.192 1.248 6.864 4.272l4.8-.192zm78.896 0c-.864-6.144-6.24-8.832-11.424-8.832-3.888 0-7.92 1.536-10.176 4.464-1.44 1.872-2.016 4.128-1.824 6.384v-.048c.528 7.008 6.672 8.16 11.904 8.688 3.36.336 6.816.768 7.392 3.312.096.432.144.816.144 1.152 0 3.456-3.936 5.472-7.536 5.472-3.12 0-6.912-1.632-7.248-4.752v.192l-.048-.72-4.896.096.048.912c.624 6 6.912 9.072 12.096 9.072 6.048 0 12.48-3.744 12.48-10.224 0-.672-.096-1.488-.24-2.208-1.296-5.376-7.008-6.576-11.616-7.152-3.6-.336-7.392-.768-7.632-4.224-.096-1.152.144-2.256.816-3.12 1.344-1.728 3.84-2.496 6.096-2.544 2.928-.048 6.192 1.248 6.864 4.272l4.8-.192zm69.056-1.2l-5.04 13.248h10.08l-5.04-13.248zm10.032 26.304l-3.216-8.496h-13.632l-3.264 8.496h-5.232L675.424.192h3.552l13.488 34.032h-5.184zM132 334.52c0 4.656 1.92 8.88 4.8 11.952 2.928 3.072 7.056 4.992 11.616 4.992 7.824 0 13.968-5.184 15.888-12.816h-4.752c-1.728 5.088-6.048 8.016-11.136 8.016-3.216 0-6.144-1.392-8.256-3.6s-3.456-5.184-3.456-8.544a12.35 12.35 0 0 1 3.456-8.64c2.112-2.208 5.04-3.6 8.256-3.6 4.944 0 9.072 2.544 10.848 7.584h4.8c-1.92-7.584-7.968-12.384-15.648-12.384-4.56 0-8.688 1.968-11.616 4.992-2.88 3.072-4.8 7.296-4.8 12.048zm116.048-.096c0-3.504-1.392-6.576-3.6-8.784a12.34 12.34 0 0 0-8.784-3.696c-3.36 0-6.432 1.392-8.688 3.696-2.256 2.208-3.648 5.328-3.648 8.784 0 3.456 1.392 6.576 3.648 8.784 2.256 2.304 5.328 3.696 8.688 3.696a12.34 12.34 0 0 0 8.784-3.696c2.208-2.208 3.6-5.28 3.6-8.784zm-29.664 0c0-4.8 1.968-9.12 5.04-12.288a17.194 17.194 0 0 1 12.24-5.136c4.8 0 9.12 1.968 12.288 5.136 3.072 3.168 5.04 7.488 5.04 12.288s-1.968 9.12-5.04 12.288a17.11 17.11 0 0 1-12.288 5.136c-4.752 0-9.12-1.92-12.24-5.136-3.072-3.168-5.04-7.488-5.04-12.288zm94.448-6.864l8.784 13.056h2.736l8.784-13.056v23.664h4.8v-33.6h-3.84l-11.088 16.32-11.088-16.32h-3.936v33.6h4.848V327.56zm85.52 0l8.784 13.056h2.736l8.784-13.056v23.664h4.8v-33.6h-3.84l-11.088 16.32-11.088-16.32h-3.936v33.6h4.848V327.56zm93.104 24c5.76 0 12.384-3.552 12.384-10.368v-23.52h-4.896v23.472c0 3.696-3.984 5.568-7.488 5.568-3.552 0-7.536-1.824-7.536-5.52v-23.52h-4.896v23.472c0 6.864 6.528 10.416 12.432 10.416zm72.8-.336v-23.472l16.224 23.472h3.84v-33.6h-4.8v23.664l-16.368-23.664h-3.744v33.6h4.848zm92.528-33.552h-17.328v4.608h6.24v24.288h-6.24v4.656h17.328v-4.656h-6.24V322.28h6.24v-4.608zm68.432 33.552v-28.992h10.128v-4.608h-25.152v4.608h10.176v28.992h4.848zm62.048-33.6l12.432 19.92v13.68h4.896v-13.68l12.48-19.92h-5.76l-9.168 14.784-9.168-14.784h-5.712zm-648.72-132.008h40.32V172.08h-40.32v-30.096h45.504v-14.112H124v100.8h14.544v-43.056zm78.048-1.152l36.72 44.208h18.864L240.352 190.8c17.28-3.024 26.064-16.56 26.064-30.816 0-15.984-10.944-32.112-32.832-32.112h-36.72v100.8h14.4V142.56h22.32c12.24 0 18.288 8.784 18.288 17.424 0 8.784-6.048 17.568-18.288 17.568h-16.992v6.912zm152.928-6.192c0-10.512-4.176-19.728-10.8-26.352-6.768-6.912-16.272-11.088-26.352-11.088-10.08 0-19.296 4.176-26.064 11.088-6.768 6.624-10.944 15.984-10.944 26.352s4.176 19.728 10.944 26.352c6.768 6.912 15.984 11.088 26.064 11.088s19.584-4.176 26.352-11.088c6.624-6.624 10.8-15.84 10.8-26.352zm-88.992 0c0-14.4 5.904-27.36 15.12-36.864 9.36-9.504 22.464-15.408 36.72-15.408 14.4 0 27.36 5.904 36.864 15.408 9.216 9.504 15.12 22.464 15.12 36.864 0 14.4-5.904 27.36-15.12 36.864-9.504 9.648-22.464 15.408-36.864 15.408-14.256 0-27.36-5.76-36.72-15.408-9.216-9.504-15.12-22.464-15.12-36.864zm133.056 50.4v-70.416l48.672 70.416h11.52v-100.8h-14.4v70.992l-49.104-70.992H399.04v100.8h14.544zm118.224 0v-86.976h30.384v-13.824h-75.456v13.824h30.528v86.976h14.544zm57.024-43.056h45.648v-14.688h-45.648V142.56h46.656v-14.544h-61.344v100.656h61.488v-14.544h-46.8v-28.512zm75.312 43.056v-70.416l48.672 70.416h11.52v-100.8h-14.4v70.992l-49.104-70.992H649.6v100.8h14.544zm91.008-14.544h21.6c23.328 0 35.136-17.856 35.136-35.712s-11.808-35.856-35.136-35.856h-21.6v71.568zm-14.544-86.112h36.144c32.976 0 49.536 25.2 49.536 50.4s-16.56 50.256-49.536 50.256h-36.144V128.016zM758 8h193v15H753l5-15zm178 335V13h15v330h-15zm-59-15h74v15h-68l-6-15zM193 11H0v15h198l-5-15zM15 343V13H0v330h15zm58-15H0v15h68l5-15z" fill="#DB3C00"/></svg>