<svg xmlns="http://www.w3.org/2000/svg" viewBox="0 0 1916.60722 750.87862"><defs><style>.cls-1{fill:#414042;}</style></defs><title>Logo_gray</title><g id="Слой_2" data-name="Слой 2"><g id="Слой_1-2" data-name="Слой 1"><path class="cls-1" d="M1099.53954,693.17471a1.91534,1.91534,0,0,0,.891-1.68237q.02578-1.60242.02561-3.20518.00228-23.84354.00093-47.68707c0-.80146-.01391-1.6032.00274-2.40432.05474-2.63663.05895-2.68735,2.73126-2.69q24.645-.02475,49.29-.01165c1.86905-.00069,3.738-.04915,5.60705-.0754q25.42414-.003,50.84829-.00813c1.20076-.00034,2.40446.01963,3.60131-.056,1.17227-.07417,1.578-.544,1.674-1.80026.05062-.664.04024-1.33344.04034-2.00046q.00279-24.62338-.002-49.24675a22.86183,22.86183,0,0,0-.09126-2.39609,1.36755,1.36755,0,0,0-1.27871-1.30245,22.39253,22.39253,0,0,0-2.39428-.10286q-24.223-.00823-48.446-.01371a6.88761,6.88761,0,0,0-3.85824.78011c-.0141-.41914.096-.8606.5123-.94672a9.85823,9.85823,0,0,1,1.98166-.15833q25.8426-.011,51.68519-.00524c.26712,0,.53443-.00529.80126.004,1.9984.06967,2.10934.16088,2.16711,1.99316.02947.93394.00519,1.86959.00519,2.80446q-.00029,24.24.0001,48.47991c.00039,4.34583-.24293,4.05344,4.1989,4.05379q24.8409.002,49.6818.03163c1.08943.003,2.42385-.62251,3.266.71q-28.63618-.01836-57.27227-.03652a8.927,8.927,0,0,0-3.55881-.40675q-24.86631-.00051-49.73252.00279a21.088,21.088,0,0,0-2.4028.07422,1.29111,1.29111,0,0,0-1.26588,1.28864c-.0421,1.06784-.05718,2.13734-.05738,3.20616q-.00485,23.6631-.00216,47.32615c0,.80214-.009,1.60438.00147,2.40642.04132,3.145-.146,3.09738-3.11858,3.096q-24.66568-.01175-49.33145.00357c-5.42042.00661-4.91022-.64268-4.91541,4.94714-.01493,16.04276.00514,32.08548-.02526,48.12819-.00245,1.29217.428,2.66786-.43676,3.87587-1.02064-1.55885-.813-3.319-.81365-5.04021Q1099.54,719.14254,1099.53954,693.17471Z"/><path class="cls-1" d="M1157.29253,520.73118c-1.42588.54775-2.912.26785-4.36624.27006q-23.86153.03628-47.723.01772c-4.55375.00176-4.385-.3195-4.38426,4.3235q.00389,24.2625.00259,48.525c.00127,5.16985.24959,4.55282-4.49427,4.55816q-24.864.02805-49.72811.00519c-3.33473-.00083-3.5267.31275-3.52293-3.51852q.02409-24.463.00759-48.926c-.001-5.36245.3409-4.96545-4.99781-4.9676q-24.062-.00962-48.124-.004c-4.92364-.00132-4.30852.24381-4.31381-4.29486q-.03084-26.46733-.016-52.93469l.06849-.05048q27.23476-.01939,54.46953-.03838c.40058-.00029.80185-.00955,1.20164.00989,1.649.08017,1.912.30254,1.97412,1.808.044,1.06659.02012,2.13614.02017,3.20438q.00132,23.6356.00553,47.27122c.00485,5.3625-.53634,4.75306,4.64031,4.75884q26.23938.0293,52.47857.0095Q1128.89138,520.74467,1157.29253,520.73118Zm-57.74526,28.86717h-.00313c0-8.41073.02076-16.82155-.01248-25.23213-.01013-2.56417-.24455-2.73866-2.73082-2.82541-.53341-.0186-1.06789-.00661-1.60188-.00666q-23.22967-.00029-46.45928.00171c-.93413.0002-1.87169-.01743-2.80162.05307-1.19009.09023-1.59943.53365-1.692,1.7869-.0589.79729-.04445,1.60076-.04455,2.40148q-.00323,23.83039.00171,47.66078c.00029.93311.0048,1.87027.089,2.79809a1.3646,1.3646,0,0,0,1.26182,1.321,21.36066,21.36066,0,0,0,2.39394.1106q24.03066.00852,48.06131-.00367c3.48557-.00382,3.52077-.04847,3.53081-3.63455C1099.56274,565.88586,1099.54727,557.74206,1099.54727,549.59835Z"/><path class="cls-1" d="M813.882,694.03041a2.21383,2.21383,0,0,0-1.73319-.83245c-1.06735.00622-2.13485-.00553-3.20225-.00553q-23.81776-.00081-47.63552-.00044c-.934,0-1.86871.02012-2.802-.00725-2.10307-.06159-2.22082-.17978-2.27962-2.33411-.02913-1.06666-.00583-2.1348-.00583-3.20225q-.00015-23.41745-.00245-46.8349c-.00024-1.20018-.02355-2.40064-.05469-3.60048a1.28794,1.28794,0,0,0-1.21991-1.33178,19.22127,19.22127,0,0,0-2.39643-.08323q-25.01869-.006-50.03734.00127a8.38435,8.38435,0,0,0-3.5523.37267c-1.33408.02262-2.66825.06507-4.00243.06536q-26.62967.00617-53.25932.002c.17339-.35857.37028-.685.83776-.69091,1.1944-.015,2.38872-.04818,3.5831-.04867q26.29894-.01035,52.59761-.01327c1.601-.02458,3.2021-.07011,4.8033-.07065q23.82789-.008,47.65579-.00563c1.72541-.00044,3.48826.20714,5.06219-.78486a2.03552,2.03552,0,0,0,1.711.85389c1.0673.00989,2.1347.01758,3.20205.01767q24.61912.0014,49.23823-.00519c3.54809-.00279,3.54447-.01542,3.54129,3.51005q-.02269,25.01943.01479,50.03881c.00289,1.39772-.53365,2.97816.85683,4.11547Z"/><path class="cls-1" d="M584.26367,521.52372a.8604.8604,0,0,1,.79646-.73051c1.20057-.03163,2.40206-.036,3.60319-.03618q23.8348-.00279,47.66962-.002c1.06813-.0001,2.13781.02316,3.20406-.02453,1.5021-.06712,1.7713-.3599,1.83914-1.98856.04443-1.06657.02169-2.136.02174-3.20421q.00117-23.63449.00186-47.269c.00015-1.06769.0014-2.13619.04274-3.20276a1.19447,1.19447,0,0,1,1.20015-1.299c1.19922-.05212,2.40077-.068,3.60133-.0683q24.2354-.006,48.47073-.02578c1.4107-.00316,2.96333.49931,4.19875-.69717a1.16956,1.16956,0,0,1,1.16086.74532,1.4467,1.4467,0,0,0-.89453,1.21858c-.05953,1.19709-.07912,2.39719-.07946,3.596q-.0069,24.00066-.003,48.00129c0,1.32145,0,2.64294,0,3.84052-1.59185.98-3.09723.61928-4.5303.62168-16.13368.027-32.26748.009-48.40121.02982-1.5798.00206-3.2114-.31255-4.71784.48254Q612.85583,521.5176,584.26367,521.52372Z"/><path class="cls-1" d="M698.72946,692.38878c-.10423.41047-.33889.74251-.77335.75774-1.19983.042-2.40143.044-3.60229.04411q-24.63131.00316-49.26261-.004c-3.626-.00255-3.509-.04274-3.508,3.51235q.00716,24.83157.0002,49.66315c-.00117,4.92892.39843,4.50582-4.531,4.50832q-24.23081.01226-48.4616.00313c-.534,0-1.06813.00774-1.602-.00137-2.98536-.05087-2.98592-.05224-3.03074-3.2255-.00565-.40048-.00049-.801-.00049-1.20155q.00007-24.431.00066-48.86213c0-.93448-.02213-1.87027.01821-2.80318.05682-1.31425.40467-1.70078,1.62071-1.759,1.06578-.05111,2.13534-.02928,3.20323-.02933q24.23081-.00191,48.4616-.01185c1.44436-.00157,2.95452.30741,4.28238-.59676Q670.13691,692.386,698.72946,692.38878Z"/><path class="cls-1" d="M1273.62387,693.15351c.93061-.05067,1.86132-.14492,2.79192-.14541q25.027-.01344,50.05389-.00832c3.69991-.00083,3.52278-.1318,3.52268,3.45918q-.00044,25.42738-.0045,50.8548c-.00225,3.5103-.03124,3.53987-3.50124,3.54212q-25.22718.01652-50.45437.004c-.53385,0-1.06906.01268-1.60134-.01831-1.46475-.08509-1.75811-.401-1.84007-1.98024-.02771-.53257-.01077-1.06755-.01077-1.60144q-.00029-25.42738.00725-50.85475c.00049-.7968.09939-1.59356.15246-2.39031Q1273.18187,693.58413,1273.62387,693.15351Z"/><path class="cls-1" d="M813.882,694.03041l.92067-.8744c.931-.0515,1.8619-.14741,2.793-.1479q24.84046-.01373,49.68092-.0002c.9308.00054,1.86166.09718,2.79246.14913q.43226.01858.86442.037.03253,23.90574.05616,47.81148c.00064,2.78375-.11476,5.56745-.17659,8.35119a1.26784,1.26784,0,0,0-.68963,1.23959c-.91974.08808-1.83943.25219-2.75922.25307q-24.92778.02313-49.8555.00142c-.92282-.00078-1.84555-.14164-2.76823-.21728q-.34567-.24506-.69149-.49013a5.40372,5.40372,0,0,1-.32984-2.73342q-.0094-25.70042.00411-51.40079C813.72359,695.34956,813.82674,694.69,813.882,694.03041Z"/><path class="cls-1" d="M700.07431,463.72111a1.16956,1.16956,0,0,0-1.16086-.74532c-.05753-1.05881-.16455-2.11754-.16528-3.17635q-.0163-24.71973.00431-49.4394c.00127-1.171-.27882-2.39918.42144-3.49522q26.59548-.01693,53.19126-.046a7.29074,7.29074,0,0,1,3.85257.80388c.06237.92366.17865,1.84729.17924,2.771q.01594,25.09591.00127,50.1918c-.00034.79382-.08313,1.58759-.12754,2.3814q-.41941.386-.83866.77188c-.92674.04426-1.85353.12666-2.78027.12707q-24.89987.01164-49.79979-.00088C701.92607,463.86446,701.00022,463.77119,700.07431,463.72111Z"/><path class="cls-1" d="M756.23854,634.6253c-1.57393.992-3.33679.78442-5.06219.78486q-23.82789.006-47.65579.00563c-1.6012.00054-3.20234.04607-4.8033.07065q.01182-25.25348.0259-50.50671c.00127-1.73681.04274-3.47358.0612-5.21039a1.3089,1.3089,0,0,1,.73056-1.29055c1.46651.00759,2.93385.02144,4.40115.02159q23.61184.00235,47.22363.00353c1.72374.00044,3.48586-.21449,5.05969.77717.062.791.17757,1.58186.17806,2.37288q.015,25.29724-.00034,50.59449C756.39668,633.0408,756.29377,633.833,756.23854,634.6253Z"/><path class="cls-1" d="M985.63234,463.78515c-4.7771.02889-9.55421.07819-14.33131.08269q-18.71836.01766-37.43667-.00294c-1.45628-.00142-2.91241-.09772-4.36869-.15-.0421-.91746.21552-1.96648-1.03337-2.35421-.097-1.05266-.2774-2.10525-.27862-3.158q-.0271-23.77476-.00064-47.54952c.00117-1.05386.175-2.10753.26839-3.16117,1.152-.96206,2.53411-.64927,3.8393-.65137q15.97765-.02589,31.95534-.00969c5.85846,0,11.71828.0684,17.57458-.04338a4.55172,4.55172,0,0,1,3.819,1.63836c.06815,1.05523.19456,2.11042.19574,3.16572q.02864,25.48771.02193,50.97539a8.65224,8.65224,0,0,1-.15789,1.16852Z"/><path class="cls-1" d="M1329.73651,521.53024c.08529.92493.24411,1.84986.24489,2.77484q.02247,25.2606.01547,50.52115c.00215,3.72782.02614,3.601-3.41722,3.59969q-25.26052-.00947-50.52115-.00308c-.401,0-.80224.00857-1.20272-.0047-2.057-.06805-2.2006-.20744-2.26718-2.3394-.02928-.93467-.00793-1.871-.00793-2.80656q-.00029-23.65671.00617-47.31342c.001-1.46676.09234-2.93336.14169-4.40012Q1301.23251,521.54439,1329.73651,521.53024Z"/><path class="cls-1" d="M1215.2089,636.20222q28.63618.01821,57.27227.03652a26.76834,26.76834,0,0,1,.27711,2.75q.02365,25.72062.00343,51.44128c-.00029.66173-.084,1.32345-.12876,1.98523q-28.64617-.02152-57.29215-.04308c-.0846-.91954-.24235-1.839-.243-2.75868q-.02174-25.71254-.0046-51.425C1215.09346,637.52636,1215.16866,636.86429,1215.2089,636.20222Z"/><path class="cls-1" d="M584.26367,521.52372q28.59216-.0061,57.18432-.01214c.04213,1.0603.12051,2.1205.121,3.18075q.01182,24.71047-.00463,49.4209c-.0011,1.18593-.15116,2.37171-.23194,3.55759q-28.53-.01065-57.06006-.02135a7.22643,7.22643,0,0,1-.296-3.14457q-.01505-24.91654,0-49.83308A7.54093,7.54093,0,0,1,584.26367,521.52372Z"/><path class="cls-1" d="M928.13045,635.47861q.02027-25.97963.0519-51.95931a13.06,13.06,0,0,1,.26663-4.36179,1.28843,1.28843,0,0,0,.28494-.51926l.13317-.08862c2-.01611,4.00008-.04421,6.00014-.04641q25.00349-.02754,50.007-.0469l-.01239-.00548q-.01138,25.82416-.02321,51.64828c-.00049,1.06755.02982,2.1373-.0261,3.2022-.08783,1.67312-.45346,2.01666-2.23325,2.09171-1.1991.05057-2.40182.01767-3.60293.01924Q953.55343,635.4459,928.13045,635.47861Z"/><path class="cls-1" d="M698.72946,692.38878q-28.59252-.00286-57.18507-.00588c-.0449-1.05991-.12842-2.11972-.129-3.17958q-.01259-24.70952.00282-49.419a8.793,8.793,0,0,1,.28056-3.54511q26.62967.00059,53.25932-.00191c1.33418-.00029,2.66835-.04274,4.00243-.06536.04117,1.19548.1177,2.39075.11828,3.58608q.012,24.34923-.00656,48.69841C699.07075,689.76948,699.33429,691.12192,698.72946,692.38878Z"/><path class="cls-1" d="M928.3962,636.187c.03643.39652.10453.793.10467,1.1895q.01153,26.514.0001,53.02794a14.29276,14.29276,0,0,1-.26531,1.95541l-57.27227.02658c-.0449-1.05976-.12837-2.11952-.12886-3.17929q-.01256-24.7079.0023-49.41576a9.52166,9.52166,0,0,1,.25889-3.55093Q899.74594,636.2137,928.3962,636.187Z"/><path class="cls-1" d="M985.87381,692.37546c-.07422-.92175-.21253-1.8434-.21322-2.76519q-.01873-25.70666-.00352-51.41328c.00024-.66227.06933-1.32448.10624-1.98685q28.66372.01865,57.3275.03745c.08847.91866.25326,1.83723.254,2.75594q.02189,25.71445.00357,51.42889c-.00029.66178-.08073,1.3235-.12382,1.98533Z"/><path class="cls-1" d="M756.41337,519.94358c-.05953-.79176-.17062-1.58352-.17111-2.37533q-.01505-25.30455-.00093-50.60913c.00044-.793.0989-1.58587.15177-2.37883q28.64882.00411,57.29758.0083a17.80576,17.80576,0,0,1,.21194,1.968q-.00066,27.09608-.02683,54.19218-28.39039-.02174-56.78126-.04348l-.0588-.01381Q756.72465,520.31758,756.41337,519.94358Z"/><path class="cls-1" d="M870.94939,520.72232c-.03985-.79308-.11412-1.58612-.11447-2.3792q-.0108-25.1001.00274-50.20022c.00093-1.18769.13415-2.37526.20582-3.56293l57.30189.00235c.05655.92588.16186,1.85172.1624,2.77763q.01476,24.92289-.00157,49.84576c-.00064.92444-.12142,1.84878-.18624,2.77312q-.23052.31894-.46095.63808l-.11383.0518Q899.34747,520.69544,870.94939,520.72232Z"/><path class="cls-1" d="M1157.29253,520.73118q-28.401.01344-56.80183.02693-.01109-26.70028-.01322-53.40039c.00024-.92211.13659-1.84418.20959-2.76627l57.33259-.02989c.05307,1.05886.15168,2.11766.15236,3.17654q.01483,24.51215-.00059,49.02428c-.00068,1.05771-.11084,2.11536-.17,3.173q-.34531.39583-.69052.79171Z"/><path class="cls-1" d="M1272.5458,464.58694a17.691,17.691,0,0,1,.21287,1.968q-.00734,27.095-.04034,54.19-28.39354-.02255-56.78758-.04524l-.06678-.01684q-.29992-.36778-.59974-.73565c-.05895-.792-.16881-1.58391-.1693-2.37592q-.01513-25.30635-.00108-50.61273c.00039-.79289.10056-1.58573.15432-2.37864Z"/><path class="cls-1" d="M870.85652,521.51384c.04744,1.05976.13566,2.11952.1362,3.17928q.01329,24.71356-.00206,49.42707a9.21408,9.21408,0,0,1-.26756,3.54936q-28.35506.00316-56.71008.00622a25.92228,25.92228,0,0,1-.28553-2.74536q-.02512-25.68992-.0046-51.37979c.00034-.65992.09611-1.31988.14741-1.97979,1.72673-.01229,3.4535-.03432,5.18023-.03525Q844.95351,521.52177,870.85652,521.51384Z"/><path class="cls-1" d="M1099.53954,693.17471q.00389,25.96788.01018,51.93571c.00064,1.72119-.207,3.48136.81365,5.04021l.00039-.00176-.77071.48479c-.92263.07559-1.84516.21654-2.76783.21728q-24.92352.02-49.847-.0001c-.92243-.00073-1.84477-.14291-2.76715-.21924q-.0022-28.73063-.00455-57.46135c.92473-.0562,1.84937-.16093,2.77415-.16152q24.89282-.015,49.78564-.0001C1097.69076,693.00923,1098.61515,693.11689,1099.53954,693.17471Z"/><path class="cls-1" d="M1158.18162,579.27207a6.88761,6.88761,0,0,1,3.85824-.78011q24.223.022,48.446.01371a22.39253,22.39253,0,0,1,2.39428.10286,1.36755,1.36755,0,0,1,1.27871,1.30245,22.86183,22.86183,0,0,1,.09126,2.39609q.007,24.62338.002,49.24675c-.0001.667.01028,1.33643-.04034,2.00046-.096,1.25623-.50173,1.72609-1.674,1.80026-1.19685.07564-2.40055.05567-3.60131.056q-25.42415.00742-50.84829.00813c-.02869-4.64531-.07785-9.29056-.08206-13.93577q-.01719-18.92222.00392-37.8444C1158.01154,582.183,1158.1217,580.72757,1158.18162,579.27207Z"/><path class="cls-1" d="M1158.129,462.9773c-.04289-.92713-.12259-1.85426-.123-2.78142q-.01057-24.70805.004-49.41612c.00069-1.05678.11868-2.11345.18223-3.17018,1.43586-.93861,3.05434-.78,4.64873-.77979q23.38815.00268,46.77639-.00181c4.756-.00233,4.64325-.19172,4.64031,4.53449q-.0163,26.18676-.0047,52.37355c-.92669.04512-1.85328.12913-2.78.12957q-24.90068.01168-49.80146-.00078c-.9263-.00047-1.8526-.08923-2.7789-.13689Q1158.51082,463.35261,1158.129,462.9773Z"/><path class="cls-1" d="M1043.09075,636.2476q-28.66372-.0188-57.32745-.03745a7.98659,7.98659,0,0,0-3.53522-.41243q-25.35034-.006-50.70073.00446a6.24036,6.24036,0,0,0-3.13111.38482q-28.65028.02681-57.30052.05351c.16411-.36014.34095-.695.81888-.69874,1.19523-.00925,2.39036-.04191,3.58554-.0425q26.31488-.01351,52.63-.02056,25.42334-.03319,50.84619-.06644c1.20111-.00157,2.40383.03133,3.60293-.01924,1.7798-.07505,2.14542-.4186,2.23325-2.09171.05591-1.0649.02561-2.13465.0261-3.2022q.0127-25.82416.02321-51.64828c.415.02443.884.1597.91935.57316.10213,1.19161.12014,2.39286.12059,3.59034q.00955,24.238.005,48.476c.00073,4.733-.28675,4.40414,4.26108,4.40536q24.238.00654,48.476.00353c1.20081.0002,2.40187.01792,3.60239.04431C1042.69629,635.55346,1042.92542,635.87307,1043.09075,636.2476Z"/><path class="cls-1" d="M1214.253,463.736q.00015-26.18676.0047-52.37355c.00294-4.72621.11564-4.53681-4.64031-4.53449q-23.38815.01146-46.77639.00181c-1.59439-.00017-3.21287-.15882-4.64873.77979-.05151-.52973-.10849-1.14069.52768-1.29787a8.35876,8.35876,0,0,1,1.98381-.15312q25.82791-.01087,51.65592-.00475c.53375,0,1.06759.01329,1.60125.02869a1.17439,1.17439,0,0,1,1.29281,1.1906c.05875,1.19827.07706,2.39952.07735,3.5995q.0069,24.026.0049,48.052c.0002,1.06737-.01743,2.13783.05542,3.20122a1.43992,1.43992,0,0,0,1.57295,1.432q1.60066.037,3.2022.03667,24.026.00319,48.05206.00529c1.19841.00044,2.39741.044,3.59495.09393.47226.01968.61433.4112.73223.79316q-28.64882-.00352-57.29763-.007Q1214.75055,464.158,1214.253,463.736Z"/><path class="cls-1" d="M1044.20652,693.17026q.00235,28.7307.00455,57.46135c-.42364.04166-.903-.08367-.94593-.48229a33.72659,33.72659,0,0,1-.17312-3.57517q-.01476-24.18737-.008-48.3748c-.00127-5.55565.3784-4.99805-4.87326-5.00241q-23.98747-.01983-47.975-.00764c-1.19773-.00029-2.3955-.0377-3.59308-.0657-.47818-.01121-.63514-.37253-.76885-.74814l57.3508.0423Q1043.71554,692.794,1044.20652,693.17026Z"/><path class="cls-1" d="M870.85652,521.51384q-25.903.01006-51.806.02174c-1.72673.00093-3.4535.023-5.18023.03525-1.49647-.83044-3.13224-.54232-4.717-.544q-24.05335-.02563-48.10665-.02384c-1.31768-.00166-2.67227.27867-3.95234-.29762q28.39112.02166,56.78151.04348,28.53653-.01322,57.07355-.02644,28.398-.027,56.79585-.05366c-1.25667.65781-2.60989.32993-3.9143.33189q-24.13244.0362-48.26488.02585C873.98685,521.02807,872.36352,520.75321,870.85652,521.51384Z"/><path class="cls-1" d="M1215.93075,520.69965q28.394.02269,56.78758.04524,26.31451.00536,52.62931.01312c1.19479.00049,2.38958.03927,3.58437.05062.49067.00465.63274.374.80449.72155q-28.504.01425-57.008.02845c-1.50137-.815-3.13659-.53017-4.72256-.53184q-24.06187-.02541-48.12364-.02419C1218.565,521.00085,1217.20926,521.288,1215.93075,520.69965Z"/><path class="cls-1" d="M928.34538,464.58232,871.04349,464.58c.12788-.363.21111-.77612.71264-.79152,1.19308-.0366,2.3865-.08822,3.57977-.08866q23.72214-.0087,47.44433-.00382c.93027,0,1.86087.01432,2.79075-.0049,2.07375-.04286,2.0736-.04982,2.89126-2.33049,1.24894.3878.99132,1.43682,1.03342,2.35428Z"/><path class="cls-1" d="M985.63964,408.42584a4.55172,4.55172,0,0,0-3.819-1.63836c-5.8563.11177-11.71613.04343-17.57458.04338q-15.97765-.00011-31.95534.00969c-1.30519.00211-2.68735-.31069-3.8393.65137.0657-.36746.0635-1.02.20832-1.05443a10.23648,10.23648,0,0,1,2.34547-.27532q25.93843-.02009,51.87687-.01011c.532,0,1.06554-.01616,1.59571.017C985.67474,406.24387,985.74617,406.395,985.63964,408.42584Z"/><path class="cls-1" d="M1158.129,462.9773q.38188.37531.76366.75061-.43652.41676-.873.8336-28.66629.015-57.33264.02994c.10986-.38956.26751-.781.72836-.80214,1.19822-.0551,2.39844-.08928,3.59788-.08967q24.44624-.008,48.89239-.02017C1155.33262,463.67717,1156.87119,464.09812,1158.129,462.9773Z"/><path class="cls-1" d="M1215.3407,692.37213q28.64617.02159,57.29225.04308.49541.3691.99092.7383-.442.43064-.8841.86133a2.229,2.229,0,0,0-1.7445-.81511c-1.06789.00274-2.13578-.00725-3.20367-.00729q-24.02941-.00073-48.05891-.00313c-1.19969-.00034-2.39957-.03045-3.59876-.0683C1215.6746,693.10656,1215.48356,692.75127,1215.3407,692.37213Z"/><path class="cls-1" d="M756.21773,407.6227a7.29074,7.29074,0,0,0-3.85257-.80388q-26.5957.04436-53.19126.046a.79764.79764,0,0,1,.8111-.69071c1.06848-.02825,2.13793-.02208,3.207-.02213q24.45586-.0014,48.91173.00521a26.10854,26.10854,0,0,1,3.59093.16433C756.30963,406.40749,756.27056,407.08983,756.21773,407.6227Z"/><path class="cls-1" d="M870.9634,692.38648l57.27227-.02658c-.11241.40009-.32044.75534-.76513.77213-1.20057.04529-2.40295.05767-3.60459.05792q-26.46623.00558-52.93247.004-.43226-.01829-.86447-.03687Q870.51618,692.77168,870.9634,692.38648Z"/><path class="cls-1" d="M756.2194,579.28108c-1.57383-.99166-3.336-.77673-5.05969-.77717q-23.61184-.00632-47.22363-.00353c-1.46729-.00015-2.93464-.014-4.40115-.02159a4.03114,4.03114,0,0,1,2.32995-.31216q25.74419-.01087,51.48833.00029a14.00645,14.00645,0,0,1,2.36936.15637C756.13607,578.39483,756.22092,578.87036,756.2194,579.28108Z"/><path class="cls-1" d="M584.27238,577.64948q28.53.01072,57.06006.02135c-.13819.20969-.25.57282-.41914.60185a11.77662,11.77662,0,0,1-1.9796.15437q-26.14413.01072-52.28822-.01679C585.82724,578.40883,584.72459,578.93675,584.27238,577.64948Z"/><path class="cls-1" d="M813.69069,464.58858q-28.64882-.00419-57.29758-.0083-.09444-.38632-.18878-.77286l.114-.09018q27.13019-.01094,54.26038-.018c.795-.0001,1.59126.04015,2.38473.09329C813.43067,463.82387,813.57534,464.20617,813.69069,464.58858Z"/><path class="cls-1" d="M814.013,577.67577q28.35506-.00308,56.71008-.00622c-.14536.20612-.269.568-.4396.59172a17.3911,17.3911,0,0,1-2.37656.16582q-25.53871.01219-51.07732-.0189C815.875,578.40628,814.688,578.90958,814.013,577.67577Z"/><path class="cls-1" d="M984.87426,578.45632q-25.00349.02247-50.007.0469c-2.00006.0022-4.00013.03031-6.00014.04641a3.43881,3.43881,0,0,1,2.31433-.38119q25.66693-.01241,51.33386.00563A19.44534,19.44534,0,0,1,984.87426,578.45632Z"/><path class="cls-1" d="M870.12336,750.59631a1.26784,1.26784,0,0,1,.68963-1.23959C870.943,749.97017,871.09985,750.59846,870.12336,750.59631Z"/><path class="cls-1" d="M1157.31094,520.72712q.34516-.39591.69052-.79171C1158.11337,520.49765,1157.91568,520.78988,1157.31094,520.72712Z"/><path class="cls-1" d="M927.859,520.61691q.23045-.31909.46095-.63808C928.55747,520.47415,928.33256,520.63532,927.859,520.61691Z"/><path class="cls-1" d="M756.41337,519.94358q.31123.374.62236.74794C756.46914,520.741,756.2712,520.48374,756.41337,519.94358Z"/><path class="cls-1" d="M928.73392,578.63825a1.28843,1.28843,0,0,1-.28494.51926q-.09452-.11963-.18947-.23882Z"/><path class="cls-1" d="M755.432,463.73876l.83861-.77188c.015.25067.02991.50136.04627.75122l-.11246.08913Q755.818,463.77341,755.432,463.73876Z"/><path class="cls-1" d="M1215.26413,519.94715l.59984.73565C1215.30574,520.72961,1215.11451,520.47733,1215.26413,519.94715Z"/><path class="cls-1" d="M814.04892,750.14339q.34575.24506.69149.49013C814.24035,750.8503,814.00485,750.694,814.04892,750.14339Z"/><path class="cls-1" d="M1099.593,750.63366l.77071-.48479C1100.34368,750.68712,1100.066,750.81569,1099.593,750.63366Z"/><path class="cls-1" d="M1099.54727,549.59835c0,8.1437.01547,16.28751-.0072,24.43116-.01,3.58608-.04524,3.63073-3.53081,3.63455q-24.03066.02622-48.06131.00367a21.36066,21.36066,0,0,1-2.39394-.1106,1.3646,1.3646,0,0,1-1.26182-1.321c-.08421-.92782-.08871-1.865-.089-2.79809q-.007-23.83039-.00171-47.66078c.0001-.80072-.01435-1.60418.04455-2.40148.09258-1.25325.50193-1.69667,1.692-1.7869.92992-.0705,1.86748-.05288,2.80162-.05307q23.22967-.00389,46.45928-.00171c.534,0,1.06848-.01195,1.60188.00666,2.48627.08675,2.72069.26124,2.73082,2.82541.03324,8.41058.01248,16.8214.01248,25.23213Z"/><path class="cls-1" d="M1332.3269,148.594q.00021,68.80114-.00791,137.6023c-.0025,7.06744.80614,6.3066-6.4036,6.31823q-22.45975.03625-44.91964.00483c-1.51549-.00038-3.03252.00458-4.54579-.06371a1.66116,1.66116,0,0,1-1.74907-1.77808q-.05645-2.557-.058-5.11518-.00479-50.6057-.0025-101.21142c0-1.32673.02208-2.654-.0068-3.98012-.08152-3.72649-.08985-3.79018-3.86755-3.79585q-25.30291-.038-50.60569-.00684a20.64724,20.64724,0,0,0-2.26776.10841,1.48006,1.48006,0,0,0-1.41342,1.47361c-.0904,1.70009-.12554,3.40485-.12582,5.10769q-.00979,51.45861-.015,102.91722c-.00458,7.08736.81545,6.32542-6.38,6.3384q-22.45975.04057-44.91964.00656c-1.51591-.00028-3.03335.01309-4.54732-.04878a1.66351,1.66351,0,0,1-1.80282-1.73034q-.06468-2.27223-.06846-4.54609-.00458-138.17065.00424-276.3413c.00083-7.07364-.719-6.3767,6.38728-6.37826q80.45731-.0177,160.91477-.00126c7.108.00126,6.39249-.65873,6.3943,6.38072Q1332.33857,79.22438,1332.3269,148.594Zm-57.68656-58.17132q0-11.92153-.00486-23.843c-.00167-1.32291-.01361-2.65043-.12582-3.96688a1.48652,1.48652,0,0,0-1.45856-1.42431c-1.129-.08594-2.26331-.14215-3.39525-.14277q-24.12682-.0133-48.25378-.001c-1.13249.00054-2.26665.049-3.39678.12594a1.52525,1.52525,0,0,0-1.51619,1.37507,28.9277,28.9277,0,0,0-.13512,3.39807q-.01062,24.41073-.00167,48.82148c.00014.94517-.00153,1.89347.0711,2.83468a1.71678,1.71678,0,0,0,1.78657,1.76054c1.13332.04545,2.26859.06365,3.403.06392q23.84311.00583,47.68608.00034c1.13457-.00024,2.26984-.01694,3.40372-.05668a1.719,1.719,0,0,0,1.84434-1.702c.08763-1.129.08832-2.26652.08915-3.40032Q1274.64631,102.34421,1274.64034,90.42269Z"/><path class="cls-1" d="M.0219,148.00068q0-68.823.01479-137.64592C.0419,2.43528-.94729,3.488,7.0107,3.48369q79.62986-.043,159.25976-.00144c7.964.00388,6.96663-.97866,6.9684,6.89362q.03093,137.64593-.00259,275.29188c-.0021,7.88071,1.07156,6.83446-6.98344,6.83887q-79.91426.04374-159.82855.00469c-7.22645-.00257-6.387.841-6.39062-6.29575Q-.00092,217.10813.0219,148.00068Zm57.42467.01448q0,39.78765.00031,79.57528c0,1.51572-.03376,3.03267.0158,4.54685.07516,2.29662.45915,2.74381,2.54953,2.86049,1.51148.08436,3.03027.048,4.5458.04822q22.1674.00391,44.3348-.00087c7.91588-.0046,7.0971.59567,7.099-6.92171q.02018-80.14374.00657-160.28747c0-1.32624.03414-2.65414-.01962-3.97834-.09046-2.22775-.55461-2.73567-2.58313-2.86631-.94387-.06079-1.89375-.03667-2.84091-.03677q-23.87258-.0026-47.74516-.01087c-5.88636-.01045-5.35909.23865-5.36011,5.22264Q57.44112,107.09072,57.44657,148.01516Z"/><path class="cls-1" d="M1915.95077,117.70108c.9294,1.433.59951,3.00532.59993,4.5068q.02438,82.36291.0157,164.72581c.00042,5.39037.13776,5.06655-4.916,5.06651q-82.64978-.00074-165.2997-.00217c-.956,0-1.91344-.00137-2.86764-.05013a1.67616,1.67616,0,0,1-1.825-1.72342c-.0384-.955-.0632-1.91132-.06348-2.86706q-.00588-24.393-.00182-48.786c0-.76508.03545-1.53043.02452-2.29521a1.94941,1.94941,0,0,1,1.99122-2.25522c1.717-.09221,3.43968-.10265,5.16-.10291q50.22116-.00794,100.44232-.04493c2.97345-.00576,6.06489.75456,8.93155-.75277,1.00535-2.78076.44928-5.6614.46218-8.48868.06488-14.15731.03-28.3151.02985-42.47271,0-1.33923.02831-2.67938-.01079-4.01751-.08576-2.941-.22843-3.07056-3.41937-3.15046-1.33832-.03353-2.67832-.00823-4.01747-.00825q-51.65624-.00032-103.31235-.00452c-6.989-.00191-6.27341.557-6.2751-6.0146q-.02081-81.502-.00645-163.00394c.00028-6.05273-.44928-5.64835,5.508-5.6486q82.07591-.00348,164.15183.0044c5.32328.0009,5.31641-.55441,5.31389,5.29922q-.00988,23.81923-.00308,47.63848c-.00014.9564-.00631,1.91327-.036,2.8691-.0412,1.3236-.64071,2.18352-2.05092,2.22339-1.72061.04864-3.44277.05691-5.16436.05706q-51.08217.00445-102.16448.008c-1.9105.00044-3.82184.06056-5.73094.13863a1.49029,1.49029,0,0,0-1.49387,1.415,23.90422,23.90422,0,0,0-.13986,2.86082q-.01177,24.96715-.00617,49.9343c0,.38264-.00673.76562.00659,1.14784.10777,3.0861.31391,3.32419,3.18211,3.40474,1.52947.043,3.06089.01367,4.59148.01369q51.08217.00056,102.16434.01856C1911.80423,117.34588,1913.9276,116.99416,1915.95077,117.70108Z"/><path class="cls-1" d="M1013.59217,292.52162q-40.66912-.00021-81.33817,0c-5.66516.00007-5.15571.30038-5.16342-5.28552q-.0327-23.60509-.00486-47.21027a32.58792,32.58792,0,0,1,.1011-3.40776,1.60906,1.60906,0,0,1,1.46147-1.50824c1.69825-.12748,3.4074-.14335,5.1121-.1437q50.62281-.01055,101.24562-.02248c9.03554-.01153,7.87424,1.13968,7.91076-7.77851.06055-14.78852.01555-29.57746.01729-44.36622.00076-6.81469.33287-6.23211-6.05552-6.23341q-51.1919-.01042-102.38373-.03052c-2.23179-.00255-4.973.98166-6.58816-.56317-1.82122-1.74184-.79073-4.64748-.7926-7.03178q-.06145-79.34737-.02173-158.69478c.00271-7.6389-.81177-6.76218,6.5481-6.76509q80.20058-.03164,160.40115-.00586c7.08948.00134,6.2882-.65079,6.30229,6.45338q.04447,22.46746.00417,44.93506c-.00076,1.514-.02173,3.03088-.12005,4.54077a1.52321,1.52321,0,0,1-1.47994,1.43958c-1.69617.13408-3.40261.18792-5.10488.18842q-50.05424.01481-100.10854.00737c-.948,0-1.896.00438-2.844-.0008-6.73127-.03677-6.16578-.196-6.16891,6.1507q-.01156,23.32074.0025,46.64148c.00062,1.32467.029,2.652.11985,3.97295a1.44211,1.44211,0,0,0,1.4035,1.48679q2.55143.12907,5.109.13179,50.90746.0106,101.815.02126c8.659.01,7.354-1.11359,7.36077,7.63124q.06187,79.34734.00875,158.69479c-.00326,7.64925.93161,6.73229-6.54823,6.74076Q1053.69244,292.55524,1013.59217,292.52162Z"/><path class="cls-1" d="M868.529,206.05171q.00021,40.656-.00187,81.31211c-.00083,5.52136.39738,5.15585-5.26715,5.15613q-81.3121.0038-162.62426-.00028c-1.13666-.00007-2.27394-.00889-3.40969-.04947a1.64074,1.64074,0,0,1-1.8124-1.68766q-.06155-1.4188-.06194-2.84016-.00542-24.16619-.00069-48.33236c.00014-.94741-.01757-1.89827.0543-2.84134a1.73379,1.73379,0,0,1,1.857-1.71955q2.55529-.0872,5.11335-.08485,50.89111-.00685,101.78228-.0063c1.70526-.00019,3.4142.018,5.11467-.08374a1.997,1.997,0,0,0,2.02862-2.2161c.00805-.94739.03444-1.89472.03458-2.84207q.00312-24.16619-.00465-48.33236c-.00062-1.13362-.04937-2.27043-.14581-3.39978a1.46876,1.46876,0,0,0-1.50307-1.39522c-1.70019-.09134-3.40538-.12144-5.10856-.12175q-51.17544-.00935-102.35089-.01864c-7.92284-.0076-6.85375.98067-6.85819-6.97422q-.04427-79.60624-.001-159.2125c.004-7.8801-1.00848-6.87451,6.96658-6.8786q79.89051-.04089,159.7811-.00408c7.18447.0025,6.39152-.80542,6.40721,6.30243q.0502,22.74394.0084,45.48808c-.00028,1.32642.02826,2.657-.06548,3.97794a1.73057,1.73057,0,0,1-1.86566,1.71035c-1.70429.04526-3.40955.07774-5.1144.078q-50.60687.00652-101.21368.0037c-1.51626,0-3.03432-.03829-4.5485.01988-2.7311.10493-3.15215.49388-3.15736,3.45489q-.04562,25.87194-.01048,51.744a10.04082,10.04082,0,0,0,.14561,1.69314,1.54686,1.54686,0,0,0,1.54028,1.36683c1.701.082,3.40622.10473,5.10974.105q51.45978.008,102.91956.01351c7.1326.0044,6.24216-.77113,6.25036,6.44024Q868.56222,165.96426,868.529,206.05171Z"/><path class="cls-1" d="M463.531,147.96921q-.00005-69.07979.006-138.15959c.00181-7.03692-.70258-6.33329,6.43474-6.33477q80.16667-.01659,160.33335-.00591c.94758,0,1.89558-.01539,2.84275.00449,3.68708.07736,3.78964.11355,3.796,3.86845q.04218,25.01648.00993,50.03308a13.77064,13.77064,0,0,1-.05652,1.70345,1.87823,1.87823,0,0,1-1.7906,1.84609c-1.69915.10533-3.40615.11011-5.10988.11038q-50.31722.00813-100.63441.00427c-1.51615,0-3.03286-.02292-4.54836.01019-3.72007.08125-3.7928.09179-3.7994,3.87774q-.04416,25.30076-.01239,50.60163c0,.5683.00969,1.13743.04062,1.70475.07044,1.28921.62162,2.137,2.04133,2.15136,1.51574.01528,3.03148.04012,4.54721.04043q22.74232.00466,45.48463-.00023c5.61971-.00248,5.14838-.179,5.15061,5.30492q.00943,23.31087-.001,46.62176-.00047,1.70441-.06374,3.40865a1.65625,1.65625,0,0,1-1.78237,1.7356c-1.51376.059-3.03023.06343-4.54555.06385q-22.17374.00612-44.34752.00479c-1.51553.0004-3.03127.02335-4.54652.05378a1.74974,1.74974,0,0,0-1.87732,1.69011,26.04237,26.04237,0,0,0-.098,2.83619q-.00781,24.73226.00184,49.46454a22.02529,22.02529,0,0,0,.14877,2.83272,1.48723,1.48723,0,0,0,1.50119,1.38246c1.89145.07358,3.785.13066,5.67762.13108q50.60166.0112,101.20333.01219c8.33217.004,7.391-.77158,7.40854,7.17463q.04864,22.17367.00493,44.34751c-.00083,1.51452-.01347,3.03286-.12332,4.542a1.48274,1.48274,0,0,1-1.49147,1.40209c-1.32149.08-2.64889.08468-3.97378.08478q-81.01953.00542-162.039.00128c-6.35295-.00038-5.78708.46786-5.78809-5.82253Q463.524,217.33329,463.531,147.96921Z"/><path class="cls-1" d="M1682.76588,146.0047q-.00021,69.74047-.00953,139.481c-.00294,7.21327.8142,6.50634-6.34727,6.508q-81.22037.01834-162.44074.002c-6.86227-.00105-6.25057.63248-6.25253-6.04481q-.01535-52.2336-.00687-104.46722c-.00056-5.83354-.40724-5.78787,5.46468-5.77911q23.53392.03513,47.06771.00913c.95658.00011,1.91526-.024,2.86918.031,2.08091.12006,2.52234.57619,2.56649,2.87249.05507,2.869.02116,5.73966.02214,8.60962q.00736,21.8118.02831,43.62355c.00673,2.65716.35161,2.91713,2.96476,3.04355.57288.02775,1.14773.018,1.72173.018q24.9688.00013,49.93759-.00808c.95322-.00056,1.90938-.06679,2.859-.15622a1.46077,1.46077,0,0,0,1.4074-1.50053q.12823-2.86389.12584-5.73343.00862-109.05907.02789-218.11815c.001-2.4465-.99736-5.44552.605-7.21228,1.85893-2.0495,5.058-.8102,7.64873-.82731,14.54071-.09606,29.08212-.05,43.6234-.04074,1.52694.001,3.057.03262,4.57943.13905a1.45682,1.45682,0,0,1,1.42969,1.4834c.07245,1.71853.10412,3.44.10426,5.16022Q1682.76987,76.55122,1682.76588,146.0047Z"/><path class="cls-1" d="M347.24679,3.51828a5.9652,5.9652,0,0,1,.51663,3.291q.008,24.80689-.012,49.61376a25.53587,25.53587,0,0,1-.299,2.78547q-15.33751.01673-30.67464.03222c-7.76335.00523-15.5267-.00891-23.29.01011-1.48154.00363-3.07432-.30576-4.20865,1.0894q-.0139,87.13139-.02774,174.26278c1.00907,1.11669,2.35709,1.01473,3.67205,1.01192q26.5627-.05708,53.12539-.11912c.3854.37006,1.00681.50353,1.00494,1.24116-.00382,1.51178.09506,3.02373.09589,4.53563q.01219,22.71084.00264,45.42165-.00052,1.98617-.05548,3.97224a1.672,1.672,0,0,1-1.73394,1.78956c-1.13159.06794-2.26845.0636-3.403.06371q-52.51881.00422-105.03756-.006c-1.13063-.00035-2.26123-.12543-3.39183-.19241l-1.27961-.99773c-.10773-1.88157-.30942-3.76315-.30973-5.64474q-.02317-138.2893.00444-276.57862c.00042-1.86416-.40314-3.793.51823-5.58251Z"/><path class="cls-1" d="M289.27918,60.34019c1.13433-1.39517,2.72711-1.08578,4.20865-1.08941,7.76328-.019,15.52663-.00488,23.29-.01011q15.33725-.01033,30.67464-.03222c2.22564.646,4.51038.44831,6.7764.45q23.01139.0173,46.02275-.00356c5.16366-.00918,4.99045.10958,4.98972,5.00151q-.01239,82.95467-.00674,165.90933c0,.94659.02236,1.89706-.05274,2.83878a1.77745,1.77745,0,0,1-1.77338,1.81945c-1.51063.07968-3.026.09705-4.53923.09575q-25.2836-.02166-50.56723-.04843a21.91139,21.91139,0,0,0-2.25078.22443q-26.56624.06033-53.12776.11915c-1.315.00281-2.663.10478-3.67209-1.012,1.69575.112,3.39143.31893,5.08739.32155q23.86613.0369,47.73225-.003c5.70838-.01767,5.42383.92769,5.42446-5.517q.0076-81.82687-.00076-163.65375-.00016-1.98678-.09343-3.97312a1.46869,1.46869,0,0,0-1.3226-1.54386,12.04213,12.04213,0,0,0-1.69512-.1318q-26.70679.00844-53.41362.04022A14.27582,14.27582,0,0,0,289.27918,60.34019Z"/></g></g></svg>