<?xml version="1.0" encoding="utf-8"?>
<!-- Generator: Adobe Illustrator 16.0.0, SVG Export Plug-In . SVG Version: 6.00 Build 0)  -->
<!DOCTYPE svg PUBLIC "-//W3C//DTD SVG 1.1//EN" "http://www.w3.org/Graphics/SVG/1.1/DTD/svg11.dtd">
<svg version="1.1" id="Layer_1" xmlns="http://www.w3.org/2000/svg" xmlns:xlink="http://www.w3.org/1999/xlink" x="0px" y="0px"
	 width="310.012px" height="93.49px" viewBox="0 0 310.012 93.49" enable-background="new 0 0 310.012 93.49" xml:space="preserve">
<g>
	<defs>
		<rect id="SVGID_1_" x="3" y="-28" width="300" height="150.001"/>
	</defs>
	<clipPath id="SVGID_2_">
		<use xlink:href="#SVGID_1_"  overflow="visible"/>
	</clipPath>
	<path clip-path="url(#SVGID_2_)" d="M106.132,62.964h24.549c5.228,0,9.482-3.998,9.482-8.911v-1.672
		c0-4.823-4.017-8.735-9.145-8.903l-0.171-0.015H114.26c-1.439,0-2.61-1.1-2.61-2.45v-1.611c0-1.352,1.17-2.453,2.61-2.453h24.051
		v-6.457H114.26c-5.228,0-9.481,3.995-9.481,8.91v1.611c0,4.914,4.253,8.913,9.481,8.913h16.421
		c1.439,0.003,2.608,1.104,2.608,2.455v1.672c0,1.349-1.17,2.449-2.608,2.449h-24.549V62.964z"/>
	<rect x="148.305" y="30.493" clip-path="url(#SVGID_2_)" width="6.873" height="32.467"/>
	<path clip-path="url(#SVGID_2_)" d="M244.443,62.948h6.875l0.001-23.537c0-4.914-4.254-8.912-9.483-8.912h-34.249v32.449h6.832
		V36.96h11.443l0.008,25.988h6.86V36.96h9.105c1.44,0,2.611,1.102,2.611,2.453L244.443,62.948z"/>
	<path clip-path="url(#SVGID_2_)" d="M291.828,39.402c0-4.913-4.256-8.911-9.486-8.911h-21.827v6.461h21.827
		c1.443,0,2.613,1.102,2.613,2.452l-0.001,4.062h-17.325c-5.228,0-9.48,4-9.48,8.915v1.651c0,4.918,4.252,8.916,9.48,8.916h24.172
		L291.828,39.402z M284.939,56.487h-0.004h-17.306c-1.439,0-2.612-1.1-2.612-2.455v-1.651c0-1.353,1.173-2.454,2.612-2.454h17.319
		L284.939,56.487z"/>
	<path clip-path="url(#SVGID_2_)" d="M164.443,54.056c0,4.914,4.25,8.914,9.48,8.914h24.201V43.487h-18.083v6.461h11.172v6.561
		h-17.29c-1.439,0-2.613-1.102-2.613-2.453l-0.006-14.643c0-1.352,1.173-2.453,2.613-2.453h24.14v-6.461h-24.14
		c-5.23,0-9.481,3.998-9.481,8.914L164.443,54.056z"/>
</g>
<g>
	<defs>
		<path id="SVGID_3_" d="M40.633,35.028c-15.345,1.555-26.461,6.129-26.461,11.531c0,5.4,11.116,9.975,26.461,11.529
			c1.555,15.344,6.129,26.461,11.53,26.461c6.682,0,12.099-17.01,12.099-37.991S58.845,8.567,52.164,8.567
			C46.762,8.567,42.188,19.685,40.633,35.028"/>
	</defs>
	<clipPath id="SVGID_4_">
		<use xlink:href="#SVGID_3_"  overflow="visible"/>
	</clipPath>
	
		<linearGradient id="SVGID_5_" gradientUnits="userSpaceOnUse" x1="0.8037" y1="1667.501" x2="0.8482" y2="1667.501" gradientTransform="matrix(-486.7431 -978.4572 -978.4572 486.7431 1632020.75 -810786.5625)">
		<stop  offset="0" style="stop-color:#E11F27"/>
		<stop  offset="0.0061" style="stop-color:#E11F27"/>
		<stop  offset="0.681" style="stop-color:#EE2A24"/>
		<stop  offset="1" style="stop-color:#EE2A24"/>
	</linearGradient>
	<polygon clip-path="url(#SVGID_4_)" fill="url(#SVGID_5_)" points="24.109,104.524 -16.127,23.641 54.326,-11.407 94.562,69.477 	
		"/>
</g>
<g>
	<defs>
		<path id="SVGID_6_" d="M40.635,58.09c3.636,0.367,7.51,0.566,11.529,0.566c20.982,0,37.991-5.417,37.991-12.097
			c0-5.402-11.116-9.977-26.461-11.531L40.635,58.09z"/>
	</defs>
	<clipPath id="SVGID_7_">
		<use xlink:href="#SVGID_6_"  overflow="visible"/>
	</clipPath>
	
		<linearGradient id="SVGID_8_" gradientUnits="userSpaceOnUse" x1="-0.6377" y1="1664.7939" x2="-0.5932" y2="1664.7939" gradientTransform="matrix(291.0577 504.1267 504.1267 -291.0577 -839021.6875 484909.75)">
		<stop  offset="0" style="stop-color:#77787B"/>
		<stop  offset="0.2081" style="stop-color:#656668"/>
		<stop  offset="0.5305" style="stop-color:#4A4A4C"/>
		<stop  offset="0.8059" style="stop-color:#313132"/>
		<stop  offset="1" style="stop-color:#222223"/>
	</linearGradient>
	<polygon clip-path="url(#SVGID_7_)" fill="url(#SVGID_8_)" points="77.775,13.585 100.386,52.749 53.015,80.1 30.404,40.936 	"/>
</g>
<g>
	<defs>
		<rect id="SVGID_9_" x="3" y="-28" width="300" height="150.001"/>
	</defs>
	<clipPath id="SVGID_10_">
		<use xlink:href="#SVGID_9_"  overflow="visible"/>
	</clipPath>
	<path clip-path="url(#SVGID_10_)" fill="#690000" d="M63.694,35.028L63.694,35.028L40.635,58.09
		c3.636,0.367,7.51,0.566,11.53,0.566s7.894-0.199,11.53-0.566c0.368-3.638,0.568-7.511,0.568-11.531S64.062,38.665,63.694,35.028"
		/>
	<path clip-path="url(#SVGID_10_)" fill="#A50D12" d="M40.638,58.09l23.059-23.062c-3.636-0.368-7.51-0.567-11.529-0.567
		c-4.02,0-7.895,0.199-11.531,0.567c-0.368,3.637-0.567,7.51-0.567,11.53S40.269,54.452,40.638,58.09L40.638,58.09z"/>
	<path clip-path="url(#SVGID_10_)" d="M106.966,84.932v-1.325h0.129c0.615,0.178,2.085,0.501,3.023,0.501h0.501
		c1.52,0,2.538-0.565,2.538-2.085c0-1.326-0.679-1.73-1.778-2.021l-1.633-0.437c-1.164-0.323-2.651-1.083-2.651-3.233
		c0-1.955,1.504-3.281,3.913-3.281h0.372c0.889,0,2.279,0.259,2.781,0.501v1.277h-0.129c-0.582-0.194-1.827-0.452-2.651-0.452
		h-0.372c-1.52,0-2.409,0.565-2.409,1.955c0,1.262,0.808,1.602,1.778,1.892l1.568,0.452c1.245,0.356,2.716,1.004,2.716,3.348
		c0,2.085-1.503,3.41-4.042,3.41h-0.501C109.116,85.433,107.467,85.11,106.966,84.932"/>
	<path clip-path="url(#SVGID_10_)" d="M116.926,80.761c0-2.65,1.261-4.43,3.848-4.43c2.716,0,3.847,1.779,3.847,4.43
		c0,2.895-1.261,4.672-3.847,4.672C118.058,85.433,116.926,83.655,116.926,80.761 M123.23,80.761c0-1.955-0.566-3.168-2.457-3.168
		c-1.892,0-2.457,1.213-2.457,3.168c0,1.957,0.565,3.412,2.457,3.412C122.665,84.173,123.23,82.718,123.23,80.761"/>
	<path clip-path="url(#SVGID_10_)" d="M127.888,77.722h-1.391v-1.261h1.391v-0.372c0-1.908,1.147-2.91,2.91-2.91h1.002v1.262h-1.002
		c-1.132,0-1.52,0.501-1.52,1.648v0.372h2.279v1.261h-2.279v7.582h-1.39V77.722z"/>
	<path clip-path="url(#SVGID_10_)" d="M137.388,85.304c-1.891,0-3.039-0.889-3.039-3.039v-4.543h-1.39v-1.261h1.39V74.44h1.39v2.021
		h2.522v1.261h-2.522v4.301c0,1.633,0.501,2.02,1.892,2.02h0.889v1.262H137.388z"/>
	<path clip-path="url(#SVGID_10_)" d="M140.396,78.74v-2.279h1.39v2.279c0,2.522,0.808,4.607,1.568,5.545
		c0.76-0.938,1.584-3.022,1.584-5.545v-2.279h1.39v2.279c0,2.522,0.825,4.607,1.584,5.545c0.744-0.938,1.568-3.022,1.568-5.545
		v-2.279h1.39v2.279c0,3.023-1.261,5.675-2.15,6.563h-1.503c-0.453-0.501-1.39-2.086-1.584-3.039
		c-0.194,0.953-1.131,2.538-1.584,3.039h-1.503C141.657,84.415,140.396,81.764,140.396,78.74"/>
	<path clip-path="url(#SVGID_10_)" d="M153.201,82.394v-1.391c0-2.78,2.263-4.542,4.672-4.542h2.393v8.843h-1.391v-1.648
		l-0.631,0.63c-0.646,0.63-1.39,1.147-2.521,1.147C154.333,85.433,153.201,84.544,153.201,82.394 M158.875,82.265v-4.543h-1.002
		c-1.908,0-3.282,1.262-3.282,3.281v1.391c0,1.391,0.631,1.779,1.374,1.779c0.89,0,1.908-0.89,2.409-1.391L158.875,82.265z"/>
	<path clip-path="url(#SVGID_10_)" d="M163.791,76.461h1.391v1.956l0.129-0.194c0.663-1.019,1.438-1.762,2.586-1.762h0.566v1.52
		h-0.63c-0.63,0-1.245,0.242-1.649,0.631l-1.002,1.002v5.69h-1.391V76.461z"/>
	<path clip-path="url(#SVGID_10_)" d="M170.146,81.893V80.13c0-2.408,1.633-3.799,3.783-3.799c1.762,0,3.023,0.76,3.023,2.539
		c0,1.567-1.002,2.521-2.764,2.521h-2.651v0.501c0,1.649,1.002,2.28,2.392,2.28c1.002,0,2.021-0.389,2.393-0.566h0.129v1.261
		c-0.372,0.179-1.52,0.565-2.522,0.565C171.778,85.433,170.146,84.415,170.146,81.893 M171.536,80.243h2.263
		c1.39,0,1.778-0.501,1.778-1.373c0-0.954-0.646-1.277-1.649-1.277c-1.52,0-2.392,0.76-2.392,2.537V80.243z"/>
</g>
</svg>
