<svg width="768" height="177" xmlns="http://www.w3.org/2000/svg" style="margin-left:auto;margin-right:auto" display="block"><path d="M81.6 82.5c-9.5-3.7-17.7-6.9-17.7-14.3 0-8.5 7.8-11.6 15.1-11.6 12.6 0 19.2 7 19.3 7.1l.7.6 5.6-9.4-.4-.4c-.3-.4-8.1-8.9-24.9-8.9-13.4 0-27.8 7.1-27.8 22.6 0 14.7 13.2 20 24.9 24.6 9.6 3.8 17.8 7 17.8 14.3 0 8.3-7.7 11.9-15.2 11.9-14.3 0-23.1-9.2-23.2-9.3l-.5-.7-6.7 8.9.4.4c.1.2 2.6 3 7.6 5.9 4.5 2.7 12.1 5.9 22.2 5.9 16.1 0 27.8-9.7 27.8-23 0-14.8-13.3-20-25-24.6zm80.5-36.9c-23.9 0-42.6 18.4-42.6 41.8 0 24 18.7 42.7 42.6 42.7 23.9 0 42.7-18.7 42.7-42.7 0-23.4-18.8-41.8-42.7-41.8m30.2 41.8c0 17.8-13.3 31.6-30.2 31.6s-30.2-13.8-30.2-31.6c0-17.2 13.3-30.6 30.2-30.6s30.2 13.4 30.2 30.6zm65.2-71.7c-.1 0-2-.3-5-.3-8.4 0-28.1 2.9-28.1 30.1v3.1h-10.8V59h10.8v69.2h12.1V59h20.3V48.6h-20.3v-3.1c0-7.1 2.2-19.1 17.1-19.1 2.1 0 3.6.3 3.6.3l.9.2V15.8zm57.2 102.7l-.8.2c-.1 0-1.5.3-3.6.3-6.5 0-17.4-2.7-17.4-20.6V59.2h20.2V48.6h-20.2V25.3h-12.2v23.3h-10.8v10.6h10.6v40.2c0 26.8 18.1 30.8 28.9 30.8 2.9 0 4.7-.4 4.7-.4l.6-.1zm24.7-14.2s8.9 8.9 22 8.9c5.7 0 10.6-2.6 10.6-7.3 0-12-39.3-10.5-39.3-36.4 0-15 13.5-23.7 30.9-23.7 18.2 0 27.1 9.1 27.1 9.1l-7.5 14.9s-7.4-7-19.8-7c-5.2 0-10.2 2.3-10.2 7.3 0 11.4 39.2 10 39.2 35.9 0 13.5-11.7 24.2-30.9 24.2-20 0-31.3-11.8-31.3-11.8zm107.1-58.5c23.3 0 35.8 16.9 35.8 38.2 0 2.4-.5 7.8-.5 7.8h-55.7c1.3 14.1 12.2 21.4 24.2 21.4 13 0 23.3-8.9 23.3-8.9l7.8 14.4s-12.4 11.5-32.5 11.5c-26.7 0-43.3-19.3-43.3-42.2 0-24.8 16.9-42.2 40.9-42.2m15.6 32.2c-.4-10.9-7.2-16.7-16-16.7-10.3 0-17.4 6.3-19.3 16.7zm40.4-30.3h19.3v13.9c0 3-.3 5.7-.3 5.7h.3c3.7-11.6 13.3-20.8 25.7-20.8 1.9 0 3.6.4 3.6.4v19.7s-2-.3-4.7-.3c-8.6 0-18.2 4.9-22 17-1.3 3.9-1.8 8.3-1.8 13.1v31.9h-20.1zm57.4 0h21.2l16.7 50c1.6 4.7 2.7 10.1 2.9 10.1h.3c.2 0 1.3-5.4 2.8-10.1l16.8-50h21.2l-28.9 80.6h-23.8zm127.9-1.9c23.2 0 35.7 16.9 35.7 38.2 0 2.4-.5 7.8-.5 7.8h-55.7c1.3 14.1 12.2 21.4 24.3 21.4 12.9 0 23.2-8.9 23.2-8.9l7.8 14.4s-12.4 11.5-32.5 11.5c-26.7 0-43.3-19.3-43.3-42.2 0-24.8 16.9-42.2 41-42.2m15.5 32.2c-.4-10.9-7.2-16.7-16-16.7-10.3 0-17.4 6.3-19.3 16.7z" class="g0_1"/></svg>