<?xml version="1.0" encoding="UTF-8" standalone="no"?>
<!DOCTYPE svg PUBLIC "-//W3C//DTD SVG 1.1//EN"
"http://www.w3.org/Graphics/SVG/1.1/DTD/svg11.dtd">
<svg x="0" y="0" width="768" height="177" viewBox="0 0 768 177" version="1.1" xmlns="http://www.w3.org/2000/svg" xmlns:xlink="http://www.w3.org/1999/xlink"
style="display: block;margin-left: auto;margin-right: auto;">
    <path d="M81.6,82.5C72.1,78.8,63.9,75.6,63.9,68.2C63.9,59.7,71.7,56.6,79,56.6c12.6,0,19.2,7,19.3,7.1l.7,.6l5.6,-9.4l-.4,-.4c-.3,-.4,-8.1,-8.9,-24.9,-8.9c-13.4,0,-27.8,7.1,-27.8,22.6c0,14.7,13.2,20,24.9,24.6c9.6,3.8,17.8,7,17.8,14.3C94.2,115.4,86.5,119,79,119c-14.3,0,-23.1,-9.2,-23.2,-9.3l-.5,-.7l-6.7,8.9l.4,.4c.1,.2,2.6,3,7.6,5.9c4.5,2.7,12.1,5.9,22.2,5.9c16.1,0,27.8,-9.7,27.8,-23c0,-14.8,-13.3,-20,-25,-24.6Z" class="g0_1" />
    <path d="M162.1,45.6c-23.9,0,-42.6,18.4,-42.6,41.8c0,24,18.7,42.7,42.6,42.7c23.9,0,42.7,-18.7,42.7,-42.7C204.8,64,186,45.6,162.1,45.6m30.2,41.8c0,17.8,-13.3,31.6,-30.2,31.6c-16.9,0,-30.2,-13.8,-30.2,-31.6c0,-17.2,13.3,-30.6,30.2,-30.6c16.9,0,30.2,13.4,30.2,30.6Z" class="g0_1" />
    <path d="M257.5,15.7c-.1,0,-2,-.3,-5,-.3c-8.4,0,-28.1,2.9,-28.1,30.1v3.1H213.6V59h10.8v69.2h12.1V59h20.3V48.6H236.5V45.5c0,-7.1,2.2,-19.1,17.1,-19.1c2.1,0,3.6,.3,3.6,.3l.9,.2V15.8Z" class="g0_1" />
    <path d="M314.7,118.4l-.8,.2c-.1,0,-1.5,.3,-3.6,.3c-6.5,0,-17.4,-2.7,-17.4,-20.6V59.2h20.2V48.6H292.9V25.3H280.7V48.6H269.9V59.2h10.6V99.4c0,26.8,18.1,30.8,28.9,30.8c2.9,0,4.7,-.4,4.7,-.4l.6,-.1Z" class="g0_1" />
    <path d="M339.4,104.2c0,0,8.9,8.9,22,8.9c5.7,0,10.6,-2.6,10.6,-7.3c0,-12,-39.3,-10.5,-39.3,-36.4c0,-15,13.5,-23.7,30.9,-23.7c18.2,0,27.1,9.1,27.1,9.1l-7.5,14.9c0,0,-7.4,-7,-19.8,-7c-5.2,0,-10.2,2.3,-10.2,7.3c0,11.4,39.2,10,39.2,35.9c0,13.5,-11.7,24.2,-30.9,24.2c-20,0,-31.3,-11.8,-31.3,-11.8Z" class="g0_1" />
    <path d="M446.5,45.7c23.3,0,35.8,16.9,35.8,38.2c0,2.4,-.5,7.8,-.5,7.8H426.1c1.3,14.1,12.2,21.4,24.2,21.4c13,0,23.3,-8.9,23.3,-8.9l7.8,14.4c0,0,-12.4,11.5,-32.5,11.5c-26.7,0,-43.3,-19.3,-43.3,-42.2c0,-24.8,16.9,-42.2,40.9,-42.2m15.6,32.2C461.7,67,454.9,61.2,446.1,61.2c-10.3,0,-17.4,6.3,-19.3,16.7Z" class="g0_1" />
    <path d="M502.5,47.6h19.3V61.5c0,3,-.3,5.7,-.3,5.7h.3c3.7,-11.6,13.3,-20.8,25.7,-20.8c1.9,0,3.6,.4,3.6,.4V66.5c0,0,-2,-.3,-4.7,-.3c-8.6,0,-18.2,4.9,-22,17c-1.3,3.9,-1.8,8.3,-1.8,13.1v31.9H502.5Z" class="g0_1" />
    <path d="M559.9,47.6h21.2l16.7,50c1.6,4.7,2.7,10.1,2.9,10.1h.3c.2,0,1.3,-5.4,2.8,-10.1l16.8,-50h21.2l-28.9,80.6H589.1Z" class="g0_1" />
    <path d="M687.8,45.7c23.2,0,35.7,16.9,35.7,38.2c0,2.4,-.5,7.8,-.5,7.8H667.3c1.3,14.1,12.2,21.4,24.3,21.4c12.9,0,23.2,-8.9,23.2,-8.9l7.8,14.4c0,0,-12.4,11.5,-32.5,11.5c-26.7,0,-43.3,-19.3,-43.3,-42.2c0,-24.8,16.9,-42.2,41,-42.2m15.5,32.2C702.9,67,696.1,61.2,687.3,61.2C677,61.2,669.9,67.5,668,77.9Z" class="g0_1" />
</svg>
