<?xml version="1.0" encoding="utf-8"?>
<!-- Generator: Adobe Illustrator 16.0.0, SVG Export Plug-In . SVG Version: 6.00 Build 0)  -->
<!DOCTYPE svg PUBLIC "-//W3C//DTD SVG 1.1//EN" "http://www.w3.org/Graphics/SVG/1.1/DTD/svg11.dtd">
<svg version="1.1" id="Layer_1" xmlns="http://www.w3.org/2000/svg" xmlns:xlink="http://www.w3.org/1999/xlink" x="0px" y="0px"
	 width="583px" height="175px" viewBox="0 0 583 175" enable-background="new 0 0 583 175" xml:space="preserve">
<g>
	<defs>
		<rect id="SVGID_1_" x="-130" y="-210.28" width="841.89" height="595.28"/>
	</defs>
	<clipPath id="SVGID_2_">
		<use xlink:href="#SVGID_1_"  overflow="visible"/>
	</clipPath>
	<path clip-path="url(#SVGID_2_)" fill="#263A4B" d="M123.674,49.391c-5.804-10.487-14.182-13.326-21.282-13.326
		c-8.81-0.219-17.846,4.149-18.486,15.729c-0.426,11.364,13.111,16.387,21.929,19.015c23.429,6.105,48.149,17.684,46.857,52.203
		c-1.292,30.15-27.726,44.136-52.025,44.136c-17.187,0-39.116-7.222-51.802-36.706l23.647-13.767
		c7.299,15.95,19.997,22.283,28.799,22.283c11.831,0.224,20.212-7.644,20.642-17.693c0.87-14.638-12.909-20.541-23.64-23.377
		C82.832,93.96,53.17,83.254,53.592,52.016c0.662-31.021,25.579-44.574,49.019-44.574c18.046,0,34.175,8.522,44.284,28.404
		L123.674,49.391z"/>
	<rect x="276.227" y="53.102" clip-path="url(#SVGID_2_)" fill="#263A4B" width="29.458" height="110.765"/>
	<path clip-path="url(#SVGID_2_)" fill="#263A4B" d="M372.998,163.866c-26.446,4.59-49.439-6.111-48.369-35.604V53.114l28.6-28.604
		v28.591h19.77v23.814h-19.77v50.688c0,7.204,7.302,12.668,19.77,10.929V163.866z"/>
	<path clip-path="url(#SVGID_2_)" fill="#263A4B" d="M429.021,164.086c-24.724,4.161-44.495-5.022-44.495-35.614V10.943h29.455
		v117.528c0,5.679,2.791,12.238,15.04,11.146V164.086z"/>
	<path clip-path="url(#SVGID_2_)" fill="#263A4B" d="M505.637,163.887l0.019-9.735c-6.812,8.653-17.45,12.115-25.976,12.115
		c-28.311,0-43.425-17.296-43.425-38.083c0-24.886,23.625-37.437,46.839-37.005c7.238,0.217,14.256,1.731,20.647,4.327
		c-0.627-15.356-10.216-20.992-21.281-21.208c-10.649-0.22-23.215,3.461-29.598,8.877l-11.151-19.183
		c14.218-10.559,28.395-13.283,43.301-13.283c24.702,0,47.689,13.424,47.689,45.45v67.728H505.637z M503.954,134.245v-17.312
		c-5.307-2.386-12.13-3.896-18.942-3.896c-11.07,0-21.502,4.106-21.711,14.285C462.856,147.444,493.107,145.715,503.954,134.245"/>
	<polygon clip-path="url(#SVGID_2_)" fill="#263A4B" points="232.55,53.114 263.104,53.114 225.682,163.864 188.692,163.864 
		151.488,53.114 182.042,53.114 207.364,133.951 	"/>
	<path clip-path="url(#SVGID_2_)" fill="#F47920" d="M290.958,7.425c-16.629,0-31.68,6.806-42.576,17.754l20.253,20.252
		c5.704-5.756,13.599-9.337,22.323-9.337c8.723,0,16.617,3.58,22.321,9.334l20.252-20.252
		C322.636,14.23,307.585,7.425,290.958,7.425"/>
</g>
</svg>
