<?xml version="1.0" encoding="UTF-8"?>
<svg width="346px" height="85px" viewBox="0 0 346 85" version="1.1" xmlns="http://www.w3.org/2000/svg" xmlns:xlink="http://www.w3.org/1999/xlink">
    <!-- Generator: Sketch 52.3 (67297) - http://www.bohemiancoding.com/sketch -->
    <title>Logotype/TechMagic/Colored_vector</title>
    <desc>Created with Sketch.</desc>
    <g id="Logotype/TechMagic/Colored" stroke="none" stroke-width="1" fill="none" fill-rule="evenodd">
        <g id="Type" transform="translate(116.000000, 20.000000)">
            <polygon id="Path" fill="#101820" points="16.0684932 7.20666667 16.0684932 36.5555556 9.97716895 36.5555556 9.97716895 7.20666667 0 7.20666667 0 1.46222222 26.1506849 1.46222222 26.1506849 7.20666667"></polygon>
            <path d="M36.652968,37.0777778 C32.9771689,37.0777778 30.1415525,35.9288889 27.9360731,33.5266667 C25.8356164,31.1244444 24.7853881,27.8866667 24.7853881,23.7088889 C24.7853881,19.5311111 25.8356164,16.2933333 28.0410959,13.8911111 C30.1415525,11.4888889 33.0821918,10.34 36.7579909,10.34 C40.0136986,10.34 42.7442922,11.3844444 44.8447489,13.3688889 C46.9452055,15.4577778 47.9954338,18.3822222 47.9954338,22.3511111 C47.9954338,23.7088889 47.890411,24.9622222 47.7853881,26.0066667 L30.6666667,26.0066667 C30.7716895,27.7822222 31.4018265,29.2444444 32.5570776,30.3933333 C33.7123288,31.5422222 35.0776256,32.0644444 36.7579909,32.0644444 C39.0684932,32.0644444 40.8538813,31.2288889 42.2191781,29.4533333 L46,33.2133333 C43.5844749,35.72 40.5388128,37.0777778 36.652968,37.0777778 Z M30.6666667,21.0977778 L42.0091324,21.0977778 C41.9041096,19.2177778 41.2739726,17.86 40.3287671,16.92 C39.3835616,15.98 38.1232877,15.4577778 36.652968,15.4577778 C34.9726027,15.4577778 33.6073059,15.8755556 32.4520548,16.8155556 C31.4018265,17.7555556 30.7716895,19.1133333 30.6666667,21.0977778 Z" id="Shape" fill="#101820" fill-rule="nonzero"></path>
            <path d="M62.6986301,37.0777778 C59.1278539,37.0777778 56.3972603,35.9288889 54.2968037,33.5266667 C52.196347,31.1244444 51.1461187,27.8866667 51.1461187,23.7088889 C51.1461187,19.5311111 52.196347,16.2933333 54.2968037,13.8911111 C56.3972603,11.4888889 59.1278539,10.34 62.6986301,10.34 C68.0547945,10.34 71.4155251,12.7422222 72.8858447,17.4422222 L67.3196347,19.3222222 C66.4794521,17.1288889 65.0091324,15.98 62.9086758,15.98 C61.1232877,15.98 59.7579909,16.7111111 58.7077626,18.0688889 C57.6575342,19.4266667 57.2374429,21.4111111 57.2374429,23.8133333 C57.2374429,26.2155556 57.7625571,28.0955556 58.7077626,29.4533333 C59.652968,30.8111111 61.0182648,31.5422222 62.6986301,31.5422222 C65.1141553,31.5422222 66.6894977,30.2888889 67.4246575,27.7822222 L73.0958904,29.4533333 C71.5205479,34.5711111 68.0547945,37.0777778 62.6986301,37.0777778 Z" id="Path" fill="#101820"></path>
            <path d="M77.1917808,36.4511111 L77.1917808,3.02888889 L83.0730594,0.313333333 L83.0730594,13.2644444 C84.7534247,11.28 87.0639269,10.2355556 89.8995434,10.2355556 C92.630137,10.2355556 94.7305936,11.0711111 96.5159817,12.7422222 C98.196347,14.4133333 99.0365297,17.0244444 99.0365297,20.68 L99.0365297,36.4511111 L93.1552511,36.4511111 L93.1552511,21.7244444 C93.1552511,17.86 91.5799087,15.8755556 88.3242009,15.8755556 C84.8584475,15.8755556 83.0730594,17.7555556 83.0730594,21.62 L83.0730594,36.5555556 L77.1917808,36.4511111 Z" id="Path" fill="#101820"></path>
            <path d="M137.474886,36.4511111 L131.383562,36.4511111 L131.383562,17.86 C131.383562,16.2933333 131.488584,14.9355556 131.593607,13.6822222 C131.173516,14.9355556 130.648402,16.2933333 130.018265,17.9644444 L121.406393,37.0777778 L112.794521,17.86 C112.164384,16.5022222 111.639269,15.1444444 111.114155,13.6822222 C111.219178,14.9355556 111.324201,16.3977778 111.324201,17.86 L111.324201,36.5555556 L105.232877,36.5555556 L105.232877,1.35777778 L111.324201,1.35777778 L120.356164,21.9333333 C120.776256,22.8733333 121.091324,23.7088889 121.30137,24.5444444 C121.616438,23.7088889 121.931507,22.8733333 122.246575,21.9333333 L131.383562,1.35777778 L137.26484,1.35777778 L137.26484,36.4511111 C137.26484,36.4511111 137.474886,36.4511111 137.474886,36.4511111 Z" id="Path" fill="#007672"></path>
            <path d="M158.689498,36.4511111 L158.689498,34.3622222 C157.009132,36.1377778 154.69863,36.9733333 151.863014,36.9733333 C149.13242,36.9733333 146.821918,36.2422222 145.141553,34.78 C143.461187,33.3177778 142.515982,31.2288889 142.515982,28.5133333 C142.515982,25.6933333 143.461187,23.6044444 145.456621,22.2466667 C147.452055,20.8888889 149.762557,20.0533333 152.598174,20.0533333 C155.013699,20.0533333 157.114155,20.4711111 158.689498,21.4111111 L158.689498,20.0533333 C158.689498,18.3822222 158.269406,17.2333333 157.429224,16.5022222 C156.589041,15.7711111 155.328767,15.3533333 153.648402,15.3533333 C150.812785,15.3533333 148.292237,16.1888889 145.981735,17.7555556 L144.196347,12.9511111 C147.031963,11.0711111 150.392694,10.1311111 154.278539,10.1311111 C155.643836,10.1311111 156.799087,10.2355556 157.849315,10.4444444 C158.899543,10.6533333 159.949772,11.0711111 161,11.6977778 C162.050228,12.3244444 162.890411,13.3688889 163.520548,14.7266667 C164.150685,16.0844444 164.465753,17.7555556 164.465753,19.8444444 L164.465753,36.3466667 L158.689498,36.4511111 Z M152.913242,31.96 C155.118721,31.96 157.114155,31.1244444 158.689498,29.4533333 L158.689498,26.1111111 C157.219178,25.38 155.538813,25.0666667 153.543379,25.0666667 C151.968037,25.0666667 150.707763,25.38 149.762557,25.9022222 C148.817352,26.4244444 148.292237,27.3644444 148.292237,28.5133333 C148.292237,29.5577778 148.712329,30.3933333 149.552511,31.02 C150.287671,31.6466667 151.442922,31.96 152.913242,31.96 Z" id="Shape" fill="#007672" fill-rule="nonzero"></path>
            <path d="M179.063927,46.4777778 L175.913242,41.7777778 C179.484018,41.5688889 181.899543,41.0466667 183.26484,40.1066667 C184.630137,39.2711111 185.260274,37.9133333 185.260274,36.1377778 L185.260274,34.6755556 C183.894977,36.2422222 181.899543,36.9733333 179.378995,36.9733333 C176.228311,36.9733333 173.707763,35.8244444 171.712329,33.5266667 C169.716895,31.2288889 168.771689,27.8866667 168.771689,23.6044444 C168.771689,19.4266667 169.716895,16.1888889 171.712329,13.7866667 C173.707763,11.3844444 176.228311,10.2355556 179.484018,10.2355556 C181.899543,10.2355556 183.789954,10.9666667 185.260274,12.4288889 L185.260274,10.8622222 L191.141553,10.8622222 L191.141553,33.9444444 C191.141553,38.2266667 190.196347,41.2555556 188.410959,43.1355556 C186.625571,45.0155556 183.474886,46.1644444 179.063927,46.4777778 Z M180.429224,31.4377778 C182.52968,31.4377778 184.210046,30.6022222 185.260274,28.9311111 L185.260274,18.3822222 C184.105023,16.7111111 182.424658,15.8755556 180.429224,15.8755556 C178.538813,15.8755556 177.173516,16.5022222 176.123288,17.86 C175.178082,19.2177778 174.652968,21.0977778 174.652968,23.7088889 C174.652968,26.1111111 175.178082,27.9911111 176.123288,29.4533333 C177.173516,30.8111111 178.643836,31.4377778 180.429224,31.4377778 Z" id="Shape" fill="#007672" fill-rule="nonzero"></path>
            <path d="M202.484018,6.37111111 C201.853881,7.10222222 201.013699,7.41555556 199.96347,7.41555556 C199.018265,7.41555556 198.178082,7.10222222 197.442922,6.37111111 C196.707763,5.64 196.392694,4.90888889 196.392694,3.86444444 C196.392694,2.92444444 196.707763,2.08888889 197.442922,1.35777778 C198.178082,0.731111111 198.913242,0.313333333 199.96347,0.313333333 C200.908676,0.313333333 201.748858,0.626666667 202.484018,1.35777778 C203.114155,1.98444444 203.534247,2.82 203.534247,3.86444444 C203.429224,4.80444444 203.114155,5.64 202.484018,6.37111111 Z M197.022831,36.4511111 L197.022831,10.8622222 L202.90411,10.8622222 L202.90411,36.4511111 L197.022831,36.4511111 Z" id="Shape" fill="#007672" fill-rule="nonzero"></path>
            <path d="M218.972603,37.0777778 C215.401826,37.0777778 212.671233,35.9288889 210.570776,33.5266667 C208.47032,31.1244444 207.420091,27.8866667 207.420091,23.7088889 C207.420091,19.5311111 208.47032,16.2933333 210.570776,13.8911111 C212.671233,11.4888889 215.401826,10.34 218.972603,10.34 C224.328767,10.34 227.689498,12.7422222 229.159817,17.4422222 L223.593607,19.3222222 C222.753425,17.1288889 221.283105,15.98 219.182648,15.98 C217.39726,15.98 216.031963,16.7111111 214.981735,18.0688889 C213.931507,19.4266667 213.511416,21.4111111 213.511416,23.8133333 C213.511416,26.2155556 214.03653,28.0955556 214.981735,29.4533333 C215.926941,30.8111111 217.292237,31.5422222 218.972603,31.5422222 C221.388128,31.5422222 222.96347,30.2888889 223.69863,27.7822222 L229.369863,29.4533333 C227.794521,34.5711111 224.328767,37.0777778 218.972603,37.0777778 Z" id="Path" fill="#007672"></path>
        </g>
        <g id="Logotype/TechMagic/Mark/Colored" fill="#007672">
            <g id="Logo/Colored">
                <path d="M106,25.2 C101,26.3 96.1,27.3 91,28.4 C92,24.3 92.9,20.5 93.8,16.7 C93.7,16.7 93.7,16.7 93.6,16.6 C90.9,24.6 88.2,32.6 85.4,40.7 C80,35.2 74.7,29.9 69.3,24.5 C71,23.9 72.5,23.3 74,22.7 C80.4,20.4 86.7,18 93.1,15.7 C93.8,15.4 94.3,15.5 94.9,16 C98.3,18.8 101.7,21.6 105.1,24.5 C105.4,24.6 105.6,24.9 106,25.2 Z" id="Path"></path>
                <path d="M40.9,42.6 C45.6,46.6 50.1,50.5 54.7,54.4 L54.8,54.3 C54.6,54.1 54.4,53.8 54.2,53.6 C50.4,49.7 46.6,45.7 42.8,41.8 C42.3,41.3 42.2,40.8 42.4,40.2 C44.6,30.4 46.8,20.6 48.9,10.8 C48.9,10.7 48.9,10.6 48.7,10.5 C46.7,17.4 44.8,24.3 42.8,31.3 C28.5,20.9 14.3,10.5 0,0.2 C0,0.1 0.1,0 0.1,0 C2.5,0.5 4.8,0.9 7.2,1.4 C15.9,3.1 24.7,4.8 33.4,6.5 C38.4,7.5 43.4,8.4 48.5,9.5 C49,9.6 49.6,10 50,10.4 C61.5,20.4 72.9,30.3 84.4,40.3 C84.6,40.5 84.8,40.7 85.1,40.9 C84.7,41.1 84.4,41.3 84.1,41.4 C75.4,45.9 66.8,50.3 58.1,54.8 C57.3,55.2 56.5,55.7 55.8,56.3 C43.4,65.7 31.2,75.1 19,84.5 C18.9,84.6 18.7,84.7 18.4,84.7 C25.9,70.7 33.4,56.7 40.9,42.6 Z" id="Path"></path>
            </g>
        </g>
    </g>
</svg>