<svg width="346" height="85" xmlns="http://www.w3.org/2000/svg"><g fill="none" fill-rule="evenodd"><path fill="#101820" d="M132.068 27.207v29.349h-6.09v-29.35H116v-5.744h26.15v5.745z"/><path d="M152.653 57.078c-3.676 0-6.511-1.15-8.717-3.551-2.1-2.403-3.15-5.64-3.15-9.818s1.05-7.416 3.255-9.818c2.1-2.402 5.041-3.551 8.717-3.551 3.256 0 5.986 1.044 8.087 3.029 2.1 2.089 3.15 5.013 3.15 8.982 0 1.358-.105 2.611-.21 3.656h-17.118c.105 1.775.735 3.237 1.89 4.386 1.155 1.15 2.52 1.671 4.201 1.671 2.31 0 4.096-.835 5.461-2.61l3.781 3.76c-2.416 2.506-5.461 3.864-9.347 3.864zm-5.986-15.98h11.342c-.105-1.88-.735-3.238-1.68-4.178s-2.206-1.462-3.676-1.462c-1.68 0-3.046.418-4.2 1.358-1.051.94-1.681 2.297-1.786 4.282z" fill="#101820" fill-rule="nonzero"/><path d="M178.699 57.078c-3.571 0-6.302-1.15-8.402-3.551-2.1-2.403-3.15-5.64-3.15-9.818s1.05-7.416 3.15-9.818c2.1-2.402 4.83-3.551 8.402-3.551 5.356 0 8.717 2.402 10.187 7.102l-5.566 1.88c-.84-2.193-2.31-3.342-4.411-3.342-1.786 0-3.151.731-4.201 2.089-1.05 1.358-1.47 3.342-1.47 5.744 0 2.403.525 4.283 1.47 5.64.945 1.358 2.31 2.09 3.99 2.09 2.416 0 3.991-1.254 4.727-3.76l5.67 1.67c-1.574 5.118-5.04 7.625-10.396 7.625zm14.493-.627V23.03l5.881-2.716v12.951c1.68-1.984 3.99-3.028 6.827-3.028 2.73 0 4.83.835 6.616 2.506 1.68 1.671 2.52 4.282 2.52 7.938v15.771h-5.88V41.724c0-3.864-1.576-5.848-4.832-5.848-3.466 0-5.25 1.88-5.25 5.744v14.936l-5.882-.105z" fill="#101820"/><path d="M253.475 56.451h-6.091V37.86c0-1.567.105-2.924.21-4.178-.42 1.254-.946 2.611-1.576 4.282l-8.612 19.114-8.611-19.218c-.63-1.358-1.156-2.716-1.68-4.178.104 1.254.21 2.716.21 4.178v18.696h-6.092V21.358h6.091l9.032 20.575c.42.94.735 1.776.945 2.611.315-.835.63-1.67.946-2.61l9.137-20.576h5.88V56.45h.21z" fill="#007672"/><path d="M274.69 56.451v-2.089c-1.68 1.776-3.991 2.611-6.827 2.611-2.73 0-5.041-.73-6.721-2.193-1.68-1.462-2.626-3.551-2.626-6.267 0-2.82.945-4.909 2.94-6.266 1.996-1.358 4.307-2.194 7.142-2.194 2.416 0 4.516.418 6.091 1.358v-1.358c0-1.67-.42-2.82-1.26-3.55-.84-.732-2.1-1.15-3.78-1.15-2.836 0-5.357.836-7.667 2.403l-1.786-4.805c2.836-1.88 6.197-2.82 10.083-2.82 1.365 0 2.52.105 3.57.313 1.05.21 2.1.627 3.151 1.254 1.05.626 1.89 1.67 2.52 3.029.63 1.357.946 3.029.946 5.117v16.503l-5.777.104zm-5.777-4.491c2.206 0 4.201-.836 5.776-2.507v-3.342c-1.47-.731-3.15-1.044-5.146-1.044-1.575 0-2.835.313-3.78.835-.946.522-1.47 1.462-1.47 2.611 0 1.045.42 1.88 1.26 2.507.735.627 1.89.94 3.36.94zm26.151 14.518l-3.15-4.7c3.57-.21 5.986-.731 7.35-1.671 1.366-.836 1.996-2.194 1.996-3.97v-1.461c-1.365 1.566-3.36 2.297-5.881 2.297-3.15 0-5.671-1.149-7.667-3.446-1.995-2.298-2.94-5.64-2.94-9.923 0-4.177.945-7.415 2.94-9.817 1.996-2.403 4.516-3.551 7.772-3.551 2.416 0 4.306.73 5.776 2.193v-1.567h5.882v23.082c0 4.283-.946 7.312-2.731 9.192s-4.936 3.028-9.347 3.342zm1.365-15.04c2.1 0 3.781-.836 4.831-2.507V38.382c-1.155-1.67-2.835-2.506-4.83-2.506-1.891 0-3.256.626-4.307 1.984-.945 1.358-1.47 3.238-1.47 5.849 0 2.402.525 4.282 1.47 5.744 1.05 1.358 2.52 1.985 4.306 1.985zm22.055-25.067c-.63.731-1.47 1.045-2.52 1.045-.946 0-1.786-.314-2.521-1.045-.735-.731-1.05-1.462-1.05-2.507 0-.94.315-1.775 1.05-2.506.735-.627 1.47-1.045 2.52-1.045.946 0 1.786.314 2.521 1.045a3.45 3.45 0 0 1 1.05 2.506c-.105.94-.42 1.776-1.05 2.507zm-5.461 30.08V30.862h5.881v25.59h-5.881z" fill="#007672" fill-rule="nonzero"/><path d="M334.973 57.078c-3.571 0-6.302-1.15-8.402-3.551-2.1-2.403-3.15-5.64-3.15-9.818s1.05-7.416 3.15-9.818c2.1-2.402 4.83-3.551 8.402-3.551 5.356 0 8.716 2.402 10.187 7.102l-5.566 1.88c-.84-2.193-2.31-3.342-4.411-3.342-1.786 0-3.151.731-4.201 2.089-1.05 1.358-1.47 3.342-1.47 5.744 0 2.403.525 4.283 1.47 5.64.945 1.358 2.31 2.09 3.99 2.09 2.416 0 3.991-1.254 4.727-3.76l5.67 1.67c-1.574 5.118-5.04 7.625-10.396 7.625zM106 25.2c-5 1.1-9.9 2.1-15 3.2 1-4.1 1.9-7.9 2.8-11.7-.1 0-.1 0-.2-.1-2.7 8-5.4 16-8.2 24.1-5.4-5.5-10.7-10.8-16.1-16.2 1.7-.6 3.2-1.2 4.7-1.8 6.4-2.3 12.7-4.7 19.1-7 .7-.3 1.2-.2 1.8.3 3.4 2.8 6.8 5.6 10.2 8.5.3.1.5.4.9.7zM40.9 42.6c4.7 4 9.2 7.9 13.8 11.8l.1-.1c-.2-.2-.4-.5-.6-.7-3.8-3.9-7.6-7.9-11.4-11.8-.5-.5-.6-1-.4-1.6 2.2-9.8 4.4-19.6 6.5-29.4 0-.1 0-.2-.2-.3-2 6.9-3.9 13.8-5.9 20.8C28.5 20.9 14.3 10.5 0 .2 0 .1.1 0 .1 0c2.4.5 4.7.9 7.1 1.4 8.7 1.7 17.5 3.4 26.2 5.1 5 1 10 1.9 15.1 3 .5.1 1.1.5 1.5.9 11.5 10 22.9 19.9 34.4 29.9.2.2.4.4.7.6-.4.2-.7.4-1 .5-8.7 4.5-17.3 8.9-26 13.4-.8.4-1.6.9-2.3 1.5C43.4 65.7 31.2 75.1 19 84.5c-.1.1-.3.2-.6.2 7.5-14 15-28 22.5-42.1z" fill="#007672"/></g></svg>