<svg xmlns="http://www.w3.org/2000/svg" viewBox="0 0 612 407.3"><path fill="#20303C" d="M68.8 377.5v4.8H7.3v-90.7h61v4.8H12.8v36.3h52.1v4.8H12.8v39.9h56zm8.7-60.4h4.8v14h.3c.8-2.5 2.1-4.6 3.6-6.5 1.6-1.9 3.4-3.5 5.5-4.9 2.1-1.4 4.3-2.4 6.8-3 2.5-.7 5-1 7.5-1 3.8 0 7 .5 9.7 1.4 2.7.9 4.8 2.2 6.5 3.7 1.7 1.5 3 3.2 4 5.1 1 1.9 1.7 3.8 2.1 5.8.4 1.9.7 3.8.8 5.7.1 1.8.1 3.4.1 4.8v40.4h-4.8v-41.3c0-1.7-.1-3.7-.4-6.2-.3-2.4-1-4.7-2.2-7-1.2-2.2-3.1-4.2-5.6-5.8-2.5-1.6-5.9-2.4-10.3-2.4-3.6 0-6.9.7-9.8 2-2.9 1.4-5.4 3.2-7.4 5.7-2 2.4-3.6 5.3-4.6 8.6-1.1 3.3-1.6 7-1.6 11v35.3h-4.8v-65.4zm119.9 0v61.8c0 .8 0 2.2-.1 3.9-.1 1.8-.4 3.7-.9 5.9s-1.3 4.4-2.5 6.6c-1.1 2.2-2.8 4.3-4.8 6.1-2.1 1.8-4.7 3.3-8 4.4-3.3 1.1-7.2 1.6-11.9 1.4-3.5 0-6.7-.4-9.8-1.1s-5.7-1.9-7.9-3.4c-2.2-1.6-4.1-3.6-5.5-6.2-1.4-2.6-2.2-5.8-2.3-9.6h4.8c.3 2.9 1 5.3 2.2 7.4 1.2 2 2.7 3.7 4.6 5 1.9 1.3 4 2.3 6.4 2.9 2.4.6 4.9.9 7.6.9 3.8 0 7-.5 9.7-1.4 2.6-.9 4.8-2.1 6.5-3.6 1.7-1.5 3.1-3.1 4-4.9.9-1.8 1.6-3.5 2.1-5.2.5-1.7.7-3.2.8-4.6.1-1.4.1-2.5.1-3.2v-15h-.3c-2.3 4.8-5.4 8.5-9.3 11-3.9 2.5-8.7 3.8-14.3 3.8-4.8 0-9-.8-12.5-2.5s-6.4-3.9-8.8-6.9c-2.3-2.9-4.1-6.3-5.2-10.2-1.1-3.9-1.7-8.1-1.7-12.7 0-4.3.6-8.4 1.8-12.3 1.2-3.9 3-7.3 5.4-10.2 2.4-2.9 5.3-5.2 8.8-7 3.5-1.7 7.6-2.6 12.1-2.6 2.5 0 5 .3 7.5 1s4.7 1.7 6.8 2.9c2.1 1.3 3.9 2.8 5.5 4.7 1.6 1.9 2.9 4 3.8 6.5h.3v-13.6h5zm-28.7 2.6c-4 0-7.4.8-10.3 2.4-2.9 1.6-5.3 3.7-7.2 6.4s-3.3 5.6-4.3 9c-1 3.3-1.5 6.8-1.5 10.2 0 3.8.5 7.4 1.5 10.9 1 3.4 2.5 6.4 4.4 9 2 2.5 4.4 4.6 7.4 6 2.9 1.5 6.3 2.2 10.1 2.2 4 0 7.4-.8 10.4-2.3 3-1.5 5.4-3.6 7.4-6.2s3.5-5.6 4.4-9c1-3.3 1.5-6.9 1.5-10.6 0-3.6-.5-7.2-1.5-10.5-1-3.4-2.5-6.4-4.4-9-2-2.6-4.5-4.6-7.4-6.2-3.1-1.5-6.6-2.3-10.5-2.3zm44-14.9v-13.1h4.8v13.1h-4.8zm0 77.5V317h4.8v65.3h-4.8zm20.2-65.2h4.8v14h.3c.8-2.5 2.1-4.6 3.6-6.5 1.6-1.9 3.4-3.5 5.5-4.9 2.1-1.4 4.3-2.4 6.8-3 2.5-.7 5-1 7.5-1 3.8 0 7 .5 9.7 1.4 2.7.9 4.8 2.2 6.5 3.7 1.7 1.5 3 3.2 4 5.1 1 1.9 1.7 3.8 2.1 5.8.4 1.9.7 3.8.8 5.7.1 1.8.1 3.4.1 4.8v40.4h-4.8v-41.3c0-1.7-.1-3.7-.4-6.2-.3-2.4-1-4.7-2.2-7-1.2-2.2-3.1-4.2-5.6-5.8-2.5-1.6-5.9-2.4-10.3-2.4-3.6 0-6.9.7-9.8 2-2.9 1.4-5.4 3.2-7.4 5.7-2 2.4-3.6 5.3-4.6 8.6-1.1 3.3-1.6 7-1.6 11v35.3h-4.8v-65.4zm67.8 33.2c-.1 3.8.4 7.5 1.3 11 1 3.6 2.5 6.7 4.5 9.4s4.5 4.9 7.6 6.5c3 1.6 6.5 2.4 10.6 2.4 6.2 0 11.3-1.7 15.4-5.1 4.1-3.4 6.8-8.2 7.9-14.3h4.8c-1.3 7.7-4.3 13.6-9.2 17.6-4.9 4-11.2 6-19 6-4.7 0-8.9-.9-12.6-2.6-3.6-1.7-6.7-4.1-9.1-7.1-2.4-3-4.2-6.5-5.5-10.5-1.2-4-1.8-8.3-1.7-12.8-.1-4.5.4-8.8 1.6-13.1s2.9-8 5.3-11.3c2.4-3.3 5.4-5.9 9.1-7.9 3.6-2 7.9-3 12.8-3 5.1 0 9.5.9 13.2 2.8 3.7 1.9 6.8 4.4 9.1 7.6 2.4 3.2 4.1 6.9 5.1 11.1 1.1 4.2 1.5 8.7 1.2 13.3h-52.4zm47.9-4.1c-.1-3.4-.7-6.7-1.8-9.9s-2.7-6-4.7-8.4c-2-2.4-4.5-4.4-7.4-5.8-2.9-1.5-6.2-2.2-10-2.2-3.6 0-6.9.8-9.7 2.3-2.8 1.5-5.3 3.5-7.3 6s-3.6 5.3-4.8 8.5c-1.2 3.2-1.9 6.4-2.2 9.6h47.9zm18 4.1c-.1 3.8.4 7.5 1.3 11 1 3.6 2.5 6.7 4.5 9.4s4.5 4.9 7.6 6.5c3 1.6 6.5 2.4 10.6 2.4 6.2 0 11.3-1.7 15.4-5.1 4.1-3.4 6.8-8.2 7.9-14.3h4.8c-1.3 7.7-4.3 13.6-9.2 17.6-4.9 4-11.2 6-19 6-4.7 0-8.9-.9-12.6-2.6-3.6-1.7-6.7-4.1-9.1-7.1-2.4-3-4.2-6.5-5.5-10.5-1.2-4-1.8-8.3-1.7-12.8-.1-4.5.4-8.8 1.6-13.1s2.9-8 5.3-11.3 5.4-5.9 9.1-7.9c3.6-2 7.9-3 12.8-3 5.1 0 9.5.9 13.2 2.8 3.7 1.9 6.8 4.4 9.1 7.6 2.4 3.2 4.1 6.9 5.1 11.1 1.1 4.2 1.5 8.7 1.2 13.3h-52.4zm47.9-4.1c-.1-3.4-.7-6.7-1.8-9.9s-2.7-6-4.7-8.4c-2-2.4-4.5-4.4-7.4-5.8-2.9-1.5-6.2-2.2-10-2.2-3.6 0-6.9.8-9.7 2.3-2.8 1.5-5.3 3.5-7.3 6s-3.6 5.3-4.8 8.5c-1.2 3.2-1.9 6.4-2.2 9.6h47.9zm21-14.6h.4c.6-2.1 1.7-4.1 3.3-6 1.6-1.9 3.5-3.5 5.7-4.8 2.2-1.4 4.7-2.4 7.4-3.1 2.7-.7 5.6-1 8.6-1v4.8c-2.5-.3-5.4-.1-8.7.8-3.3.8-6.4 2.7-9.3 5.6-1.2 1.3-2.2 2.5-3.1 3.7-.9 1.2-1.6 2.5-2.2 3.9-.6 1.4-1.1 3-1.4 4.8-.3 1.8-.6 3.9-.6 6.3v35.7h-4.8V317h4.8v14.6zm31.6-26.8v-13.1h4.8v13.1h-4.8zm0 77.5V317h4.8v65.3h-4.8zm20.2-65.2h4.8v14h.3c.8-2.5 2.1-4.6 3.6-6.5 1.6-1.9 3.4-3.5 5.5-4.9 2.1-1.4 4.3-2.4 6.8-3 2.5-.7 5-1 7.5-1 3.8 0 7 .5 9.7 1.4 2.7.9 4.8 2.2 6.5 3.7 1.7 1.5 3 3.2 4 5.1 1 1.9 1.7 3.8 2.1 5.8.4 1.9.7 3.8.8 5.7.1 1.8.1 3.4.1 4.8v40.4h-4.8v-41.3c0-1.7-.1-3.7-.4-6.2-.3-2.4-1-4.7-2.2-7-1.2-2.2-3.1-4.2-5.6-5.8-2.5-1.6-5.9-2.4-10.3-2.4-3.6 0-6.9.7-9.8 2-2.9 1.4-5.4 3.2-7.4 5.7-2 2.4-3.6 5.3-4.6 8.6-1.1 3.3-1.6 7-1.6 11v35.3h-4.8v-65.4zm119.8 0v61.8c0 .8 0 2.2-.1 3.9-.1 1.8-.4 3.7-.9 5.9s-1.3 4.4-2.5 6.6c-1.1 2.2-2.8 4.3-4.8 6.1-2.1 1.8-4.7 3.3-8 4.4-3.3 1.1-7.2 1.6-11.9 1.4-3.5 0-6.7-.4-9.8-1.1s-5.7-1.9-7.9-3.4c-2.2-1.6-4.1-3.6-5.5-6.2-1.4-2.6-2.2-5.8-2.3-9.6h4.8c.3 2.9 1 5.3 2.2 7.4 1.2 2 2.7 3.7 4.6 5 1.9 1.3 4 2.3 6.4 2.9 2.4.6 4.9.9 7.6.9 3.8 0 7-.5 9.7-1.4 2.6-.9 4.8-2.1 6.5-3.6 1.7-1.5 3.1-3.1 4-4.9.9-1.8 1.6-3.5 2.1-5.2.5-1.7.7-3.2.8-4.6.1-1.4.1-2.5.1-3.2v-15h-.3c-2.3 4.8-5.4 8.5-9.3 11-3.9 2.5-8.7 3.8-14.3 3.8-4.8 0-9-.8-12.5-2.5s-6.4-3.9-8.8-6.9c-2.3-2.9-4.1-6.3-5.2-10.2-1.1-3.9-1.7-8.1-1.7-12.7 0-4.3.6-8.4 1.8-12.3 1.2-3.9 3-7.3 5.4-10.2 2.4-2.9 5.3-5.2 8.8-7 3.5-1.7 7.6-2.6 12.1-2.6 2.5 0 5 .3 7.5 1s4.7 1.7 6.8 2.9c2.1 1.3 3.9 2.8 5.5 4.7 1.6 1.9 2.9 4 3.8 6.5h.3v-13.6h5zm-28.7 2.6c-4 0-7.4.8-10.3 2.4-2.9 1.6-5.3 3.7-7.2 6.4-1.9 2.6-3.3 5.6-4.3 9-1 3.3-1.5 6.8-1.5 10.2 0 3.8.5 7.4 1.5 10.9 1 3.4 2.5 6.4 4.4 9 2 2.5 4.4 4.6 7.4 6 2.9 1.5 6.3 2.2 10.1 2.2 4 0 7.4-.8 10.4-2.3 3-1.5 5.4-3.6 7.4-6.2s3.5-5.6 4.4-9c1-3.3 1.5-6.9 1.5-10.6 0-3.6-.5-7.2-1.5-10.5-1-3.4-2.5-6.4-4.4-9-2-2.6-4.5-4.6-7.4-6.2-3-1.5-6.5-2.3-10.5-2.3zM351 4.1c-12.1 6.4-16.7 17.1-16.7 46.8 0 0 6.1-5.9 15.3-9.3 6.7-2.4 12.3-6.1 15.6-8.5C375.4 25.7 377 16 377-.3c0 0-16.7-.5-26 4.4zm-72.1 7c-9.9 8.7-12.8 22.6-12.8 22.6l-32.8 127-27.3-104c-2.7-11.1-7.4-24.7-15-34-9.7-11.8-29.3-12.5-31.4-12.5-2.1 0-21.7.7-31.4 12.5-7.6 9.2-12.4 22.9-15 34L86 160.8l-32.8-127s-2.9-13.9-12.8-22.6C24.4-3.1.3-.1.3-.1l62.8 237.4s20.7 1.5 31.1-3.8c13.6-6.9 20.1-12.3 28.3-44.6 7.3-28.8 27.9-113.4 29.8-119.4.9-3 2.1-10.1 7.4-10.1 5.3 0 6.4 7.1 7.4 10.1 1.9 6 22.5 90.6 29.8 119.4 8.2 32.3 14.7 37.7 28.3 44.6 10.4 5.3 31.1 3.8 31.1 3.8L319.1-.1s-24.1-3-40.2 11.2zM377 38.7s-3.9 6.1-12.9 11.1c-5.8 3.2-11.3 5.4-17.2 8.2-9.9 4.8-12.6 10.1-12.6 18.2v161.1s15.8 2 26.2-3.3c13.3-6.8 16.4-13.4 16.5-42.9V38.7zm156.5 80.5L613.2.7s-33.6-5.7-50.3 9.4c-10.7 9.7-22.6 27.1-22.6 27.1L511 79.6c-1.4 2.2-3.3 4.6-6.3 4.6s-4.8-2.4-6.3-4.6l-29.3-42.3s-11.9-17.4-22.6-27.1C430-5 396.4.7 396.4.7L476 119.2l-79.5 118.1s35 4.4 51.7-10.7c10.7-9.7 21-25.5 21-25.5l29.3-42.3c1.4-2.2 3.3-4.6 6.3-4.6s4.8 2.4 6.3 4.6l29.3 42.3s10.9 15.8 21.6 25.5c16.7 15.2 51.1 10.7 51.1 10.7l-79.6-118.1z"/></svg>