<?xml version="1.0" encoding="utf-8"?>
<!-- Generator: Adobe Illustrator 17.1.0, SVG Export Plug-In . SVG Version: 6.00 Build 0)  -->
<!DOCTYPE svg PUBLIC "-//W3C//DTD SVG 1.1//EN" "http://www.w3.org/Graphics/SVG/1.1/DTD/svg11.dtd">
<svg version="1.1" id="Layer_1" xmlns="http://www.w3.org/2000/svg" xmlns:xlink="http://www.w3.org/1999/xlink" x="0px" y="0px"
	 viewBox="0 0 612 407.3" enable-background="new 0 0 612 407.3" xml:space="preserve">
<path fill="#20303C" d="M68.8,377.5v4.8H7.3v-90.7h61v4.8H12.8v36.3h52.1v4.8H12.8v39.9H68.8z M77.5,317.1h4.8v14h0.3
	c0.8-2.5,2.1-4.6,3.6-6.5c1.6-1.9,3.4-3.5,5.5-4.9c2.1-1.4,4.3-2.4,6.8-3c2.5-0.7,5-1,7.5-1c3.8,0,7,0.5,9.7,1.4
	c2.7,0.9,4.8,2.2,6.5,3.7c1.7,1.5,3,3.2,4,5.1c1,1.9,1.7,3.8,2.1,5.8c0.4,1.9,0.7,3.8,0.8,5.7c0.1,1.8,0.1,3.4,0.1,4.8v40.4h-4.8
	v-41.3c0-1.7-0.1-3.7-0.4-6.2c-0.3-2.4-1-4.7-2.2-7c-1.2-2.2-3.1-4.2-5.6-5.8c-2.5-1.6-5.9-2.4-10.3-2.4c-3.6,0-6.9,0.7-9.8,2
	c-2.9,1.4-5.4,3.2-7.4,5.7c-2,2.4-3.6,5.3-4.6,8.6c-1.1,3.3-1.6,7-1.6,11v35.3h-4.8V317.1z M197.4,317.1v61.8c0,0.8,0,2.2-0.1,3.9
	c-0.1,1.8-0.4,3.7-0.9,5.9c-0.5,2.2-1.3,4.4-2.5,6.6c-1.1,2.2-2.8,4.3-4.8,6.1c-2.1,1.8-4.7,3.3-8,4.4c-3.3,1.1-7.2,1.6-11.9,1.4
	c-3.5,0-6.7-0.4-9.8-1.1s-5.7-1.9-7.9-3.4c-2.2-1.6-4.1-3.6-5.5-6.2c-1.4-2.6-2.2-5.8-2.3-9.6h4.8c0.3,2.9,1,5.3,2.2,7.4
	c1.2,2,2.7,3.7,4.6,5c1.9,1.3,4,2.3,6.4,2.9c2.4,0.6,4.9,0.9,7.6,0.9c3.8,0,7-0.5,9.7-1.4c2.6-0.9,4.8-2.1,6.5-3.6
	c1.7-1.5,3.1-3.1,4-4.9c0.9-1.8,1.6-3.5,2.1-5.2c0.5-1.7,0.7-3.2,0.8-4.6c0.1-1.4,0.1-2.5,0.1-3.2v-15h-0.3c-2.3,4.8-5.4,8.5-9.3,11
	c-3.9,2.5-8.7,3.8-14.3,3.8c-4.8,0-9-0.8-12.5-2.5c-3.5-1.7-6.4-3.9-8.8-6.9c-2.3-2.9-4.1-6.3-5.2-10.2c-1.1-3.9-1.7-8.1-1.7-12.7
	c0-4.3,0.6-8.4,1.8-12.3c1.2-3.9,3-7.3,5.4-10.2c2.4-2.9,5.3-5.2,8.8-7c3.5-1.7,7.6-2.6,12.1-2.6c2.5,0,5,0.3,7.5,1
	c2.5,0.7,4.7,1.7,6.8,2.9c2.1,1.3,3.9,2.8,5.5,4.7c1.6,1.9,2.9,4,3.8,6.5h0.3v-13.6H197.4z M168.7,319.7c-4,0-7.4,0.8-10.3,2.4
	c-2.9,1.6-5.3,3.7-7.2,6.4s-3.3,5.6-4.3,9c-1,3.3-1.5,6.8-1.5,10.2c0,3.8,0.5,7.4,1.5,10.9c1,3.4,2.5,6.4,4.4,9c2,2.5,4.4,4.6,7.4,6
	c2.9,1.5,6.3,2.2,10.1,2.2c4,0,7.4-0.8,10.4-2.3c3-1.5,5.4-3.6,7.4-6.2c2-2.6,3.5-5.6,4.4-9c1-3.3,1.5-6.9,1.5-10.6
	c0-3.6-0.5-7.2-1.5-10.5c-1-3.4-2.5-6.4-4.4-9c-2-2.6-4.5-4.6-7.4-6.2C176.1,320.5,172.6,319.7,168.7,319.7z M212.7,304.8v-13.1h4.8
	v13.1H212.7z M212.7,382.3v-65.3h4.8v65.3H212.7z M232.9,317.1h4.8v14h0.3c0.8-2.5,2.1-4.6,3.6-6.5c1.6-1.9,3.4-3.5,5.5-4.9
	c2.1-1.4,4.3-2.4,6.8-3c2.5-0.7,5-1,7.5-1c3.8,0,7,0.5,9.7,1.4c2.7,0.9,4.8,2.2,6.5,3.7c1.7,1.5,3,3.2,4,5.1c1,1.9,1.7,3.8,2.1,5.8
	c0.4,1.9,0.7,3.8,0.8,5.7c0.1,1.8,0.1,3.4,0.1,4.8v40.4h-4.8v-41.3c0-1.7-0.1-3.7-0.4-6.2c-0.3-2.4-1-4.7-2.2-7
	c-1.2-2.2-3.1-4.2-5.6-5.8c-2.5-1.6-5.9-2.4-10.3-2.4c-3.6,0-6.9,0.7-9.8,2c-2.9,1.4-5.4,3.2-7.4,5.7c-2,2.4-3.6,5.3-4.6,8.6
	c-1.1,3.3-1.6,7-1.6,11v35.3h-4.8V317.1z M300.7,350.3c-0.1,3.8,0.4,7.5,1.3,11c1,3.6,2.5,6.7,4.5,9.4c2,2.7,4.5,4.9,7.6,6.5
	c3,1.6,6.5,2.4,10.6,2.4c6.2,0,11.3-1.7,15.4-5.1c4.1-3.4,6.8-8.2,7.9-14.3h4.8c-1.3,7.7-4.3,13.6-9.2,17.6c-4.9,4-11.2,6-19,6
	c-4.7,0-8.9-0.9-12.6-2.6c-3.6-1.7-6.7-4.1-9.1-7.1c-2.4-3-4.2-6.5-5.5-10.5c-1.2-4-1.8-8.3-1.7-12.8c-0.1-4.5,0.4-8.8,1.6-13.1
	s2.9-8,5.3-11.3c2.4-3.3,5.4-5.9,9.1-7.9c3.6-2,7.9-3,12.8-3c5.1,0,9.5,0.9,13.2,2.8c3.7,1.9,6.8,4.4,9.1,7.6
	c2.4,3.2,4.1,6.9,5.1,11.1c1.1,4.2,1.5,8.7,1.2,13.3H300.7z M348.6,346.2c-0.1-3.4-0.7-6.7-1.8-9.9c-1.1-3.2-2.7-6-4.7-8.4
	c-2-2.4-4.5-4.4-7.4-5.8c-2.9-1.5-6.2-2.2-10-2.2c-3.6,0-6.9,0.8-9.7,2.3c-2.8,1.5-5.3,3.5-7.3,6c-2,2.5-3.6,5.3-4.8,8.5
	c-1.2,3.2-1.9,6.4-2.2,9.6H348.6z M366.6,350.3c-0.1,3.8,0.4,7.5,1.3,11c1,3.6,2.5,6.7,4.5,9.4c2,2.7,4.5,4.9,7.6,6.5
	c3,1.6,6.5,2.4,10.6,2.4c6.2,0,11.3-1.7,15.4-5.1c4.1-3.4,6.8-8.2,7.9-14.3h4.8c-1.3,7.7-4.3,13.6-9.2,17.6c-4.9,4-11.2,6-19,6
	c-4.7,0-8.9-0.9-12.6-2.6c-3.6-1.7-6.7-4.1-9.1-7.1c-2.4-3-4.2-6.5-5.5-10.5c-1.2-4-1.8-8.3-1.7-12.8c-0.1-4.5,0.4-8.8,1.6-13.1
	s2.9-8,5.3-11.3s5.4-5.9,9.1-7.9c3.6-2,7.9-3,12.8-3c5.1,0,9.5,0.9,13.2,2.8c3.7,1.9,6.8,4.4,9.1,7.6c2.4,3.2,4.1,6.9,5.1,11.1
	c1.1,4.2,1.5,8.7,1.2,13.3H366.6z M414.5,346.2c-0.1-3.4-0.7-6.7-1.8-9.9c-1.1-3.2-2.7-6-4.7-8.4c-2-2.4-4.5-4.4-7.4-5.8
	c-2.9-1.5-6.2-2.2-10-2.2c-3.6,0-6.9,0.8-9.7,2.3c-2.8,1.5-5.3,3.5-7.3,6c-2,2.5-3.6,5.3-4.8,8.5c-1.2,3.2-1.9,6.4-2.2,9.6H414.5z
	 M435.5,331.6h0.4c0.6-2.1,1.7-4.1,3.3-6c1.6-1.9,3.5-3.5,5.7-4.8c2.2-1.4,4.7-2.4,7.4-3.1c2.7-0.7,5.6-1,8.6-1v4.8
	c-2.5-0.3-5.4-0.1-8.7,0.8c-3.3,0.8-6.4,2.7-9.3,5.6c-1.2,1.3-2.2,2.5-3.1,3.7c-0.9,1.2-1.6,2.5-2.2,3.9c-0.6,1.4-1.1,3-1.4,4.8
	c-0.3,1.8-0.6,3.9-0.6,6.3v35.7h-4.8v-65.3h4.8V331.6z M467.1,304.8v-13.1h4.8v13.1H467.1z M467.1,382.3v-65.3h4.8v65.3H467.1z
	 M487.3,317.1h4.8v14h0.3c0.8-2.5,2.1-4.6,3.6-6.5c1.6-1.9,3.4-3.5,5.5-4.9c2.1-1.4,4.3-2.4,6.8-3c2.5-0.7,5-1,7.5-1
	c3.8,0,7,0.5,9.7,1.4c2.7,0.9,4.8,2.2,6.5,3.7c1.7,1.5,3,3.2,4,5.1c1,1.9,1.7,3.8,2.1,5.8c0.4,1.9,0.7,3.8,0.8,5.7
	c0.1,1.8,0.1,3.4,0.1,4.8v40.4h-4.8v-41.3c0-1.7-0.1-3.7-0.4-6.2c-0.3-2.4-1-4.7-2.2-7c-1.2-2.2-3.1-4.2-5.6-5.8
	c-2.5-1.6-5.9-2.4-10.3-2.4c-3.6,0-6.9,0.7-9.8,2c-2.9,1.4-5.4,3.2-7.4,5.7c-2,2.4-3.6,5.3-4.6,8.6c-1.1,3.3-1.6,7-1.6,11v35.3h-4.8
	V317.1z M607.1,317.1v61.8c0,0.8,0,2.2-0.1,3.9c-0.1,1.8-0.4,3.7-0.9,5.9s-1.3,4.4-2.5,6.6c-1.1,2.2-2.8,4.3-4.8,6.1
	c-2.1,1.8-4.7,3.3-8,4.4c-3.3,1.1-7.2,1.6-11.9,1.4c-3.5,0-6.7-0.4-9.8-1.1s-5.7-1.9-7.9-3.4c-2.2-1.6-4.1-3.6-5.5-6.2
	c-1.4-2.6-2.2-5.8-2.3-9.6h4.8c0.3,2.9,1,5.3,2.2,7.4c1.2,2,2.7,3.7,4.6,5c1.9,1.3,4,2.3,6.4,2.9c2.4,0.6,4.9,0.9,7.6,0.9
	c3.8,0,7-0.5,9.7-1.4c2.6-0.9,4.8-2.1,6.5-3.6c1.7-1.5,3.1-3.1,4-4.9c0.9-1.8,1.6-3.5,2.1-5.2c0.5-1.7,0.7-3.2,0.8-4.6
	c0.1-1.4,0.1-2.5,0.1-3.2v-15h-0.3c-2.3,4.8-5.4,8.5-9.3,11c-3.9,2.5-8.7,3.8-14.3,3.8c-4.8,0-9-0.8-12.5-2.5
	c-3.5-1.7-6.4-3.9-8.8-6.9c-2.3-2.9-4.1-6.3-5.2-10.2c-1.1-3.9-1.7-8.1-1.7-12.7c0-4.3,0.6-8.4,1.8-12.3c1.2-3.9,3-7.3,5.4-10.2
	c2.4-2.9,5.3-5.2,8.8-7c3.5-1.7,7.6-2.6,12.1-2.6c2.5,0,5,0.3,7.5,1c2.5,0.7,4.7,1.7,6.8,2.9c2.1,1.3,3.9,2.8,5.5,4.7
	c1.6,1.9,2.9,4,3.8,6.5h0.3v-13.6H607.1z M578.4,319.7c-4,0-7.4,0.8-10.3,2.4c-2.9,1.6-5.3,3.7-7.2,6.4c-1.9,2.6-3.3,5.6-4.3,9
	c-1,3.3-1.5,6.8-1.5,10.2c0,3.8,0.5,7.4,1.5,10.9c1,3.4,2.5,6.4,4.4,9c2,2.5,4.4,4.6,7.4,6c2.9,1.5,6.3,2.2,10.1,2.2
	c4,0,7.4-0.8,10.4-2.3c3-1.5,5.4-3.6,7.4-6.2c2-2.6,3.5-5.6,4.4-9c1-3.3,1.5-6.9,1.5-10.6c0-3.6-0.5-7.2-1.5-10.5
	c-1-3.4-2.5-6.4-4.4-9c-2-2.6-4.5-4.6-7.4-6.2C585.9,320.5,582.4,319.7,578.4,319.7z M351,4.1c-12.1,6.4-16.7,17.1-16.7,46.8
	c0,0,6.1-5.9,15.3-9.3c6.7-2.4,12.3-6.1,15.6-8.5C375.4,25.7,377,16,377-0.3C377-0.3,360.3-0.8,351,4.1z M278.9,11.1
	c-9.9,8.7-12.8,22.6-12.8,22.6l-32.8,127l-27.3-104c-2.7-11.1-7.4-24.7-15-34c-9.7-11.8-29.3-12.5-31.4-12.5
	c-2.1,0-21.7,0.7-31.4,12.5c-7.6,9.2-12.4,22.9-15,34L86,160.8l-32.8-127c0,0-2.9-13.9-12.8-22.6C24.4-3.1,0.3-0.1,0.3-0.1
	l62.8,237.4c0,0,20.7,1.5,31.1-3.8c13.6-6.9,20.1-12.3,28.3-44.6c7.3-28.8,27.9-113.4,29.8-119.4c0.9-3,2.1-10.1,7.4-10.1
	c5.3,0,6.4,7.1,7.4,10.1c1.9,6,22.5,90.6,29.8,119.4c8.2,32.3,14.7,37.7,28.3,44.6c10.4,5.3,31.1,3.8,31.1,3.8L319.1-0.1
	C319.1-0.1,295-3.1,278.9,11.1z M377,38.7c0,0-3.9,6.1-12.9,11.1c-5.8,3.2-11.3,5.4-17.2,8.2c-9.9,4.8-12.6,10.1-12.6,18.2v2.7v12.5
	v0.3v2.8v142.8c0,0,15.8,2,26.2-3.3c13.3-6.8,16.4-13.4,16.5-42.9V47.3l0,0V38.7z M533.5,119.2L613.2,0.7c0,0-33.6-5.7-50.3,9.4
	c-10.7,9.7-22.6,27.1-22.6,27.1L511,79.6c-1.4,2.2-3.3,4.6-6.3,4.6s-4.8-2.4-6.3-4.6l-29.3-42.3c0,0-11.9-17.4-22.6-27.1
	C430-5,396.4,0.7,396.4,0.7L476,119.2l-79.5,118.1c0,0,35,4.4,51.7-10.7c10.7-9.7,21-25.5,21-25.5l29.3-42.3
	c1.4-2.2,3.3-4.6,6.3-4.6s4.8,2.4,6.3,4.6l29.3,42.3c0,0,10.9,15.8,21.6,25.5c16.7,15.2,51.1,10.7,51.1,10.7L533.5,119.2z"/>
</svg>
