<svg xmlns="http://www.w3.org/2000/svg" width="404" height="301" fill="#fff" overflow="visible"><path d="M66.521 93.254V217.68c0 3.371-.374 5.057.75 6.742.562 1.127 1.685 1.686 2.623 1.686 1.31 0 2.436-.559 3.184-1.87 1.125-1.687.938-3.376.938-6.933V93.255h5.809v126.859c0 8.617-3.186 12.927-9.931 12.927-2.812 0-5.247-.933-7.12-2.994-1.875-2.064-2.812-5.25-2.812-9.744V93.254h6.56zm62.024 139.039l-9.37-85.447v85.447h-5.059V93.254h6.746l9.555 80.201v-80.2h4.312v139.038zm56.778-76.453v4.873h-9.182v65.774h10.494v5.806h-18.74V93.254h17.428v5.997h-9.182v56.59zm181.951-82.261v11.62H39.912V73.58zm0 169.023v11.615H39.912v-11.615zm17.988 23.42v11.62H18.926v-11.62zm18.363 22.674V300.5H.375v-11.804zM201.999.5l164.52 46.847v12.367L200.5 14.554 39.164 60.462V48.096z" fill-rule="evenodd"/><path d="M329.235 60.462h-33.92l-92.004-24.92-91.816 24.172-35.044.748 127.233-36.539zm-97.255 72.893h7.122v-26.984s-.19-7.87-2.065-10.117c-1.87-2.062-4.119-3.937-8.992-3.937-4.683.19-5.81 1.5-7.496 3.56-1.875 2.063-2.623 5.621-2.623 9.372 0 3.745.19 20.424.748 26.044.563 5.436 5.81 27.545 8.809 38.229 2.812 10.867 4.123 16.302 4.312 19.3.186 3.182.559 13.866.186 19.112-.186 5.246 0 12.553 0 12.553s.373 5.81-2.998 5.81c-3.56 0-3.188-5.81-3.188-5.81V187.51h-7.12v32.793s-1.872 11.99 9.37 11.99c11.432 0 11.432-10.68 11.432-10.68v-29.982s-.565-9.932-2.44-16.863c-1.87-6.748-7.869-28.296-9.181-34.294-1.496-6.368-2.06-15.74-2.06-24.17 0-8.432.189-13.679.189-13.679s-.19-3.935 2.998-3.935c2.998 0 2.812 4.122 2.812 4.122l.186 30.543zm54.528.375h6.184v-32.42c0-5.057-2.809-10.117-9.746-10.117-6.368 0-10.114 4.684-10.114 10.304V223.3c0 5.43 3.746 10.12 10.114 10.12 6.937 0 9.746-4.874 9.746-9.936v-36.537h-6.184V223.3c0 1.875.19 4.12-3.562 4.12-3.934 0-3.555-3.372-3.555-4.684V101.875c0-1.312-.379-4.686 3.555-4.686 3.752 0 3.562 2.437 3.562 4.31v32.23zm51.719-42.536c-6.37 0-10.867 4.684-10.867 10.304v121.803c0 5.43 4.498 10.12 10.867 10.12 6.931 0 10.494-4.874 10.494-9.936V101.31c0-5.057-3.563-10.117-10.494-10.117zm4.308 132.107c0 1.875-.558 4.12-4.308 4.12-3.936 0-4.309-3.372-4.309-4.684V101.875c0-1.312.373-4.686 4.309-4.686 3.75 0 4.308 2.437 4.308 4.31V223.3z" fill-rule="evenodd"/></svg>