<svg fill="#fff" xmlns="http://www.w3.org/2000/svg" width="160.08" height="159.58"><path d="M79.635 22.274c-32.805 0-59.381 26.589-59.381 59.387 0 29.834 22.011 54.525 50.681 58.744.594.127 1.148.205 1.639.199 2.927-.029 4.274-2.389 4.274-4.394v-29.075l-.027-.082-25.232-25.25 28.388-28.392 28.392 28.392-25.202 25.202.119-.1v29.082c0 3.172 1.892 5.11 4.585 4.48 28.704-4.184 51.145-28.971 51.145-58.824 0-32.792-26.6-59.38-59.384-59.38m12.687 107.748v-.039l-.023-18.697-.163-.067 29.18-29.173-41.628-41.616-41.629 41.627 29.771 29.779-.018 18.129c-21.712-5.512-37.785-25.184-37.785-48.611 0-27.703 22.46-50.167 50.17-50.167 27.714 0 50.167 22.465 50.167 50.167 0 24.402-16.63 43.361-38.047 48.671M16.919 52.215l-1.539-.757.757-1.539 1.539.757-.757 1.539zm6.419-4.652l-7.375-5.067 1.642-2.39c.623-.905 1.065-1.47 1.328-1.695.4-.346.884-.535 1.45-.565.567-.03 1.144.156 1.73.559.453.311.777.655.973 1.031.195.377.295.752.297 1.126.002.375-.059.712-.181 1.013-.174.404-.492.943-.956 1.617l-.667.971 2.782 1.911-1.023 1.489zm-5.104-5.699l2.093 1.438.56-.814c.403-.587.635-1.006.693-1.257a1.185 1.185 0 0 0-.043-.714 1.201 1.201 0 0 0-.458-.563c-.268-.185-.544-.258-.826-.22a1.253 1.253 0 0 0-.738.374c-.155.155-.418.5-.787 1.037l-.494.719zm14.468-6.257l-1.292 1.48-2.046-.748-2.353 2.695 1.047 1.893-1.261 1.443-4.449-8.51 1.257-1.439 9.097 3.186zm-4.854.178l-3.313-1.255 1.707 3.094 1.606-1.839zm6.254-1.328l-5.023-5.479-1.958 1.794-1.022-1.115 5.241-4.806 1.022 1.116-1.952 1.79 5.023 5.479-1.331 1.221zm3.995-3.588l-5.177-7.297 3.101-2.2c.78-.554 1.394-.89 1.84-1.009s.895-.087 1.345.097c.45.185.828.493 1.135.924.389.547.548 1.114.479 1.699-.069.585-.391 1.152-.965 1.699.45-.041.857-.022 1.223.052.365.076.926.272 1.68.59l1.9.792-1.762 1.25-2.192-.832c-.78-.299-1.293-.473-1.537-.522a1.393 1.393 0 0 0-.658.011c-.195.056-.462.204-.8.444l-.299.212 2.161 3.046-1.474 1.044zm-1.514-5.257l1.09-.773c.707-.501 1.127-.845 1.26-1.03a.965.965 0 0 0 .194-.602 1.16 1.16 0 0 0-.238-.653c-.174-.246-.381-.397-.619-.456s-.491-.022-.758.107c-.132.068-.496.314-1.093.738l-1.15.816 1.314 1.853zm8.777.349l-4.477-7.747 1.564-.904 4.477 7.748-1.564.903zm2.789-1.725l-3.667-8.161 2.467-1.109 3.982 4.902-1.037-6.225 2.472-1.111 3.667 8.162-1.531.688-2.887-6.424 1.267 7.152-1.587.713-4.501-5.7 2.887 6.425-1.532.688zm7.752-8.182c-.246-.877-.32-1.651-.225-2.32.074-.494.231-.962.473-1.405a3.49 3.49 0 0 1 .897-1.088c.473-.377 1.061-.664 1.762-.86 1.27-.355 2.396-.245 3.379.33.981.575 1.669 1.564 2.062 2.967.388 1.392.314 2.585-.223 3.583-.536.997-1.438 1.672-2.703 2.026-1.282.358-2.41.252-3.385-.319-.974-.572-1.654-1.542-2.037-2.914zm1.777-.56c.272.976.704 1.653 1.296 2.031.591.377 1.233.469 1.928.275.693-.194 1.192-.603 1.498-1.227.305-.624.318-1.435.039-2.435-.276-.988-.698-1.664-1.268-2.029-.568-.365-1.212-.447-1.929-.247-.717.201-1.227.608-1.528 1.222-.302.616-.314 1.418-.036 2.41zm8.88 2.308l-1.179-8.87 1.743-.232 4.416 5.441-.786-5.923 1.663-.221 1.179 8.87-1.797.239-4.344-5.309.768 5.784-1.663.221zm8.689-.951l-.342-8.941 1.806-.069.343 8.941-1.807.069zm3.224-4.635c.056-.91.236-1.665.547-2.266.231-.443.532-.834.906-1.175.373-.34.773-.584 1.203-.734.57-.202 1.219-.281 1.946-.236 1.316.079 2.344.551 3.085 1.416s1.066 2.023.979 3.478c-.088 1.441-.548 2.546-1.381 3.313s-1.905 1.111-3.218 1.031c-1.328-.08-2.359-.55-3.095-1.407-.734-.859-1.058-1.998-.972-3.42zm1.862.052c-.062 1.012.126 1.792.562 2.342.436.55 1.012.847 1.73.89.719.044 1.325-.179 1.817-.669.492-.49.771-1.253.833-2.289.062-1.023-.116-1.801-.535-2.332-.418-.53-.999-.819-1.742-.864-.743-.045-1.357.173-1.843.656-.486.483-.76 1.238-.822 2.266zm10.919 5.602l2.315-8.643 2.613.7-.013 6.315 3.13-5.48 2.619.702-2.316 8.643-1.621-.435 1.823-6.803-3.538 6.344-1.681-.451.113-7.262-1.822 6.804-1.622-.434zm13.275-5.447l1.659.714-1.914 4.452c-.305.706-.48 1.173-.529 1.4-.074.367-.021.709.159 1.028.18.319.501.578.965.777.471.202.867.259 1.189.17.322-.091.567-.265.737-.524.169-.26.393-.714.673-1.365l1.955-4.548 1.66.714-1.857 4.317c-.423.987-.769 1.665-1.033 2.034a2.523 2.523 0 0 1-.939.818c-.362.177-.78.261-1.256.254s-1.038-.15-1.688-.43c-.785-.337-1.341-.684-1.669-1.04-.328-.355-.547-.729-.658-1.12a2.475 2.475 0 0 1-.073-1.111c.095-.518.339-1.237.734-2.156l1.885-4.384zm4.477 11.78l4.601-7.675 1.508.904.069 7.007 3.071-5.125 1.44.863-4.602 7.674-1.555-.931-.093-6.86-3.001 5.004-1.438-.861zm13.011-2.42l2.578 2.063c.582.465.989.865 1.224 1.198.313.449.492.944.537 1.486.046.542-.033 1.098-.238 1.666s-.568 1.18-1.093 1.833c-.46.576-.928 1.014-1.404 1.316-.581.368-1.16.58-1.735.635-.436.043-.915-.036-1.438-.235-.39-.151-.846-.435-1.367-.852l-2.653-2.124 5.589-6.986zm.464 2.311l-3.703 4.627 1.054.842c.394.315.696.521.905.616.276.126.543.181.803.166.261-.016.563-.143.909-.378.346-.237.734-.626 1.167-1.166.432-.54.716-.993.853-1.359.136-.365.183-.697.141-.997a1.707 1.707 0 0 0-.39-.851c-.161-.202-.529-.533-1.104-.994l-.635-.506z"/><path d="M123.137 34.395l6.219-6.434 1.299 1.256-6.219 6.433-1.299-1.255zm7.676 8.398l-1.278-1.492 1.034-1.916-2.327-2.715-2.024.761-1.246-1.455 9.062-3.177 1.243 1.451-4.464 8.543zm.524-4.829l1.719-3.097-3.308 1.243 1.589 1.854zm-.157 5.481l7.403-4.893.995 1.507-6.146 4.061 2.477 3.748-1.258.831-3.471-5.254zm8.728 7.791l1.55-.735.735 1.55-1.551.735-.734-1.55zM10.555 57.352l9.187.464-.52 1.775-6.277-.433 5.438 3.297-.603 2.061-6.439-.251 5.612 3.075-.512 1.745-7.977-4.6.538-1.839 6.922.169-5.921-3.585.552-1.878zm1.507 11.233c.904.113 1.646.344 2.227.691.426.258.797.585 1.112.979.316.394.534.81.656 1.248.165.583.202 1.235.111 1.958-.164 1.308-.701 2.304-1.611 2.988-.909.684-2.087.934-3.533.753-1.433-.18-2.506-.71-3.217-1.59-.712-.881-.987-1.973-.823-3.277.166-1.32.7-2.319 1.604-2.998s2.06-.929 3.474-.752zm-.172 1.854c-1.005-.126-1.796.011-2.373.41-.577.399-.91.956-1 1.671s.095 1.333.552 1.856c.457.522 1.2.849 2.23.978 1.018.127 1.804 0 2.36-.384.557-.383.882-.943.974-1.683.093-.739-.085-1.366-.536-1.882-.449-.516-1.185-.838-2.207-.966zm-5.359 8.418l8.946-.141.06 3.802c.016.956-.054 1.652-.208 2.088a2.053 2.053 0 0 1-.842 1.054 2.578 2.578 0 0 1-1.403.413c-.672.011-1.229-.179-1.672-.566s-.729-.974-.854-1.756a4.204 4.204 0 0 1-.736.979c-.269.258-.747.609-1.436 1.051L6.657 86.9l-.034-2.16 1.927-1.337c.688-.475 1.122-.799 1.3-.973.179-.174.3-.356.363-.549.064-.192.094-.496.087-.911l-.006-.366-3.734.059-.029-1.806zm5.191 1.726l.021 1.336c.014.866.059 1.406.136 1.622a.968.968 0 0 0 .386.5c.182.119.406.177.675.173.301-.005.543-.09.725-.253.183-.163.297-.392.341-.686.018-.147.021-.587.01-1.319l-.022-1.41-2.272.037zm-4.83 8.049l8.788-1.24.252 1.789-7.295 1.029.628 4.448-1.493.211-.88-6.237zm9.902 5.832l.86 3.188c.194.72.288 1.282.279 1.689a2.992 2.992 0 0 1-.444 1.517 3.913 3.913 0 0 1-1.177 1.203c-.501.337-1.156.615-1.966.834-.711.191-1.348.269-1.91.231-.687-.047-1.278-.218-1.775-.514-.377-.224-.717-.569-1.021-1.04-.226-.353-.425-.851-.599-1.494l-.887-3.282 8.64-2.332zm-.99 2.139l-5.722 1.545.352 1.302c.132.487.253.831.367 1.032.146.264.33.467.549.607.22.141.539.219.958.231.418.014.961-.069 1.63-.25.667-.181 1.164-.378 1.49-.592.325-.214.56-.455.702-.722a1.71 1.71 0 0 0 .189-.916c-.011-.259-.112-.744-.305-1.455l-.21-.782zm-3.554 13.109l8.063-3.879.783 1.629-3.174 1.525 1.534 3.191 3.174-1.527.783 1.629-8.063 3.877-.783-1.627 3.525-1.696-1.534-3.19-3.526 1.696-.782-1.628zm4.38 8.684l7.503-4.876 3.616 5.563-1.271.825-2.631-4.048-1.663 1.08 2.448 3.767-1.265.822-2.447-3.767-2.042 1.326 2.724 4.192-1.264.821-3.708-5.705zm5.058 7.521l6.813-5.799 2.465 2.895c.62.729 1.009 1.31 1.168 1.743.158.435.165.884.021 1.349a2.58 2.58 0 0 1-.82 1.211c-.511.436-1.061.645-1.65.627-.589-.016-1.181-.287-1.776-.811.08.444.098.852.055 1.223s-.189.945-.439 1.725l-.621 1.964-1.4-1.646.637-2.256c.229-.805.356-1.331.385-1.578a1.409 1.409 0 0 0-.069-.655c-.073-.189-.244-.442-.513-.758l-.238-.278-2.844 2.421-1.174-1.377zm5.103-1.971l.866 1.018c.562.66.94 1.049 1.136 1.165s.4.163.616.14c.216-.022.426-.121.63-.295.229-.195.362-.414.399-.656s-.021-.491-.174-.746c-.079-.124-.356-.466-.831-1.023l-.914-1.074-1.728 1.471zm1.221 9.042l6.244-6.409 1.294 1.261-6.244 6.409-1.294-1.261zm4.42 4.06l4.728-5.736-2.049-1.689.963-1.168 5.487 4.522-.963 1.168-2.044-1.685-4.728 5.736-1.394-1.148zm10.892 7.76l-1.646-1.074.456-2.129-2.995-1.956-1.729 1.298-1.604-1.047 7.81-5.588 1.601 1.045-1.893 9.451zm-.85-4.784l.782-3.454-2.827 2.12 2.045 1.334zm7.563 4.395l.641-1.363 3.525 1.654-1.516 3.227c-.499.171-1.132.229-1.9.177s-1.486-.236-2.152-.55c-.848-.397-1.503-.922-1.965-1.573a3.743 3.743 0 0 1-.704-2.192 5.44 5.44 0 0 1 .538-2.379c.396-.844.925-1.512 1.586-2a3.948 3.948 0 0 1 2.262-.779c.646-.025 1.354.145 2.128.508 1.006.472 1.692 1.052 2.06 1.739.367.687.457 1.44.27 2.261l-1.768-.459a1.89 1.89 0 0 0-.2-1.244c-.207-.379-.546-.678-1.018-.899-.714-.335-1.389-.376-2.023-.12-.634.254-1.161.827-1.579 1.719-.451.961-.577 1.782-.376 2.463.202.682.648 1.185 1.342 1.511.342.16.717.255 1.124.282.408.027.78.003 1.117-.073l.482-1.027-1.874-.883zm4.404 5.465l2.704-8.529 6.323 2.006-.457 1.442-4.603-1.459-.599 1.891 4.282 1.358-.456 1.437-4.282-1.357-.735 2.321 4.765 1.511-.456 1.437-6.486-2.058zm13.06-.156l.277-1.692 1.692.277-.277 1.692-1.692-.277zm7.484 4.478l.155-8.946 2.899.051c1.098.019 1.813.076 2.146.171.51.144.935.443 1.274.898.337.455.5 1.039.487 1.751-.01.55-.117 1.01-.323 1.381-.205.37-.464.66-.775.868a2.626 2.626 0 0 1-.944.408c-.433.078-1.059.109-1.876.096l-1.178-.021-.059 3.375-1.806-.032zm1.936-7.401l-.045 2.539.988.017c.713.013 1.189-.025 1.431-.115a1.172 1.172 0 0 0 .788-1.122c.006-.325-.085-.596-.272-.811s-.428-.351-.719-.409c-.216-.045-.648-.072-1.299-.084l-.872-.015zm14.184 6.674l-1.956.193-.979-1.945-3.56.354-.534 2.095-1.907.19 2.585-9.249 1.9-.188 4.451 8.55zm-3.661-3.195l-1.554-3.182-.875 3.423 2.429-.241zm6.254 2.594l-1.541-7.272-2.598.55-.313-1.48 6.956-1.474.313 1.48-2.591.549 1.541 7.273-1.767.374zm6.153-1.419L96.935 143l3.595-1.239c.903-.313 1.586-.463 2.049-.451.461.01.883.167 1.262.471.381.304.657.706.829 1.206.22.634.214 1.223-.017 1.765s-.699.995-1.403 1.359a4.2 4.2 0 0 1 1.158.395c.33.174.812.521 1.446 1.037l1.602 1.295-2.043.704-1.869-1.415c-.665-.507-1.108-.818-1.328-.933a1.382 1.382 0 0 0-.635-.175c-.203-.002-.501.065-.893.2l-.347.12 1.218 3.531-1.708.589zm.024-5.471l1.264-.436c.819-.282 1.318-.493 1.499-.634.181-.139.298-.313.355-.522s.042-.44-.046-.694c-.098-.284-.254-.488-.465-.611-.213-.122-.465-.158-.759-.109-.145.029-.563.162-1.256.4l-1.333.46.741 2.146zm8.872 2.158l-3.686-8.154 1.647-.743 3.684 8.152-1.645.745zm3.726-1.621l-4.496-7.735 2.337-1.359 4.472 4.461-1.68-6.084 2.343-1.361 4.497 7.734-1.451.844-3.54-6.089 2.005 6.982-1.505.874-5.07-5.199 3.541 6.09-1.453.842zm6.598-9.086c-.57-.711-.942-1.394-1.116-2.046a4.178 4.178 0 0 1-.118-1.479c.048-.503.181-.953.397-1.353.288-.532.715-1.026 1.283-1.482 1.028-.825 2.107-1.167 3.236-1.023 1.129.143 2.149.782 3.061 1.919.903 1.126 1.305 2.254 1.203 3.381-.103 1.128-.666 2.104-1.691 2.926-1.037.833-2.117 1.178-3.237 1.036s-2.127-.768-3.018-1.879zm1.413-1.212c.635.79 1.298 1.243 1.99 1.358.691.115 1.319-.053 1.881-.504.562-.45.86-1.021.896-1.716.035-.694-.271-1.445-.921-2.255-.641-.8-1.296-1.256-1.962-1.368-.667-.112-1.291.065-1.871.53-.58.467-.89 1.041-.926 1.725-.034.684.27 1.427.913 2.23zm9.417-2.146l-6.255-6.399 1.292-1.263 6.254 6.398-1.291 1.264zm2.934-2.844l-6.825-5.785 1.137-1.342 6.926 1.07-4.558-3.863 1.085-1.281 6.826 5.787-1.173 1.383-6.783-1.022 4.451 3.774-1.086 1.279zm6.146-7.54l-7.518-4.854 3.599-5.573 1.271.82-2.617 4.057 1.666 1.076 2.436-3.774 1.267.817-2.437 3.774 2.046 1.32 2.712-4.199 1.267.818-3.692 5.718zm6.529-11.066l-8.289-3.369 1.018-2.505 6.267.795-5.05-3.786 1.021-2.51 8.289 3.369-.632 1.555-6.525-2.652 5.855 4.298-.654 1.611-7.191-1.012 6.525 2.651-.634 1.555zm-.356-11.221c-.885-.212-1.598-.523-2.136-.933a4.23 4.23 0 0 1-.999-1.096 3.501 3.501 0 0 1-.514-1.313c-.1-.597-.065-1.249.104-1.958.308-1.281.951-2.213 1.932-2.792.979-.578 2.177-.698 3.594-.359 1.404.337 2.411.983 3.022 1.937.61.954.763 2.069.456 3.348-.31 1.294-.951 2.229-1.923 2.803-.971.573-2.15.694-3.536.363zm.375-1.825c.984.236 1.786.188 2.404-.145.617-.334 1.01-.852 1.178-1.552s.053-1.335-.344-1.904c-.396-.571-1.1-.978-2.108-1.218-.997-.24-1.794-.2-2.389.12-.597.319-.98.842-1.153 1.566-.175.724-.065 1.367.324 1.929.391.563 1.087.965 2.088 1.204zm6.255-7.764l-8.907-.853.168-1.75 6.297-3.075-5.947-.571.16-1.67 8.906.853-.172 1.805-6.153 3.035 5.809.556-.161 1.67zm-8.182-9.388l-.131-3.3c-.029-.744.004-1.313.103-1.708.135-.531.391-.991.77-1.38.38-.39.852-.693 1.414-.912.564-.218 1.265-.343 2.103-.377.735-.028 1.374.038 1.913.199.66.198 1.199.497 1.617.895.317.301.573.715.765 1.24.143.394.227.924.252 1.591l.137 3.396-8.943.356zm1.44-1.866l5.923-.236-.055-1.348c-.02-.504-.063-.867-.129-1.088a1.675 1.675 0 0 0-.4-.715c-.183-.187-.477-.332-.882-.438-.405-.106-.953-.146-1.645-.118-.691.027-1.22.109-1.585.246s-.646.32-.846.546a1.726 1.726 0 0 0-.387.853c-.048.254-.057.75-.027 1.485l.033.813zm6.888-7.967l-8.868 1.188-.239-1.791 8.869-1.187.238 1.79zm-2.323-11.874l.44 1.916-1.807 1.216.802 3.486 2.146.265.428 1.868-9.5-1.394-.428-1.862 7.919-5.495zm-2.705 4.034l-2.961 1.944 3.508.435-.547-2.379zm2.123-5.657l-8.339 3.036-.618-1.697 6.922-2.521-1.536-4.221 1.417-.515 2.154 5.918z"/></svg>