<?xml version="1.0" encoding="UTF-8"?>
<!DOCTYPE svg PUBLIC "-//W3C//DTD SVG 1.1//EN" "http://www.w3.org/Graphics/SVG/1.1/DTD/svg11.dtd">
<!-- Creator: CorelDRAW X8 -->
<svg xmlns="http://www.w3.org/2000/svg" xml:space="preserve" width="159.723mm" height="159.723mm" version="1.1" style="shape-rendering:geometricPrecision; text-rendering:geometricPrecision; image-rendering:optimizeQuality; fill-rule:evenodd; clip-rule:evenodd"
viewBox="0 0 15972 15972"
 xmlns:xlink="http://www.w3.org/1999/xlink">
 <defs>
  <style type="text/css">
   <![CDATA[
    .fil1 {fill:#2E2E2D}
    .fil0 {fill:#F8DB3C}
   ]]>
  </style>
 </defs>
 <g id="Слой_x0020_1">
  <metadata id="CorelCorpID_0Corel-Layer"/>
  <rect class="fil0" width="15972" height="15972" rx="1061" ry="1061"/>
  <g>
   <path class="fil1" d="M5426 13543l1112 -673c214,380 409,702 877,702 449,0 732,-176 732,-858l0 -4642 1365 0 0 4661c0,1414 -829,2058 -2038,2058 -1092,0 -1726,-566 -2048,-1249l0 1zm4827 -147l1112 -643c292,478 673,829 1346,829 565,0 926,-283 926,-673 0,-468 -371,-634 -995,-907l-341 -146c-985,-420 -1638,-946 -1638,-2058 0,-1024 780,-1804 1999,-1804 868,0 1492,302 1940,1092l-1063 683c-234,-419 -487,-585 -877,-585 -400,0 -653,253 -653,585 0,409 253,575 838,829l341 146c1161,497 1814,1004 1814,2145 0,1229 -965,1902 -2262,1902 -1268,0 -2087,-605 -2487,-1395l0 0zm-8767 -6672l1674 0 0 815 -1674 0 0 -815zm4951 -1134c206,-65 672,-159 974,-176l86 580c-501,41 -791,130 -921,168l-139 -572zm-1630 783c209,-146 422,-284 640,-415l287 518c-190,84 -395,203 -623,376l-304 -479zm1486 -990l208 798c-254,65 -500,151 -687,256 -134,-230 -267,-469 -399,-703 352,-162 429,-213 878,-351zm-2093 511l1183 0c-212,126 -420,259 -623,399l-112 -176c-168,114 -391,318 -447,376l-1 -599zm-975 830l496 0 240 0 -144 176 192 160c-111,147 -215,299 -288,479l-496 0 0 -815zm1391 -511l431 687c-214,166 -359,319 -479,479 -213,-159 -426,-331 -639,-494 250,-287 337,-390 687,-672zm-1086 1390l687 399c-74,206 -96,375 -96,575 -266,0 -532,0 -799,0 -12,-332 45,-658 208,-974zm-1246 -16l1166 0c-142,298 -194,527 -198,797l-968 0 0 -797zm0 -1693l1853 0 0 655 -112 111 -1741 0 0 -766zm1790 1197l446 352c-101,152 -210,333 -271,479l-496 -287c46,-162 209,-439 321,-544zm-2685 -1644l3962 0 497 -1 -569 252 72 116 -3962 0 0 -367zm1 -348l5989 12 32 224 -1021 32 -33 -80 -306 80 -4661 0 0 -268zm6068 76l528 -31 0 830 -415 17 -113 -816zm-3913 7764l591 0 0 621 -591 0 0 -621zm0 -688l591 0 0 622 -591 0 0 -622zm0 -690l591 0 0 622 -591 0 0 -622zm0 -700l591 0 0 623 -591 0 0 -623zm0 -686l591 0 0 622 -591 0 0 -622zm-2059 -4281l733 0 0 766 -733 0 0 -766zm1740 2763l240 0 0 591 -240 0 0 -591zm319 0l591 0 0 591 -591 0 0 -591zm-319 3242l253 0 0 798 -253 0 0 -798zm-943 863l1198 0 0 798 -1198 0 0 -798zm-797 0l734 0 0 798 -734 0 0 -798zm8767 634l0 0 0 0zm-4827 147l0 0 0 0zm-3940 -1644l1676 0 0 798 -1676 0 0 -798zm797 -862l1199 0 0 798 -1199 0 0 -798zm942 -862l238 0 0 798 -238 0 0 -798zm128 -863l783 0 0 799 -783 0 0 -799zm-1069 0l989 0 0 799 -989 0 0 -799zm-1166 -4984l0 0 0 -686 877 0 0 686 1263 0 0 -687 878 0 0 687 1261 0 0 -687 879 0 0 687 1262 0 0 -687 447 0 0 687 0 0 0 704 -6602 0 -265 -167 0 -537zm1101 -3208l1901 0 0 574 -1901 0 0 -574zm3291 -2l1901 0 0 575 -1901 0 0 -575zm-319 1358l2014 0 0 574 -2014 0 0 -574zm-3483 0l2014 0 0 575 -2014 0 0 -575zm-222 8561l734 0 0 798 -734 0 0 -798zm0 -1725l734 0 0 798 -734 0 0 -798zm0 863l1674 0 0 798 -1674 0 0 -798zm-1 3449l2635 0 0 302 -2635 0 0 -302zm-367 367l3172 0 0 850 -3172 0 0 -850zm368 -5541l1674 0 0 814 -1674 0 0 -814zm0 -863l733 0 0 797 -733 0 0 -797z"/>
  </g>
 </g>
</svg>
