<svg xmlns="http://www.w3.org/2000/svg" width="603.677" height="603.677" viewBox="0 0 15972 15972" shape-rendering="geometricPrecision" text-rendering="geometricPrecision" image-rendering="optimizeQuality" fill-rule="evenodd" clip-rule="evenodd"><defs><style>.fil1{fill:#2e2e2d}.fil0{fill:#f8db3c}</style></defs><g id="Слой_x0020_1"><rect class="fil0" width="15972" height="15972" rx="1061" ry="1061"/><path class="fil1" d="M5426 13543l1112-673c214 380 409 702 877 702 449 0 732-176 732-858V8072h1365v4661c0 1414-829 2058-2038 2058-1092 0-1726-566-2048-1249v1zm4827-147l1112-643c292 478 673 829 1346 829 565 0 926-283 926-673 0-468-371-634-995-907l-341-146c-985-420-1638-946-1638-2058 0-1024 780-1804 1999-1804 868 0 1492 302 1940 1092l-1063 683c-234-419-487-585-877-585-400 0-653 253-653 585 0 409 253 575 838 829l341 146c1161 497 1814 1004 1814 2145 0 1229-965 1902-2262 1902-1268 0-2087-605-2487-1395zM1486 6724h1674v815H1486v-815zm4951-1134c206-65 672-159 974-176l86 580c-501 41-791 130-921 168l-139-572zm-1630 783c209-146 422-284 640-415l287 518c-190 84-395 203-623 376l-304-479zm1486-990l208 798c-254 65-500 151-687 256-134-230-267-469-399-703 352-162 429-213 878-351zm-2093 511h1183c-212 126-420 259-623 399l-112-176c-168 114-391 318-447 376l-1-599zm-975 830h736l-144 176 192 160c-111 147-215 299-288 479h-496v-815zm1391-511l431 687c-214 166-359 319-479 479-213-159-426-331-639-494 250-287 337-390 687-672zM3530 7603l687 399c-74 206-96 375-96 575h-799c-12-332 45-658 208-974zm-1246-16h1166c-142 298-194 527-198 797h-968v-797zm0-1693h1853v655l-112 111H2284v-766zm1790 1197l446 352c-101 152-210 333-271 479l-496-287c46-162 209-439 321-544zM1389 5447h3962l497-1-569 252 72 116H1389v-367zm1-348l5989 12 32 224-1021 32-33-80-306 80H1390v-268zm6068 76l528-31v830l-415 17-113-816zm-3913 7764h591v621h-591v-621zm0-688h591v622h-591v-622zm0-690h591v622h-591v-622zm0-700h591v623h-591v-623zm0-686h591v622h-591v-622zM1486 5894h733v766h-733v-766zm1740 2763h240v591h-240v-591zm319 0h591v591h-591v-591zm-319 3242h253v798h-253v-798zm-943 863h1198v798H2283v-798zm-797 0h734v798h-734v-798zm8767 634zm-4827 147zm-3940-1644h1676v798H1486v-798zm797-862h1199v798H2283v-798zm942-862h238v798h-238v-798zm128-863h783v799h-783v-799zm-1069 0h989v799h-989v-799zM1118 4328v-686h877v686h1263v-687h878v687h1261v-687h879v687h1262v-687h447v1391H1383l-265-167v-537zm1101-3208h1901v574H2219v-574zm3291-2h1901v575H5510v-575zm-319 1358h2014v574H5191v-574zm-3483 0h2014v575H1708v-575zm-222 8561h734v798h-734v-798zm0-1725h734v798h-734v-798zm0 863h1674v798H1486v-798zm-1 3449h2635v302H1485v-302zm-367 367h3172v850H1118v-850zm368-5541h1674v814H1486v-814zm0-863h733v797h-733v-797z"/></g></svg>