<?xml version="1.0" encoding="utf-8"?>
<!-- Generator: Adobe Illustrator 17.0.0, SVG Export Plug-In . SVG Version: 6.00 Build 0)  -->
<!DOCTYPE svg PUBLIC "-//W3C//DTD SVG 1.1//EN" "http://www.w3.org/Graphics/SVG/1.1/DTD/svg11.dtd">
<svg fill="#ffffff" version="1.1" id="图层_1" xmlns="http://www.w3.org/2000/svg" xmlns:xlink="http://www.w3.org/1999/xlink" x="0px" y="0px"
	 width="160.08px" height="159.58px" viewBox="0 0 160.08 159.58" enable-background="new 0 0 160.08 159.58" xml:space="preserve">
<path d="M79.635,22.274c-32.805,0-59.381,26.589-59.381,59.387c0,29.834,22.011,54.525,50.681,58.744
	c0.594,0.127,1.148,0.205,1.639,0.199c2.927-0.029,4.274-2.389,4.274-4.394v-29.075l-0.027-0.082l-25.232-25.25l28.388-28.392
	l28.392,28.392l-25.202,25.202l0.119-0.1v29.082c0,3.172,1.892,5.11,4.585,4.48c28.704-4.184,51.145-28.971,51.145-58.824
	c0-32.792-26.6-59.38-59.384-59.38 M92.319,130.011v-0.039l-0.023-18.697l-0.163-0.067l29.18-29.173L79.685,40.419L38.056,82.046
	l29.771,29.779l-0.018,18.129c-21.712-5.512-37.785-25.184-37.785-48.611c0-27.703,22.46-50.167,50.17-50.167
	c27.714,0,50.167,22.465,50.167,50.167c0,24.402-16.63,43.361-38.047,48.671"/>
<g>
	<path d="M16.919,52.215l-1.539-0.757l0.757-1.539l1.539,0.757L16.919,52.215z"/>
	<path d="M23.338,47.563l-7.375-5.067l1.642-2.39c0.623-0.905,1.065-1.47,1.328-1.695c0.4-0.346,0.884-0.535,1.45-0.565
		c0.567-0.03,1.144,0.156,1.73,0.559c0.453,0.311,0.777,0.655,0.973,1.031c0.195,0.377,0.295,0.752,0.297,1.126
		c0.002,0.375-0.059,0.712-0.181,1.013c-0.174,0.404-0.492,0.943-0.956,1.617l-0.667,0.971l2.782,1.911L23.338,47.563z
		 M18.234,41.864l2.093,1.438l0.56-0.814c0.403-0.587,0.635-1.006,0.693-1.257c0.059-0.251,0.044-0.489-0.043-0.714
		c-0.087-0.226-0.24-0.413-0.458-0.563c-0.268-0.185-0.544-0.258-0.826-0.22c-0.283,0.038-0.528,0.163-0.738,0.374
		c-0.155,0.155-0.418,0.5-0.787,1.037L18.234,41.864z"/>
	<path d="M32.702,35.607l-1.292,1.48l-2.046-0.748l-2.353,2.695l1.047,1.893l-1.261,1.443l-4.449-8.51l1.257-1.439L32.702,35.607z
		 M27.848,35.785l-3.313-1.255l1.707,3.094L27.848,35.785z"/>
	<path d="M34.102,34.457l-5.023-5.479l-1.958,1.794l-1.022-1.115l5.241-4.806l1.022,1.116l-1.952,1.79l5.023,5.479L34.102,34.457z"
		/>
	<path d="M38.097,30.869l-5.177-7.297l3.101-2.2c0.78-0.554,1.394-0.89,1.84-1.009s0.895-0.087,1.345,0.097
		c0.45,0.185,0.828,0.493,1.135,0.924c0.389,0.547,0.548,1.114,0.479,1.699c-0.069,0.585-0.391,1.152-0.965,1.699
		c0.45-0.041,0.857-0.022,1.223,0.052c0.365,0.076,0.926,0.272,1.68,0.59l1.9,0.792l-1.762,1.25l-2.192-0.832
		c-0.78-0.299-1.293-0.473-1.537-0.522c-0.244-0.048-0.464-0.045-0.658,0.011c-0.195,0.056-0.462,0.204-0.8,0.444l-0.299,0.212
		l2.161,3.046L38.097,30.869z M36.583,25.612l1.09-0.773c0.707-0.501,1.127-0.845,1.26-1.03c0.134-0.185,0.199-0.385,0.194-0.602
		c-0.004-0.217-0.083-0.435-0.238-0.653c-0.174-0.246-0.381-0.397-0.619-0.456s-0.491-0.022-0.758,0.107
		c-0.132,0.068-0.496,0.314-1.093,0.738l-1.15,0.816L36.583,25.612z"/>
	<path d="M45.36,25.961l-4.477-7.747l1.564-0.904l4.477,7.748L45.36,25.961z"/>
	<path d="M48.149,24.236l-3.667-8.161l2.467-1.109l3.982,4.902l-1.037-6.225l2.472-1.111l3.667,8.162l-1.531,0.688l-2.887-6.424
		l1.267,7.152l-1.587,0.713l-4.501-5.7l2.887,6.425L48.149,24.236z"/>
	<path d="M55.901,16.054c-0.246-0.877-0.32-1.651-0.225-2.32c0.074-0.494,0.231-0.962,0.473-1.405
		c0.241-0.444,0.541-0.806,0.897-1.088c0.473-0.377,1.061-0.664,1.762-0.86c1.27-0.355,2.396-0.245,3.379,0.33
		c0.981,0.575,1.669,1.564,2.062,2.967c0.388,1.392,0.314,2.585-0.223,3.583c-0.536,0.997-1.438,1.672-2.703,2.026
		c-1.282,0.358-2.41,0.252-3.385-0.319C56.964,18.396,56.284,17.426,55.901,16.054z M57.678,15.494
		c0.272,0.976,0.704,1.653,1.296,2.031c0.591,0.377,1.233,0.469,1.928,0.275c0.693-0.194,1.192-0.603,1.498-1.227
		c0.305-0.624,0.318-1.435,0.039-2.435c-0.276-0.988-0.698-1.664-1.268-2.029c-0.568-0.365-1.212-0.447-1.929-0.247
		c-0.717,0.201-1.227,0.608-1.528,1.222C57.412,13.7,57.4,14.502,57.678,15.494z"/>
	<path d="M66.558,17.802l-1.179-8.87L67.122,8.7l4.416,5.441l-0.786-5.923l1.663-0.221l1.179,8.87l-1.797,0.239l-4.344-5.309
		l0.768,5.784L66.558,17.802z"/>
	<path d="M75.247,16.851l-0.342-8.941l1.806-0.069l0.343,8.941L75.247,16.851z"/>
	<path d="M78.471,12.216c0.056-0.91,0.236-1.665,0.547-2.266c0.231-0.443,0.532-0.834,0.906-1.175
		c0.373-0.34,0.773-0.584,1.203-0.734c0.57-0.202,1.219-0.281,1.946-0.236c1.316,0.079,2.344,0.551,3.085,1.416
		s1.066,2.023,0.979,3.478c-0.088,1.441-0.548,2.546-1.381,3.313s-1.905,1.111-3.218,1.031c-1.328-0.08-2.359-0.55-3.095-1.407
		C78.709,14.777,78.385,13.638,78.471,12.216z M80.333,12.268c-0.062,1.012,0.126,1.792,0.562,2.342
		c0.436,0.55,1.012,0.847,1.73,0.89c0.719,0.044,1.325-0.179,1.817-0.669c0.492-0.49,0.771-1.253,0.833-2.289
		c0.062-1.023-0.116-1.801-0.535-2.332c-0.418-0.53-0.999-0.819-1.742-0.864c-0.743-0.045-1.357,0.173-1.843,0.656
		C80.669,10.485,80.395,11.24,80.333,12.268z"/>
	<path d="M91.252,17.87l2.315-8.643l2.613,0.7l-0.013,6.315l3.13-5.48l2.619,0.702L99.6,20.107l-1.621-0.435l1.823-6.803
		l-3.538,6.344l-1.681-0.451l0.113-7.262l-1.822,6.804L91.252,17.87z"/>
	<path d="M104.527,12.423l1.659,0.714l-1.914,4.452c-0.305,0.706-0.48,1.173-0.529,1.4c-0.074,0.367-0.021,0.709,0.159,1.028
		c0.18,0.319,0.501,0.578,0.965,0.777c0.471,0.202,0.867,0.259,1.189,0.17c0.322-0.091,0.567-0.265,0.737-0.524
		c0.169-0.26,0.393-0.714,0.673-1.365l1.955-4.548l1.66,0.714l-1.857,4.317c-0.423,0.987-0.769,1.665-1.033,2.034
		c-0.266,0.369-0.578,0.642-0.939,0.818c-0.362,0.177-0.78,0.261-1.256,0.254s-1.038-0.15-1.688-0.43
		c-0.785-0.337-1.341-0.684-1.669-1.04c-0.328-0.355-0.547-0.729-0.658-1.12c-0.11-0.391-0.135-0.761-0.073-1.111
		c0.095-0.518,0.339-1.237,0.734-2.156L104.527,12.423z"/>
	<path d="M109.004,24.203l4.601-7.675l1.508,0.904l0.069,7.007l3.071-5.125l1.44,0.863l-4.602,7.674l-1.555-0.931l-0.093-6.86
		l-3.001,5.004L109.004,24.203z"/>
	<path d="M122.015,21.783l2.578,2.063c0.582,0.465,0.989,0.865,1.224,1.198c0.313,0.449,0.492,0.944,0.537,1.486
		c0.046,0.542-0.033,1.098-0.238,1.666s-0.568,1.18-1.093,1.833c-0.46,0.576-0.928,1.014-1.404,1.316
		c-0.581,0.368-1.16,0.58-1.735,0.635c-0.436,0.043-0.915-0.036-1.438-0.235c-0.39-0.151-0.846-0.435-1.367-0.852l-2.653-2.124
		L122.015,21.783z M122.479,24.094l-3.703,4.627l1.054,0.842c0.394,0.315,0.696,0.521,0.905,0.616
		c0.276,0.126,0.543,0.181,0.803,0.166c0.261-0.016,0.563-0.143,0.909-0.378c0.346-0.237,0.734-0.626,1.167-1.166
		c0.432-0.54,0.716-0.993,0.853-1.359c0.136-0.365,0.183-0.697,0.141-0.997c-0.041-0.3-0.172-0.583-0.39-0.851
		c-0.161-0.202-0.529-0.533-1.104-0.994L122.479,24.094z"/>
	<path d="M123.137,34.395l6.219-6.434l1.299,1.256l-6.219,6.433L123.137,34.395z"/>
	<path d="M130.813,42.793l-1.278-1.492l1.034-1.916l-2.327-2.715l-2.024,0.761l-1.246-1.455l9.062-3.177l1.243,1.451L130.813,42.793
		z M131.337,37.964l1.719-3.097l-3.308,1.243L131.337,37.964z"/>
	<path d="M131.18,43.445l7.403-4.893l0.995,1.507l-6.146,4.061l2.477,3.748l-1.258,0.831L131.18,43.445z"/>
	<path d="M139.908,51.236l1.55-0.735l0.735,1.55l-1.551,0.735L139.908,51.236z"/>
</g>
<g>
	<path d="M10.555,57.352l9.187,0.464l-0.52,1.775l-6.277-0.433l5.438,3.297l-0.603,2.061l-6.439-0.251l5.612,3.075l-0.512,1.745
		l-7.977-4.6l0.538-1.839l6.922,0.169l-5.921-3.585L10.555,57.352z"/>
	<path d="M12.062,68.585c0.904,0.113,1.646,0.344,2.227,0.691c0.426,0.258,0.797,0.585,1.112,0.979
		c0.316,0.394,0.534,0.81,0.656,1.248c0.165,0.583,0.202,1.235,0.111,1.958c-0.164,1.308-0.701,2.304-1.611,2.988
		c-0.909,0.684-2.087,0.934-3.533,0.753c-1.433-0.18-2.506-0.71-3.217-1.59c-0.712-0.881-0.987-1.973-0.823-3.277
		c0.166-1.32,0.7-2.319,1.604-2.998S10.648,68.408,12.062,68.585z M11.89,70.439c-1.005-0.126-1.796,0.011-2.373,0.41
		c-0.577,0.399-0.91,0.956-1,1.671s0.095,1.333,0.552,1.856c0.457,0.522,1.2,0.849,2.23,0.978c1.018,0.127,1.804,0,2.36-0.384
		c0.557-0.383,0.882-0.943,0.974-1.683c0.093-0.739-0.085-1.366-0.536-1.882C13.648,70.889,12.912,70.567,11.89,70.439z"/>
	<path d="M6.531,78.857l8.946-0.141l0.06,3.802c0.016,0.956-0.054,1.652-0.208,2.088c-0.153,0.436-0.435,0.787-0.842,1.054
		c-0.406,0.267-0.874,0.404-1.403,0.413c-0.672,0.011-1.229-0.179-1.672-0.566s-0.729-0.974-0.854-1.756
		c-0.222,0.394-0.467,0.721-0.736,0.979c-0.269,0.258-0.747,0.609-1.436,1.051L6.657,86.9l-0.034-2.16l1.927-1.337
		c0.688-0.475,1.122-0.799,1.3-0.973c0.179-0.174,0.3-0.356,0.363-0.549c0.064-0.192,0.094-0.496,0.087-0.911l-0.006-0.366
		l-3.734,0.059L6.531,78.857z M11.722,80.583l0.021,1.336c0.014,0.866,0.059,1.406,0.136,1.622c0.076,0.214,0.205,0.381,0.386,0.5
		c0.182,0.119,0.406,0.177,0.675,0.173c0.301-0.005,0.543-0.09,0.725-0.253c0.183-0.163,0.297-0.392,0.341-0.686
		c0.018-0.147,0.021-0.587,0.01-1.319l-0.022-1.41L11.722,80.583z"/>
	<path d="M6.892,88.632l8.788-1.24l0.252,1.789L8.637,90.21l0.628,4.448l-1.493,0.211L6.892,88.632z"/>
	<path d="M16.794,94.464l0.86,3.188c0.194,0.72,0.288,1.282,0.279,1.689c-0.013,0.547-0.16,1.053-0.444,1.517
		c-0.283,0.464-0.676,0.865-1.177,1.203c-0.501,0.337-1.156,0.615-1.966,0.834c-0.711,0.191-1.348,0.269-1.91,0.231
		c-0.687-0.047-1.278-0.218-1.775-0.514c-0.377-0.224-0.717-0.569-1.021-1.04c-0.226-0.353-0.425-0.851-0.599-1.494l-0.887-3.282
		L16.794,94.464z M15.804,96.603l-5.722,1.545l0.352,1.302c0.132,0.487,0.253,0.831,0.367,1.032c0.146,0.264,0.33,0.467,0.549,0.607
		c0.22,0.141,0.539,0.219,0.958,0.231c0.418,0.014,0.961-0.069,1.63-0.25c0.667-0.181,1.164-0.378,1.49-0.592
		c0.325-0.214,0.56-0.455,0.702-0.722c0.144-0.266,0.206-0.571,0.189-0.916c-0.011-0.259-0.112-0.744-0.305-1.455L15.804,96.603z"/>
	<path d="M12.25,109.712l8.063-3.879l0.783,1.629l-3.174,1.525l1.534,3.191l3.174-1.527l0.783,1.629l-8.063,3.877l-0.783-1.627
		l3.525-1.696l-1.534-3.19l-3.526,1.696L12.25,109.712z"/>
	<path d="M16.63,118.396l7.503-4.876l3.616,5.563l-1.271,0.825l-2.631-4.048l-1.663,1.08l2.448,3.767l-1.265,0.822l-2.447-3.767
		l-2.042,1.326l2.724,4.192l-1.264,0.821L16.63,118.396z"/>
	<path d="M21.688,125.917l6.813-5.799l2.465,2.895c0.62,0.729,1.009,1.31,1.168,1.743c0.158,0.435,0.165,0.884,0.021,1.349
		c-0.144,0.465-0.418,0.868-0.82,1.211c-0.511,0.436-1.061,0.645-1.65,0.627c-0.589-0.016-1.181-0.287-1.776-0.811
		c0.08,0.444,0.098,0.852,0.055,1.223s-0.189,0.945-0.439,1.725l-0.621,1.964l-1.4-1.646l0.637-2.256
		c0.229-0.805,0.356-1.331,0.385-1.578c0.026-0.248,0.003-0.467-0.069-0.655c-0.073-0.189-0.244-0.442-0.513-0.758l-0.238-0.278
		l-2.844,2.421L21.688,125.917z M26.791,123.946l0.866,1.018c0.562,0.66,0.94,1.049,1.136,1.165s0.4,0.163,0.616,0.14
		c0.216-0.022,0.426-0.121,0.63-0.295c0.229-0.195,0.362-0.414,0.399-0.656s-0.021-0.491-0.174-0.746
		c-0.079-0.124-0.356-0.466-0.831-1.023l-0.914-1.074L26.791,123.946z"/>
	<path d="M28.012,132.988l6.244-6.409l1.294,1.261l-6.244,6.409L28.012,132.988z"/>
	<path d="M32.432,137.048l4.728-5.736l-2.049-1.689l0.963-1.168l5.487,4.522l-0.963,1.168l-2.044-1.685l-4.728,5.736L32.432,137.048
		z"/>
	<path d="M43.324,144.808l-1.646-1.074l0.456-2.129l-2.995-1.956l-1.729,1.298l-1.604-1.047l7.81-5.588l1.601,1.045L43.324,144.808z
		 M42.474,140.024l0.782-3.454l-2.827,2.12L42.474,140.024z"/>
	<path d="M50.037,144.419l0.641-1.363l3.525,1.654l-1.516,3.227c-0.499,0.171-1.132,0.229-1.9,0.177s-1.486-0.236-2.152-0.55
		c-0.848-0.397-1.503-0.922-1.965-1.573c-0.463-0.651-0.698-1.382-0.704-2.192c-0.006-0.809,0.173-1.603,0.538-2.379
		c0.396-0.844,0.925-1.512,1.586-2c0.662-0.489,1.416-0.75,2.262-0.779c0.646-0.025,1.354,0.145,2.128,0.508
		c1.006,0.472,1.692,1.052,2.06,1.739c0.367,0.687,0.457,1.44,0.27,2.261l-1.768-0.459c0.073-0.451,0.007-0.867-0.2-1.244
		c-0.207-0.379-0.546-0.678-1.018-0.899c-0.714-0.335-1.389-0.376-2.023-0.12c-0.634,0.254-1.161,0.827-1.579,1.719
		c-0.451,0.961-0.577,1.782-0.376,2.463c0.202,0.682,0.648,1.185,1.342,1.511c0.342,0.16,0.717,0.255,1.124,0.282
		c0.408,0.027,0.78,0.003,1.117-0.073l0.482-1.027L50.037,144.419z"/>
	<path d="M54.441,149.884l2.704-8.529l6.323,2.006l-0.457,1.442l-4.603-1.459l-0.599,1.891l4.282,1.358l-0.456,1.437l-4.282-1.357
		l-0.735,2.321l4.765,1.511l-0.456,1.437L54.441,149.884z"/>
	<path d="M67.501,149.728l0.277-1.692l1.692,0.277l-0.277,1.692L67.501,149.728z"/>
	<path d="M74.985,154.206l0.155-8.946l2.899,0.051c1.098,0.019,1.813,0.076,2.146,0.171c0.51,0.144,0.935,0.443,1.274,0.898
		c0.337,0.455,0.5,1.039,0.487,1.751c-0.01,0.55-0.117,1.01-0.323,1.381c-0.205,0.37-0.464,0.66-0.775,0.868
		c-0.311,0.208-0.625,0.344-0.944,0.408c-0.433,0.078-1.059,0.109-1.876,0.096l-1.178-0.021l-0.059,3.375L74.985,154.206z
		 M76.921,146.805l-0.045,2.539l0.988,0.017c0.713,0.013,1.189-0.025,1.431-0.115c0.242-0.09,0.433-0.232,0.571-0.43
		c0.141-0.196,0.213-0.428,0.217-0.692c0.006-0.325-0.085-0.596-0.272-0.811s-0.428-0.351-0.719-0.409
		c-0.216-0.045-0.648-0.072-1.299-0.084L76.921,146.805z"/>
	<path d="M91.105,153.479l-1.956,0.193l-0.979-1.945l-3.56,0.354l-0.534,2.095l-1.907,0.19l2.585-9.249l1.9-0.188L91.105,153.479z
		 M87.444,150.284l-1.554-3.182l-0.875,3.423L87.444,150.284z"/>
	<path d="M93.698,152.878l-1.541-7.272l-2.598,0.55l-0.313-1.48l6.956-1.474l0.313,1.48l-2.591,0.549l1.541,7.273L93.698,152.878z"
		/>
	<path d="M99.851,151.459L96.935,143l3.595-1.239c0.903-0.313,1.586-0.463,2.049-0.451c0.461,0.01,0.883,0.167,1.262,0.471
		c0.381,0.304,0.657,0.706,0.829,1.206c0.22,0.634,0.214,1.223-0.017,1.765s-0.699,0.995-1.403,1.359
		c0.442,0.088,0.83,0.22,1.158,0.395c0.33,0.174,0.812,0.521,1.446,1.037l1.602,1.295l-2.043,0.704l-1.869-1.415
		c-0.665-0.507-1.108-0.818-1.328-0.933c-0.221-0.116-0.433-0.174-0.635-0.175c-0.203-0.002-0.501,0.065-0.893,0.2l-0.347,0.12
		l1.218,3.531L99.851,151.459z M99.875,145.988l1.264-0.436c0.819-0.282,1.318-0.493,1.499-0.634
		c0.181-0.139,0.298-0.313,0.355-0.522s0.042-0.44-0.046-0.694c-0.098-0.284-0.254-0.488-0.465-0.611
		c-0.213-0.122-0.465-0.158-0.759-0.109c-0.145,0.029-0.563,0.162-1.256,0.4l-1.333,0.46L99.875,145.988z"/>
	<path d="M108.747,148.146l-3.686-8.154l1.647-0.743l3.684,8.152L108.747,148.146z"/>
	<path d="M112.473,146.525l-4.496-7.735l2.337-1.359l4.472,4.461l-1.68-6.084l2.343-1.361l4.497,7.734l-1.451,0.844l-3.54-6.089
		l2.005,6.982l-1.505,0.874l-5.07-5.199l3.541,6.09L112.473,146.525z"/>
	<path d="M119.071,137.439c-0.57-0.711-0.942-1.394-1.116-2.046c-0.127-0.483-0.167-0.976-0.118-1.479
		c0.048-0.503,0.181-0.953,0.397-1.353c0.288-0.532,0.715-1.026,1.283-1.482c1.028-0.825,2.107-1.167,3.236-1.023
		c1.129,0.143,2.149,0.782,3.061,1.919c0.903,1.126,1.305,2.254,1.203,3.381c-0.103,1.128-0.666,2.104-1.691,2.926
		c-1.037,0.833-2.117,1.178-3.237,1.036S119.962,138.55,119.071,137.439z M120.484,136.227c0.635,0.79,1.298,1.243,1.99,1.358
		c0.691,0.115,1.319-0.053,1.881-0.504c0.562-0.45,0.86-1.021,0.896-1.716c0.035-0.694-0.271-1.445-0.921-2.255
		c-0.641-0.8-1.296-1.256-1.962-1.368c-0.667-0.112-1.291,0.065-1.871,0.53c-0.58,0.467-0.89,1.041-0.926,1.725
		C119.537,134.681,119.841,135.424,120.484,136.227z"/>
	<path d="M129.901,134.081l-6.255-6.399l1.292-1.263l6.254,6.398L129.901,134.081z"/>
	<path d="M132.835,131.237l-6.825-5.785l1.137-1.342l6.926,1.07l-4.558-3.863l1.085-1.281l6.826,5.787l-1.173,1.383l-6.783-1.022
		l4.451,3.774L132.835,131.237z"/>
	<path d="M138.981,123.697l-7.518-4.854l3.599-5.573l1.271,0.82l-2.617,4.057l1.666,1.076l2.436-3.774l1.267,0.817l-2.437,3.774
		l2.046,1.32l2.712-4.199l1.267,0.818L138.981,123.697z"/>
	<path d="M145.51,112.631l-8.289-3.369l1.018-2.505l6.267,0.795l-5.05-3.786l1.021-2.51l8.289,3.369l-0.632,1.555l-6.525-2.652
		l5.855,4.298l-0.654,1.611l-7.191-1.012l6.525,2.651L145.51,112.631z"/>
	<path d="M145.154,101.41c-0.885-0.212-1.598-0.523-2.136-0.933c-0.396-0.305-0.729-0.67-0.999-1.096
		c-0.27-0.427-0.441-0.865-0.514-1.313c-0.1-0.597-0.065-1.249,0.104-1.958c0.308-1.281,0.951-2.213,1.932-2.792
		c0.979-0.578,2.177-0.698,3.594-0.359c1.404,0.337,2.411,0.983,3.022,1.937c0.61,0.954,0.763,2.069,0.456,3.348
		c-0.31,1.294-0.951,2.229-1.923,2.803C147.719,101.62,146.54,101.741,145.154,101.41z M145.529,99.585
		c0.984,0.236,1.786,0.188,2.404-0.145c0.617-0.334,1.01-0.852,1.178-1.552s0.053-1.335-0.344-1.904
		c-0.396-0.571-1.1-0.978-2.108-1.218c-0.997-0.24-1.794-0.2-2.389,0.12c-0.597,0.319-0.98,0.842-1.153,1.566
		c-0.175,0.724-0.065,1.367,0.324,1.929C143.832,98.944,144.528,99.346,145.529,99.585z"/>
	<path d="M151.784,91.821l-8.907-0.853l0.168-1.75l6.297-3.075l-5.947-0.571l0.16-1.67l8.906,0.853l-0.172,1.805l-6.153,3.035
		l5.809,0.556L151.784,91.821z"/>
	<path d="M143.602,82.433l-0.131-3.3c-0.029-0.744,0.004-1.313,0.103-1.708c0.135-0.531,0.391-0.991,0.77-1.38
		c0.38-0.39,0.852-0.693,1.414-0.912c0.564-0.218,1.265-0.343,2.103-0.377c0.735-0.028,1.374,0.038,1.913,0.199
		c0.66,0.198,1.199,0.497,1.617,0.895c0.317,0.301,0.573,0.715,0.765,1.24c0.143,0.394,0.227,0.924,0.252,1.591l0.137,3.396
		L143.602,82.433z M145.042,80.567l5.923-0.236l-0.055-1.348c-0.02-0.504-0.063-0.867-0.129-1.088
		c-0.085-0.291-0.218-0.528-0.4-0.715c-0.183-0.187-0.477-0.332-0.882-0.438c-0.405-0.106-0.953-0.146-1.645-0.118
		c-0.691,0.027-1.22,0.109-1.585,0.246c-0.365,0.137-0.646,0.32-0.846,0.546c-0.198,0.229-0.328,0.513-0.387,0.853
		c-0.048,0.254-0.057,0.75-0.027,1.485L145.042,80.567z"/>
	<path d="M151.93,72.6l-8.868,1.188l-0.239-1.791l8.869-1.187L151.93,72.6z"/>
	<path d="M149.607,60.726l0.44,1.916l-1.807,1.216l0.802,3.486l2.146,0.265l0.428,1.868l-9.5-1.394l-0.428-1.862L149.607,60.726z
		 M146.902,64.76l-2.961,1.944l3.508,0.435L146.902,64.76z"/>
	<path d="M149.025,59.103l-8.339,3.036l-0.618-1.697l6.922-2.521l-1.536-4.221l1.417-0.515L149.025,59.103z"/>
</g>
</svg>
